%TF.GenerationSoftware,KiCad,Pcbnew,(6.0.7)*%
%TF.CreationDate,2022-09-21T21:45:15+01:00*%
%TF.ProjectId,digital_volume,64696769-7461-46c5-9f76-6f6c756d652e,rev?*%
%TF.SameCoordinates,Original*%
%TF.FileFunction,Copper,L2,Bot*%
%TF.FilePolarity,Positive*%
%FSLAX46Y46*%
G04 Gerber Fmt 4.6, Leading zero omitted, Abs format (unit mm)*
G04 Created by KiCad (PCBNEW (6.0.7)) date 2022-09-21 21:45:15*
%MOMM*%
%LPD*%
G01*
G04 APERTURE LIST*
G04 Aperture macros list*
%AMRoundRect*
0 Rectangle with rounded corners*
0 $1 Rounding radius*
0 $2 $3 $4 $5 $6 $7 $8 $9 X,Y pos of 4 corners*
0 Add a 4 corners polygon primitive as box body*
4,1,4,$2,$3,$4,$5,$6,$7,$8,$9,$2,$3,0*
0 Add four circle primitives for the rounded corners*
1,1,$1+$1,$2,$3*
1,1,$1+$1,$4,$5*
1,1,$1+$1,$6,$7*
1,1,$1+$1,$8,$9*
0 Add four rect primitives between the rounded corners*
20,1,$1+$1,$2,$3,$4,$5,0*
20,1,$1+$1,$4,$5,$6,$7,0*
20,1,$1+$1,$6,$7,$8,$9,0*
20,1,$1+$1,$8,$9,$2,$3,0*%
G04 Aperture macros list end*
%TA.AperFunction,ComponentPad*%
%ADD10RoundRect,0.250000X-0.600000X-0.725000X0.600000X-0.725000X0.600000X0.725000X-0.600000X0.725000X0*%
%TD*%
%TA.AperFunction,ComponentPad*%
%ADD11O,1.700000X1.950000*%
%TD*%
%TA.AperFunction,ComponentPad*%
%ADD12O,2.000000X1.700000*%
%TD*%
%TA.AperFunction,ComponentPad*%
%ADD13RoundRect,0.250000X-0.750000X0.600000X-0.750000X-0.600000X0.750000X-0.600000X0.750000X0.600000X0*%
%TD*%
%TA.AperFunction,ComponentPad*%
%ADD14RoundRect,0.250000X0.750000X-0.600000X0.750000X0.600000X-0.750000X0.600000X-0.750000X-0.600000X0*%
%TD*%
%TA.AperFunction,ComponentPad*%
%ADD15RoundRect,0.250000X-0.600000X-0.750000X0.600000X-0.750000X0.600000X0.750000X-0.600000X0.750000X0*%
%TD*%
%TA.AperFunction,ComponentPad*%
%ADD16O,1.700000X2.000000*%
%TD*%
%TA.AperFunction,SMDPad,CuDef*%
%ADD17R,1.000000X1.000000*%
%TD*%
%TA.AperFunction,ViaPad*%
%ADD18C,0.800000*%
%TD*%
%TA.AperFunction,Conductor*%
%ADD19C,0.500000*%
%TD*%
%TA.AperFunction,Conductor*%
%ADD20C,0.250000*%
%TD*%
G04 APERTURE END LIST*
D10*
%TO.P,J2,1,Pin_1*%
%TO.N,RX*%
X133200000Y-114400000D03*
D11*
%TO.P,J2,2,Pin_2*%
%TO.N,TX*%
X135700000Y-114400000D03*
%TO.P,J2,3,Pin_3*%
%TO.N,PWR_GND*%
X138200000Y-114400000D03*
%TD*%
D12*
%TO.P,J8,2,Pin_2*%
%TO.N,PWR_GND*%
X103700000Y-91150000D03*
D13*
%TO.P,J8,1,Pin_1*%
%TO.N,LEFT_IN*%
X103700000Y-88650000D03*
%TD*%
D12*
%TO.P,J7,2,Pin_2*%
%TO.N,PWR_GND*%
X103700000Y-104150000D03*
D13*
%TO.P,J7,1,Pin_1*%
%TO.N,RIGHT_IN*%
X103700000Y-101650000D03*
%TD*%
D14*
%TO.P,J6,1,Pin_1*%
%TO.N,VOL_LEFT_OUT*%
X177450000Y-91650000D03*
D12*
%TO.P,J6,2,Pin_2*%
%TO.N,PWR_GND*%
X177450000Y-89150000D03*
%TD*%
D14*
%TO.P,J5,1,Pin_1*%
%TO.N,VOL_RIGHT_OUT*%
X177450000Y-104650000D03*
D12*
%TO.P,J5,2,Pin_2*%
%TO.N,PWR_GND*%
X177450000Y-102150000D03*
%TD*%
D15*
%TO.P,J4,1,Pin_1*%
%TO.N,PWR_5V*%
X112450000Y-114350000D03*
D16*
%TO.P,J4,2,Pin_2*%
%TO.N,PWR_GND*%
X114950000Y-114350000D03*
%TD*%
D17*
%TO.P,TP5,1,1*%
%TO.N,PWR_GND*%
X156360000Y-96040000D03*
%TD*%
%TO.P,TP4,1,1*%
%TO.N,~{RST}*%
X153820000Y-96040000D03*
%TD*%
%TO.P,TP3,1,1*%
%TO.N,ICECLK*%
X151280000Y-96040000D03*
%TD*%
%TO.P,TP2,1,1*%
%TO.N,ICEDAT*%
X148740000Y-96040000D03*
%TD*%
%TO.P,TP1,1,1*%
%TO.N,+5V*%
X146200000Y-96040000D03*
%TD*%
D10*
%TO.P,J3,1,Pin_1*%
%TO.N,+5V*%
X160200000Y-114400000D03*
D11*
%TO.P,J3,2,Pin_2*%
%TO.N,ENC_BTN*%
X162700000Y-114400000D03*
%TO.P,J3,3,Pin_3*%
%TO.N,ENC_B*%
X165200000Y-114400000D03*
%TO.P,J3,4,Pin_4*%
%TO.N,ENC_A*%
X167700000Y-114400000D03*
%TO.P,J3,5,Pin_5*%
%TO.N,PWR_GND*%
X170200000Y-114400000D03*
%TD*%
D10*
%TO.P,J1,1,Pin_1*%
%TO.N,+5V*%
X146450000Y-114400000D03*
D11*
%TO.P,J1,2,Pin_2*%
%TO.N,IR_IN*%
X148950000Y-114400000D03*
%TO.P,J1,3,Pin_3*%
%TO.N,PWR_GND*%
X151450000Y-114400000D03*
%TD*%
D18*
%TO.N,PWR_GND*%
X117250000Y-110950000D03*
X119650000Y-110950000D03*
X122250000Y-110050000D03*
%TO.N,+5V*%
X123086036Y-102246928D03*
%TO.N,/volume/RIGHT_VOL_OUT*%
X135200000Y-96300000D03*
X114800000Y-104200000D03*
%TO.N,PWR_GND*%
X136600000Y-96100000D03*
X135700000Y-87200000D03*
%TO.N,/volume/LEFT_VOL_OUT*%
X135900000Y-91200000D03*
X114900000Y-91500000D03*
%TO.N,PWR_GND*%
X124800000Y-109300000D03*
X123200000Y-109300000D03*
%TO.N,+5V*%
X113200000Y-99300000D03*
%TO.N,PWR_GND*%
X115800000Y-96300000D03*
%TO.N,+5V*%
X113100000Y-97300000D03*
X112900000Y-86500000D03*
%TO.N,PWR_GND*%
X118400000Y-83600000D03*
X153900000Y-99300000D03*
X161500000Y-105700000D03*
X156200000Y-107400000D03*
%TO.N,+5V*%
X145400000Y-104600000D03*
%TO.N,ICEDAT*%
X149800000Y-97700000D03*
%TO.N,+5V*%
X148200000Y-99000000D03*
%TO.N,ICECLK*%
X150100000Y-101000000D03*
%TO.N,+5V*%
X160350000Y-111250000D03*
X146950000Y-111400000D03*
%TO.N,~{RST}*%
X157450000Y-105650000D03*
X151700000Y-104150000D03*
%TO.N,+5V*%
X151200000Y-101150000D03*
X145450000Y-101900000D03*
X139350000Y-103050000D03*
X139450000Y-98900000D03*
%TO.N,PWR_GND*%
X151700000Y-102900000D03*
X156200000Y-104150000D03*
%TO.N,ENC_A*%
X159200000Y-102900000D03*
X163712299Y-102887701D03*
%TO.N,ENC_B*%
X158937701Y-101662299D03*
X161450000Y-101650000D03*
%TO.N,VOL_UD*%
X123174500Y-99400000D03*
X121700000Y-99400000D03*
X119450000Y-98400000D03*
X117200000Y-97900000D03*
%TO.N,PWR_GND*%
X113950000Y-110150000D03*
%TD*%
D19*
%TO.N,/volume/LEFT_VOL_OUT*%
X135600000Y-91500000D02*
X135900000Y-91200000D01*
X114900000Y-91500000D02*
X135600000Y-91500000D01*
%TO.N,/volume/RIGHT_VOL_OUT*%
X130335046Y-96200000D02*
X135100000Y-96200000D01*
X122335046Y-104200000D02*
X130335046Y-96200000D01*
X114800000Y-104200000D02*
X122335046Y-104200000D01*
X135100000Y-96200000D02*
X135200000Y-96300000D01*
D20*
%TO.N,+5V*%
X116146928Y-102246928D02*
X123086036Y-102246928D01*
X113200000Y-99300000D02*
X116146928Y-102246928D01*
X112900000Y-97100000D02*
X113100000Y-97300000D01*
X112900000Y-86500000D02*
X112900000Y-97100000D01*
X145400000Y-110000000D02*
X146800000Y-111400000D01*
X146800000Y-111400000D02*
X146950000Y-111400000D01*
X145400000Y-104600000D02*
X145400000Y-110000000D01*
%TO.N,ICEDAT*%
X148740000Y-96040000D02*
X148740000Y-96640000D01*
X148740000Y-96640000D02*
X149800000Y-97700000D01*
%TO.N,+5V*%
X148200000Y-99000000D02*
X146200000Y-97000000D01*
X146200000Y-97000000D02*
X146200000Y-96040000D01*
%TO.N,ICECLK*%
X150200000Y-101100000D02*
X150100000Y-101000000D01*
X151280000Y-100020000D02*
X150200000Y-101100000D01*
X151280000Y-96040000D02*
X151280000Y-100020000D01*
%TO.N,~{RST}*%
X157450000Y-101050000D02*
X157450000Y-105650000D01*
X153820000Y-96040000D02*
X153820000Y-97420000D01*
X153820000Y-97420000D02*
X157450000Y-101050000D01*
%TO.N,+5V*%
X160200000Y-111400000D02*
X160350000Y-111250000D01*
X146950000Y-111400000D02*
X160200000Y-111400000D01*
%TO.N,~{RST}*%
X151700000Y-104150000D02*
X153200000Y-105650000D01*
X153200000Y-105650000D02*
X157450000Y-105650000D01*
%TO.N,+5V*%
X145450000Y-101900000D02*
X150450000Y-101900000D01*
X150450000Y-101900000D02*
X151200000Y-101150000D01*
X139450000Y-102950000D02*
X139350000Y-103050000D01*
X139450000Y-98900000D02*
X139450000Y-102950000D01*
%TO.N,PWR_GND*%
X154950000Y-102900000D02*
X151700000Y-102900000D01*
X156200000Y-104150000D02*
X154950000Y-102900000D01*
%TO.N,ENC_A*%
X163712299Y-102887701D02*
X163700000Y-102900000D01*
X163700000Y-102900000D02*
X159200000Y-102900000D01*
%TO.N,ENC_B*%
X161450000Y-101650000D02*
X158950000Y-101650000D01*
X158950000Y-101650000D02*
X158937701Y-101662299D01*
%TO.N,VOL_UD*%
X123174500Y-99400000D02*
X121700000Y-99400000D01*
X117200000Y-97900000D02*
X118950000Y-97900000D01*
X118950000Y-97900000D02*
X119450000Y-98400000D01*
%TD*%
%TA.AperFunction,Conductor*%
%TO.N,PWR_GND*%
G36*
X173242121Y-78020502D02*
G01*
X173288614Y-78074158D01*
X173300000Y-78126500D01*
X173300000Y-84500000D01*
X179973500Y-84500000D01*
X180041621Y-84520002D01*
X180088114Y-84573658D01*
X180099500Y-84626000D01*
X180099500Y-110074000D01*
X180079498Y-110142121D01*
X180025842Y-110188614D01*
X179973500Y-110200000D01*
X173850691Y-110200000D01*
X173782570Y-110179998D01*
X173763432Y-110164895D01*
X173279167Y-109700000D01*
X170515130Y-107046524D01*
X168720382Y-105323566D01*
X175849500Y-105323566D01*
X175852400Y-105366107D01*
X175897105Y-105545408D01*
X175900136Y-105551515D01*
X175900138Y-105551519D01*
X175938187Y-105628167D01*
X175979269Y-105710926D01*
X176095060Y-105854940D01*
X176239074Y-105970731D01*
X176321833Y-106011813D01*
X176398481Y-106049862D01*
X176398485Y-106049864D01*
X176404592Y-106052895D01*
X176411214Y-106054546D01*
X176578497Y-106096255D01*
X176578501Y-106096256D01*
X176583893Y-106097600D01*
X176600706Y-106098746D01*
X176624286Y-106100354D01*
X176624299Y-106100354D01*
X176626434Y-106100500D01*
X178273566Y-106100500D01*
X178275701Y-106100354D01*
X178275714Y-106100354D01*
X178299294Y-106098746D01*
X178316107Y-106097600D01*
X178321499Y-106096256D01*
X178321503Y-106096255D01*
X178488786Y-106054546D01*
X178495408Y-106052895D01*
X178501515Y-106049864D01*
X178501519Y-106049862D01*
X178578167Y-106011813D01*
X178660926Y-105970731D01*
X178804940Y-105854940D01*
X178920731Y-105710926D01*
X178961813Y-105628167D01*
X178999862Y-105551519D01*
X178999864Y-105551515D01*
X179002895Y-105545408D01*
X179047600Y-105366107D01*
X179050500Y-105323566D01*
X179050500Y-103976434D01*
X179047600Y-103933893D01*
X179040427Y-103905121D01*
X179004546Y-103761214D01*
X179002895Y-103754592D01*
X178999864Y-103748485D01*
X178999862Y-103748481D01*
X178942280Y-103632484D01*
X178920731Y-103589074D01*
X178804940Y-103445060D01*
X178660926Y-103329269D01*
X178605117Y-103301565D01*
X178552994Y-103253359D01*
X178535207Y-103184627D01*
X178557403Y-103117189D01*
X178574169Y-103097536D01*
X178616900Y-103056772D01*
X178623941Y-103048814D01*
X178755141Y-102872475D01*
X178760745Y-102863438D01*
X178860357Y-102667516D01*
X178864357Y-102657665D01*
X178929534Y-102447760D01*
X178931817Y-102437376D01*
X178933861Y-102421957D01*
X178931665Y-102407793D01*
X178918478Y-102404000D01*
X175983808Y-102404000D01*
X175970277Y-102407973D01*
X175968752Y-102418580D01*
X175993477Y-102536421D01*
X175996537Y-102546617D01*
X176077263Y-102751029D01*
X176081994Y-102760561D01*
X176196016Y-102948462D01*
X176202280Y-102957052D01*
X176332357Y-103106953D01*
X176361896Y-103171513D01*
X176351842Y-103241794D01*
X176305387Y-103295482D01*
X176293215Y-103302393D01*
X176239074Y-103329269D01*
X176095060Y-103445060D01*
X175979269Y-103589074D01*
X175957720Y-103632484D01*
X175900138Y-103748481D01*
X175900136Y-103748485D01*
X175897105Y-103754592D01*
X175895454Y-103761214D01*
X175859574Y-103905121D01*
X175852400Y-103933893D01*
X175849500Y-103976434D01*
X175849500Y-105323566D01*
X168720382Y-105323566D01*
X166338741Y-103037191D01*
X166303452Y-102975586D01*
X166300000Y-102946296D01*
X166300000Y-101878043D01*
X175966139Y-101878043D01*
X175968335Y-101892207D01*
X175981522Y-101896000D01*
X177177885Y-101896000D01*
X177193124Y-101891525D01*
X177194329Y-101890135D01*
X177196000Y-101882452D01*
X177196000Y-101877885D01*
X177704000Y-101877885D01*
X177708475Y-101893124D01*
X177709865Y-101894329D01*
X177717548Y-101896000D01*
X178916192Y-101896000D01*
X178929723Y-101892027D01*
X178931248Y-101881420D01*
X178906523Y-101763579D01*
X178903463Y-101753383D01*
X178822737Y-101548971D01*
X178818006Y-101539439D01*
X178703984Y-101351538D01*
X178697720Y-101342948D01*
X178553673Y-101176948D01*
X178546042Y-101169528D01*
X178376089Y-101030174D01*
X178367322Y-101024150D01*
X178176318Y-100915424D01*
X178166654Y-100910959D01*
X177960059Y-100835969D01*
X177949792Y-100833198D01*
X177732345Y-100793877D01*
X177724116Y-100792944D01*
X177719624Y-100792732D01*
X177706876Y-100796475D01*
X177705671Y-100797865D01*
X177704000Y-100805548D01*
X177704000Y-101877885D01*
X177196000Y-101877885D01*
X177196000Y-100814030D01*
X177191690Y-100799352D01*
X177179807Y-100797289D01*
X177075675Y-100806124D01*
X177065203Y-100807914D01*
X176852465Y-100863130D01*
X176842425Y-100866665D01*
X176642030Y-100956937D01*
X176632744Y-100962106D01*
X176450425Y-101084850D01*
X176442130Y-101091519D01*
X176283100Y-101243228D01*
X176276059Y-101251186D01*
X176144859Y-101427525D01*
X176139255Y-101436562D01*
X176039643Y-101632484D01*
X176035643Y-101642335D01*
X175970466Y-101852240D01*
X175968183Y-101862624D01*
X175966139Y-101878043D01*
X166300000Y-101878043D01*
X166300000Y-93400000D01*
X141700000Y-93400000D01*
X141700000Y-97874000D01*
X141679998Y-97942121D01*
X141626342Y-97988614D01*
X141574000Y-98000000D01*
X139921008Y-98000000D01*
X139861081Y-97984836D01*
X139839585Y-97973213D01*
X139734171Y-97940582D01*
X139658039Y-97917015D01*
X139658036Y-97917014D01*
X139652152Y-97915193D01*
X139646027Y-97914549D01*
X139646026Y-97914549D01*
X139463147Y-97895327D01*
X139463146Y-97895327D01*
X139457019Y-97894683D01*
X139334383Y-97905844D01*
X139267759Y-97911907D01*
X139267758Y-97911907D01*
X139261618Y-97912466D01*
X139255704Y-97914207D01*
X139255702Y-97914207D01*
X139179848Y-97936532D01*
X139073393Y-97967864D01*
X139057555Y-97976144D01*
X139039351Y-97985661D01*
X138980975Y-98000000D01*
X132800000Y-98000000D01*
X132800000Y-111474000D01*
X132779998Y-111542121D01*
X132726342Y-111588614D01*
X132674000Y-111600000D01*
X121726000Y-111600000D01*
X121657879Y-111579998D01*
X121611386Y-111526342D01*
X121600000Y-111474000D01*
X121600000Y-106400000D01*
X116347121Y-106400000D01*
X116279000Y-106379998D01*
X116264443Y-106369080D01*
X115101168Y-105357537D01*
X115062888Y-105297744D01*
X115063012Y-105226748D01*
X115101500Y-105167089D01*
X115149958Y-105141100D01*
X115157612Y-105138963D01*
X115157615Y-105138962D01*
X115163556Y-105137303D01*
X115308605Y-105064033D01*
X115365414Y-105050500D01*
X122293984Y-105050500D01*
X122304525Y-105050942D01*
X122355948Y-105055260D01*
X122362708Y-105054358D01*
X122362712Y-105054358D01*
X122435705Y-105044619D01*
X122438759Y-105044249D01*
X122511974Y-105036295D01*
X122511977Y-105036294D01*
X122518755Y-105035558D01*
X122525215Y-105033384D01*
X122528263Y-105032714D01*
X122528724Y-105032633D01*
X122528875Y-105032597D01*
X122529334Y-105032464D01*
X122532353Y-105031722D01*
X122539115Y-105030820D01*
X122545525Y-105028487D01*
X122545529Y-105028486D01*
X122614717Y-105003303D01*
X122617623Y-105002285D01*
X122687423Y-104978795D01*
X122687425Y-104978794D01*
X122693894Y-104976617D01*
X122699748Y-104973100D01*
X122702560Y-104971800D01*
X122703003Y-104971618D01*
X122703162Y-104971542D01*
X122703580Y-104971314D01*
X122706349Y-104969951D01*
X122712761Y-104967618D01*
X122718519Y-104963964D01*
X122718525Y-104963961D01*
X122780690Y-104924510D01*
X122783309Y-104922892D01*
X122846439Y-104884959D01*
X122846441Y-104884958D01*
X122852290Y-104881443D01*
X122857249Y-104876754D01*
X122859728Y-104874872D01*
X122860505Y-104874332D01*
X122864415Y-104871375D01*
X122868784Y-104868602D01*
X122873018Y-104864817D01*
X122926524Y-104811311D01*
X122929046Y-104808858D01*
X122981595Y-104759165D01*
X122981597Y-104759163D01*
X122986553Y-104754476D01*
X122990387Y-104748834D01*
X122994813Y-104743634D01*
X122995217Y-104743978D01*
X123001753Y-104736082D01*
X130650430Y-97087405D01*
X130712742Y-97053379D01*
X130739525Y-97050500D01*
X134491713Y-97050500D01*
X134559834Y-97070502D01*
X134573376Y-97080546D01*
X134592207Y-97096572D01*
X134626238Y-97125535D01*
X134631616Y-97128541D01*
X134631618Y-97128542D01*
X134662113Y-97145585D01*
X134797513Y-97221257D01*
X134984118Y-97281889D01*
X135178946Y-97305121D01*
X135185081Y-97304649D01*
X135185083Y-97304649D01*
X135368434Y-97290541D01*
X135368438Y-97290540D01*
X135374576Y-97290068D01*
X135563556Y-97237303D01*
X135738689Y-97148837D01*
X135768515Y-97125535D01*
X135888453Y-97031829D01*
X135893303Y-97028040D01*
X135944885Y-96968282D01*
X136017485Y-96884173D01*
X136017485Y-96884172D01*
X136021509Y-96879511D01*
X136118425Y-96708909D01*
X136180358Y-96522732D01*
X136204949Y-96328071D01*
X136205341Y-96300000D01*
X136186194Y-96104728D01*
X136184413Y-96098829D01*
X136184412Y-96098824D01*
X136131265Y-95922793D01*
X136129484Y-95916894D01*
X136037370Y-95743653D01*
X135913361Y-95591602D01*
X135762180Y-95466535D01*
X135589585Y-95373213D01*
X135495869Y-95344203D01*
X135408039Y-95317015D01*
X135408036Y-95317014D01*
X135402152Y-95315193D01*
X135396027Y-95314549D01*
X135396026Y-95314549D01*
X135213147Y-95295327D01*
X135213146Y-95295327D01*
X135207019Y-95294683D01*
X135125461Y-95302105D01*
X135017757Y-95311907D01*
X135017754Y-95311908D01*
X135011618Y-95312466D01*
X135005709Y-95314205D01*
X135005699Y-95314207D01*
X134903205Y-95344373D01*
X134867630Y-95349500D01*
X130376096Y-95349500D01*
X130365555Y-95349058D01*
X130314144Y-95344741D01*
X130307384Y-95345643D01*
X130307380Y-95345643D01*
X130234409Y-95355379D01*
X130231354Y-95355749D01*
X130158119Y-95363705D01*
X130158117Y-95363705D01*
X130151337Y-95364442D01*
X130144876Y-95366616D01*
X130141829Y-95367286D01*
X130141368Y-95367367D01*
X130141217Y-95367403D01*
X130140758Y-95367536D01*
X130137739Y-95368278D01*
X130130977Y-95369180D01*
X130124565Y-95371514D01*
X130124560Y-95371515D01*
X130055357Y-95396703D01*
X130052452Y-95397721D01*
X129976198Y-95423383D01*
X129970351Y-95426896D01*
X129967541Y-95428195D01*
X129967104Y-95428375D01*
X129966934Y-95428456D01*
X129966523Y-95428680D01*
X129963741Y-95430049D01*
X129957330Y-95432382D01*
X129951570Y-95436038D01*
X129951569Y-95436038D01*
X129889360Y-95475518D01*
X129886742Y-95477134D01*
X129817802Y-95518557D01*
X129812846Y-95523244D01*
X129810363Y-95525128D01*
X129809575Y-95525675D01*
X129805671Y-95528629D01*
X129801307Y-95531398D01*
X129797074Y-95535184D01*
X129743586Y-95588672D01*
X129741065Y-95591125D01*
X129683539Y-95645524D01*
X129679705Y-95651165D01*
X129675279Y-95656366D01*
X129674874Y-95656022D01*
X129668337Y-95663921D01*
X123877365Y-101454893D01*
X123815053Y-101488919D01*
X123744238Y-101483854D01*
X123707955Y-101462883D01*
X123665214Y-101427525D01*
X123648216Y-101413463D01*
X123475621Y-101320141D01*
X123381905Y-101291131D01*
X123294075Y-101263943D01*
X123294072Y-101263942D01*
X123288188Y-101262121D01*
X123282063Y-101261477D01*
X123282062Y-101261477D01*
X123099183Y-101242255D01*
X123099182Y-101242255D01*
X123093055Y-101241611D01*
X122987844Y-101251186D01*
X122903795Y-101258835D01*
X122903794Y-101258835D01*
X122897654Y-101259394D01*
X122891740Y-101261135D01*
X122891738Y-101261135D01*
X122872171Y-101266894D01*
X122709429Y-101314792D01*
X122703964Y-101317649D01*
X122541008Y-101402840D01*
X122541004Y-101402843D01*
X122535548Y-101405695D01*
X122530748Y-101409555D01*
X122530747Y-101409555D01*
X122426185Y-101493625D01*
X122360563Y-101520721D01*
X122347233Y-101521428D01*
X116499629Y-101521428D01*
X116431508Y-101501426D01*
X116410534Y-101484523D01*
X114234996Y-99308984D01*
X114200970Y-99246672D01*
X114198692Y-99232185D01*
X114188851Y-99131829D01*
X114186194Y-99104728D01*
X114184413Y-99098829D01*
X114184412Y-99098824D01*
X114131265Y-98922793D01*
X114129484Y-98916894D01*
X114037370Y-98743653D01*
X113913361Y-98591602D01*
X113762180Y-98466535D01*
X113694147Y-98429749D01*
X113610769Y-98384667D01*
X113560360Y-98334672D01*
X113544983Y-98265361D01*
X113569519Y-98198739D01*
X113613888Y-98161365D01*
X113624821Y-98155842D01*
X113633196Y-98151612D01*
X113633198Y-98151611D01*
X113638689Y-98148837D01*
X113668515Y-98125535D01*
X113788453Y-98031829D01*
X113793303Y-98028040D01*
X113807622Y-98011452D01*
X113915940Y-97885963D01*
X116194757Y-97885963D01*
X116211175Y-98081483D01*
X116265258Y-98270091D01*
X116268076Y-98275574D01*
X116352123Y-98439113D01*
X116352126Y-98439117D01*
X116354944Y-98444601D01*
X116476818Y-98598369D01*
X116481511Y-98602363D01*
X116481512Y-98602364D01*
X116602252Y-98705121D01*
X116626238Y-98725535D01*
X116631616Y-98728541D01*
X116631618Y-98728542D01*
X116667932Y-98748837D01*
X116797513Y-98821257D01*
X116984118Y-98881889D01*
X117178946Y-98905121D01*
X117185081Y-98904649D01*
X117185083Y-98904649D01*
X117368434Y-98890541D01*
X117368438Y-98890540D01*
X117374576Y-98890068D01*
X117563556Y-98837303D01*
X117738689Y-98748837D01*
X117862366Y-98652210D01*
X117928362Y-98626033D01*
X117939940Y-98625500D01*
X118378849Y-98625500D01*
X118446970Y-98645502D01*
X118493463Y-98699158D01*
X118499968Y-98716769D01*
X118508077Y-98745047D01*
X118515258Y-98770091D01*
X118518076Y-98775573D01*
X118518077Y-98775577D01*
X118602123Y-98939113D01*
X118602126Y-98939117D01*
X118604944Y-98944601D01*
X118726818Y-99098369D01*
X118731511Y-99102363D01*
X118731512Y-99102364D01*
X118844853Y-99198824D01*
X118876238Y-99225535D01*
X118881616Y-99228541D01*
X118881618Y-99228542D01*
X118914058Y-99246672D01*
X119047513Y-99321257D01*
X119234118Y-99381889D01*
X119428946Y-99405121D01*
X119435081Y-99404649D01*
X119435083Y-99404649D01*
X119618434Y-99390541D01*
X119618438Y-99390540D01*
X119624576Y-99390068D01*
X119639278Y-99385963D01*
X120694757Y-99385963D01*
X120711175Y-99581483D01*
X120765258Y-99770091D01*
X120768076Y-99775574D01*
X120852123Y-99939113D01*
X120852126Y-99939117D01*
X120854944Y-99944601D01*
X120976818Y-100098369D01*
X120981511Y-100102363D01*
X120981512Y-100102364D01*
X121047786Y-100158767D01*
X121126238Y-100225535D01*
X121131616Y-100228541D01*
X121131618Y-100228542D01*
X121161879Y-100245454D01*
X121297513Y-100321257D01*
X121484118Y-100381889D01*
X121678946Y-100405121D01*
X121685081Y-100404649D01*
X121685083Y-100404649D01*
X121868434Y-100390541D01*
X121868438Y-100390540D01*
X121874576Y-100390068D01*
X122063556Y-100337303D01*
X122238689Y-100248837D01*
X122268515Y-100225535D01*
X122360750Y-100153473D01*
X122426744Y-100127296D01*
X122496415Y-100140954D01*
X122519983Y-100156807D01*
X122600738Y-100225535D01*
X122606116Y-100228541D01*
X122606118Y-100228542D01*
X122636379Y-100245454D01*
X122772013Y-100321257D01*
X122958618Y-100381889D01*
X123153446Y-100405121D01*
X123159581Y-100404649D01*
X123159583Y-100404649D01*
X123342934Y-100390541D01*
X123342938Y-100390540D01*
X123349076Y-100390068D01*
X123538056Y-100337303D01*
X123713189Y-100248837D01*
X123743015Y-100225535D01*
X123862953Y-100131829D01*
X123867803Y-100128040D01*
X123883131Y-100110283D01*
X123991985Y-99984173D01*
X123991985Y-99984172D01*
X123996009Y-99979511D01*
X124092925Y-99808909D01*
X124154858Y-99622732D01*
X124179449Y-99428071D01*
X124179717Y-99408909D01*
X124179792Y-99403523D01*
X124179792Y-99403519D01*
X124179841Y-99400000D01*
X124160694Y-99204728D01*
X124158913Y-99198829D01*
X124158912Y-99198824D01*
X124105765Y-99022793D01*
X124103984Y-99016894D01*
X124011870Y-98843653D01*
X123887861Y-98691602D01*
X123736680Y-98566535D01*
X123564085Y-98473213D01*
X123468592Y-98443653D01*
X123382539Y-98417015D01*
X123382536Y-98417014D01*
X123376652Y-98415193D01*
X123370527Y-98414549D01*
X123370526Y-98414549D01*
X123187647Y-98395327D01*
X123187646Y-98395327D01*
X123181519Y-98394683D01*
X123081264Y-98403807D01*
X122992259Y-98411907D01*
X122992258Y-98411907D01*
X122986118Y-98412466D01*
X122980204Y-98414207D01*
X122980202Y-98414207D01*
X122896059Y-98438972D01*
X122797893Y-98467864D01*
X122792428Y-98470721D01*
X122629472Y-98555912D01*
X122629468Y-98555915D01*
X122624012Y-98558767D01*
X122619212Y-98562627D01*
X122619211Y-98562627D01*
X122515843Y-98645737D01*
X122450221Y-98672833D01*
X122380366Y-98660150D01*
X122356576Y-98644625D01*
X122286229Y-98586430D01*
X122262180Y-98566535D01*
X122089585Y-98473213D01*
X121994092Y-98443653D01*
X121908039Y-98417015D01*
X121908036Y-98417014D01*
X121902152Y-98415193D01*
X121896027Y-98414549D01*
X121896026Y-98414549D01*
X121713147Y-98395327D01*
X121713146Y-98395327D01*
X121707019Y-98394683D01*
X121606764Y-98403807D01*
X121517759Y-98411907D01*
X121517758Y-98411907D01*
X121511618Y-98412466D01*
X121505704Y-98414207D01*
X121505702Y-98414207D01*
X121421559Y-98438972D01*
X121323393Y-98467864D01*
X121317928Y-98470721D01*
X121154972Y-98555912D01*
X121154968Y-98555915D01*
X121149512Y-98558767D01*
X121144712Y-98562627D01*
X121144711Y-98562627D01*
X121125775Y-98577852D01*
X120996600Y-98681711D01*
X120870480Y-98832016D01*
X120867516Y-98837408D01*
X120867513Y-98837412D01*
X120823818Y-98916894D01*
X120775956Y-99003954D01*
X120774095Y-99009821D01*
X120774094Y-99009823D01*
X120751362Y-99081483D01*
X120716628Y-99190978D01*
X120694757Y-99385963D01*
X119639278Y-99385963D01*
X119813556Y-99337303D01*
X119988689Y-99248837D01*
X120018515Y-99225535D01*
X120138453Y-99131829D01*
X120143303Y-99128040D01*
X120163426Y-99104728D01*
X120267485Y-98984173D01*
X120267485Y-98984172D01*
X120271509Y-98979511D01*
X120303730Y-98922793D01*
X120345591Y-98849104D01*
X120368425Y-98808909D01*
X120430358Y-98622732D01*
X120454949Y-98428071D01*
X120455341Y-98400000D01*
X120436194Y-98204728D01*
X120434413Y-98198829D01*
X120434412Y-98198824D01*
X120381265Y-98022793D01*
X120379484Y-98016894D01*
X120287370Y-97843653D01*
X120163361Y-97691602D01*
X120012180Y-97566535D01*
X119839585Y-97473213D01*
X119745868Y-97444203D01*
X119658039Y-97417015D01*
X119658036Y-97417014D01*
X119652152Y-97415193D01*
X119646027Y-97414549D01*
X119646026Y-97414549D01*
X119603713Y-97410102D01*
X119517161Y-97401005D01*
X119448749Y-97371716D01*
X119445849Y-97369252D01*
X119438338Y-97362326D01*
X119433051Y-97357039D01*
X119411798Y-97340224D01*
X119408421Y-97337455D01*
X119360856Y-97297045D01*
X119360855Y-97297044D01*
X119355280Y-97292308D01*
X119348763Y-97288981D01*
X119344219Y-97285950D01*
X119339566Y-97283077D01*
X119333825Y-97278534D01*
X119270623Y-97248995D01*
X119266723Y-97247089D01*
X119250804Y-97238960D01*
X119219863Y-97223161D01*
X119211127Y-97218700D01*
X119211125Y-97218699D01*
X119204611Y-97215373D01*
X119197504Y-97213634D01*
X119192398Y-97211735D01*
X119187197Y-97210005D01*
X119180562Y-97206904D01*
X119112283Y-97192702D01*
X119107999Y-97191732D01*
X119040283Y-97175162D01*
X119034681Y-97174814D01*
X119034678Y-97174814D01*
X119029612Y-97174500D01*
X119029613Y-97174481D01*
X119025056Y-97174207D01*
X119022092Y-97173943D01*
X119014931Y-97172453D01*
X118940981Y-97174454D01*
X118937573Y-97174500D01*
X117938051Y-97174500D01*
X117869930Y-97154498D01*
X117857736Y-97145585D01*
X117799123Y-97097097D01*
X117762180Y-97066535D01*
X117589585Y-96973213D01*
X117495868Y-96944203D01*
X117408039Y-96917015D01*
X117408036Y-96917014D01*
X117402152Y-96915193D01*
X117396027Y-96914549D01*
X117396026Y-96914549D01*
X117213147Y-96895327D01*
X117213146Y-96895327D01*
X117207019Y-96894683D01*
X117084383Y-96905844D01*
X117017759Y-96911907D01*
X117017758Y-96911907D01*
X117011618Y-96912466D01*
X117005704Y-96914207D01*
X117005702Y-96914207D01*
X116876734Y-96952165D01*
X116823393Y-96967864D01*
X116817928Y-96970721D01*
X116654972Y-97055912D01*
X116654968Y-97055915D01*
X116649512Y-97058767D01*
X116644712Y-97062627D01*
X116644711Y-97062627D01*
X116622424Y-97080546D01*
X116496600Y-97181711D01*
X116370480Y-97332016D01*
X116367516Y-97337408D01*
X116367513Y-97337412D01*
X116334791Y-97396934D01*
X116275956Y-97503954D01*
X116216628Y-97690978D01*
X116194757Y-97885963D01*
X113915940Y-97885963D01*
X113917485Y-97884173D01*
X113917485Y-97884172D01*
X113921509Y-97879511D01*
X114018425Y-97708909D01*
X114080358Y-97522732D01*
X114104949Y-97328071D01*
X114105155Y-97313340D01*
X114105292Y-97303523D01*
X114105292Y-97303519D01*
X114105341Y-97300000D01*
X114086194Y-97104728D01*
X114084413Y-97098829D01*
X114084412Y-97098824D01*
X114031265Y-96922793D01*
X114029484Y-96916894D01*
X113937370Y-96743653D01*
X113813361Y-96591602D01*
X113671184Y-96473984D01*
X113631447Y-96415152D01*
X113625500Y-96376900D01*
X113625500Y-91485963D01*
X113894757Y-91485963D01*
X113911175Y-91681483D01*
X113965258Y-91870091D01*
X113968076Y-91875574D01*
X114052123Y-92039113D01*
X114052126Y-92039117D01*
X114054944Y-92044601D01*
X114176818Y-92198369D01*
X114181511Y-92202363D01*
X114181512Y-92202364D01*
X114271319Y-92278795D01*
X114326238Y-92325535D01*
X114331616Y-92328541D01*
X114331618Y-92328542D01*
X114377811Y-92354358D01*
X114497513Y-92421257D01*
X114684118Y-92481889D01*
X114878946Y-92505121D01*
X114885081Y-92504649D01*
X114885083Y-92504649D01*
X115068434Y-92490541D01*
X115068438Y-92490540D01*
X115074576Y-92490068D01*
X115167829Y-92464031D01*
X115257612Y-92438963D01*
X115257615Y-92438962D01*
X115263556Y-92437303D01*
X115408605Y-92364033D01*
X115465414Y-92350500D01*
X135558938Y-92350500D01*
X135569479Y-92350942D01*
X135620902Y-92355260D01*
X135627662Y-92354358D01*
X135627666Y-92354358D01*
X135700659Y-92344619D01*
X135703713Y-92344249D01*
X135776928Y-92336295D01*
X135776931Y-92336294D01*
X135783709Y-92335558D01*
X135790169Y-92333384D01*
X135793217Y-92332714D01*
X135793678Y-92332633D01*
X135793829Y-92332597D01*
X135794288Y-92332464D01*
X135797307Y-92331722D01*
X135804069Y-92330820D01*
X135810479Y-92328487D01*
X135810483Y-92328486D01*
X135824000Y-92323566D01*
X175849500Y-92323566D01*
X175849646Y-92325701D01*
X175849646Y-92325714D01*
X175850477Y-92337894D01*
X175852400Y-92366107D01*
X175853744Y-92371499D01*
X175853745Y-92371503D01*
X175886943Y-92504649D01*
X175897105Y-92545408D01*
X175900136Y-92551515D01*
X175900138Y-92551519D01*
X175938187Y-92628167D01*
X175979269Y-92710926D01*
X176095060Y-92854940D01*
X176239074Y-92970731D01*
X176321833Y-93011813D01*
X176398481Y-93049862D01*
X176398485Y-93049864D01*
X176404592Y-93052895D01*
X176411214Y-93054546D01*
X176578497Y-93096255D01*
X176578501Y-93096256D01*
X176583893Y-93097600D01*
X176600706Y-93098746D01*
X176624286Y-93100354D01*
X176624299Y-93100354D01*
X176626434Y-93100500D01*
X178273566Y-93100500D01*
X178275701Y-93100354D01*
X178275714Y-93100354D01*
X178299294Y-93098746D01*
X178316107Y-93097600D01*
X178321499Y-93096256D01*
X178321503Y-93096255D01*
X178488786Y-93054546D01*
X178495408Y-93052895D01*
X178501515Y-93049864D01*
X178501519Y-93049862D01*
X178578167Y-93011813D01*
X178660926Y-92970731D01*
X178804940Y-92854940D01*
X178920731Y-92710926D01*
X178961813Y-92628167D01*
X178999862Y-92551519D01*
X178999864Y-92551515D01*
X179002895Y-92545408D01*
X179013057Y-92504649D01*
X179046255Y-92371503D01*
X179046256Y-92371499D01*
X179047600Y-92366107D01*
X179049523Y-92337894D01*
X179050354Y-92325714D01*
X179050354Y-92325701D01*
X179050500Y-92323566D01*
X179050500Y-90976434D01*
X179047600Y-90933893D01*
X179037207Y-90892207D01*
X179004546Y-90761214D01*
X179002895Y-90754592D01*
X178999864Y-90748485D01*
X178999862Y-90748481D01*
X178942280Y-90632484D01*
X178920731Y-90589074D01*
X178804940Y-90445060D01*
X178660926Y-90329269D01*
X178605117Y-90301565D01*
X178552994Y-90253359D01*
X178535207Y-90184627D01*
X178557403Y-90117189D01*
X178574169Y-90097536D01*
X178616900Y-90056772D01*
X178623941Y-90048814D01*
X178755141Y-89872475D01*
X178760745Y-89863438D01*
X178860357Y-89667516D01*
X178864357Y-89657665D01*
X178929534Y-89447760D01*
X178931817Y-89437376D01*
X178933861Y-89421957D01*
X178931665Y-89407793D01*
X178918478Y-89404000D01*
X175983808Y-89404000D01*
X175970277Y-89407973D01*
X175968752Y-89418580D01*
X175993477Y-89536421D01*
X175996537Y-89546617D01*
X176077263Y-89751029D01*
X176081994Y-89760561D01*
X176196016Y-89948462D01*
X176202280Y-89957052D01*
X176332357Y-90106953D01*
X176361896Y-90171513D01*
X176351842Y-90241794D01*
X176305387Y-90295482D01*
X176293215Y-90302393D01*
X176239074Y-90329269D01*
X176095060Y-90445060D01*
X175979269Y-90589074D01*
X175957720Y-90632484D01*
X175900138Y-90748481D01*
X175900136Y-90748485D01*
X175897105Y-90754592D01*
X175895454Y-90761214D01*
X175862794Y-90892207D01*
X175852400Y-90933893D01*
X175849500Y-90976434D01*
X175849500Y-92323566D01*
X135824000Y-92323566D01*
X135879671Y-92303303D01*
X135882577Y-92302285D01*
X135952377Y-92278795D01*
X135952379Y-92278794D01*
X135958848Y-92276617D01*
X135964702Y-92273100D01*
X135967514Y-92271800D01*
X135967957Y-92271618D01*
X135968116Y-92271542D01*
X135968534Y-92271314D01*
X135971303Y-92269951D01*
X135977715Y-92267618D01*
X135983473Y-92263964D01*
X135983479Y-92263961D01*
X136045644Y-92224510D01*
X136048263Y-92222892D01*
X136112868Y-92184073D01*
X136143879Y-92170718D01*
X136169724Y-92163502D01*
X136263556Y-92137303D01*
X136438689Y-92048837D01*
X136593303Y-91928040D01*
X136721509Y-91779511D01*
X136818425Y-91608909D01*
X136880358Y-91422732D01*
X136904949Y-91228071D01*
X136905341Y-91200000D01*
X136886194Y-91004728D01*
X136884413Y-90998829D01*
X136884412Y-90998824D01*
X136831265Y-90822793D01*
X136829484Y-90816894D01*
X136737370Y-90643653D01*
X136613361Y-90491602D01*
X136462180Y-90366535D01*
X136289585Y-90273213D01*
X136188086Y-90241794D01*
X136108039Y-90217015D01*
X136108036Y-90217014D01*
X136102152Y-90215193D01*
X136096027Y-90214549D01*
X136096026Y-90214549D01*
X135913147Y-90195327D01*
X135913146Y-90195327D01*
X135907019Y-90194683D01*
X135784383Y-90205844D01*
X135717759Y-90211907D01*
X135717758Y-90211907D01*
X135711618Y-90212466D01*
X135705704Y-90214207D01*
X135705702Y-90214207D01*
X135580060Y-90251186D01*
X135523393Y-90267864D01*
X135517928Y-90270721D01*
X135354972Y-90355912D01*
X135354968Y-90355915D01*
X135349512Y-90358767D01*
X135344712Y-90362627D01*
X135344711Y-90362627D01*
X135310326Y-90390273D01*
X135196600Y-90481711D01*
X135166977Y-90517015D01*
X135093576Y-90604491D01*
X135034466Y-90643818D01*
X134997054Y-90649500D01*
X115462559Y-90649500D01*
X115402631Y-90634336D01*
X115295008Y-90576145D01*
X115295006Y-90576144D01*
X115289585Y-90573213D01*
X115195869Y-90544203D01*
X115108039Y-90517015D01*
X115108036Y-90517014D01*
X115102152Y-90515193D01*
X115096027Y-90514549D01*
X115096026Y-90514549D01*
X114913147Y-90495327D01*
X114913146Y-90495327D01*
X114907019Y-90494683D01*
X114784383Y-90505844D01*
X114717759Y-90511907D01*
X114717758Y-90511907D01*
X114711618Y-90512466D01*
X114705704Y-90514207D01*
X114705702Y-90514207D01*
X114619972Y-90539439D01*
X114523393Y-90567864D01*
X114517928Y-90570721D01*
X114354972Y-90655912D01*
X114354968Y-90655915D01*
X114349512Y-90658767D01*
X114196600Y-90781711D01*
X114070480Y-90932016D01*
X114067516Y-90937408D01*
X114067513Y-90937412D01*
X114046061Y-90976434D01*
X113975956Y-91103954D01*
X113916628Y-91290978D01*
X113894757Y-91485963D01*
X113625500Y-91485963D01*
X113625500Y-88878043D01*
X175966139Y-88878043D01*
X175968335Y-88892207D01*
X175981522Y-88896000D01*
X177177885Y-88896000D01*
X177193124Y-88891525D01*
X177194329Y-88890135D01*
X177196000Y-88882452D01*
X177196000Y-88877885D01*
X177704000Y-88877885D01*
X177708475Y-88893124D01*
X177709865Y-88894329D01*
X177717548Y-88896000D01*
X178916192Y-88896000D01*
X178929723Y-88892027D01*
X178931248Y-88881420D01*
X178906523Y-88763579D01*
X178903463Y-88753383D01*
X178822737Y-88548971D01*
X178818006Y-88539439D01*
X178703984Y-88351538D01*
X178697720Y-88342948D01*
X178553673Y-88176948D01*
X178546042Y-88169528D01*
X178376089Y-88030174D01*
X178367322Y-88024150D01*
X178176318Y-87915424D01*
X178166654Y-87910959D01*
X177960059Y-87835969D01*
X177949792Y-87833198D01*
X177732345Y-87793877D01*
X177724116Y-87792944D01*
X177719624Y-87792732D01*
X177706876Y-87796475D01*
X177705671Y-87797865D01*
X177704000Y-87805548D01*
X177704000Y-88877885D01*
X177196000Y-88877885D01*
X177196000Y-87814030D01*
X177191690Y-87799352D01*
X177179807Y-87797289D01*
X177075675Y-87806124D01*
X177065203Y-87807914D01*
X176852465Y-87863130D01*
X176842425Y-87866665D01*
X176642030Y-87956937D01*
X176632744Y-87962106D01*
X176450425Y-88084850D01*
X176442130Y-88091519D01*
X176283100Y-88243228D01*
X176276059Y-88251186D01*
X176144859Y-88427525D01*
X176139255Y-88436562D01*
X176039643Y-88632484D01*
X176035643Y-88642335D01*
X175970466Y-88852240D01*
X175968183Y-88862624D01*
X175966139Y-88878043D01*
X113625500Y-88878043D01*
X113625500Y-87237599D01*
X113645502Y-87169478D01*
X113656118Y-87155269D01*
X113717481Y-87084179D01*
X113717487Y-87084171D01*
X113721509Y-87079511D01*
X113818425Y-86908909D01*
X113880358Y-86722732D01*
X113904949Y-86528071D01*
X113905341Y-86500000D01*
X113886194Y-86304728D01*
X113884413Y-86298829D01*
X113884412Y-86298824D01*
X113831265Y-86122793D01*
X113829484Y-86116894D01*
X113737370Y-85943653D01*
X113613361Y-85791602D01*
X113462180Y-85666535D01*
X113289585Y-85573213D01*
X113195868Y-85544203D01*
X113108039Y-85517015D01*
X113108036Y-85517014D01*
X113102152Y-85515193D01*
X113096027Y-85514549D01*
X113096026Y-85514549D01*
X112913147Y-85495327D01*
X112913146Y-85495327D01*
X112907019Y-85494683D01*
X112784383Y-85505844D01*
X112717759Y-85511907D01*
X112717758Y-85511907D01*
X112711618Y-85512466D01*
X112705704Y-85514207D01*
X112705702Y-85514207D01*
X112576734Y-85552165D01*
X112523393Y-85567864D01*
X112517928Y-85570721D01*
X112354972Y-85655912D01*
X112354968Y-85655915D01*
X112349512Y-85658767D01*
X112344712Y-85662627D01*
X112344711Y-85662627D01*
X112310326Y-85690273D01*
X112196600Y-85781711D01*
X112070480Y-85932016D01*
X112067516Y-85937408D01*
X112067513Y-85937412D01*
X111988813Y-86080567D01*
X111975956Y-86103954D01*
X111916628Y-86290978D01*
X111894757Y-86485963D01*
X111911175Y-86681483D01*
X111965258Y-86870091D01*
X111968076Y-86875574D01*
X112052123Y-87039113D01*
X112052126Y-87039117D01*
X112054944Y-87044601D01*
X112082613Y-87079511D01*
X112147246Y-87161058D01*
X112173883Y-87226868D01*
X112174500Y-87239322D01*
X112174500Y-96889038D01*
X112168602Y-96927136D01*
X112116628Y-97090978D01*
X112094757Y-97285963D01*
X112111175Y-97481483D01*
X112165258Y-97670091D01*
X112176313Y-97691602D01*
X112252123Y-97839113D01*
X112252126Y-97839117D01*
X112254944Y-97844601D01*
X112376818Y-97998369D01*
X112381511Y-98002363D01*
X112381512Y-98002364D01*
X112467264Y-98075344D01*
X112526238Y-98125535D01*
X112531616Y-98128541D01*
X112531618Y-98128542D01*
X112690472Y-98217322D01*
X112740178Y-98268015D01*
X112754586Y-98337534D01*
X112729123Y-98403807D01*
X112687378Y-98438971D01*
X112649512Y-98458767D01*
X112644712Y-98462627D01*
X112644711Y-98462627D01*
X112610326Y-98490273D01*
X112496600Y-98581711D01*
X112370480Y-98732016D01*
X112367516Y-98737408D01*
X112367513Y-98737412D01*
X112325259Y-98814272D01*
X112275956Y-98903954D01*
X112274095Y-98909821D01*
X112274094Y-98909823D01*
X112264803Y-98939113D01*
X112216628Y-99090978D01*
X112194757Y-99285963D01*
X112211175Y-99481483D01*
X112265258Y-99670091D01*
X112268076Y-99675574D01*
X112352123Y-99839113D01*
X112352126Y-99839117D01*
X112354944Y-99844601D01*
X112476818Y-99998369D01*
X112481511Y-100002363D01*
X112481512Y-100002364D01*
X112558475Y-100067864D01*
X112626238Y-100125535D01*
X112631616Y-100128541D01*
X112631618Y-100128542D01*
X112653827Y-100140954D01*
X112797513Y-100221257D01*
X112984118Y-100281889D01*
X113135810Y-100299977D01*
X113201082Y-100327904D01*
X113209985Y-100335996D01*
X115588266Y-102714277D01*
X115600653Y-102728690D01*
X115612719Y-102745086D01*
X115630934Y-102760561D01*
X115651082Y-102777678D01*
X115658597Y-102784608D01*
X115663878Y-102789889D01*
X115666743Y-102792156D01*
X115666750Y-102792162D01*
X115685118Y-102806694D01*
X115688476Y-102809447D01*
X115741648Y-102854620D01*
X115748164Y-102857947D01*
X115752690Y-102860966D01*
X115757358Y-102863849D01*
X115763103Y-102868394D01*
X115826305Y-102897933D01*
X115830199Y-102899836D01*
X115892317Y-102931555D01*
X115899424Y-102933294D01*
X115904530Y-102935193D01*
X115909731Y-102936923D01*
X115916366Y-102940024D01*
X115984640Y-102954225D01*
X115988924Y-102955195D01*
X116056645Y-102971766D01*
X116062247Y-102972114D01*
X116062250Y-102972114D01*
X116067316Y-102972428D01*
X116067315Y-102972447D01*
X116071872Y-102972721D01*
X116074836Y-102972985D01*
X116081997Y-102974475D01*
X116155947Y-102972474D01*
X116159355Y-102972428D01*
X122055640Y-102972428D01*
X122123761Y-102992430D01*
X122170254Y-103046086D01*
X122180358Y-103116360D01*
X122150864Y-103180940D01*
X122144735Y-103187523D01*
X122019663Y-103312595D01*
X121957351Y-103346621D01*
X121930568Y-103349500D01*
X115362559Y-103349500D01*
X115302631Y-103334336D01*
X115195008Y-103276145D01*
X115195006Y-103276144D01*
X115189585Y-103273213D01*
X115028061Y-103223213D01*
X115008039Y-103217015D01*
X115008036Y-103217014D01*
X115002152Y-103215193D01*
X114996027Y-103214549D01*
X114996026Y-103214549D01*
X114813147Y-103195327D01*
X114813146Y-103195327D01*
X114807019Y-103194683D01*
X114684383Y-103205844D01*
X114617759Y-103211907D01*
X114617758Y-103211907D01*
X114611618Y-103212466D01*
X114605704Y-103214207D01*
X114605702Y-103214207D01*
X114480060Y-103251186D01*
X114423393Y-103267864D01*
X114417928Y-103270721D01*
X114254972Y-103355912D01*
X114254968Y-103355915D01*
X114249512Y-103358767D01*
X114096600Y-103481711D01*
X113970480Y-103632016D01*
X113967516Y-103637408D01*
X113967513Y-103637412D01*
X113925829Y-103713236D01*
X113875956Y-103803954D01*
X113816628Y-103990978D01*
X113794757Y-104185963D01*
X113795273Y-104192107D01*
X113801264Y-104263457D01*
X113787032Y-104333013D01*
X113737455Y-104383832D01*
X113675706Y-104400000D01*
X106900000Y-104400000D01*
X106900000Y-109574000D01*
X106879998Y-109642121D01*
X106826342Y-109688614D01*
X106774000Y-109700000D01*
X101426500Y-109700000D01*
X101358379Y-109679998D01*
X101311886Y-109626342D01*
X101300500Y-109574000D01*
X101300500Y-104418580D01*
X102218752Y-104418580D01*
X102243477Y-104536421D01*
X102246537Y-104546617D01*
X102327263Y-104751029D01*
X102331994Y-104760561D01*
X102446016Y-104948462D01*
X102452280Y-104957052D01*
X102596327Y-105123052D01*
X102603958Y-105130472D01*
X102773911Y-105269826D01*
X102782678Y-105275850D01*
X102973682Y-105384576D01*
X102983346Y-105389041D01*
X103189941Y-105464031D01*
X103200208Y-105466802D01*
X103417655Y-105506123D01*
X103425884Y-105507056D01*
X103430376Y-105507268D01*
X103443124Y-105503525D01*
X103444329Y-105502135D01*
X103446000Y-105494452D01*
X103446000Y-105485970D01*
X103954000Y-105485970D01*
X103958310Y-105500648D01*
X103970193Y-105502711D01*
X104074325Y-105493876D01*
X104084797Y-105492086D01*
X104297535Y-105436870D01*
X104307575Y-105433335D01*
X104507970Y-105343063D01*
X104517256Y-105337894D01*
X104699575Y-105215150D01*
X104707870Y-105208481D01*
X104866900Y-105056772D01*
X104873941Y-105048814D01*
X105005141Y-104872475D01*
X105010745Y-104863438D01*
X105110357Y-104667516D01*
X105114357Y-104657665D01*
X105179534Y-104447760D01*
X105181817Y-104437376D01*
X105183861Y-104421957D01*
X105181665Y-104407793D01*
X105168478Y-104404000D01*
X103972115Y-104404000D01*
X103956876Y-104408475D01*
X103955671Y-104409865D01*
X103954000Y-104417548D01*
X103954000Y-105485970D01*
X103446000Y-105485970D01*
X103446000Y-104422115D01*
X103441525Y-104406876D01*
X103440135Y-104405671D01*
X103432452Y-104404000D01*
X102233808Y-104404000D01*
X102220277Y-104407973D01*
X102218752Y-104418580D01*
X101300500Y-104418580D01*
X101300500Y-102323566D01*
X102099500Y-102323566D01*
X102102400Y-102366107D01*
X102103744Y-102371499D01*
X102103745Y-102371503D01*
X102134201Y-102493653D01*
X102147105Y-102545408D01*
X102150136Y-102551515D01*
X102150138Y-102551519D01*
X102167408Y-102586308D01*
X102229269Y-102710926D01*
X102345060Y-102854940D01*
X102489074Y-102970731D01*
X102532786Y-102992430D01*
X102544883Y-102998435D01*
X102597006Y-103046641D01*
X102614793Y-103115373D01*
X102592597Y-103182811D01*
X102575831Y-103202464D01*
X102533100Y-103243228D01*
X102526059Y-103251186D01*
X102394859Y-103427525D01*
X102389255Y-103436562D01*
X102289643Y-103632484D01*
X102285643Y-103642335D01*
X102220466Y-103852240D01*
X102218183Y-103862624D01*
X102216139Y-103878043D01*
X102218335Y-103892207D01*
X102231522Y-103896000D01*
X105166192Y-103896000D01*
X105179723Y-103892027D01*
X105181248Y-103881420D01*
X105156523Y-103763579D01*
X105153463Y-103753383D01*
X105072737Y-103548971D01*
X105068006Y-103539439D01*
X104953984Y-103351538D01*
X104947720Y-103342948D01*
X104817643Y-103193047D01*
X104788104Y-103128487D01*
X104798158Y-103058206D01*
X104844613Y-103004518D01*
X104856785Y-102997607D01*
X104867214Y-102992430D01*
X104910926Y-102970731D01*
X105054940Y-102854940D01*
X105170731Y-102710926D01*
X105232592Y-102586308D01*
X105249862Y-102551519D01*
X105249864Y-102551515D01*
X105252895Y-102545408D01*
X105265799Y-102493653D01*
X105296255Y-102371503D01*
X105296256Y-102371499D01*
X105297600Y-102366107D01*
X105300500Y-102323566D01*
X105300500Y-100976434D01*
X105300281Y-100973213D01*
X105298290Y-100944010D01*
X105297600Y-100933893D01*
X105284653Y-100881963D01*
X105254546Y-100761214D01*
X105252895Y-100754592D01*
X105249864Y-100748485D01*
X105249862Y-100748481D01*
X105208517Y-100665193D01*
X105170731Y-100589074D01*
X105054940Y-100445060D01*
X104910926Y-100329269D01*
X104811644Y-100279985D01*
X104751519Y-100250138D01*
X104751515Y-100250136D01*
X104745408Y-100247105D01*
X104716397Y-100239872D01*
X104571503Y-100203745D01*
X104571499Y-100203744D01*
X104566107Y-100202400D01*
X104549294Y-100201254D01*
X104525714Y-100199646D01*
X104525701Y-100199646D01*
X104523566Y-100199500D01*
X102876434Y-100199500D01*
X102874299Y-100199646D01*
X102874286Y-100199646D01*
X102850706Y-100201254D01*
X102833893Y-100202400D01*
X102828501Y-100203744D01*
X102828497Y-100203745D01*
X102683603Y-100239872D01*
X102654592Y-100247105D01*
X102648485Y-100250136D01*
X102648481Y-100250138D01*
X102588356Y-100279985D01*
X102489074Y-100329269D01*
X102345060Y-100445060D01*
X102229269Y-100589074D01*
X102191483Y-100665193D01*
X102150138Y-100748481D01*
X102150136Y-100748485D01*
X102147105Y-100754592D01*
X102145454Y-100761214D01*
X102115348Y-100881963D01*
X102102400Y-100933893D01*
X102101710Y-100944010D01*
X102099720Y-100973213D01*
X102099500Y-100976434D01*
X102099500Y-102323566D01*
X101300500Y-102323566D01*
X101300500Y-91418580D01*
X102218752Y-91418580D01*
X102243477Y-91536421D01*
X102246537Y-91546617D01*
X102327263Y-91751029D01*
X102331994Y-91760561D01*
X102446016Y-91948462D01*
X102452280Y-91957052D01*
X102596327Y-92123052D01*
X102603958Y-92130472D01*
X102773911Y-92269826D01*
X102782678Y-92275850D01*
X102973682Y-92384576D01*
X102983346Y-92389041D01*
X103189941Y-92464031D01*
X103200208Y-92466802D01*
X103417655Y-92506123D01*
X103425884Y-92507056D01*
X103430376Y-92507268D01*
X103443124Y-92503525D01*
X103444329Y-92502135D01*
X103446000Y-92494452D01*
X103446000Y-92485970D01*
X103954000Y-92485970D01*
X103958310Y-92500648D01*
X103970193Y-92502711D01*
X104074325Y-92493876D01*
X104084797Y-92492086D01*
X104297535Y-92436870D01*
X104307575Y-92433335D01*
X104507970Y-92343063D01*
X104517256Y-92337894D01*
X104699575Y-92215150D01*
X104707870Y-92208481D01*
X104866900Y-92056772D01*
X104873941Y-92048814D01*
X105005141Y-91872475D01*
X105010745Y-91863438D01*
X105110357Y-91667516D01*
X105114357Y-91657665D01*
X105179534Y-91447760D01*
X105181817Y-91437376D01*
X105183861Y-91421957D01*
X105181665Y-91407793D01*
X105168478Y-91404000D01*
X103972115Y-91404000D01*
X103956876Y-91408475D01*
X103955671Y-91409865D01*
X103954000Y-91417548D01*
X103954000Y-92485970D01*
X103446000Y-92485970D01*
X103446000Y-91422115D01*
X103441525Y-91406876D01*
X103440135Y-91405671D01*
X103432452Y-91404000D01*
X102233808Y-91404000D01*
X102220277Y-91407973D01*
X102218752Y-91418580D01*
X101300500Y-91418580D01*
X101300500Y-89323566D01*
X102099500Y-89323566D01*
X102102400Y-89366107D01*
X102103744Y-89371499D01*
X102103745Y-89371503D01*
X102112838Y-89407973D01*
X102147105Y-89545408D01*
X102150136Y-89551515D01*
X102150138Y-89551519D01*
X102188187Y-89628167D01*
X102229269Y-89710926D01*
X102345060Y-89854940D01*
X102489074Y-89970731D01*
X102535691Y-89993872D01*
X102544883Y-89998435D01*
X102597006Y-90046641D01*
X102614793Y-90115373D01*
X102592597Y-90182811D01*
X102575831Y-90202464D01*
X102533100Y-90243228D01*
X102526059Y-90251186D01*
X102394859Y-90427525D01*
X102389255Y-90436562D01*
X102289643Y-90632484D01*
X102285643Y-90642335D01*
X102220466Y-90852240D01*
X102218183Y-90862624D01*
X102216139Y-90878043D01*
X102218335Y-90892207D01*
X102231522Y-90896000D01*
X105166192Y-90896000D01*
X105179723Y-90892027D01*
X105181248Y-90881420D01*
X105156523Y-90763579D01*
X105153463Y-90753383D01*
X105072737Y-90548971D01*
X105068006Y-90539439D01*
X104953984Y-90351538D01*
X104947720Y-90342948D01*
X104817643Y-90193047D01*
X104788104Y-90128487D01*
X104798158Y-90058206D01*
X104844613Y-90004518D01*
X104856785Y-89997607D01*
X104865902Y-89993081D01*
X104910926Y-89970731D01*
X105054940Y-89854940D01*
X105170731Y-89710926D01*
X105211813Y-89628167D01*
X105249862Y-89551519D01*
X105249864Y-89551515D01*
X105252895Y-89545408D01*
X105287162Y-89407973D01*
X105296255Y-89371503D01*
X105296256Y-89371499D01*
X105297600Y-89366107D01*
X105300500Y-89323566D01*
X105300500Y-87976434D01*
X105297600Y-87933893D01*
X105252895Y-87754592D01*
X105249864Y-87748485D01*
X105249862Y-87748481D01*
X105211813Y-87671833D01*
X105170731Y-87589074D01*
X105054940Y-87445060D01*
X104910926Y-87329269D01*
X104828167Y-87288187D01*
X104751519Y-87250138D01*
X104751515Y-87250136D01*
X104745408Y-87247105D01*
X104707282Y-87237599D01*
X104571503Y-87203745D01*
X104571499Y-87203744D01*
X104566107Y-87202400D01*
X104549294Y-87201254D01*
X104525714Y-87199646D01*
X104525701Y-87199646D01*
X104523566Y-87199500D01*
X102876434Y-87199500D01*
X102874299Y-87199646D01*
X102874286Y-87199646D01*
X102850706Y-87201254D01*
X102833893Y-87202400D01*
X102828501Y-87203744D01*
X102828497Y-87203745D01*
X102692718Y-87237599D01*
X102654592Y-87247105D01*
X102648485Y-87250136D01*
X102648481Y-87250138D01*
X102571833Y-87288187D01*
X102489074Y-87329269D01*
X102345060Y-87445060D01*
X102229269Y-87589074D01*
X102188187Y-87671833D01*
X102150138Y-87748481D01*
X102150136Y-87748485D01*
X102147105Y-87754592D01*
X102102400Y-87933893D01*
X102099500Y-87976434D01*
X102099500Y-89323566D01*
X101300500Y-89323566D01*
X101300500Y-84726000D01*
X101320502Y-84657879D01*
X101374158Y-84611386D01*
X101426500Y-84600000D01*
X108000000Y-84600000D01*
X108000000Y-78126500D01*
X108020002Y-78058379D01*
X108073658Y-78011886D01*
X108126000Y-78000500D01*
X173174000Y-78000500D01*
X173242121Y-78020502D01*
G37*
%TD.AperFunction*%
%TD*%
%TA.AperFunction,Conductor*%
%TO.N,PWR_GND*%
G36*
X165742121Y-93920002D02*
G01*
X165788614Y-93973658D01*
X165800000Y-94026000D01*
X165800000Y-103200000D01*
X173031722Y-110233592D01*
X173061850Y-110262895D01*
X173096737Y-110324729D01*
X173100000Y-110353219D01*
X173100000Y-116673500D01*
X173079998Y-116741621D01*
X173026342Y-116788114D01*
X172974000Y-116799500D01*
X107526000Y-116799500D01*
X107457879Y-116779498D01*
X107411386Y-116725842D01*
X107400000Y-116673500D01*
X107400000Y-115173566D01*
X110999500Y-115173566D01*
X111002400Y-115216107D01*
X111003744Y-115221499D01*
X111003745Y-115221503D01*
X111027197Y-115315563D01*
X111047105Y-115395408D01*
X111050136Y-115401515D01*
X111050138Y-115401519D01*
X111084650Y-115471042D01*
X111129269Y-115560926D01*
X111245060Y-115704940D01*
X111389074Y-115820731D01*
X111461769Y-115856817D01*
X111548481Y-115899862D01*
X111548485Y-115899864D01*
X111554592Y-115902895D01*
X111561214Y-115904546D01*
X111728497Y-115946255D01*
X111728501Y-115946256D01*
X111733893Y-115947600D01*
X111750706Y-115948746D01*
X111774286Y-115950354D01*
X111774299Y-115950354D01*
X111776434Y-115950500D01*
X113123566Y-115950500D01*
X113125701Y-115950354D01*
X113125714Y-115950354D01*
X113149294Y-115948746D01*
X113166107Y-115947600D01*
X113171499Y-115946256D01*
X113171503Y-115946255D01*
X113338786Y-115904546D01*
X113345408Y-115902895D01*
X113351515Y-115899864D01*
X113351519Y-115899862D01*
X113438231Y-115856817D01*
X113510926Y-115820731D01*
X113654940Y-115704940D01*
X113770731Y-115560926D01*
X113798435Y-115505117D01*
X113846641Y-115452994D01*
X113915373Y-115435207D01*
X113982811Y-115457403D01*
X114002464Y-115474169D01*
X114043228Y-115516900D01*
X114051186Y-115523941D01*
X114227525Y-115655141D01*
X114236562Y-115660745D01*
X114432484Y-115760357D01*
X114442335Y-115764357D01*
X114652240Y-115829534D01*
X114662624Y-115831817D01*
X114678043Y-115833861D01*
X114692207Y-115831665D01*
X114696000Y-115818478D01*
X114696000Y-115816192D01*
X115204000Y-115816192D01*
X115207973Y-115829723D01*
X115218580Y-115831248D01*
X115336421Y-115806523D01*
X115346617Y-115803463D01*
X115551029Y-115722737D01*
X115560561Y-115718006D01*
X115748462Y-115603984D01*
X115757052Y-115597720D01*
X115923052Y-115453673D01*
X115930472Y-115446042D01*
X116069826Y-115276089D01*
X116075850Y-115267322D01*
X116114988Y-115198566D01*
X131749500Y-115198566D01*
X131749646Y-115200701D01*
X131749646Y-115200714D01*
X131750696Y-115216107D01*
X131752400Y-115241107D01*
X131753744Y-115246499D01*
X131753745Y-115246503D01*
X131765169Y-115292322D01*
X131797105Y-115420408D01*
X131800136Y-115426515D01*
X131800138Y-115426519D01*
X131822240Y-115471042D01*
X131879269Y-115585926D01*
X131995060Y-115729940D01*
X132139074Y-115845731D01*
X132184644Y-115868352D01*
X132298481Y-115924862D01*
X132298485Y-115924864D01*
X132304592Y-115927895D01*
X132311214Y-115929546D01*
X132478497Y-115971255D01*
X132478501Y-115971256D01*
X132483893Y-115972600D01*
X132500706Y-115973746D01*
X132524286Y-115975354D01*
X132524299Y-115975354D01*
X132526434Y-115975500D01*
X133873566Y-115975500D01*
X133875701Y-115975354D01*
X133875714Y-115975354D01*
X133899294Y-115973746D01*
X133916107Y-115972600D01*
X133921499Y-115971256D01*
X133921503Y-115971255D01*
X134088786Y-115929546D01*
X134095408Y-115927895D01*
X134101515Y-115924864D01*
X134101519Y-115924862D01*
X134215356Y-115868352D01*
X134260926Y-115845731D01*
X134404940Y-115729940D01*
X134514498Y-115593678D01*
X134572770Y-115553124D01*
X134643719Y-115550512D01*
X134698764Y-115583557D01*
X134700110Y-115582114D01*
X134703893Y-115585642D01*
X134707371Y-115589464D01*
X134711422Y-115592663D01*
X134711426Y-115592667D01*
X134890500Y-115734091D01*
X134890504Y-115734093D01*
X134894555Y-115737293D01*
X134899076Y-115739789D01*
X134899078Y-115739790D01*
X134943582Y-115764357D01*
X135103369Y-115852564D01*
X135108238Y-115854288D01*
X135108242Y-115854290D01*
X135323337Y-115930459D01*
X135323339Y-115930460D01*
X135328206Y-115932183D01*
X135431035Y-115950500D01*
X135557940Y-115973106D01*
X135557944Y-115973106D01*
X135563028Y-115974012D01*
X135646860Y-115975036D01*
X135796360Y-115976863D01*
X135796362Y-115976863D01*
X135801529Y-115976926D01*
X136037302Y-115940847D01*
X136264018Y-115866745D01*
X136268606Y-115864357D01*
X136268610Y-115864355D01*
X136470997Y-115758999D01*
X136470998Y-115758998D01*
X136475586Y-115756610D01*
X136479719Y-115753507D01*
X136479722Y-115753505D01*
X136662190Y-115616503D01*
X136662192Y-115616501D01*
X136666325Y-115613398D01*
X136815398Y-115457403D01*
X136827542Y-115444695D01*
X136827543Y-115444694D01*
X136831113Y-115440958D01*
X136901699Y-115337483D01*
X136956610Y-115292480D01*
X137027135Y-115284309D01*
X137090882Y-115315563D01*
X137110308Y-115338121D01*
X137134852Y-115374578D01*
X137141519Y-115382870D01*
X137293228Y-115541900D01*
X137301186Y-115548941D01*
X137477525Y-115680141D01*
X137486562Y-115685745D01*
X137682484Y-115785357D01*
X137692335Y-115789357D01*
X137902240Y-115854534D01*
X137912624Y-115856817D01*
X137928043Y-115858861D01*
X137942207Y-115856665D01*
X137946000Y-115843478D01*
X137946000Y-115841192D01*
X138454000Y-115841192D01*
X138457973Y-115854723D01*
X138468580Y-115856248D01*
X138586421Y-115831523D01*
X138596617Y-115828463D01*
X138801029Y-115747737D01*
X138810561Y-115743006D01*
X138998462Y-115628984D01*
X139007052Y-115622720D01*
X139173052Y-115478673D01*
X139180472Y-115471042D01*
X139319826Y-115301089D01*
X139325850Y-115292322D01*
X139379219Y-115198566D01*
X144999500Y-115198566D01*
X144999646Y-115200701D01*
X144999646Y-115200714D01*
X145000696Y-115216107D01*
X145002400Y-115241107D01*
X145003744Y-115246499D01*
X145003745Y-115246503D01*
X145015169Y-115292322D01*
X145047105Y-115420408D01*
X145050136Y-115426515D01*
X145050138Y-115426519D01*
X145072240Y-115471042D01*
X145129269Y-115585926D01*
X145245060Y-115729940D01*
X145389074Y-115845731D01*
X145434644Y-115868352D01*
X145548481Y-115924862D01*
X145548485Y-115924864D01*
X145554592Y-115927895D01*
X145561214Y-115929546D01*
X145728497Y-115971255D01*
X145728501Y-115971256D01*
X145733893Y-115972600D01*
X145750706Y-115973746D01*
X145774286Y-115975354D01*
X145774299Y-115975354D01*
X145776434Y-115975500D01*
X147123566Y-115975500D01*
X147125701Y-115975354D01*
X147125714Y-115975354D01*
X147149294Y-115973746D01*
X147166107Y-115972600D01*
X147171499Y-115971256D01*
X147171503Y-115971255D01*
X147338786Y-115929546D01*
X147345408Y-115927895D01*
X147351515Y-115924864D01*
X147351519Y-115924862D01*
X147465356Y-115868352D01*
X147510926Y-115845731D01*
X147654940Y-115729940D01*
X147764498Y-115593678D01*
X147822770Y-115553124D01*
X147893719Y-115550512D01*
X147948764Y-115583557D01*
X147950110Y-115582114D01*
X147953893Y-115585642D01*
X147957371Y-115589464D01*
X147961422Y-115592663D01*
X147961426Y-115592667D01*
X148140500Y-115734091D01*
X148140504Y-115734093D01*
X148144555Y-115737293D01*
X148149076Y-115739789D01*
X148149078Y-115739790D01*
X148193582Y-115764357D01*
X148353369Y-115852564D01*
X148358238Y-115854288D01*
X148358242Y-115854290D01*
X148573337Y-115930459D01*
X148573339Y-115930460D01*
X148578206Y-115932183D01*
X148681035Y-115950500D01*
X148807940Y-115973106D01*
X148807944Y-115973106D01*
X148813028Y-115974012D01*
X148896860Y-115975036D01*
X149046360Y-115976863D01*
X149046362Y-115976863D01*
X149051529Y-115976926D01*
X149287302Y-115940847D01*
X149514018Y-115866745D01*
X149518606Y-115864357D01*
X149518610Y-115864355D01*
X149720997Y-115758999D01*
X149720998Y-115758998D01*
X149725586Y-115756610D01*
X149729719Y-115753507D01*
X149729722Y-115753505D01*
X149912190Y-115616503D01*
X149912192Y-115616501D01*
X149916325Y-115613398D01*
X150065398Y-115457403D01*
X150077542Y-115444695D01*
X150077543Y-115444694D01*
X150081113Y-115440958D01*
X150151699Y-115337483D01*
X150206610Y-115292480D01*
X150277135Y-115284309D01*
X150340882Y-115315563D01*
X150360308Y-115338121D01*
X150384852Y-115374578D01*
X150391519Y-115382870D01*
X150543228Y-115541900D01*
X150551186Y-115548941D01*
X150727525Y-115680141D01*
X150736562Y-115685745D01*
X150932484Y-115785357D01*
X150942335Y-115789357D01*
X151152240Y-115854534D01*
X151162624Y-115856817D01*
X151178043Y-115858861D01*
X151192207Y-115856665D01*
X151196000Y-115843478D01*
X151196000Y-115841192D01*
X151704000Y-115841192D01*
X151707973Y-115854723D01*
X151718580Y-115856248D01*
X151836421Y-115831523D01*
X151846617Y-115828463D01*
X152051029Y-115747737D01*
X152060561Y-115743006D01*
X152248462Y-115628984D01*
X152257052Y-115622720D01*
X152423052Y-115478673D01*
X152430472Y-115471042D01*
X152569826Y-115301089D01*
X152575850Y-115292322D01*
X152629219Y-115198566D01*
X158749500Y-115198566D01*
X158749646Y-115200701D01*
X158749646Y-115200714D01*
X158750696Y-115216107D01*
X158752400Y-115241107D01*
X158753744Y-115246499D01*
X158753745Y-115246503D01*
X158765169Y-115292322D01*
X158797105Y-115420408D01*
X158800136Y-115426515D01*
X158800138Y-115426519D01*
X158822240Y-115471042D01*
X158879269Y-115585926D01*
X158995060Y-115729940D01*
X159139074Y-115845731D01*
X159184644Y-115868352D01*
X159298481Y-115924862D01*
X159298485Y-115924864D01*
X159304592Y-115927895D01*
X159311214Y-115929546D01*
X159478497Y-115971255D01*
X159478501Y-115971256D01*
X159483893Y-115972600D01*
X159500706Y-115973746D01*
X159524286Y-115975354D01*
X159524299Y-115975354D01*
X159526434Y-115975500D01*
X160873566Y-115975500D01*
X160875701Y-115975354D01*
X160875714Y-115975354D01*
X160899294Y-115973746D01*
X160916107Y-115972600D01*
X160921499Y-115971256D01*
X160921503Y-115971255D01*
X161088786Y-115929546D01*
X161095408Y-115927895D01*
X161101515Y-115924864D01*
X161101519Y-115924862D01*
X161215356Y-115868352D01*
X161260926Y-115845731D01*
X161404940Y-115729940D01*
X161514498Y-115593678D01*
X161572770Y-115553124D01*
X161643719Y-115550512D01*
X161698764Y-115583557D01*
X161700110Y-115582114D01*
X161703893Y-115585642D01*
X161707371Y-115589464D01*
X161711422Y-115592663D01*
X161711426Y-115592667D01*
X161890500Y-115734091D01*
X161890504Y-115734093D01*
X161894555Y-115737293D01*
X161899076Y-115739789D01*
X161899078Y-115739790D01*
X161943582Y-115764357D01*
X162103369Y-115852564D01*
X162108238Y-115854288D01*
X162108242Y-115854290D01*
X162323337Y-115930459D01*
X162323339Y-115930460D01*
X162328206Y-115932183D01*
X162431035Y-115950500D01*
X162557940Y-115973106D01*
X162557944Y-115973106D01*
X162563028Y-115974012D01*
X162646860Y-115975036D01*
X162796360Y-115976863D01*
X162796362Y-115976863D01*
X162801529Y-115976926D01*
X163037302Y-115940847D01*
X163264018Y-115866745D01*
X163268606Y-115864357D01*
X163268610Y-115864355D01*
X163470997Y-115758999D01*
X163470998Y-115758998D01*
X163475586Y-115756610D01*
X163479719Y-115753507D01*
X163479722Y-115753505D01*
X163662190Y-115616503D01*
X163662192Y-115616501D01*
X163666325Y-115613398D01*
X163815398Y-115457403D01*
X163827542Y-115444695D01*
X163827543Y-115444694D01*
X163831113Y-115440958D01*
X163844885Y-115420769D01*
X163899796Y-115375766D01*
X163970321Y-115367595D01*
X164034068Y-115398849D01*
X164046220Y-115412083D01*
X164046845Y-115413049D01*
X164050330Y-115416879D01*
X164175843Y-115554815D01*
X164207371Y-115589464D01*
X164211422Y-115592663D01*
X164211426Y-115592667D01*
X164390500Y-115734091D01*
X164390504Y-115734093D01*
X164394555Y-115737293D01*
X164399076Y-115739789D01*
X164399078Y-115739790D01*
X164443582Y-115764357D01*
X164603369Y-115852564D01*
X164608238Y-115854288D01*
X164608242Y-115854290D01*
X164823337Y-115930459D01*
X164823339Y-115930460D01*
X164828206Y-115932183D01*
X164931035Y-115950500D01*
X165057940Y-115973106D01*
X165057944Y-115973106D01*
X165063028Y-115974012D01*
X165146860Y-115975036D01*
X165296360Y-115976863D01*
X165296362Y-115976863D01*
X165301529Y-115976926D01*
X165537302Y-115940847D01*
X165764018Y-115866745D01*
X165768606Y-115864357D01*
X165768610Y-115864355D01*
X165970997Y-115758999D01*
X165970998Y-115758998D01*
X165975586Y-115756610D01*
X165979719Y-115753507D01*
X165979722Y-115753505D01*
X166162190Y-115616503D01*
X166162192Y-115616501D01*
X166166325Y-115613398D01*
X166315398Y-115457403D01*
X166327542Y-115444695D01*
X166327543Y-115444694D01*
X166331113Y-115440958D01*
X166344885Y-115420769D01*
X166399796Y-115375766D01*
X166470321Y-115367595D01*
X166534068Y-115398849D01*
X166546220Y-115412083D01*
X166546845Y-115413049D01*
X166550330Y-115416879D01*
X166675843Y-115554815D01*
X166707371Y-115589464D01*
X166711422Y-115592663D01*
X166711426Y-115592667D01*
X166890500Y-115734091D01*
X166890504Y-115734093D01*
X166894555Y-115737293D01*
X166899076Y-115739789D01*
X166899078Y-115739790D01*
X166943582Y-115764357D01*
X167103369Y-115852564D01*
X167108238Y-115854288D01*
X167108242Y-115854290D01*
X167323337Y-115930459D01*
X167323339Y-115930460D01*
X167328206Y-115932183D01*
X167431035Y-115950500D01*
X167557940Y-115973106D01*
X167557944Y-115973106D01*
X167563028Y-115974012D01*
X167646860Y-115975036D01*
X167796360Y-115976863D01*
X167796362Y-115976863D01*
X167801529Y-115976926D01*
X168037302Y-115940847D01*
X168264018Y-115866745D01*
X168268606Y-115864357D01*
X168268610Y-115864355D01*
X168470997Y-115758999D01*
X168470998Y-115758998D01*
X168475586Y-115756610D01*
X168479719Y-115753507D01*
X168479722Y-115753505D01*
X168662190Y-115616503D01*
X168662192Y-115616501D01*
X168666325Y-115613398D01*
X168815398Y-115457403D01*
X168827542Y-115444695D01*
X168827543Y-115444694D01*
X168831113Y-115440958D01*
X168901699Y-115337483D01*
X168956610Y-115292480D01*
X169027135Y-115284309D01*
X169090882Y-115315563D01*
X169110308Y-115338121D01*
X169134852Y-115374578D01*
X169141519Y-115382870D01*
X169293228Y-115541900D01*
X169301186Y-115548941D01*
X169477525Y-115680141D01*
X169486562Y-115685745D01*
X169682484Y-115785357D01*
X169692335Y-115789357D01*
X169902240Y-115854534D01*
X169912624Y-115856817D01*
X169928043Y-115858861D01*
X169942207Y-115856665D01*
X169946000Y-115843478D01*
X169946000Y-115841192D01*
X170454000Y-115841192D01*
X170457973Y-115854723D01*
X170468580Y-115856248D01*
X170586421Y-115831523D01*
X170596617Y-115828463D01*
X170801029Y-115747737D01*
X170810561Y-115743006D01*
X170998462Y-115628984D01*
X171007052Y-115622720D01*
X171173052Y-115478673D01*
X171180472Y-115471042D01*
X171319826Y-115301089D01*
X171325850Y-115292322D01*
X171434576Y-115101318D01*
X171439041Y-115091654D01*
X171514031Y-114885059D01*
X171516802Y-114874792D01*
X171553504Y-114671826D01*
X171552085Y-114658586D01*
X171537450Y-114654000D01*
X170472115Y-114654000D01*
X170456876Y-114658475D01*
X170455671Y-114659865D01*
X170454000Y-114667548D01*
X170454000Y-115841192D01*
X169946000Y-115841192D01*
X169946000Y-114127885D01*
X170454000Y-114127885D01*
X170458475Y-114143124D01*
X170459865Y-114144329D01*
X170467548Y-114146000D01*
X171533849Y-114146000D01*
X171548527Y-114141690D01*
X171550590Y-114129807D01*
X171543876Y-114050675D01*
X171542086Y-114040203D01*
X171486870Y-113827465D01*
X171483335Y-113817425D01*
X171393063Y-113617030D01*
X171387894Y-113607744D01*
X171265150Y-113425425D01*
X171258481Y-113417130D01*
X171106772Y-113258100D01*
X171098814Y-113251059D01*
X170922475Y-113119859D01*
X170913438Y-113114255D01*
X170717516Y-113014643D01*
X170707665Y-113010643D01*
X170497760Y-112945466D01*
X170487376Y-112943183D01*
X170471957Y-112941139D01*
X170457793Y-112943335D01*
X170454000Y-112956522D01*
X170454000Y-114127885D01*
X169946000Y-114127885D01*
X169946000Y-112958808D01*
X169942027Y-112945277D01*
X169931420Y-112943752D01*
X169813579Y-112968477D01*
X169803383Y-112971537D01*
X169598971Y-113052263D01*
X169589439Y-113056994D01*
X169401538Y-113171016D01*
X169392948Y-113177280D01*
X169226948Y-113321327D01*
X169219528Y-113328958D01*
X169103220Y-113470805D01*
X169044560Y-113510800D01*
X168973590Y-113512731D01*
X168912842Y-113475987D01*
X168899998Y-113459360D01*
X168853155Y-113386951D01*
X168846131Y-113379231D01*
X168696107Y-113214358D01*
X168696105Y-113214357D01*
X168692629Y-113210536D01*
X168688578Y-113207337D01*
X168688574Y-113207333D01*
X168509500Y-113065909D01*
X168509496Y-113065907D01*
X168505445Y-113062707D01*
X168466125Y-113041001D01*
X168382902Y-112995060D01*
X168296631Y-112947436D01*
X168291762Y-112945712D01*
X168291758Y-112945710D01*
X168076663Y-112869541D01*
X168076661Y-112869540D01*
X168071794Y-112867817D01*
X167954383Y-112846903D01*
X167842060Y-112826894D01*
X167842056Y-112826894D01*
X167836972Y-112825988D01*
X167753140Y-112824964D01*
X167603640Y-112823137D01*
X167603638Y-112823137D01*
X167598471Y-112823074D01*
X167362698Y-112859153D01*
X167135982Y-112933255D01*
X167131394Y-112935643D01*
X167131390Y-112935645D01*
X166932357Y-113039255D01*
X166924414Y-113043390D01*
X166920281Y-113046493D01*
X166920278Y-113046495D01*
X166738339Y-113183100D01*
X166733675Y-113186602D01*
X166715724Y-113205387D01*
X166577122Y-113350425D01*
X166568887Y-113359042D01*
X166565973Y-113363314D01*
X166565972Y-113363315D01*
X166555115Y-113379231D01*
X166500204Y-113424234D01*
X166429679Y-113432405D01*
X166365932Y-113401151D01*
X166353780Y-113387917D01*
X166353155Y-113386951D01*
X166300385Y-113328958D01*
X166196107Y-113214358D01*
X166196105Y-113214357D01*
X166192629Y-113210536D01*
X166188578Y-113207337D01*
X166188574Y-113207333D01*
X166009500Y-113065909D01*
X166009496Y-113065907D01*
X166005445Y-113062707D01*
X165966125Y-113041001D01*
X165882902Y-112995060D01*
X165796631Y-112947436D01*
X165791762Y-112945712D01*
X165791758Y-112945710D01*
X165576663Y-112869541D01*
X165576661Y-112869540D01*
X165571794Y-112867817D01*
X165454383Y-112846903D01*
X165342060Y-112826894D01*
X165342056Y-112826894D01*
X165336972Y-112825988D01*
X165253140Y-112824964D01*
X165103640Y-112823137D01*
X165103638Y-112823137D01*
X165098471Y-112823074D01*
X164862698Y-112859153D01*
X164635982Y-112933255D01*
X164631394Y-112935643D01*
X164631390Y-112935645D01*
X164432357Y-113039255D01*
X164424414Y-113043390D01*
X164420281Y-113046493D01*
X164420278Y-113046495D01*
X164238339Y-113183100D01*
X164233675Y-113186602D01*
X164215724Y-113205387D01*
X164077122Y-113350425D01*
X164068887Y-113359042D01*
X164065973Y-113363314D01*
X164065972Y-113363315D01*
X164055115Y-113379231D01*
X164000204Y-113424234D01*
X163929679Y-113432405D01*
X163865932Y-113401151D01*
X163853780Y-113387917D01*
X163853155Y-113386951D01*
X163800385Y-113328958D01*
X163696107Y-113214358D01*
X163696105Y-113214357D01*
X163692629Y-113210536D01*
X163688578Y-113207337D01*
X163688574Y-113207333D01*
X163509500Y-113065909D01*
X163509496Y-113065907D01*
X163505445Y-113062707D01*
X163466125Y-113041001D01*
X163382902Y-112995060D01*
X163296631Y-112947436D01*
X163291762Y-112945712D01*
X163291758Y-112945710D01*
X163076663Y-112869541D01*
X163076661Y-112869540D01*
X163071794Y-112867817D01*
X162954383Y-112846903D01*
X162842060Y-112826894D01*
X162842056Y-112826894D01*
X162836972Y-112825988D01*
X162753140Y-112824964D01*
X162603640Y-112823137D01*
X162603638Y-112823137D01*
X162598471Y-112823074D01*
X162362698Y-112859153D01*
X162135982Y-112933255D01*
X162131394Y-112935643D01*
X162131390Y-112935645D01*
X161932357Y-113039255D01*
X161924414Y-113043390D01*
X161920281Y-113046493D01*
X161920278Y-113046495D01*
X161854323Y-113096016D01*
X161733675Y-113186602D01*
X161730106Y-113190337D01*
X161730099Y-113190343D01*
X161705297Y-113216297D01*
X161643773Y-113251727D01*
X161572860Y-113248270D01*
X161516007Y-113208199D01*
X161513746Y-113205387D01*
X161404940Y-113070060D01*
X161260926Y-112954269D01*
X161138462Y-112893477D01*
X161101519Y-112875138D01*
X161101515Y-112875136D01*
X161095408Y-112872105D01*
X161043461Y-112859153D01*
X160921503Y-112828745D01*
X160921499Y-112828744D01*
X160916107Y-112827400D01*
X160899294Y-112826254D01*
X160875714Y-112824646D01*
X160875701Y-112824646D01*
X160873566Y-112824500D01*
X159526434Y-112824500D01*
X159524299Y-112824646D01*
X159524286Y-112824646D01*
X159500706Y-112826254D01*
X159483893Y-112827400D01*
X159478501Y-112828744D01*
X159478497Y-112828745D01*
X159356539Y-112859153D01*
X159304592Y-112872105D01*
X159298485Y-112875136D01*
X159298481Y-112875138D01*
X159261538Y-112893477D01*
X159139074Y-112954269D01*
X158995060Y-113070060D01*
X158879269Y-113214074D01*
X158855530Y-113261896D01*
X158800138Y-113373481D01*
X158800136Y-113373485D01*
X158797105Y-113379592D01*
X158795454Y-113386214D01*
X158758920Y-113532744D01*
X158752400Y-113558893D01*
X158749500Y-113601434D01*
X158749500Y-115198566D01*
X152629219Y-115198566D01*
X152684576Y-115101318D01*
X152689041Y-115091654D01*
X152764031Y-114885059D01*
X152766802Y-114874792D01*
X152803504Y-114671826D01*
X152802085Y-114658586D01*
X152787450Y-114654000D01*
X151722115Y-114654000D01*
X151706876Y-114658475D01*
X151705671Y-114659865D01*
X151704000Y-114667548D01*
X151704000Y-115841192D01*
X151196000Y-115841192D01*
X151196000Y-114127885D01*
X151704000Y-114127885D01*
X151708475Y-114143124D01*
X151709865Y-114144329D01*
X151717548Y-114146000D01*
X152783849Y-114146000D01*
X152798527Y-114141690D01*
X152800590Y-114129807D01*
X152793876Y-114050675D01*
X152792086Y-114040203D01*
X152736870Y-113827465D01*
X152733335Y-113817425D01*
X152643063Y-113617030D01*
X152637894Y-113607744D01*
X152515150Y-113425425D01*
X152508481Y-113417130D01*
X152356772Y-113258100D01*
X152348814Y-113251059D01*
X152172475Y-113119859D01*
X152163438Y-113114255D01*
X151967516Y-113014643D01*
X151957665Y-113010643D01*
X151747760Y-112945466D01*
X151737376Y-112943183D01*
X151721957Y-112941139D01*
X151707793Y-112943335D01*
X151704000Y-112956522D01*
X151704000Y-114127885D01*
X151196000Y-114127885D01*
X151196000Y-112958808D01*
X151192027Y-112945277D01*
X151181420Y-112943752D01*
X151063579Y-112968477D01*
X151053383Y-112971537D01*
X150848971Y-113052263D01*
X150839439Y-113056994D01*
X150651538Y-113171016D01*
X150642948Y-113177280D01*
X150476948Y-113321327D01*
X150469528Y-113328958D01*
X150353220Y-113470805D01*
X150294560Y-113510800D01*
X150223590Y-113512731D01*
X150162842Y-113475987D01*
X150149998Y-113459360D01*
X150103155Y-113386951D01*
X150096131Y-113379231D01*
X149946107Y-113214358D01*
X149946105Y-113214357D01*
X149942629Y-113210536D01*
X149938578Y-113207337D01*
X149938574Y-113207333D01*
X149759500Y-113065909D01*
X149759496Y-113065907D01*
X149755445Y-113062707D01*
X149716125Y-113041001D01*
X149632902Y-112995060D01*
X149546631Y-112947436D01*
X149541762Y-112945712D01*
X149541758Y-112945710D01*
X149326663Y-112869541D01*
X149326661Y-112869540D01*
X149321794Y-112867817D01*
X149204383Y-112846903D01*
X149092060Y-112826894D01*
X149092056Y-112826894D01*
X149086972Y-112825988D01*
X149003140Y-112824964D01*
X148853640Y-112823137D01*
X148853638Y-112823137D01*
X148848471Y-112823074D01*
X148612698Y-112859153D01*
X148385982Y-112933255D01*
X148381394Y-112935643D01*
X148381390Y-112935645D01*
X148182357Y-113039255D01*
X148174414Y-113043390D01*
X148170281Y-113046493D01*
X148170278Y-113046495D01*
X148104323Y-113096016D01*
X147983675Y-113186602D01*
X147980106Y-113190337D01*
X147980099Y-113190343D01*
X147955297Y-113216297D01*
X147893773Y-113251727D01*
X147822860Y-113248270D01*
X147766007Y-113208199D01*
X147763746Y-113205387D01*
X147654940Y-113070060D01*
X147510926Y-112954269D01*
X147388462Y-112893477D01*
X147351519Y-112875138D01*
X147351515Y-112875136D01*
X147345408Y-112872105D01*
X147293461Y-112859153D01*
X147171503Y-112828745D01*
X147171499Y-112828744D01*
X147166107Y-112827400D01*
X147149294Y-112826254D01*
X147125714Y-112824646D01*
X147125701Y-112824646D01*
X147123566Y-112824500D01*
X145776434Y-112824500D01*
X145774299Y-112824646D01*
X145774286Y-112824646D01*
X145750706Y-112826254D01*
X145733893Y-112827400D01*
X145728501Y-112828744D01*
X145728497Y-112828745D01*
X145606539Y-112859153D01*
X145554592Y-112872105D01*
X145548485Y-112875136D01*
X145548481Y-112875138D01*
X145511538Y-112893477D01*
X145389074Y-112954269D01*
X145245060Y-113070060D01*
X145129269Y-113214074D01*
X145105530Y-113261896D01*
X145050138Y-113373481D01*
X145050136Y-113373485D01*
X145047105Y-113379592D01*
X145045454Y-113386214D01*
X145008920Y-113532744D01*
X145002400Y-113558893D01*
X144999500Y-113601434D01*
X144999500Y-115198566D01*
X139379219Y-115198566D01*
X139434576Y-115101318D01*
X139439041Y-115091654D01*
X139514031Y-114885059D01*
X139516802Y-114874792D01*
X139553504Y-114671826D01*
X139552085Y-114658586D01*
X139537450Y-114654000D01*
X138472115Y-114654000D01*
X138456876Y-114658475D01*
X138455671Y-114659865D01*
X138454000Y-114667548D01*
X138454000Y-115841192D01*
X137946000Y-115841192D01*
X137946000Y-114127885D01*
X138454000Y-114127885D01*
X138458475Y-114143124D01*
X138459865Y-114144329D01*
X138467548Y-114146000D01*
X139533849Y-114146000D01*
X139548527Y-114141690D01*
X139550590Y-114129807D01*
X139543876Y-114050675D01*
X139542086Y-114040203D01*
X139486870Y-113827465D01*
X139483335Y-113817425D01*
X139393063Y-113617030D01*
X139387894Y-113607744D01*
X139265150Y-113425425D01*
X139258481Y-113417130D01*
X139106772Y-113258100D01*
X139098814Y-113251059D01*
X138922475Y-113119859D01*
X138913438Y-113114255D01*
X138717516Y-113014643D01*
X138707665Y-113010643D01*
X138497760Y-112945466D01*
X138487376Y-112943183D01*
X138471957Y-112941139D01*
X138457793Y-112943335D01*
X138454000Y-112956522D01*
X138454000Y-114127885D01*
X137946000Y-114127885D01*
X137946000Y-112958808D01*
X137942027Y-112945277D01*
X137931420Y-112943752D01*
X137813579Y-112968477D01*
X137803383Y-112971537D01*
X137598971Y-113052263D01*
X137589439Y-113056994D01*
X137401538Y-113171016D01*
X137392948Y-113177280D01*
X137226948Y-113321327D01*
X137219528Y-113328958D01*
X137103220Y-113470805D01*
X137044560Y-113510800D01*
X136973590Y-113512731D01*
X136912842Y-113475987D01*
X136899998Y-113459360D01*
X136853155Y-113386951D01*
X136846131Y-113379231D01*
X136696107Y-113214358D01*
X136696105Y-113214357D01*
X136692629Y-113210536D01*
X136688578Y-113207337D01*
X136688574Y-113207333D01*
X136509500Y-113065909D01*
X136509496Y-113065907D01*
X136505445Y-113062707D01*
X136466125Y-113041001D01*
X136382902Y-112995060D01*
X136296631Y-112947436D01*
X136291762Y-112945712D01*
X136291758Y-112945710D01*
X136076663Y-112869541D01*
X136076661Y-112869540D01*
X136071794Y-112867817D01*
X135954383Y-112846903D01*
X135842060Y-112826894D01*
X135842056Y-112826894D01*
X135836972Y-112825988D01*
X135753140Y-112824964D01*
X135603640Y-112823137D01*
X135603638Y-112823137D01*
X135598471Y-112823074D01*
X135362698Y-112859153D01*
X135135982Y-112933255D01*
X135131394Y-112935643D01*
X135131390Y-112935645D01*
X134932357Y-113039255D01*
X134924414Y-113043390D01*
X134920281Y-113046493D01*
X134920278Y-113046495D01*
X134854323Y-113096016D01*
X134733675Y-113186602D01*
X134730106Y-113190337D01*
X134730099Y-113190343D01*
X134705297Y-113216297D01*
X134643773Y-113251727D01*
X134572860Y-113248270D01*
X134516007Y-113208199D01*
X134513746Y-113205387D01*
X134404940Y-113070060D01*
X134260926Y-112954269D01*
X134138462Y-112893477D01*
X134101519Y-112875138D01*
X134101515Y-112875136D01*
X134095408Y-112872105D01*
X134043461Y-112859153D01*
X133921503Y-112828745D01*
X133921499Y-112828744D01*
X133916107Y-112827400D01*
X133899294Y-112826254D01*
X133875714Y-112824646D01*
X133875701Y-112824646D01*
X133873566Y-112824500D01*
X132526434Y-112824500D01*
X132524299Y-112824646D01*
X132524286Y-112824646D01*
X132500706Y-112826254D01*
X132483893Y-112827400D01*
X132478501Y-112828744D01*
X132478497Y-112828745D01*
X132356539Y-112859153D01*
X132304592Y-112872105D01*
X132298485Y-112875136D01*
X132298481Y-112875138D01*
X132261538Y-112893477D01*
X132139074Y-112954269D01*
X131995060Y-113070060D01*
X131879269Y-113214074D01*
X131855530Y-113261896D01*
X131800138Y-113373481D01*
X131800136Y-113373485D01*
X131797105Y-113379592D01*
X131795454Y-113386214D01*
X131758920Y-113532744D01*
X131752400Y-113558893D01*
X131749500Y-113601434D01*
X131749500Y-115198566D01*
X116114988Y-115198566D01*
X116184576Y-115076318D01*
X116189041Y-115066654D01*
X116264031Y-114860059D01*
X116266802Y-114849792D01*
X116306123Y-114632345D01*
X116307056Y-114624116D01*
X116307268Y-114619624D01*
X116303525Y-114606876D01*
X116302135Y-114605671D01*
X116294452Y-114604000D01*
X115222115Y-114604000D01*
X115206876Y-114608475D01*
X115205671Y-114609865D01*
X115204000Y-114617548D01*
X115204000Y-115816192D01*
X114696000Y-115816192D01*
X114696000Y-114077885D01*
X115204000Y-114077885D01*
X115208475Y-114093124D01*
X115209865Y-114094329D01*
X115217548Y-114096000D01*
X116285970Y-114096000D01*
X116300648Y-114091690D01*
X116302711Y-114079807D01*
X116293876Y-113975675D01*
X116292086Y-113965203D01*
X116236870Y-113752465D01*
X116233335Y-113742425D01*
X116143063Y-113542030D01*
X116137894Y-113532744D01*
X116015150Y-113350425D01*
X116008481Y-113342130D01*
X115856772Y-113183100D01*
X115848814Y-113176059D01*
X115672475Y-113044859D01*
X115663438Y-113039255D01*
X115467516Y-112939643D01*
X115457665Y-112935643D01*
X115247760Y-112870466D01*
X115237376Y-112868183D01*
X115221957Y-112866139D01*
X115207793Y-112868335D01*
X115204000Y-112881522D01*
X115204000Y-114077885D01*
X114696000Y-114077885D01*
X114696000Y-112883808D01*
X114692027Y-112870277D01*
X114681420Y-112868752D01*
X114563579Y-112893477D01*
X114553383Y-112896537D01*
X114348971Y-112977263D01*
X114339439Y-112981994D01*
X114151538Y-113096016D01*
X114142948Y-113102280D01*
X113993047Y-113232357D01*
X113928487Y-113261896D01*
X113858206Y-113251842D01*
X113804518Y-113205387D01*
X113797607Y-113193215D01*
X113789697Y-113177280D01*
X113770731Y-113139074D01*
X113654940Y-112995060D01*
X113510926Y-112879269D01*
X113428167Y-112838187D01*
X113351519Y-112800138D01*
X113351515Y-112800136D01*
X113345408Y-112797105D01*
X113316397Y-112789872D01*
X113171503Y-112753745D01*
X113171499Y-112753744D01*
X113166107Y-112752400D01*
X113149294Y-112751254D01*
X113125714Y-112749646D01*
X113125701Y-112749646D01*
X113123566Y-112749500D01*
X111776434Y-112749500D01*
X111774299Y-112749646D01*
X111774286Y-112749646D01*
X111750706Y-112751254D01*
X111733893Y-112752400D01*
X111728501Y-112753744D01*
X111728497Y-112753745D01*
X111583603Y-112789872D01*
X111554592Y-112797105D01*
X111548485Y-112800136D01*
X111548481Y-112800138D01*
X111471833Y-112838187D01*
X111389074Y-112879269D01*
X111245060Y-112995060D01*
X111129269Y-113139074D01*
X111103819Y-113190343D01*
X111050138Y-113298481D01*
X111050136Y-113298485D01*
X111047105Y-113304592D01*
X111041030Y-113328958D01*
X111008519Y-113459353D01*
X111002400Y-113483893D01*
X110999500Y-113526434D01*
X110999500Y-115173566D01*
X107400000Y-115173566D01*
X107400000Y-105026000D01*
X107420002Y-104957879D01*
X107473658Y-104911386D01*
X107526000Y-104900000D01*
X113652879Y-104900000D01*
X113721000Y-104920002D01*
X113735558Y-104930920D01*
X116000000Y-106900000D01*
X120574000Y-106900000D01*
X120642121Y-106920002D01*
X120688614Y-106973658D01*
X120700000Y-107026000D01*
X120700000Y-112200000D01*
X133100000Y-112200000D01*
X133100000Y-104585963D01*
X144394757Y-104585963D01*
X144411175Y-104781483D01*
X144465258Y-104970091D01*
X144468076Y-104975574D01*
X144552123Y-105139113D01*
X144552126Y-105139117D01*
X144554944Y-105144601D01*
X144602911Y-105205121D01*
X144647246Y-105261058D01*
X144673883Y-105326868D01*
X144674500Y-105339322D01*
X144674500Y-109935436D01*
X144673067Y-109954386D01*
X144671106Y-109967273D01*
X144671106Y-109967279D01*
X144670006Y-109974508D01*
X144670599Y-109981800D01*
X144670599Y-109981803D01*
X144674085Y-110024657D01*
X144674500Y-110034872D01*
X144674500Y-110042363D01*
X144674924Y-110045998D01*
X144674924Y-110046001D01*
X144677637Y-110069266D01*
X144678070Y-110073641D01*
X144683721Y-110143127D01*
X144685978Y-110150095D01*
X144687054Y-110155479D01*
X144688304Y-110160769D01*
X144689152Y-110168037D01*
X144691647Y-110174911D01*
X144691649Y-110174919D01*
X144712947Y-110233592D01*
X144714374Y-110237747D01*
X144735858Y-110304067D01*
X144739655Y-110310324D01*
X144741929Y-110315292D01*
X144744379Y-110320184D01*
X144746875Y-110327061D01*
X144750883Y-110333175D01*
X144750887Y-110333182D01*
X144785111Y-110385381D01*
X144787458Y-110389101D01*
X144820708Y-110443897D01*
X144820712Y-110443903D01*
X144823622Y-110448698D01*
X144827334Y-110452901D01*
X144827337Y-110452905D01*
X144830700Y-110456712D01*
X144830685Y-110456725D01*
X144833727Y-110460155D01*
X144835619Y-110462418D01*
X144839633Y-110468540D01*
X144844946Y-110473573D01*
X144893356Y-110519432D01*
X144895798Y-110521810D01*
X145940425Y-111566437D01*
X145972449Y-111620801D01*
X146000129Y-111717331D01*
X146015258Y-111770091D01*
X146018076Y-111775574D01*
X146102123Y-111939113D01*
X146102126Y-111939117D01*
X146104944Y-111944601D01*
X146226818Y-112098369D01*
X146231511Y-112102363D01*
X146231512Y-112102364D01*
X146314699Y-112173161D01*
X146376238Y-112225535D01*
X146381616Y-112228541D01*
X146381618Y-112228542D01*
X146429176Y-112255121D01*
X146547513Y-112321257D01*
X146734118Y-112381889D01*
X146928946Y-112405121D01*
X146935081Y-112404649D01*
X146935083Y-112404649D01*
X147118434Y-112390541D01*
X147118438Y-112390540D01*
X147124576Y-112390068D01*
X147313556Y-112337303D01*
X147488689Y-112248837D01*
X147585550Y-112173161D01*
X147612367Y-112152210D01*
X147678362Y-112126033D01*
X147689940Y-112125500D01*
X159832820Y-112125500D01*
X159894291Y-112141512D01*
X159947513Y-112171257D01*
X160134118Y-112231889D01*
X160328946Y-112255121D01*
X160335081Y-112254649D01*
X160335083Y-112254649D01*
X160518434Y-112240541D01*
X160518438Y-112240540D01*
X160524576Y-112240068D01*
X160713556Y-112187303D01*
X160888689Y-112098837D01*
X161043303Y-111978040D01*
X161171509Y-111829511D01*
X161268425Y-111658909D01*
X161330358Y-111472732D01*
X161354949Y-111278071D01*
X161355341Y-111250000D01*
X161336194Y-111054728D01*
X161334413Y-111048829D01*
X161334412Y-111048824D01*
X161281265Y-110872793D01*
X161279484Y-110866894D01*
X161187370Y-110693653D01*
X161063361Y-110541602D01*
X160912180Y-110416535D01*
X160739585Y-110323213D01*
X160645868Y-110294203D01*
X160558039Y-110267015D01*
X160558036Y-110267014D01*
X160552152Y-110265193D01*
X160546027Y-110264549D01*
X160546026Y-110264549D01*
X160363147Y-110245327D01*
X160363146Y-110245327D01*
X160357019Y-110244683D01*
X160234383Y-110255844D01*
X160167759Y-110261907D01*
X160167758Y-110261907D01*
X160161618Y-110262466D01*
X160155704Y-110264207D01*
X160155702Y-110264207D01*
X160043932Y-110297103D01*
X159973393Y-110317864D01*
X159967928Y-110320721D01*
X159804972Y-110405912D01*
X159804968Y-110405915D01*
X159799512Y-110408767D01*
X159794712Y-110412627D01*
X159794711Y-110412627D01*
X159760326Y-110440273D01*
X159646600Y-110531711D01*
X159642642Y-110536428D01*
X159642641Y-110536429D01*
X159564554Y-110629491D01*
X159505445Y-110668817D01*
X159468032Y-110674500D01*
X147688051Y-110674500D01*
X147619930Y-110654498D01*
X147607736Y-110645585D01*
X147569238Y-110613737D01*
X147512180Y-110566535D01*
X147339585Y-110473213D01*
X147244880Y-110443897D01*
X147158039Y-110417015D01*
X147158036Y-110417014D01*
X147152152Y-110415193D01*
X147146027Y-110414549D01*
X147146026Y-110414549D01*
X146963147Y-110395327D01*
X146963146Y-110395327D01*
X146957019Y-110394683D01*
X146941625Y-110396084D01*
X146890845Y-110400705D01*
X146821192Y-110386959D01*
X146790331Y-110364319D01*
X146162405Y-109736393D01*
X146128379Y-109674081D01*
X146125500Y-109647298D01*
X146125500Y-105337599D01*
X146145502Y-105269478D01*
X146156118Y-105255269D01*
X146217481Y-105184179D01*
X146217487Y-105184171D01*
X146221509Y-105179511D01*
X146318425Y-105008909D01*
X146380358Y-104822732D01*
X146404949Y-104628071D01*
X146405341Y-104600000D01*
X146386194Y-104404728D01*
X146384413Y-104398829D01*
X146384412Y-104398824D01*
X146331265Y-104222793D01*
X146329484Y-104216894D01*
X146286452Y-104135963D01*
X150694757Y-104135963D01*
X150711175Y-104331483D01*
X150765258Y-104520091D01*
X150768076Y-104525574D01*
X150852123Y-104689113D01*
X150852126Y-104689117D01*
X150854944Y-104694601D01*
X150976818Y-104848369D01*
X150981511Y-104852363D01*
X150981512Y-104852364D01*
X151116936Y-104967618D01*
X151126238Y-104975535D01*
X151131616Y-104978541D01*
X151131618Y-104978542D01*
X151174973Y-105002772D01*
X151297513Y-105071257D01*
X151484118Y-105131889D01*
X151635808Y-105149977D01*
X151701081Y-105177904D01*
X151709984Y-105185996D01*
X152641341Y-106117353D01*
X152653727Y-106131765D01*
X152665791Y-106148158D01*
X152671367Y-106152895D01*
X152704147Y-106180744D01*
X152711662Y-106187674D01*
X152716949Y-106192961D01*
X152719810Y-106195224D01*
X152719815Y-106195229D01*
X152738176Y-106209755D01*
X152741578Y-106212544D01*
X152755243Y-106224153D01*
X152794720Y-106257692D01*
X152801238Y-106261020D01*
X152805791Y-106264057D01*
X152810438Y-106266927D01*
X152816174Y-106271465D01*
X152822798Y-106274561D01*
X152822800Y-106274562D01*
X152879341Y-106300987D01*
X152883293Y-106302919D01*
X152938873Y-106331300D01*
X152938875Y-106331301D01*
X152945389Y-106334627D01*
X152952496Y-106336366D01*
X152957610Y-106338268D01*
X152962806Y-106339996D01*
X152969438Y-106343096D01*
X153037710Y-106357296D01*
X153041981Y-106358263D01*
X153109717Y-106374838D01*
X153115314Y-106375185D01*
X153115319Y-106375186D01*
X153120388Y-106375500D01*
X153120387Y-106375519D01*
X153124943Y-106375793D01*
X153127907Y-106376057D01*
X153135068Y-106377547D01*
X153209002Y-106375546D01*
X153212410Y-106375500D01*
X156712338Y-106375500D01*
X156780459Y-106395502D01*
X156794001Y-106405546D01*
X156876238Y-106475535D01*
X156881616Y-106478541D01*
X156881618Y-106478542D01*
X156917932Y-106498837D01*
X157047513Y-106571257D01*
X157234118Y-106631889D01*
X157428946Y-106655121D01*
X157435081Y-106654649D01*
X157435083Y-106654649D01*
X157618434Y-106640541D01*
X157618438Y-106640540D01*
X157624576Y-106640068D01*
X157813556Y-106587303D01*
X157988689Y-106498837D01*
X158018515Y-106475535D01*
X158108097Y-106405546D01*
X158143303Y-106378040D01*
X158160373Y-106358265D01*
X158267485Y-106234173D01*
X158267485Y-106234172D01*
X158271509Y-106229511D01*
X158292273Y-106192961D01*
X158327036Y-106131766D01*
X158368425Y-106058909D01*
X158430358Y-105872732D01*
X158454949Y-105678071D01*
X158455341Y-105650000D01*
X158436194Y-105454728D01*
X158434413Y-105448829D01*
X158434412Y-105448824D01*
X158381265Y-105272793D01*
X158379484Y-105266894D01*
X158287370Y-105093653D01*
X158218255Y-105008909D01*
X158203857Y-104991255D01*
X158176303Y-104925823D01*
X158175500Y-104911620D01*
X158175500Y-103580022D01*
X158195502Y-103511901D01*
X158249158Y-103465408D01*
X158319432Y-103455304D01*
X158384012Y-103484798D01*
X158400244Y-103501756D01*
X158476818Y-103598369D01*
X158481511Y-103602363D01*
X158481512Y-103602364D01*
X158611787Y-103713236D01*
X158626238Y-103725535D01*
X158631616Y-103728541D01*
X158631618Y-103728542D01*
X158694355Y-103763604D01*
X158797513Y-103821257D01*
X158984118Y-103881889D01*
X159178946Y-103905121D01*
X159185081Y-103904649D01*
X159185083Y-103904649D01*
X159368434Y-103890541D01*
X159368438Y-103890540D01*
X159374576Y-103890068D01*
X159563556Y-103837303D01*
X159738689Y-103748837D01*
X159837816Y-103671391D01*
X159862367Y-103652210D01*
X159928362Y-103626033D01*
X159939940Y-103625500D01*
X162989088Y-103625500D01*
X163057209Y-103645502D01*
X163070751Y-103655546D01*
X163138537Y-103713236D01*
X163143915Y-103716242D01*
X163143917Y-103716243D01*
X163214897Y-103755912D01*
X163309812Y-103808958D01*
X163496417Y-103869590D01*
X163691245Y-103892822D01*
X163697380Y-103892350D01*
X163697382Y-103892350D01*
X163880733Y-103878242D01*
X163880737Y-103878241D01*
X163886875Y-103877769D01*
X164075855Y-103825004D01*
X164250988Y-103736538D01*
X164261223Y-103728542D01*
X164354654Y-103655546D01*
X164405602Y-103615741D01*
X164423850Y-103594601D01*
X164529784Y-103471874D01*
X164529784Y-103471873D01*
X164533808Y-103467212D01*
X164553976Y-103431711D01*
X164621625Y-103312627D01*
X164630724Y-103296610D01*
X164692657Y-103110433D01*
X164717248Y-102915772D01*
X164717640Y-102887701D01*
X164698493Y-102692429D01*
X164696712Y-102686530D01*
X164696711Y-102686525D01*
X164643564Y-102510494D01*
X164641783Y-102504595D01*
X164549669Y-102331354D01*
X164425660Y-102179303D01*
X164274479Y-102054236D01*
X164101884Y-101960914D01*
X164008167Y-101931904D01*
X163920338Y-101904716D01*
X163920335Y-101904715D01*
X163914451Y-101902894D01*
X163908326Y-101902250D01*
X163908325Y-101902250D01*
X163725446Y-101883028D01*
X163725445Y-101883028D01*
X163719318Y-101882384D01*
X163612481Y-101892107D01*
X163530058Y-101899608D01*
X163530057Y-101899608D01*
X163523917Y-101900167D01*
X163518003Y-101901908D01*
X163518001Y-101901908D01*
X163389033Y-101939866D01*
X163335692Y-101955565D01*
X163330227Y-101958422D01*
X163167271Y-102043613D01*
X163167267Y-102043616D01*
X163161811Y-102046468D01*
X163157011Y-102050328D01*
X163157010Y-102050328D01*
X163146337Y-102058909D01*
X163044808Y-102140541D01*
X163037151Y-102146697D01*
X162971529Y-102173793D01*
X162958199Y-102174500D01*
X162504676Y-102174500D01*
X162436555Y-102154498D01*
X162390062Y-102100842D01*
X162379958Y-102030568D01*
X162385118Y-102008728D01*
X162402803Y-101955565D01*
X162430358Y-101872732D01*
X162454949Y-101678071D01*
X162455341Y-101650000D01*
X162436194Y-101454728D01*
X162434413Y-101448829D01*
X162434412Y-101448824D01*
X162381265Y-101272793D01*
X162379484Y-101266894D01*
X162287370Y-101093653D01*
X162163361Y-100941602D01*
X162012180Y-100816535D01*
X161839585Y-100723213D01*
X161691884Y-100677492D01*
X161658039Y-100667015D01*
X161658036Y-100667014D01*
X161652152Y-100665193D01*
X161646027Y-100664549D01*
X161646026Y-100664549D01*
X161463147Y-100645327D01*
X161463146Y-100645327D01*
X161457019Y-100644683D01*
X161334383Y-100655844D01*
X161267759Y-100661907D01*
X161267758Y-100661907D01*
X161261618Y-100662466D01*
X161255704Y-100664207D01*
X161255702Y-100664207D01*
X161126734Y-100702165D01*
X161073393Y-100717864D01*
X161067928Y-100720721D01*
X160904972Y-100805912D01*
X160904968Y-100805915D01*
X160899512Y-100808767D01*
X160894712Y-100812627D01*
X160894711Y-100812627D01*
X160790149Y-100896697D01*
X160724527Y-100923793D01*
X160711197Y-100924500D01*
X159660885Y-100924500D01*
X159592764Y-100904498D01*
X159580570Y-100895585D01*
X159543805Y-100865171D01*
X159499881Y-100828834D01*
X159327286Y-100735512D01*
X159233569Y-100706502D01*
X159145740Y-100679314D01*
X159145737Y-100679313D01*
X159139853Y-100677492D01*
X159133728Y-100676848D01*
X159133727Y-100676848D01*
X158950848Y-100657626D01*
X158950847Y-100657626D01*
X158944720Y-100656982D01*
X158834477Y-100667015D01*
X158755460Y-100674206D01*
X158755459Y-100674206D01*
X158749319Y-100674765D01*
X158743405Y-100676506D01*
X158743403Y-100676506D01*
X158614435Y-100714464D01*
X158561094Y-100730163D01*
X158555629Y-100733020D01*
X158392673Y-100818211D01*
X158392669Y-100818214D01*
X158387213Y-100821066D01*
X158382413Y-100824926D01*
X158382412Y-100824926D01*
X158332357Y-100865171D01*
X158266734Y-100892267D01*
X158196880Y-100879583D01*
X158144972Y-100831147D01*
X158133538Y-100805807D01*
X158128734Y-100790978D01*
X158114141Y-100745933D01*
X158110343Y-100739675D01*
X158108064Y-100734697D01*
X158105624Y-100729824D01*
X158103125Y-100722939D01*
X158064886Y-100664614D01*
X158062545Y-100660904D01*
X158029291Y-100606103D01*
X158029287Y-100606098D01*
X158026377Y-100601302D01*
X158019300Y-100593288D01*
X158019314Y-100593276D01*
X158016279Y-100589851D01*
X158014378Y-100587577D01*
X158010367Y-100581460D01*
X157956644Y-100530568D01*
X157954202Y-100528190D01*
X154649580Y-97223568D01*
X154615554Y-97161256D01*
X154620619Y-97090441D01*
X154661972Y-97034510D01*
X154741733Y-96973308D01*
X154741736Y-96973305D01*
X154748282Y-96968282D01*
X154844536Y-96842841D01*
X154905044Y-96696762D01*
X154906122Y-96688574D01*
X154919801Y-96584669D01*
X155352001Y-96584669D01*
X155352371Y-96591490D01*
X155357895Y-96642352D01*
X155361521Y-96657604D01*
X155406676Y-96778054D01*
X155415214Y-96793649D01*
X155491715Y-96895724D01*
X155504276Y-96908285D01*
X155606351Y-96984786D01*
X155621946Y-96993324D01*
X155742394Y-97038478D01*
X155757649Y-97042105D01*
X155808514Y-97047631D01*
X155815328Y-97048000D01*
X156087885Y-97048000D01*
X156103124Y-97043525D01*
X156104329Y-97042135D01*
X156106000Y-97034452D01*
X156106000Y-97029884D01*
X156614000Y-97029884D01*
X156618475Y-97045123D01*
X156619865Y-97046328D01*
X156627548Y-97047999D01*
X156904669Y-97047999D01*
X156911490Y-97047629D01*
X156962352Y-97042105D01*
X156977604Y-97038479D01*
X157098054Y-96993324D01*
X157113649Y-96984786D01*
X157215724Y-96908285D01*
X157228285Y-96895724D01*
X157304786Y-96793649D01*
X157313324Y-96778054D01*
X157358478Y-96657606D01*
X157362105Y-96642351D01*
X157367631Y-96591486D01*
X157368000Y-96584672D01*
X157368000Y-96312115D01*
X157363525Y-96296876D01*
X157362135Y-96295671D01*
X157354452Y-96294000D01*
X156632115Y-96294000D01*
X156616876Y-96298475D01*
X156615671Y-96299865D01*
X156614000Y-96307548D01*
X156614000Y-97029884D01*
X156106000Y-97029884D01*
X156106000Y-96312115D01*
X156101525Y-96296876D01*
X156100135Y-96295671D01*
X156092452Y-96294000D01*
X155370116Y-96294000D01*
X155354877Y-96298475D01*
X155353672Y-96299865D01*
X155352001Y-96307548D01*
X155352001Y-96584669D01*
X154919801Y-96584669D01*
X154919962Y-96583448D01*
X154919962Y-96583447D01*
X154920500Y-96579361D01*
X154920499Y-95767885D01*
X155352000Y-95767885D01*
X155356475Y-95783124D01*
X155357865Y-95784329D01*
X155365548Y-95786000D01*
X156087885Y-95786000D01*
X156103124Y-95781525D01*
X156104329Y-95780135D01*
X156106000Y-95772452D01*
X156106000Y-95767885D01*
X156614000Y-95767885D01*
X156618475Y-95783124D01*
X156619865Y-95784329D01*
X156627548Y-95786000D01*
X157349884Y-95786000D01*
X157365123Y-95781525D01*
X157366328Y-95780135D01*
X157367999Y-95772452D01*
X157367999Y-95495331D01*
X157367629Y-95488510D01*
X157362105Y-95437648D01*
X157358479Y-95422396D01*
X157313324Y-95301946D01*
X157304786Y-95286351D01*
X157228285Y-95184276D01*
X157215724Y-95171715D01*
X157113649Y-95095214D01*
X157098054Y-95086676D01*
X156977606Y-95041522D01*
X156962351Y-95037895D01*
X156911486Y-95032369D01*
X156904672Y-95032000D01*
X156632115Y-95032000D01*
X156616876Y-95036475D01*
X156615671Y-95037865D01*
X156614000Y-95045548D01*
X156614000Y-95767885D01*
X156106000Y-95767885D01*
X156106000Y-95050116D01*
X156101525Y-95034877D01*
X156100135Y-95033672D01*
X156092452Y-95032001D01*
X155815331Y-95032001D01*
X155808510Y-95032371D01*
X155757648Y-95037895D01*
X155742396Y-95041521D01*
X155621946Y-95086676D01*
X155606351Y-95095214D01*
X155504276Y-95171715D01*
X155491715Y-95184276D01*
X155415214Y-95286351D01*
X155406676Y-95301946D01*
X155361522Y-95422394D01*
X155357895Y-95437649D01*
X155352369Y-95488514D01*
X155352000Y-95495328D01*
X155352000Y-95767885D01*
X154920499Y-95767885D01*
X154920499Y-95500640D01*
X154919801Y-95495331D01*
X154906122Y-95391425D01*
X154906122Y-95391423D01*
X154905044Y-95383238D01*
X154844536Y-95237159D01*
X154748282Y-95111718D01*
X154622841Y-95015464D01*
X154476762Y-94954956D01*
X154468574Y-94953878D01*
X154363448Y-94940038D01*
X154363447Y-94940038D01*
X154359361Y-94939500D01*
X153820066Y-94939500D01*
X153280640Y-94939501D01*
X153276556Y-94940039D01*
X153276550Y-94940039D01*
X153171425Y-94953878D01*
X153171423Y-94953878D01*
X153163238Y-94954956D01*
X153017159Y-95015464D01*
X152891718Y-95111718D01*
X152795464Y-95237159D01*
X152734956Y-95383238D01*
X152719500Y-95500639D01*
X152719501Y-96579360D01*
X152720039Y-96583444D01*
X152720039Y-96583450D01*
X152733878Y-96688574D01*
X152734956Y-96696762D01*
X152795464Y-96842841D01*
X152891718Y-96968282D01*
X153017159Y-97064536D01*
X153024788Y-97067696D01*
X153031501Y-97071572D01*
X153080494Y-97122955D01*
X153094500Y-97180691D01*
X153094500Y-97355436D01*
X153093067Y-97374386D01*
X153091106Y-97387273D01*
X153091106Y-97387279D01*
X153090006Y-97394508D01*
X153090599Y-97401800D01*
X153090599Y-97401803D01*
X153094085Y-97444657D01*
X153094500Y-97454872D01*
X153094500Y-97462363D01*
X153094924Y-97465998D01*
X153094924Y-97466001D01*
X153097637Y-97489266D01*
X153098070Y-97493645D01*
X153100436Y-97522732D01*
X153103721Y-97563127D01*
X153105978Y-97570095D01*
X153107054Y-97575479D01*
X153108304Y-97580769D01*
X153109152Y-97588037D01*
X153111647Y-97594911D01*
X153111649Y-97594919D01*
X153132947Y-97653592D01*
X153134374Y-97657747D01*
X153155858Y-97724067D01*
X153159655Y-97730324D01*
X153161929Y-97735292D01*
X153164379Y-97740184D01*
X153166875Y-97747061D01*
X153170883Y-97753175D01*
X153170887Y-97753182D01*
X153205111Y-97805381D01*
X153207458Y-97809101D01*
X153240708Y-97863897D01*
X153240712Y-97863903D01*
X153243622Y-97868698D01*
X153247334Y-97872901D01*
X153247337Y-97872905D01*
X153250700Y-97876712D01*
X153250685Y-97876725D01*
X153253727Y-97880155D01*
X153255619Y-97882418D01*
X153259633Y-97888540D01*
X153264946Y-97893573D01*
X153313356Y-97939432D01*
X153315798Y-97941810D01*
X156687595Y-101313607D01*
X156721621Y-101375919D01*
X156724500Y-101402702D01*
X156724500Y-104798500D01*
X156704498Y-104866621D01*
X156650842Y-104913114D01*
X156598500Y-104924500D01*
X153552702Y-104924500D01*
X153484581Y-104904498D01*
X153463607Y-104887595D01*
X152734996Y-104158984D01*
X152700970Y-104096672D01*
X152698692Y-104082185D01*
X152689748Y-103990978D01*
X152686194Y-103954728D01*
X152684413Y-103948829D01*
X152684412Y-103948824D01*
X152631265Y-103772793D01*
X152629484Y-103766894D01*
X152537370Y-103593653D01*
X152413361Y-103441602D01*
X152262180Y-103316535D01*
X152089585Y-103223213D01*
X151995869Y-103194203D01*
X151908039Y-103167015D01*
X151908036Y-103167014D01*
X151902152Y-103165193D01*
X151896027Y-103164549D01*
X151896026Y-103164549D01*
X151713147Y-103145327D01*
X151713146Y-103145327D01*
X151707019Y-103144683D01*
X151584383Y-103155844D01*
X151517759Y-103161907D01*
X151517758Y-103161907D01*
X151511618Y-103162466D01*
X151505704Y-103164207D01*
X151505702Y-103164207D01*
X151402155Y-103194683D01*
X151323393Y-103217864D01*
X151317928Y-103220721D01*
X151154972Y-103305912D01*
X151154968Y-103305915D01*
X151149512Y-103308767D01*
X151144712Y-103312627D01*
X151144711Y-103312627D01*
X151110326Y-103340273D01*
X150996600Y-103431711D01*
X150870480Y-103582016D01*
X150867516Y-103587408D01*
X150867513Y-103587412D01*
X150820344Y-103673213D01*
X150775956Y-103753954D01*
X150774095Y-103759821D01*
X150774094Y-103759823D01*
X150755560Y-103818250D01*
X150716628Y-103940978D01*
X150694757Y-104135963D01*
X146286452Y-104135963D01*
X146237370Y-104043653D01*
X146113361Y-103891602D01*
X145962180Y-103766535D01*
X145789585Y-103673213D01*
X145656499Y-103632016D01*
X145608039Y-103617015D01*
X145608036Y-103617014D01*
X145602152Y-103615193D01*
X145596027Y-103614549D01*
X145596026Y-103614549D01*
X145413147Y-103595327D01*
X145413146Y-103595327D01*
X145407019Y-103594683D01*
X145322620Y-103602364D01*
X145217759Y-103611907D01*
X145217758Y-103611907D01*
X145211618Y-103612466D01*
X145205704Y-103614207D01*
X145205702Y-103614207D01*
X145158702Y-103628040D01*
X145023393Y-103667864D01*
X145017928Y-103670721D01*
X144854972Y-103755912D01*
X144854968Y-103755915D01*
X144849512Y-103758767D01*
X144844712Y-103762627D01*
X144844711Y-103762627D01*
X144825541Y-103778040D01*
X144696600Y-103881711D01*
X144570480Y-104032016D01*
X144567516Y-104037408D01*
X144567513Y-104037412D01*
X144488813Y-104180567D01*
X144475956Y-104203954D01*
X144416628Y-104390978D01*
X144394757Y-104585963D01*
X133100000Y-104585963D01*
X133100000Y-98326000D01*
X133120002Y-98257879D01*
X133173658Y-98211386D01*
X133226000Y-98200000D01*
X138480002Y-98200000D01*
X138548123Y-98220002D01*
X138594616Y-98273658D01*
X138604720Y-98343932D01*
X138590416Y-98386701D01*
X138528925Y-98498551D01*
X138528920Y-98498562D01*
X138525956Y-98503954D01*
X138466628Y-98690978D01*
X138444757Y-98885963D01*
X138461175Y-99081483D01*
X138515258Y-99270091D01*
X138518076Y-99275574D01*
X138602123Y-99439113D01*
X138602126Y-99439117D01*
X138604944Y-99444601D01*
X138632613Y-99479511D01*
X138697246Y-99561058D01*
X138723883Y-99626868D01*
X138724500Y-99639322D01*
X138724500Y-102208708D01*
X138704498Y-102276829D01*
X138677453Y-102306904D01*
X138652994Y-102326570D01*
X138646600Y-102331711D01*
X138520480Y-102482016D01*
X138517516Y-102487408D01*
X138517513Y-102487412D01*
X138443561Y-102621930D01*
X138425956Y-102653954D01*
X138366628Y-102840978D01*
X138344757Y-103035963D01*
X138361175Y-103231483D01*
X138415258Y-103420091D01*
X138418076Y-103425574D01*
X138502123Y-103589113D01*
X138502126Y-103589117D01*
X138504944Y-103594601D01*
X138626818Y-103748369D01*
X138631511Y-103752363D01*
X138631512Y-103752364D01*
X138769253Y-103869590D01*
X138776238Y-103875535D01*
X138781616Y-103878541D01*
X138781618Y-103878542D01*
X138829176Y-103905121D01*
X138947513Y-103971257D01*
X139134118Y-104031889D01*
X139328946Y-104055121D01*
X139335081Y-104054649D01*
X139335083Y-104054649D01*
X139518434Y-104040541D01*
X139518438Y-104040540D01*
X139524576Y-104040068D01*
X139713556Y-103987303D01*
X139888689Y-103898837D01*
X139897950Y-103891602D01*
X139991836Y-103818250D01*
X140043303Y-103778040D01*
X140057622Y-103761452D01*
X140167485Y-103634173D01*
X140167485Y-103634172D01*
X140171509Y-103629511D01*
X140179332Y-103615741D01*
X140253718Y-103484798D01*
X140268425Y-103458909D01*
X140330358Y-103272732D01*
X140354949Y-103078071D01*
X140355341Y-103050000D01*
X140336194Y-102854728D01*
X140334413Y-102848829D01*
X140334412Y-102848824D01*
X140281265Y-102672793D01*
X140279484Y-102666894D01*
X140190248Y-102499066D01*
X140175500Y-102439915D01*
X140175500Y-101885963D01*
X144444757Y-101885963D01*
X144461175Y-102081483D01*
X144515258Y-102270091D01*
X144518076Y-102275574D01*
X144602123Y-102439113D01*
X144602126Y-102439117D01*
X144604944Y-102444601D01*
X144726818Y-102598369D01*
X144731511Y-102602363D01*
X144731512Y-102602364D01*
X144870931Y-102721018D01*
X144876238Y-102725535D01*
X144881616Y-102728541D01*
X144881618Y-102728542D01*
X144917932Y-102748837D01*
X145047513Y-102821257D01*
X145234118Y-102881889D01*
X145428946Y-102905121D01*
X145435081Y-102904649D01*
X145435083Y-102904649D01*
X145618434Y-102890541D01*
X145618438Y-102890540D01*
X145624576Y-102890068D01*
X145813556Y-102837303D01*
X145988689Y-102748837D01*
X146080592Y-102677035D01*
X146112367Y-102652210D01*
X146178362Y-102626033D01*
X146189940Y-102625500D01*
X150385436Y-102625500D01*
X150404386Y-102626933D01*
X150417273Y-102628894D01*
X150417279Y-102628894D01*
X150424508Y-102629994D01*
X150431800Y-102629401D01*
X150431803Y-102629401D01*
X150474657Y-102625915D01*
X150484872Y-102625500D01*
X150492363Y-102625500D01*
X150495998Y-102625076D01*
X150496001Y-102625076D01*
X150512862Y-102623110D01*
X150519270Y-102622363D01*
X150523641Y-102621930D01*
X150533826Y-102621102D01*
X150585828Y-102616873D01*
X150585831Y-102616872D01*
X150593127Y-102616279D01*
X150600095Y-102614022D01*
X150605479Y-102612946D01*
X150610769Y-102611696D01*
X150618037Y-102610848D01*
X150624911Y-102608353D01*
X150624919Y-102608351D01*
X150683592Y-102587053D01*
X150687754Y-102585624D01*
X150747103Y-102566398D01*
X150754067Y-102564142D01*
X150760324Y-102560345D01*
X150765292Y-102558071D01*
X150770184Y-102555621D01*
X150777061Y-102553125D01*
X150783175Y-102549117D01*
X150783182Y-102549113D01*
X150835381Y-102514889D01*
X150839101Y-102512542D01*
X150893897Y-102479292D01*
X150893903Y-102479288D01*
X150898698Y-102476378D01*
X150902901Y-102472666D01*
X150902905Y-102472663D01*
X150906712Y-102469300D01*
X150906725Y-102469315D01*
X150910155Y-102466273D01*
X150912418Y-102464381D01*
X150918540Y-102460367D01*
X150969432Y-102406644D01*
X150971810Y-102404202D01*
X151191430Y-102184582D01*
X151253742Y-102150556D01*
X151270854Y-102148049D01*
X151311916Y-102144889D01*
X151368435Y-102140541D01*
X151368440Y-102140540D01*
X151374576Y-102140068D01*
X151380508Y-102138412D01*
X151380512Y-102138411D01*
X151469066Y-102113686D01*
X151563556Y-102087303D01*
X151738689Y-101998837D01*
X151893303Y-101878040D01*
X151903167Y-101866613D01*
X152017485Y-101734173D01*
X152017485Y-101734172D01*
X152021509Y-101729511D01*
X152118425Y-101558909D01*
X152180358Y-101372732D01*
X152204949Y-101178071D01*
X152205341Y-101150000D01*
X152186194Y-100954728D01*
X152184413Y-100948829D01*
X152184412Y-100948824D01*
X152131265Y-100772793D01*
X152129484Y-100766894D01*
X152037370Y-100593653D01*
X151944578Y-100479878D01*
X151917024Y-100414447D01*
X151928076Y-100346890D01*
X151930992Y-100340649D01*
X151932911Y-100336723D01*
X151961300Y-100281127D01*
X151961301Y-100281125D01*
X151964627Y-100274611D01*
X151966366Y-100267504D01*
X151968265Y-100262398D01*
X151969995Y-100257197D01*
X151973096Y-100250562D01*
X151987298Y-100182283D01*
X151988268Y-100177999D01*
X152004838Y-100110283D01*
X152005500Y-100099612D01*
X152005519Y-100099613D01*
X152005793Y-100095056D01*
X152006057Y-100092092D01*
X152007547Y-100084931D01*
X152005546Y-100010981D01*
X152005500Y-100007573D01*
X152005500Y-97180691D01*
X152025502Y-97112570D01*
X152068499Y-97071572D01*
X152075212Y-97067696D01*
X152082841Y-97064536D01*
X152208282Y-96968282D01*
X152304536Y-96842841D01*
X152365044Y-96696762D01*
X152366122Y-96688574D01*
X152379962Y-96583448D01*
X152379962Y-96583447D01*
X152380500Y-96579361D01*
X152380499Y-95500640D01*
X152379801Y-95495331D01*
X152366122Y-95391425D01*
X152366122Y-95391423D01*
X152365044Y-95383238D01*
X152304536Y-95237159D01*
X152208282Y-95111718D01*
X152082841Y-95015464D01*
X151936762Y-94954956D01*
X151928574Y-94953878D01*
X151823448Y-94940038D01*
X151823447Y-94940038D01*
X151819361Y-94939500D01*
X151280066Y-94939500D01*
X150740640Y-94939501D01*
X150736556Y-94940039D01*
X150736550Y-94940039D01*
X150631425Y-94953878D01*
X150631423Y-94953878D01*
X150623238Y-94954956D01*
X150477159Y-95015464D01*
X150351718Y-95111718D01*
X150255464Y-95237159D01*
X150194956Y-95383238D01*
X150179500Y-95500639D01*
X150179501Y-96579360D01*
X150180039Y-96583448D01*
X150180309Y-96587563D01*
X150179328Y-96587627D01*
X150169068Y-96653392D01*
X150121936Y-96706487D01*
X150053581Y-96725672D01*
X150017831Y-96720046D01*
X150008042Y-96717016D01*
X150008040Y-96717016D01*
X150002152Y-96715193D01*
X149996027Y-96714549D01*
X149996026Y-96714549D01*
X149952977Y-96710024D01*
X149887320Y-96683010D01*
X149846691Y-96624788D01*
X149840794Y-96579361D01*
X149840500Y-96579361D01*
X149840500Y-96577094D01*
X149840499Y-95500640D01*
X149839801Y-95495331D01*
X149826122Y-95391425D01*
X149826122Y-95391423D01*
X149825044Y-95383238D01*
X149764536Y-95237159D01*
X149668282Y-95111718D01*
X149542841Y-95015464D01*
X149396762Y-94954956D01*
X149388574Y-94953878D01*
X149283448Y-94940038D01*
X149283447Y-94940038D01*
X149279361Y-94939500D01*
X148740066Y-94939500D01*
X148200640Y-94939501D01*
X148196556Y-94940039D01*
X148196550Y-94940039D01*
X148091425Y-94953878D01*
X148091423Y-94953878D01*
X148083238Y-94954956D01*
X147937159Y-95015464D01*
X147811718Y-95111718D01*
X147715464Y-95237159D01*
X147654956Y-95383238D01*
X147639500Y-95500639D01*
X147639501Y-96579360D01*
X147640039Y-96583444D01*
X147640039Y-96583450D01*
X147653878Y-96688574D01*
X147654956Y-96696762D01*
X147715464Y-96842841D01*
X147811718Y-96968282D01*
X147937159Y-97064536D01*
X148083238Y-97125044D01*
X148091426Y-97126122D01*
X148174183Y-97137017D01*
X148239110Y-97165739D01*
X148246832Y-97172844D01*
X148765343Y-97691355D01*
X148799369Y-97753667D01*
X148801806Y-97769907D01*
X148811175Y-97881483D01*
X148812872Y-97887402D01*
X148812873Y-97887406D01*
X148834280Y-97962061D01*
X148833829Y-98033056D01*
X148795067Y-98092537D01*
X148730301Y-98121620D01*
X148660092Y-98111070D01*
X148653232Y-98107627D01*
X148589585Y-98073213D01*
X148495868Y-98044203D01*
X148408039Y-98017015D01*
X148408036Y-98017014D01*
X148402152Y-98015193D01*
X148266674Y-98000953D01*
X148201017Y-97973939D01*
X148190750Y-97964738D01*
X147235077Y-97009065D01*
X147201051Y-96946753D01*
X147206116Y-96875938D01*
X147216501Y-96857190D01*
X147215380Y-96856543D01*
X147219509Y-96849392D01*
X147224536Y-96842841D01*
X147285044Y-96696762D01*
X147286122Y-96688574D01*
X147299962Y-96583448D01*
X147299962Y-96583447D01*
X147300500Y-96579361D01*
X147300499Y-95500640D01*
X147299801Y-95495331D01*
X147286122Y-95391425D01*
X147286122Y-95391423D01*
X147285044Y-95383238D01*
X147224536Y-95237159D01*
X147128282Y-95111718D01*
X147002841Y-95015464D01*
X146856762Y-94954956D01*
X146848574Y-94953878D01*
X146743448Y-94940038D01*
X146743447Y-94940038D01*
X146739361Y-94939500D01*
X146200066Y-94939500D01*
X145660640Y-94939501D01*
X145656556Y-94940039D01*
X145656550Y-94940039D01*
X145551425Y-94953878D01*
X145551423Y-94953878D01*
X145543238Y-94954956D01*
X145397159Y-95015464D01*
X145271718Y-95111718D01*
X145175464Y-95237159D01*
X145114956Y-95383238D01*
X145099500Y-95500639D01*
X145099501Y-96579360D01*
X145100039Y-96583444D01*
X145100039Y-96583450D01*
X145113878Y-96688574D01*
X145114956Y-96696762D01*
X145175464Y-96842841D01*
X145271718Y-96968282D01*
X145397159Y-97064536D01*
X145404787Y-97067696D01*
X145404793Y-97067699D01*
X145413412Y-97071269D01*
X145468693Y-97115817D01*
X145487814Y-97158692D01*
X145488304Y-97160764D01*
X145489152Y-97168037D01*
X145491649Y-97174917D01*
X145491651Y-97174924D01*
X145512947Y-97233592D01*
X145514374Y-97237747D01*
X145535858Y-97304067D01*
X145539655Y-97310324D01*
X145541929Y-97315292D01*
X145544379Y-97320184D01*
X145546875Y-97327061D01*
X145550883Y-97333175D01*
X145550887Y-97333182D01*
X145585111Y-97385381D01*
X145587458Y-97389101D01*
X145620708Y-97443897D01*
X145620712Y-97443903D01*
X145623622Y-97448698D01*
X145627334Y-97452901D01*
X145627337Y-97452905D01*
X145630700Y-97456712D01*
X145630685Y-97456725D01*
X145633727Y-97460155D01*
X145635619Y-97462418D01*
X145639633Y-97468540D01*
X145644946Y-97473573D01*
X145693356Y-97519432D01*
X145695798Y-97521810D01*
X147165343Y-98991355D01*
X147199369Y-99053667D01*
X147201806Y-99069907D01*
X147211175Y-99181483D01*
X147265258Y-99370091D01*
X147268076Y-99375574D01*
X147352123Y-99539113D01*
X147352126Y-99539117D01*
X147354944Y-99544601D01*
X147476818Y-99698369D01*
X147626238Y-99825535D01*
X147631616Y-99828541D01*
X147631618Y-99828542D01*
X147667932Y-99848837D01*
X147797513Y-99921257D01*
X147984118Y-99981889D01*
X148178946Y-100005121D01*
X148185081Y-100004649D01*
X148185083Y-100004649D01*
X148368434Y-99990541D01*
X148368438Y-99990540D01*
X148374576Y-99990068D01*
X148563556Y-99937303D01*
X148738689Y-99848837D01*
X148768515Y-99825535D01*
X148839480Y-99770091D01*
X148893303Y-99728040D01*
X148923084Y-99693539D01*
X149017485Y-99584173D01*
X149017485Y-99584172D01*
X149021509Y-99579511D01*
X149035281Y-99555269D01*
X149098149Y-99444601D01*
X149118425Y-99408909D01*
X149180358Y-99222732D01*
X149204949Y-99028071D01*
X149205341Y-99000000D01*
X149186194Y-98804728D01*
X149166799Y-98740488D01*
X149166258Y-98669495D01*
X149204186Y-98609478D01*
X149268540Y-98579494D01*
X149338889Y-98589062D01*
X149348888Y-98594081D01*
X149397513Y-98621257D01*
X149584118Y-98681889D01*
X149778946Y-98705121D01*
X149785081Y-98704649D01*
X149785083Y-98704649D01*
X149968434Y-98690541D01*
X149968438Y-98690540D01*
X149974576Y-98690068D01*
X150163556Y-98637303D01*
X150338689Y-98548837D01*
X150343536Y-98545050D01*
X150343544Y-98545045D01*
X150350929Y-98539275D01*
X150416923Y-98513099D01*
X150486594Y-98526758D01*
X150537820Y-98575915D01*
X150554500Y-98638566D01*
X150554500Y-99667298D01*
X150534498Y-99735419D01*
X150517595Y-99756393D01*
X150305416Y-99968572D01*
X150243104Y-100002598D01*
X150203150Y-100004787D01*
X150163174Y-100000585D01*
X150113147Y-99995327D01*
X150113146Y-99995327D01*
X150107019Y-99994683D01*
X149984383Y-100005844D01*
X149917759Y-100011907D01*
X149917758Y-100011907D01*
X149911618Y-100012466D01*
X149905704Y-100014207D01*
X149905702Y-100014207D01*
X149776734Y-100052165D01*
X149723393Y-100067864D01*
X149717928Y-100070721D01*
X149554972Y-100155912D01*
X149554968Y-100155915D01*
X149549512Y-100158767D01*
X149396600Y-100281711D01*
X149270480Y-100432016D01*
X149267516Y-100437408D01*
X149267513Y-100437412D01*
X149216300Y-100530568D01*
X149175956Y-100603954D01*
X149174095Y-100609821D01*
X149174094Y-100609823D01*
X149159134Y-100656982D01*
X149116628Y-100790978D01*
X149101651Y-100924500D01*
X149096392Y-100971391D01*
X149094757Y-100985963D01*
X149095273Y-100992107D01*
X149099123Y-101037957D01*
X149084891Y-101107512D01*
X149035314Y-101158332D01*
X148973565Y-101174500D01*
X146188051Y-101174500D01*
X146119930Y-101154498D01*
X146107736Y-101145585D01*
X146039177Y-101088869D01*
X146012180Y-101066535D01*
X145839585Y-100973213D01*
X145737466Y-100941602D01*
X145658039Y-100917015D01*
X145658036Y-100917014D01*
X145652152Y-100915193D01*
X145646027Y-100914549D01*
X145646026Y-100914549D01*
X145463147Y-100895327D01*
X145463146Y-100895327D01*
X145457019Y-100894683D01*
X145349171Y-100904498D01*
X145267759Y-100911907D01*
X145267758Y-100911907D01*
X145261618Y-100912466D01*
X145255704Y-100914207D01*
X145255702Y-100914207D01*
X145223132Y-100923793D01*
X145073393Y-100967864D01*
X145067928Y-100970721D01*
X144904972Y-101055912D01*
X144904968Y-101055915D01*
X144899512Y-101058767D01*
X144894712Y-101062627D01*
X144894711Y-101062627D01*
X144862073Y-101088869D01*
X144746600Y-101181711D01*
X144620480Y-101332016D01*
X144617516Y-101337408D01*
X144617513Y-101337412D01*
X144575704Y-101413463D01*
X144525956Y-101503954D01*
X144466628Y-101690978D01*
X144444757Y-101885963D01*
X140175500Y-101885963D01*
X140175500Y-99637599D01*
X140195502Y-99569478D01*
X140206118Y-99555269D01*
X140267481Y-99484179D01*
X140267487Y-99484171D01*
X140271509Y-99479511D01*
X140368425Y-99308909D01*
X140430358Y-99122732D01*
X140454949Y-98928071D01*
X140455155Y-98913340D01*
X140455292Y-98903523D01*
X140455292Y-98903519D01*
X140455341Y-98900000D01*
X140436194Y-98704728D01*
X140434413Y-98698829D01*
X140434412Y-98698824D01*
X140381265Y-98522793D01*
X140379484Y-98516894D01*
X140309436Y-98385153D01*
X140295116Y-98315616D01*
X140320664Y-98249375D01*
X140377968Y-98207463D01*
X140420687Y-98200000D01*
X141900000Y-98200000D01*
X141900000Y-94026000D01*
X141920002Y-93957879D01*
X141973658Y-93911386D01*
X142026000Y-93900000D01*
X165674000Y-93900000D01*
X165742121Y-93920002D01*
G37*
%TD.AperFunction*%
%TD*%
M02*
