M48
; DRILL file {KiCad (6.0.7)} date Wed Sep 21 21:45:12 2022
; FORMAT={-:-/ absolute / inch / decimal}
; #@! TF.CreationDate,2022-09-21T21:45:12+01:00
; #@! TF.GenerationSoftware,Kicad,Pcbnew,(6.0.7)
; #@! TF.FileFunction,Plated,1,2,PTH
FMAT,2
INCH
; #@! TA.AperFunction,Plated,PTH,ViaDrill
T1C0.0157
; #@! TA.AperFunction,Plated,PTH,ComponentDrill
T2C0.0374
; #@! TA.AperFunction,Plated,PTH,ComponentDrill
T3C0.0394
%
G90
G05
T1
X4.4449Y-3.4055
X4.4528Y-3.8307
X4.4567Y-3.9094
X4.4862Y-4.3366
X4.5197Y-4.1024
X4.5236Y-3.6024
X4.5591Y-3.7913
X4.6142Y-3.8543
X4.6161Y-4.3681
X4.6614Y-3.2913
X4.7028Y-3.874
X4.7106Y-4.3681
X4.7913Y-3.9134
X4.813Y-4.3327
X4.8459Y-4.0255
X4.8494Y-3.9134
X4.8504Y-4.3031
X4.9134Y-4.3031
X5.3228Y-3.7913
X5.3425Y-3.4331
X5.3504Y-3.5906
X5.378Y-3.7835
X5.4862Y-4.0571
X5.4902Y-3.8937
X5.7244Y-4.1181
X5.7264Y-4.0118
X5.7854Y-4.3858
X5.8346Y-3.8976
X5.8976Y-3.8465
X5.9094Y-3.9764
X5.9528Y-3.9823
X5.9724Y-4.0512
X5.9724Y-4.1004
X6.0591Y-3.9094
X6.1496Y-4.1004
X6.1496Y-4.2283
X6.1988Y-4.1594
X6.2574Y-4.0025
X6.2677Y-4.0512
X6.313Y-4.3799
X6.3563Y-4.002
X6.3583Y-4.1614
X6.4454Y-4.0507
T2
X5.2441Y-4.5039
X5.3425Y-4.5039
X5.4409Y-4.5039
X5.7657Y-4.5039
X5.8642Y-4.5039
X5.9626Y-4.5039
X6.3071Y-4.5039
X6.4055Y-4.5039
X6.5039Y-4.5039
X6.6024Y-4.5039
X6.7008Y-4.5039
T3
X4.0827Y-3.4902
X4.0827Y-3.5886
X4.0827Y-4.002
X4.0827Y-4.1004
X4.4272Y-4.502
X4.5256Y-4.502
X6.9862Y-3.5098
X6.9862Y-3.6083
X6.9862Y-4.0217
X6.9862Y-4.1201
T0
M30
