%TF.GenerationSoftware,KiCad,Pcbnew,(6.0.7)*%
%TF.CreationDate,2022-09-21T21:45:15+01:00*%
%TF.ProjectId,digital_volume,64696769-7461-46c5-9f76-6f6c756d652e,rev?*%
%TF.SameCoordinates,Original*%
%TF.FileFunction,Soldermask,Top*%
%TF.FilePolarity,Negative*%
%FSLAX46Y46*%
G04 Gerber Fmt 4.6, Leading zero omitted, Abs format (unit mm)*
G04 Created by KiCad (PCBNEW (6.0.7)) date 2022-09-21 21:45:15*
%MOMM*%
%LPD*%
G01*
G04 APERTURE LIST*
G04 Aperture macros list*
%AMRoundRect*
0 Rectangle with rounded corners*
0 $1 Rounding radius*
0 $2 $3 $4 $5 $6 $7 $8 $9 X,Y pos of 4 corners*
0 Add a 4 corners polygon primitive as box body*
4,1,4,$2,$3,$4,$5,$6,$7,$8,$9,$2,$3,0*
0 Add four circle primitives for the rounded corners*
1,1,$1+$1,$2,$3*
1,1,$1+$1,$4,$5*
1,1,$1+$1,$6,$7*
1,1,$1+$1,$8,$9*
0 Add four rect primitives between the rounded corners*
20,1,$1+$1,$2,$3,$4,$5,0*
20,1,$1+$1,$4,$5,$6,$7,0*
20,1,$1+$1,$6,$7,$8,$9,0*
20,1,$1+$1,$8,$9,$2,$3,0*%
G04 Aperture macros list end*
%ADD10RoundRect,0.200000X0.150000X-0.825000X0.150000X0.825000X-0.150000X0.825000X-0.150000X-0.825000X0*%
%ADD11RoundRect,0.275000X-0.225000X-0.250000X0.225000X-0.250000X0.225000X0.250000X-0.225000X0.250000X0*%
%ADD12C,3.300000*%
%ADD13RoundRect,0.300000X-0.600000X-0.725000X0.600000X-0.725000X0.600000X0.725000X-0.600000X0.725000X0*%
%ADD14O,1.800000X2.050000*%
%ADD15O,2.100000X1.800000*%
%ADD16RoundRect,0.300000X-0.750000X0.600000X-0.750000X-0.600000X0.750000X-0.600000X0.750000X0.600000X0*%
%ADD17RoundRect,0.300000X0.750000X-0.600000X0.750000X0.600000X-0.750000X0.600000X-0.750000X-0.600000X0*%
%ADD18RoundRect,0.300000X-0.600000X-0.750000X0.600000X-0.750000X0.600000X0.750000X-0.600000X0.750000X0*%
%ADD19O,1.800000X2.100000*%
%ADD20RoundRect,0.250000X-0.200000X-0.275000X0.200000X-0.275000X0.200000X0.275000X-0.200000X0.275000X0*%
%ADD21RoundRect,0.250000X0.200000X0.275000X-0.200000X0.275000X-0.200000X-0.275000X0.200000X-0.275000X0*%
%ADD22RoundRect,0.287500X-0.237500X0.287500X-0.237500X-0.287500X0.237500X-0.287500X0.237500X0.287500X0*%
%ADD23RoundRect,0.200000X-0.512500X-0.150000X0.512500X-0.150000X0.512500X0.150000X-0.512500X0.150000X0*%
%ADD24RoundRect,0.300000X-0.550000X1.050000X-0.550000X-1.050000X0.550000X-1.050000X0.550000X1.050000X0*%
%ADD25RoundRect,0.250000X-0.275000X0.200000X-0.275000X-0.200000X0.275000X-0.200000X0.275000X0.200000X0*%
%ADD26RoundRect,0.200000X-0.825000X-0.150000X0.825000X-0.150000X0.825000X0.150000X-0.825000X0.150000X0*%
%ADD27RoundRect,0.300000X1.050000X0.550000X-1.050000X0.550000X-1.050000X-0.550000X1.050000X-0.550000X0*%
%ADD28RoundRect,0.287500X0.287500X0.237500X-0.287500X0.237500X-0.287500X-0.237500X0.287500X-0.237500X0*%
%ADD29RoundRect,0.275000X-0.250000X0.225000X-0.250000X-0.225000X0.250000X-0.225000X0.250000X0.225000X0*%
%ADD30RoundRect,0.150000X0.637500X0.100000X-0.637500X0.100000X-0.637500X-0.100000X0.637500X-0.100000X0*%
%ADD31RoundRect,0.275000X0.225000X0.250000X-0.225000X0.250000X-0.225000X-0.250000X0.225000X-0.250000X0*%
%ADD32RoundRect,0.250000X0.275000X-0.200000X0.275000X0.200000X-0.275000X0.200000X-0.275000X-0.200000X0*%
G04 APERTURE END LIST*
D10*
%TO.C,U5*%
X132795000Y-89425000D03*
X134065000Y-89425000D03*
X135335000Y-89425000D03*
X136605000Y-89425000D03*
X136605000Y-94375000D03*
X135335000Y-94375000D03*
X134065000Y-94375000D03*
X132795000Y-94375000D03*
%TD*%
D11*
%TO.C,C13*%
X134350000Y-87200000D03*
X132800000Y-87200000D03*
%TD*%
D12*
%TO.C,H4*%
X104200000Y-80900000D03*
%TD*%
%TO.C,H3*%
X104200000Y-113900000D03*
%TD*%
%TO.C,H2*%
X177200000Y-113900000D03*
%TD*%
%TO.C,H1*%
X177200000Y-80900000D03*
%TD*%
D13*
%TO.C,J2*%
X133200000Y-114400000D03*
D14*
X135700000Y-114400000D03*
X138200000Y-114400000D03*
%TD*%
D15*
%TO.C,J8*%
X103700000Y-91150000D03*
D16*
X103700000Y-88650000D03*
%TD*%
D15*
%TO.C,J7*%
X103700000Y-104150000D03*
D16*
X103700000Y-101650000D03*
%TD*%
D17*
%TO.C,J6*%
X177450000Y-91650000D03*
D15*
X177450000Y-89150000D03*
%TD*%
D17*
%TO.C,J5*%
X177450000Y-104650000D03*
D15*
X177450000Y-102150000D03*
%TD*%
D18*
%TO.C,J4*%
X112450000Y-114350000D03*
D19*
X114950000Y-114350000D03*
%TD*%
D20*
%TO.C,R8*%
X117950000Y-104900000D03*
X116300000Y-104900000D03*
%TD*%
D21*
%TO.C,R7*%
X116300000Y-91900000D03*
X117950000Y-91900000D03*
%TD*%
D22*
%TO.C,D1*%
X108450000Y-109400000D03*
X108450000Y-111150000D03*
%TD*%
D23*
%TO.C,U4*%
X126700000Y-80650000D03*
X126700000Y-81600000D03*
X126700000Y-82550000D03*
X128975000Y-82550000D03*
X128975000Y-80650000D03*
%TD*%
D13*
%TO.C,J3*%
X160200000Y-114400000D03*
D14*
X162700000Y-114400000D03*
X165200000Y-114400000D03*
X167700000Y-114400000D03*
X170200000Y-114400000D03*
%TD*%
D13*
%TO.C,J1*%
X146450000Y-114400000D03*
D14*
X148950000Y-114400000D03*
X151450000Y-114400000D03*
%TD*%
D20*
%TO.C,R11*%
X126800000Y-84400000D03*
X128450000Y-84400000D03*
%TD*%
D24*
%TO.C,C11*%
X123200000Y-79550000D03*
X123200000Y-83150000D03*
%TD*%
D25*
%TO.C,R6*%
X140950000Y-98575000D03*
X140950000Y-100225000D03*
%TD*%
D26*
%TO.C,U2*%
X119675000Y-86245000D03*
X119675000Y-87515000D03*
X119675000Y-88785000D03*
X119675000Y-90055000D03*
X114725000Y-90055000D03*
X114725000Y-88785000D03*
X114725000Y-87515000D03*
X114725000Y-86245000D03*
%TD*%
D27*
%TO.C,C10*%
X107950000Y-101650000D03*
X111550000Y-101650000D03*
%TD*%
D24*
%TO.C,C2*%
X112450000Y-106900000D03*
X112450000Y-110500000D03*
%TD*%
D27*
%TO.C,C7*%
X107950000Y-88650000D03*
X111550000Y-88650000D03*
%TD*%
D20*
%TO.C,R2*%
X161450000Y-99900000D03*
X163100000Y-99900000D03*
%TD*%
D26*
%TO.C,U3*%
X119675000Y-99245000D03*
X119675000Y-100515000D03*
X119675000Y-101785000D03*
X119675000Y-103055000D03*
X114725000Y-103055000D03*
X114725000Y-101785000D03*
X114725000Y-100515000D03*
X114725000Y-99245000D03*
%TD*%
D11*
%TO.C,C6*%
X151150000Y-98900000D03*
X152700000Y-98900000D03*
%TD*%
D28*
%TO.C,D2*%
X139575000Y-106400000D03*
X137825000Y-106400000D03*
%TD*%
D29*
%TO.C,C3*%
X122950000Y-107325000D03*
X122950000Y-105775000D03*
%TD*%
D28*
%TO.C,D3*%
X139575000Y-104650000D03*
X137825000Y-104650000D03*
%TD*%
D30*
%TO.C,U1*%
X153312500Y-106325000D03*
X153312500Y-105675000D03*
X153312500Y-105025000D03*
X153312500Y-104375000D03*
X153312500Y-103725000D03*
X153312500Y-103075000D03*
X153312500Y-102425000D03*
X153312500Y-101775000D03*
X153312500Y-101125000D03*
X153312500Y-100475000D03*
X147587500Y-100475000D03*
X147587500Y-101125000D03*
X147587500Y-101775000D03*
X147587500Y-102425000D03*
X147587500Y-103075000D03*
X147587500Y-103725000D03*
X147587500Y-104375000D03*
X147587500Y-105025000D03*
X147587500Y-105675000D03*
X147587500Y-106325000D03*
%TD*%
D24*
%TO.C,C4*%
X126450000Y-106300000D03*
X126450000Y-109900000D03*
%TD*%
D20*
%TO.C,R3*%
X134375000Y-106400000D03*
X136025000Y-106400000D03*
%TD*%
%TO.C,R4*%
X134450000Y-104650000D03*
X136100000Y-104650000D03*
%TD*%
D25*
%TO.C,R10*%
X119700000Y-80650000D03*
X119700000Y-82300000D03*
%TD*%
D21*
%TO.C,R1*%
X160350000Y-107400000D03*
X158700000Y-107400000D03*
%TD*%
D11*
%TO.C,C8*%
X115975000Y-84650000D03*
X114425000Y-84650000D03*
%TD*%
%TO.C,C9*%
X115750000Y-97400000D03*
X114200000Y-97400000D03*
%TD*%
D20*
%TO.C,FB1*%
X117700000Y-109400000D03*
X119350000Y-109400000D03*
%TD*%
D31*
%TO.C,C12*%
X128200000Y-78900000D03*
X126650000Y-78900000D03*
%TD*%
D20*
%TO.C,R9*%
X118050000Y-78900000D03*
X119700000Y-78900000D03*
%TD*%
D11*
%TO.C,C5*%
X158750000Y-105650000D03*
X160300000Y-105650000D03*
%TD*%
D32*
%TO.C,R5*%
X142950000Y-103050000D03*
X142950000Y-101400000D03*
%TD*%
D29*
%TO.C,C1*%
X115950000Y-109400000D03*
X115950000Y-110950000D03*
%TD*%
M02*
