%TF.GenerationSoftware,KiCad,Pcbnew,(6.0.7)*%
%TF.CreationDate,2022-12-15T14:34:03+00:00*%
%TF.ProjectId,digital-tone,64696769-7461-46c2-9d74-6f6e652e6b69,rev?*%
%TF.SameCoordinates,Original*%
%TF.FileFunction,Copper,L2,Bot*%
%TF.FilePolarity,Positive*%
%FSLAX46Y46*%
G04 Gerber Fmt 4.6, Leading zero omitted, Abs format (unit mm)*
G04 Created by KiCad (PCBNEW (6.0.7)) date 2022-12-15 14:34:03*
%MOMM*%
%LPD*%
G01*
G04 APERTURE LIST*
G04 Aperture macros list*
%AMRoundRect*
0 Rectangle with rounded corners*
0 $1 Rounding radius*
0 $2 $3 $4 $5 $6 $7 $8 $9 X,Y pos of 4 corners*
0 Add a 4 corners polygon primitive as box body*
4,1,4,$2,$3,$4,$5,$6,$7,$8,$9,$2,$3,0*
0 Add four circle primitives for the rounded corners*
1,1,$1+$1,$2,$3*
1,1,$1+$1,$4,$5*
1,1,$1+$1,$6,$7*
1,1,$1+$1,$8,$9*
0 Add four rect primitives between the rounded corners*
20,1,$1+$1,$2,$3,$4,$5,0*
20,1,$1+$1,$4,$5,$6,$7,0*
20,1,$1+$1,$6,$7,$8,$9,0*
20,1,$1+$1,$8,$9,$2,$3,0*%
G04 Aperture macros list end*
%TA.AperFunction,ComponentPad*%
%ADD10RoundRect,0.250000X-0.600000X-0.600000X0.600000X-0.600000X0.600000X0.600000X-0.600000X0.600000X0*%
%TD*%
%TA.AperFunction,ComponentPad*%
%ADD11C,1.700000*%
%TD*%
%TA.AperFunction,ComponentPad*%
%ADD12R,2.600000X2.600000*%
%TD*%
%TA.AperFunction,ComponentPad*%
%ADD13C,2.600000*%
%TD*%
%TA.AperFunction,ViaPad*%
%ADD14C,0.800000*%
%TD*%
%TA.AperFunction,Conductor*%
%ADD15C,0.250000*%
%TD*%
%TA.AperFunction,Conductor*%
%ADD16C,0.500000*%
%TD*%
G04 APERTURE END LIST*
D10*
%TO.P,J3,1,Pin_1*%
%TO.N,+5VA*%
X176060000Y-104420000D03*
D11*
%TO.P,J3,2,Pin_2*%
%TO.N,GNDA*%
X178600000Y-104420000D03*
%TO.P,J3,3,Pin_3*%
%TO.N,RV1_1_BASS_L*%
X176060000Y-106960000D03*
%TO.P,J3,4,Pin_4*%
%TO.N,RV1_1_BASS_R*%
X178600000Y-106960000D03*
%TO.P,J3,5,Pin_5*%
%TO.N,RV1_2_BASS_L*%
X176060000Y-109500000D03*
%TO.P,J3,6,Pin_6*%
%TO.N,RV1_2_BASS_R*%
X178600000Y-109500000D03*
%TO.P,J3,7,Pin_7*%
%TO.N,RV1_3_BASS_L*%
X176060000Y-112040000D03*
%TO.P,J3,8,Pin_8*%
%TO.N,RV1_3_BASS_R*%
X178600000Y-112040000D03*
%TO.P,J3,9,Pin_9*%
%TO.N,Net-(J3-Pad9)*%
X176060000Y-114580000D03*
%TO.P,J3,10,Pin_10*%
%TO.N,Net-(J3-Pad10)*%
X178600000Y-114580000D03*
%TD*%
D10*
%TO.P,J4,1,Pin_1*%
%TO.N,+5VA*%
X176047500Y-66420000D03*
D11*
%TO.P,J4,2,Pin_2*%
%TO.N,GNDA*%
X178587500Y-66420000D03*
%TO.P,J4,3,Pin_3*%
%TO.N,RV2_1_TREB_L*%
X176047500Y-68960000D03*
%TO.P,J4,4,Pin_4*%
%TO.N,RV2_1_TREB_R*%
X178587500Y-68960000D03*
%TO.P,J4,5,Pin_5*%
%TO.N,RV2_2_TREB_L*%
X176047500Y-71500000D03*
%TO.P,J4,6,Pin_6*%
%TO.N,RV2_2_TREB_R*%
X178587500Y-71500000D03*
%TO.P,J4,7,Pin_7*%
%TO.N,RV2_3_TREB_L*%
X176047500Y-74040000D03*
%TO.P,J4,8,Pin_8*%
%TO.N,RV2_3_TREB_R*%
X178587500Y-74040000D03*
%TO.P,J4,9,Pin_9*%
%TO.N,Net-(J4-Pad9)*%
X176047500Y-76580000D03*
%TO.P,J4,10,Pin_10*%
%TO.N,Net-(J4-Pad10)*%
X178587500Y-76580000D03*
%TD*%
D12*
%TO.P,J2,1,Pin_1*%
%TO.N,AUDIO_IN_L*%
X111695000Y-82100000D03*
D13*
%TO.P,J2,2,Pin_2*%
%TO.N,GNDA*%
X111695000Y-87100000D03*
%TO.P,J2,3,Pin_3*%
%TO.N,AUDIO_IN_R*%
X111695000Y-92100000D03*
%TD*%
D12*
%TO.P,J5,1,Pin_1*%
%TO.N,AUDIO_OUT_L*%
X111695000Y-105900000D03*
D13*
%TO.P,J5,2,Pin_2*%
%TO.N,GNDA*%
X111695000Y-110900000D03*
%TO.P,J5,3,Pin_3*%
%TO.N,AUDIO_OUT_R*%
X111695000Y-115900000D03*
%TD*%
D12*
%TO.P,J1,1,Pin_1*%
%TO.N,/connections/VIN_RAW*%
X111695000Y-65000000D03*
D13*
%TO.P,J1,2,Pin_2*%
%TO.N,GNDA*%
X111695000Y-70000000D03*
%TD*%
D14*
%TO.N,AUDIO_BUFF_L*%
X167500000Y-77400000D03*
X138200000Y-81400000D03*
X138400000Y-77500000D03*
X165924500Y-111700000D03*
%TO.N,AUDIO_BUFF_R*%
X140900000Y-92300000D03*
X140900000Y-95849500D03*
X165100000Y-95600000D03*
X165200000Y-113500000D03*
%TO.N,RV2_3_TREB_R*%
X163900000Y-113200000D03*
X163924500Y-76600000D03*
%TO.N,RV2_3_TREB_L*%
X163200000Y-75700000D03*
X163200000Y-111500000D03*
%TO.N,+5VA*%
X157834128Y-68876143D03*
X157800000Y-89200000D03*
%TO.N,Net-(C12-Pad1)*%
X170200000Y-75400000D03*
X170100000Y-86100000D03*
%TO.N,RV2_1_TREB_R*%
X155200000Y-69700000D03*
X153900000Y-91300000D03*
%TO.N,RV2_1_TREB_L*%
X166500000Y-68000000D03*
%TO.N,RV2_1_TREB_R*%
X152900000Y-103500000D03*
X152700000Y-93100000D03*
%TO.N,RV2_1_TREB_L*%
X166800000Y-106700000D03*
X166400000Y-84400000D03*
%TO.N,GNDA*%
X153500000Y-87400000D03*
X146000000Y-84200000D03*
%TO.N,TONE_OUT_R*%
X157600000Y-124200000D03*
X157624500Y-91400000D03*
%TO.N,TONE_OUT_L*%
X156900000Y-112800000D03*
X156900000Y-82200000D03*
%TO.N,Net-(C11-Pad1)*%
X171400000Y-78200000D03*
X171400000Y-69100000D03*
%TO.N,BIAS_2V5_L*%
X142900000Y-81200000D03*
X153900000Y-74200000D03*
X153700000Y-70700000D03*
X142800000Y-74200000D03*
%TO.N,BIAS_2V5_R*%
X142600000Y-90400000D03*
X140900000Y-70700000D03*
%TO.N,RV1_2_BASS_R*%
X180900000Y-94300000D03*
%TO.N,RV1_2_BASS_L*%
X172900000Y-108200000D03*
X171700000Y-79200000D03*
%TO.N,+15V*%
X152400000Y-66700000D03*
X128200000Y-66700000D03*
X152400000Y-64800000D03*
X152400000Y-58600000D03*
%TO.N,GNDA*%
X157300000Y-67500000D03*
%TO.N,+15V*%
X128200000Y-102700000D03*
X128200000Y-100300000D03*
X133600000Y-117000000D03*
X148055000Y-103095000D03*
X128200000Y-89300000D03*
X142555000Y-102795000D03*
X133600000Y-103137500D03*
%TO.N,GNDA*%
X163500000Y-58487701D03*
X114700000Y-101900000D03*
X137300000Y-118700000D03*
X152400000Y-104500000D03*
X114700000Y-96100000D03*
X144700000Y-108000000D03*
X144300000Y-70050000D03*
X156500000Y-58587701D03*
X147900000Y-100600000D03*
X139350000Y-60052500D03*
X165400000Y-62687701D03*
X134047500Y-62450000D03*
X127800000Y-63602500D03*
X142697500Y-63705000D03*
X114800000Y-78100000D03*
X144900000Y-122900000D03*
X114700000Y-119900000D03*
X121100000Y-84400000D03*
X135300000Y-68750000D03*
X130300000Y-107700000D03*
X154900000Y-62287701D03*
X132000000Y-69750000D03*
X148100000Y-68850000D03*
X118900000Y-63302500D03*
X149997500Y-63400000D03*
X134200000Y-100800000D03*
X138300000Y-104600000D03*
%TO.N,BIAS_R*%
X149200000Y-122000000D03*
X125200000Y-95000000D03*
X125100000Y-93300000D03*
X149200000Y-126700000D03*
X149200000Y-99100000D03*
X146600000Y-95000000D03*
X146500000Y-99000000D03*
%TO.N,BIAS_L*%
X126900000Y-96300000D03*
X140700000Y-97900000D03*
X126900000Y-81800000D03*
X141300000Y-118700000D03*
X141200000Y-113100000D03*
%TD*%
D15*
%TO.N,AUDIO_BUFF_L*%
X167525000Y-77425000D02*
X167525000Y-110099500D01*
X167500000Y-77400000D02*
X167525000Y-77425000D01*
X138200000Y-77700000D02*
X138400000Y-77500000D01*
X138200000Y-81400000D02*
X138200000Y-77700000D01*
X165924500Y-111700000D02*
X167525000Y-110099500D01*
%TO.N,AUDIO_BUFF_R*%
X140900000Y-95849500D02*
X140900000Y-92300000D01*
X165200000Y-95700000D02*
X165100000Y-95600000D01*
X165200000Y-113500000D02*
X165200000Y-95700000D01*
%TO.N,RV2_3_TREB_R*%
X163925000Y-76600500D02*
X163924500Y-76600000D01*
X163900000Y-113200000D02*
X163925000Y-113175000D01*
X163925000Y-113175000D02*
X163925000Y-76600500D01*
%TO.N,RV2_3_TREB_L*%
X163200000Y-111500000D02*
X163200000Y-75700000D01*
D16*
%TO.N,+5VA*%
X157800000Y-68910271D02*
X157834128Y-68876143D01*
X157800000Y-89200000D02*
X157800000Y-68910271D01*
D15*
%TO.N,Net-(C12-Pad1)*%
X170100000Y-75500000D02*
X170200000Y-75400000D01*
X170100000Y-86100000D02*
X170100000Y-75900000D01*
X170100000Y-75900000D02*
X170100000Y-75500000D01*
%TO.N,RV2_1_TREB_R*%
X153900000Y-91300000D02*
X155200000Y-90000000D01*
X155200000Y-90000000D02*
X155200000Y-69700000D01*
%TO.N,RV2_1_TREB_L*%
X166400000Y-68100000D02*
X166500000Y-68000000D01*
X166400000Y-84400000D02*
X166400000Y-68100000D01*
%TO.N,RV2_1_TREB_R*%
X152700000Y-103300000D02*
X152900000Y-103500000D01*
X152700000Y-93100000D02*
X152700000Y-103300000D01*
%TO.N,RV2_1_TREB_L*%
X166400000Y-106300000D02*
X166800000Y-106700000D01*
X166400000Y-84400000D02*
X166400000Y-106300000D01*
%TO.N,TONE_OUT_R*%
X157624500Y-91400000D02*
X157624500Y-124175500D01*
X157624500Y-124175500D02*
X157600000Y-124200000D01*
%TO.N,TONE_OUT_L*%
X156900000Y-82200000D02*
X156900000Y-112800000D01*
%TO.N,Net-(C11-Pad1)*%
X171400000Y-69100000D02*
X171400000Y-78200000D01*
%TO.N,BIAS_2V5_L*%
X142800000Y-81100000D02*
X142900000Y-81200000D01*
X142800000Y-74200000D02*
X142800000Y-81100000D01*
X153700000Y-70700000D02*
X153900000Y-70900000D01*
X153900000Y-70900000D02*
X153900000Y-74200000D01*
%TO.N,BIAS_2V5_R*%
X140900000Y-88700000D02*
X142600000Y-90400000D01*
X140900000Y-70700000D02*
X140900000Y-88700000D01*
%TO.N,RV1_2_BASS_R*%
X180900000Y-107200000D02*
X178600000Y-109500000D01*
X180900000Y-94300000D02*
X180900000Y-107200000D01*
%TO.N,RV1_2_BASS_L*%
X171700000Y-107000000D02*
X172900000Y-108200000D01*
X171700000Y-79200000D02*
X171700000Y-107000000D01*
D16*
%TO.N,+15V*%
X152400000Y-64800000D02*
X152400000Y-66700000D01*
X128200000Y-72900000D02*
X128200000Y-66700000D01*
X152400000Y-58600000D02*
X152400000Y-64800000D01*
X133600000Y-103137500D02*
X133600000Y-117000000D01*
X128200000Y-72900000D02*
X128200000Y-89300000D01*
X142855000Y-103095000D02*
X142555000Y-102795000D01*
X128200000Y-95500000D02*
X128200000Y-100300000D01*
X128200000Y-103000000D02*
X128200000Y-102700000D01*
X128200000Y-89300000D02*
X128200000Y-95500000D01*
X148055000Y-103095000D02*
X142855000Y-103095000D01*
X128337500Y-103137500D02*
X133600000Y-103137500D01*
X128337500Y-103137500D02*
X128200000Y-103000000D01*
%TO.N,+5VA*%
X174300000Y-66900000D02*
X174780000Y-66420000D01*
X176060000Y-81960000D02*
X174300000Y-80200000D01*
X174300000Y-80200000D02*
X174300000Y-66900000D01*
X174780000Y-66420000D02*
X176047500Y-66420000D01*
X176060000Y-104420000D02*
X176060000Y-81960000D01*
%TO.N,BIAS_R*%
X146600000Y-98900000D02*
X146500000Y-99000000D01*
X149200000Y-123900000D02*
X149200000Y-126700000D01*
X125200000Y-93400000D02*
X125100000Y-93300000D01*
X125200000Y-95000000D02*
X125200000Y-93400000D01*
X149200000Y-99100000D02*
X149200000Y-122000000D01*
X146600000Y-95000000D02*
X146600000Y-98900000D01*
X149200000Y-122000000D02*
X149200000Y-123900000D01*
%TO.N,BIAS_L*%
X140700000Y-97900000D02*
X141200000Y-98400000D01*
X141200000Y-118600000D02*
X141300000Y-118700000D01*
X141200000Y-113100000D02*
X141200000Y-118600000D01*
X126900000Y-81800000D02*
X126900000Y-96300000D01*
X141200000Y-98400000D02*
X141200000Y-113100000D01*
%TD*%
%TA.AperFunction,Conductor*%
%TO.N,GNDA*%
G36*
X178970018Y-52410000D02*
G01*
X178984852Y-52412310D01*
X178984855Y-52412310D01*
X178993724Y-52413691D01*
X179002627Y-52412527D01*
X179002628Y-52412527D01*
X179013076Y-52411161D01*
X179035594Y-52410249D01*
X179336051Y-52425010D01*
X179348345Y-52426221D01*
X179675034Y-52474680D01*
X179687156Y-52477090D01*
X179781196Y-52500646D01*
X180007523Y-52557339D01*
X180019355Y-52560928D01*
X180330311Y-52672190D01*
X180341735Y-52676922D01*
X180409500Y-52708972D01*
X180640292Y-52818128D01*
X180651188Y-52823953D01*
X180792101Y-52908412D01*
X180934467Y-52993744D01*
X180944748Y-53000614D01*
X181210017Y-53197350D01*
X181219556Y-53205177D01*
X181464282Y-53426985D01*
X181473015Y-53435718D01*
X181694823Y-53680444D01*
X181702650Y-53689983D01*
X181831381Y-53863557D01*
X181899386Y-53955252D01*
X181906256Y-53965533D01*
X182076045Y-54248807D01*
X182081872Y-54259708D01*
X182088881Y-54274527D01*
X182223078Y-54558265D01*
X182227810Y-54569689D01*
X182339072Y-54880645D01*
X182342661Y-54892477D01*
X182398742Y-55116361D01*
X182421973Y-55209103D01*
X182422909Y-55212841D01*
X182425320Y-55224966D01*
X182462873Y-55478124D01*
X182473779Y-55551650D01*
X182474990Y-55563949D01*
X182485192Y-55771583D01*
X182489390Y-55857034D01*
X182488042Y-55882598D01*
X182486309Y-55893724D01*
X182487474Y-55902630D01*
X182490436Y-55925283D01*
X182491500Y-55941621D01*
X182491500Y-127850633D01*
X182490000Y-127870018D01*
X182486309Y-127893724D01*
X182487473Y-127902627D01*
X182487473Y-127902628D01*
X182488839Y-127913076D01*
X182489751Y-127935594D01*
X182483896Y-128054784D01*
X182474991Y-128236045D01*
X182473779Y-128248345D01*
X182460902Y-128335159D01*
X182425321Y-128575031D01*
X182422910Y-128587156D01*
X182420936Y-128595036D01*
X182342661Y-128907523D01*
X182339072Y-128919355D01*
X182227810Y-129230311D01*
X182223078Y-129241735D01*
X182173415Y-129346740D01*
X182087486Y-129528423D01*
X182081874Y-129540288D01*
X182076045Y-129551193D01*
X181906256Y-129834467D01*
X181899386Y-129844748D01*
X181702650Y-130110017D01*
X181694823Y-130119556D01*
X181473020Y-130364277D01*
X181464282Y-130373015D01*
X181219556Y-130594823D01*
X181210017Y-130602650D01*
X181015517Y-130746901D01*
X180944748Y-130799386D01*
X180934467Y-130806256D01*
X180792101Y-130891588D01*
X180651188Y-130976047D01*
X180640292Y-130981872D01*
X180505870Y-131045448D01*
X180341735Y-131123078D01*
X180330311Y-131127810D01*
X180019355Y-131239072D01*
X180007523Y-131242661D01*
X179781196Y-131299354D01*
X179687156Y-131322910D01*
X179675034Y-131325320D01*
X179348345Y-131373779D01*
X179336051Y-131374990D01*
X179042961Y-131389390D01*
X179017402Y-131388042D01*
X179006276Y-131386309D01*
X178974714Y-131390436D01*
X178958379Y-131391500D01*
X107049367Y-131391500D01*
X107029982Y-131390000D01*
X107015148Y-131387690D01*
X107015145Y-131387690D01*
X107006276Y-131386309D01*
X106997373Y-131387473D01*
X106997372Y-131387473D01*
X106986924Y-131388839D01*
X106964406Y-131389751D01*
X106663949Y-131374990D01*
X106651655Y-131373779D01*
X106324966Y-131325320D01*
X106312844Y-131322910D01*
X106218804Y-131299354D01*
X105992477Y-131242661D01*
X105980645Y-131239072D01*
X105669689Y-131127810D01*
X105658265Y-131123078D01*
X105494130Y-131045448D01*
X105359708Y-130981872D01*
X105348812Y-130976047D01*
X105207899Y-130891588D01*
X105065533Y-130806256D01*
X105055252Y-130799386D01*
X104984483Y-130746901D01*
X104789983Y-130602650D01*
X104780444Y-130594823D01*
X104535718Y-130373015D01*
X104526980Y-130364277D01*
X104305177Y-130119556D01*
X104297350Y-130110017D01*
X104100614Y-129844748D01*
X104093744Y-129834467D01*
X103923955Y-129551193D01*
X103918126Y-129540288D01*
X103912515Y-129528423D01*
X103826585Y-129346740D01*
X103776922Y-129241735D01*
X103772190Y-129230311D01*
X103660928Y-128919355D01*
X103657339Y-128907523D01*
X103579064Y-128595036D01*
X103577090Y-128587156D01*
X103574679Y-128575031D01*
X103539098Y-128335159D01*
X103526220Y-128248343D01*
X103525009Y-128236045D01*
X103515020Y-128032703D01*
X104890743Y-128032703D01*
X104928268Y-128317734D01*
X105004129Y-128595036D01*
X105116923Y-128859476D01*
X105264561Y-129106161D01*
X105444313Y-129330528D01*
X105652851Y-129528423D01*
X105886317Y-129696186D01*
X105890112Y-129698195D01*
X105890113Y-129698196D01*
X105911869Y-129709715D01*
X106140392Y-129830712D01*
X106410373Y-129929511D01*
X106691264Y-129990755D01*
X106719841Y-129993004D01*
X106914282Y-130008307D01*
X106914291Y-130008307D01*
X106916739Y-130008500D01*
X107072271Y-130008500D01*
X107074407Y-130008354D01*
X107074418Y-130008354D01*
X107282548Y-129994165D01*
X107282554Y-129994164D01*
X107286825Y-129993873D01*
X107291020Y-129993004D01*
X107291022Y-129993004D01*
X107427584Y-129964723D01*
X107568342Y-129935574D01*
X107839343Y-129839607D01*
X108094812Y-129707750D01*
X108098313Y-129705289D01*
X108098317Y-129705287D01*
X108317570Y-129551193D01*
X108330023Y-129542441D01*
X108540622Y-129346740D01*
X108722713Y-129124268D01*
X108872927Y-128879142D01*
X108988483Y-128615898D01*
X109067244Y-128339406D01*
X109107751Y-128054784D01*
X109107845Y-128036951D01*
X109107867Y-128032703D01*
X176890743Y-128032703D01*
X176928268Y-128317734D01*
X177004129Y-128595036D01*
X177116923Y-128859476D01*
X177264561Y-129106161D01*
X177444313Y-129330528D01*
X177652851Y-129528423D01*
X177886317Y-129696186D01*
X177890112Y-129698195D01*
X177890113Y-129698196D01*
X177911869Y-129709715D01*
X178140392Y-129830712D01*
X178410373Y-129929511D01*
X178691264Y-129990755D01*
X178719841Y-129993004D01*
X178914282Y-130008307D01*
X178914291Y-130008307D01*
X178916739Y-130008500D01*
X179072271Y-130008500D01*
X179074407Y-130008354D01*
X179074418Y-130008354D01*
X179282548Y-129994165D01*
X179282554Y-129994164D01*
X179286825Y-129993873D01*
X179291020Y-129993004D01*
X179291022Y-129993004D01*
X179427584Y-129964723D01*
X179568342Y-129935574D01*
X179839343Y-129839607D01*
X180094812Y-129707750D01*
X180098313Y-129705289D01*
X180098317Y-129705287D01*
X180317570Y-129551193D01*
X180330023Y-129542441D01*
X180540622Y-129346740D01*
X180722713Y-129124268D01*
X180872927Y-128879142D01*
X180988483Y-128615898D01*
X181067244Y-128339406D01*
X181107751Y-128054784D01*
X181107845Y-128036951D01*
X181109235Y-127771583D01*
X181109235Y-127771576D01*
X181109257Y-127767297D01*
X181071732Y-127482266D01*
X180995871Y-127204964D01*
X180938967Y-127071556D01*
X180884763Y-126944476D01*
X180884761Y-126944472D01*
X180883077Y-126940524D01*
X180808527Y-126815960D01*
X180737643Y-126697521D01*
X180737640Y-126697517D01*
X180735439Y-126693839D01*
X180555687Y-126469472D01*
X180347149Y-126271577D01*
X180113683Y-126103814D01*
X180091843Y-126092250D01*
X180068654Y-126079972D01*
X179859608Y-125969288D01*
X179589627Y-125870489D01*
X179308736Y-125809245D01*
X179277685Y-125806801D01*
X179085718Y-125791693D01*
X179085709Y-125791693D01*
X179083261Y-125791500D01*
X178927729Y-125791500D01*
X178925593Y-125791646D01*
X178925582Y-125791646D01*
X178717452Y-125805835D01*
X178717446Y-125805836D01*
X178713175Y-125806127D01*
X178708980Y-125806996D01*
X178708978Y-125806996D01*
X178572417Y-125835276D01*
X178431658Y-125864426D01*
X178160657Y-125960393D01*
X177905188Y-126092250D01*
X177901687Y-126094711D01*
X177901683Y-126094713D01*
X177891594Y-126101804D01*
X177669977Y-126257559D01*
X177459378Y-126453260D01*
X177277287Y-126675732D01*
X177127073Y-126920858D01*
X177011517Y-127184102D01*
X177010342Y-127188229D01*
X177010341Y-127188230D01*
X176995066Y-127241852D01*
X176932756Y-127460594D01*
X176892249Y-127745216D01*
X176892227Y-127749505D01*
X176892226Y-127749512D01*
X176890765Y-128028417D01*
X176890743Y-128032703D01*
X109107867Y-128032703D01*
X109109235Y-127771583D01*
X109109235Y-127771576D01*
X109109257Y-127767297D01*
X109071732Y-127482266D01*
X108995871Y-127204964D01*
X108938967Y-127071556D01*
X108884763Y-126944476D01*
X108884761Y-126944472D01*
X108883077Y-126940524D01*
X108808527Y-126815960D01*
X108737643Y-126697521D01*
X108737640Y-126697517D01*
X108735439Y-126693839D01*
X108555687Y-126469472D01*
X108347149Y-126271577D01*
X108113683Y-126103814D01*
X108091843Y-126092250D01*
X108068654Y-126079972D01*
X107859608Y-125969288D01*
X107589627Y-125870489D01*
X107308736Y-125809245D01*
X107277685Y-125806801D01*
X107085718Y-125791693D01*
X107085709Y-125791693D01*
X107083261Y-125791500D01*
X106927729Y-125791500D01*
X106925593Y-125791646D01*
X106925582Y-125791646D01*
X106717452Y-125805835D01*
X106717446Y-125805836D01*
X106713175Y-125806127D01*
X106708980Y-125806996D01*
X106708978Y-125806996D01*
X106572417Y-125835276D01*
X106431658Y-125864426D01*
X106160657Y-125960393D01*
X105905188Y-126092250D01*
X105901687Y-126094711D01*
X105901683Y-126094713D01*
X105891594Y-126101804D01*
X105669977Y-126257559D01*
X105459378Y-126453260D01*
X105277287Y-126675732D01*
X105127073Y-126920858D01*
X105011517Y-127184102D01*
X105010342Y-127188229D01*
X105010341Y-127188230D01*
X104995066Y-127241852D01*
X104932756Y-127460594D01*
X104892249Y-127745216D01*
X104892227Y-127749505D01*
X104892226Y-127749512D01*
X104890765Y-128028417D01*
X104890743Y-128032703D01*
X103515020Y-128032703D01*
X103510795Y-127946695D01*
X103512387Y-127919619D01*
X103513576Y-127912552D01*
X103513729Y-127900000D01*
X103509773Y-127872376D01*
X103508500Y-127854514D01*
X103508500Y-115852526D01*
X109882050Y-115852526D01*
X109882274Y-115857192D01*
X109882274Y-115857197D01*
X109885004Y-115914025D01*
X109894947Y-116121019D01*
X109947388Y-116384656D01*
X110038220Y-116637646D01*
X110165450Y-116874431D01*
X110168241Y-116878168D01*
X110168245Y-116878175D01*
X110249887Y-116987506D01*
X110326281Y-117089810D01*
X110329590Y-117093090D01*
X110329595Y-117093096D01*
X110513863Y-117275762D01*
X110517180Y-117279050D01*
X110520942Y-117281808D01*
X110520945Y-117281811D01*
X110730183Y-117435230D01*
X110733954Y-117437995D01*
X110738089Y-117440171D01*
X110738093Y-117440173D01*
X110967698Y-117560975D01*
X110971840Y-117563154D01*
X111225613Y-117651775D01*
X111230206Y-117652647D01*
X111485109Y-117701042D01*
X111485112Y-117701042D01*
X111489698Y-117701913D01*
X111617370Y-117706929D01*
X111753625Y-117712283D01*
X111753630Y-117712283D01*
X111758293Y-117712466D01*
X111862607Y-117701042D01*
X112020844Y-117683713D01*
X112020850Y-117683712D01*
X112025497Y-117683203D01*
X112060623Y-117673955D01*
X112280918Y-117615956D01*
X112280920Y-117615955D01*
X112285441Y-117614765D01*
X112289738Y-117612919D01*
X112528120Y-117510502D01*
X112528122Y-117510501D01*
X112532414Y-117508657D01*
X112744719Y-117377279D01*
X112757017Y-117369669D01*
X112757021Y-117369666D01*
X112760990Y-117367210D01*
X112966149Y-117193530D01*
X113143382Y-116991434D01*
X113288797Y-116765361D01*
X113399199Y-116520278D01*
X113436209Y-116389051D01*
X113470893Y-116266072D01*
X113470894Y-116266069D01*
X113472163Y-116261568D01*
X113490043Y-116121019D01*
X113505688Y-115998045D01*
X113505688Y-115998041D01*
X113506086Y-115994915D01*
X113508571Y-115900000D01*
X113501970Y-115811181D01*
X113488996Y-115636592D01*
X113488996Y-115636591D01*
X113488650Y-115631937D01*
X113486893Y-115624171D01*
X113430361Y-115374331D01*
X113430360Y-115374326D01*
X113429327Y-115369763D01*
X113331902Y-115119238D01*
X113198518Y-114885864D01*
X113180446Y-114862939D01*
X113102880Y-114764547D01*
X113032105Y-114674769D01*
X112836317Y-114490591D01*
X112662726Y-114370166D01*
X112619299Y-114340039D01*
X112619296Y-114340037D01*
X112615457Y-114337374D01*
X112599910Y-114329707D01*
X112378564Y-114220551D01*
X112378561Y-114220550D01*
X112374376Y-114218486D01*
X112326745Y-114203239D01*
X112235261Y-114173955D01*
X112118370Y-114136538D01*
X112113763Y-114135788D01*
X112113760Y-114135787D01*
X111857674Y-114094081D01*
X111857675Y-114094081D01*
X111853063Y-114093330D01*
X111722719Y-114091624D01*
X111588961Y-114089873D01*
X111588958Y-114089873D01*
X111584284Y-114089812D01*
X111317937Y-114126060D01*
X111059874Y-114201278D01*
X110815763Y-114313815D01*
X110811854Y-114316378D01*
X110594881Y-114458631D01*
X110594876Y-114458635D01*
X110590968Y-114461197D01*
X110390426Y-114640188D01*
X110218544Y-114846854D01*
X110079096Y-115076656D01*
X110077287Y-115080970D01*
X110077285Y-115080974D01*
X109992956Y-115282077D01*
X109975148Y-115324545D01*
X109908981Y-115585077D01*
X109882050Y-115852526D01*
X103508500Y-115852526D01*
X103508500Y-112344906D01*
X110614839Y-112344906D01*
X110623553Y-112356427D01*
X110730452Y-112434809D01*
X110738351Y-112439745D01*
X110967905Y-112560519D01*
X110976454Y-112564236D01*
X111221327Y-112649749D01*
X111230336Y-112652163D01*
X111485166Y-112700544D01*
X111494423Y-112701598D01*
X111753607Y-112711783D01*
X111762921Y-112711457D01*
X112020753Y-112683220D01*
X112029930Y-112681519D01*
X112280758Y-112615481D01*
X112289574Y-112612445D01*
X112527880Y-112510062D01*
X112536167Y-112505748D01*
X112756718Y-112369266D01*
X112764268Y-112363780D01*
X112769559Y-112359301D01*
X112777997Y-112346497D01*
X112771935Y-112336145D01*
X111707812Y-111272022D01*
X111693868Y-111264408D01*
X111692035Y-111264539D01*
X111685420Y-111268790D01*
X110621497Y-112332713D01*
X110614839Y-112344906D01*
X103508500Y-112344906D01*
X103508500Y-110857211D01*
X109882775Y-110857211D01*
X109895220Y-111116288D01*
X109896356Y-111125543D01*
X109946961Y-111379945D01*
X109949449Y-111388917D01*
X110037095Y-111633033D01*
X110040895Y-111641568D01*
X110163658Y-111870042D01*
X110168666Y-111877904D01*
X110238720Y-111971716D01*
X110249979Y-111980165D01*
X110262397Y-111973393D01*
X111322978Y-110912812D01*
X111329356Y-110901132D01*
X112059408Y-110901132D01*
X112059539Y-110902965D01*
X112063790Y-110909580D01*
X113131094Y-111976884D01*
X113143474Y-111983644D01*
X113151815Y-111977400D01*
X113285832Y-111769048D01*
X113290275Y-111760864D01*
X113396807Y-111524370D01*
X113399997Y-111515605D01*
X113470402Y-111265972D01*
X113472262Y-111256830D01*
X113505187Y-110998019D01*
X113505668Y-110991733D01*
X113507987Y-110903160D01*
X113507836Y-110896851D01*
X113488501Y-110636663D01*
X113487125Y-110627457D01*
X113429878Y-110374467D01*
X113427154Y-110365556D01*
X113333143Y-110123806D01*
X113329132Y-110115397D01*
X113200422Y-109890202D01*
X113195211Y-109882476D01*
X113151996Y-109827658D01*
X113140071Y-109819187D01*
X113128537Y-109825673D01*
X112067022Y-110887188D01*
X112059408Y-110901132D01*
X111329356Y-110901132D01*
X111330592Y-110898868D01*
X111330461Y-110897035D01*
X111326210Y-110890420D01*
X110260816Y-109825026D01*
X110247507Y-109817758D01*
X110237472Y-109824878D01*
X110221937Y-109843556D01*
X110216531Y-109851135D01*
X110081965Y-110072891D01*
X110077736Y-110081192D01*
X109977432Y-110320389D01*
X109974471Y-110329239D01*
X109910628Y-110580625D01*
X109909006Y-110589822D01*
X109883020Y-110847885D01*
X109882775Y-110857211D01*
X103508500Y-110857211D01*
X103508500Y-109452689D01*
X110612102Y-109452689D01*
X110616675Y-109462465D01*
X111682188Y-110527978D01*
X111696132Y-110535592D01*
X111697965Y-110535461D01*
X111704580Y-110531210D01*
X112769349Y-109466441D01*
X112775733Y-109454751D01*
X112766321Y-109442641D01*
X112619045Y-109340471D01*
X112611010Y-109335738D01*
X112378376Y-109221016D01*
X112369743Y-109217528D01*
X112122703Y-109138450D01*
X112113643Y-109136274D01*
X111857630Y-109094580D01*
X111848343Y-109093768D01*
X111588992Y-109090373D01*
X111579681Y-109090943D01*
X111322682Y-109125919D01*
X111313546Y-109127860D01*
X111064543Y-109200439D01*
X111055800Y-109203707D01*
X110820252Y-109312296D01*
X110812097Y-109316816D01*
X110621240Y-109441947D01*
X110612102Y-109452689D01*
X103508500Y-109452689D01*
X103508500Y-107248134D01*
X109886500Y-107248134D01*
X109893255Y-107310316D01*
X109944385Y-107446705D01*
X110031739Y-107563261D01*
X110148295Y-107650615D01*
X110284684Y-107701745D01*
X110346866Y-107708500D01*
X113043134Y-107708500D01*
X113105316Y-107701745D01*
X113241705Y-107650615D01*
X113358261Y-107563261D01*
X113445615Y-107446705D01*
X113496745Y-107310316D01*
X113503500Y-107248134D01*
X113503500Y-104551866D01*
X113496745Y-104489684D01*
X113445615Y-104353295D01*
X113358261Y-104236739D01*
X113241705Y-104149385D01*
X113105316Y-104098255D01*
X113043134Y-104091500D01*
X110346866Y-104091500D01*
X110284684Y-104098255D01*
X110148295Y-104149385D01*
X110031739Y-104236739D01*
X109944385Y-104353295D01*
X109893255Y-104489684D01*
X109886500Y-104551866D01*
X109886500Y-107248134D01*
X103508500Y-107248134D01*
X103508500Y-102700000D01*
X127286496Y-102700000D01*
X127287186Y-102706565D01*
X127299228Y-102821134D01*
X127306458Y-102889928D01*
X127365473Y-103071556D01*
X127368776Y-103077278D01*
X127368777Y-103077279D01*
X127383042Y-103101986D01*
X127460960Y-103236944D01*
X127465378Y-103241851D01*
X127465379Y-103241852D01*
X127471841Y-103249029D01*
X127498069Y-103294504D01*
X127503391Y-103310933D01*
X127503395Y-103310943D01*
X127505649Y-103317899D01*
X127509444Y-103324153D01*
X127511951Y-103329628D01*
X127514670Y-103335058D01*
X127517167Y-103341937D01*
X127521180Y-103348057D01*
X127521180Y-103348058D01*
X127557186Y-103402976D01*
X127559523Y-103406680D01*
X127597405Y-103469107D01*
X127601121Y-103473315D01*
X127601122Y-103473316D01*
X127604803Y-103477484D01*
X127604776Y-103477508D01*
X127607429Y-103480500D01*
X127610132Y-103483733D01*
X127614144Y-103489852D01*
X127631787Y-103506565D01*
X127670383Y-103543128D01*
X127672825Y-103545506D01*
X127753730Y-103626411D01*
X127766116Y-103640823D01*
X127774649Y-103652418D01*
X127774654Y-103652423D01*
X127778992Y-103658318D01*
X127784570Y-103663057D01*
X127784573Y-103663060D01*
X127819268Y-103692535D01*
X127826784Y-103699465D01*
X127832479Y-103705160D01*
X127835361Y-103707440D01*
X127854751Y-103722781D01*
X127858155Y-103725572D01*
X127906215Y-103766402D01*
X127913785Y-103772833D01*
X127920301Y-103776161D01*
X127925350Y-103779528D01*
X127930479Y-103782695D01*
X127936216Y-103787234D01*
X128002375Y-103818155D01*
X128006269Y-103820058D01*
X128071308Y-103853269D01*
X128078416Y-103855008D01*
X128084059Y-103857107D01*
X128089822Y-103859024D01*
X128096450Y-103862122D01*
X128103612Y-103863612D01*
X128103613Y-103863612D01*
X128167912Y-103876986D01*
X128172196Y-103877956D01*
X128243110Y-103895308D01*
X128248712Y-103895656D01*
X128248715Y-103895656D01*
X128254264Y-103896000D01*
X128254262Y-103896036D01*
X128258255Y-103896275D01*
X128262447Y-103896649D01*
X128269615Y-103898140D01*
X128347020Y-103896046D01*
X128350428Y-103896000D01*
X132715500Y-103896000D01*
X132783621Y-103916002D01*
X132830114Y-103969658D01*
X132841500Y-104022000D01*
X132841500Y-116463001D01*
X132824619Y-116526000D01*
X132765473Y-116628444D01*
X132706458Y-116810072D01*
X132686496Y-117000000D01*
X132706458Y-117189928D01*
X132765473Y-117371556D01*
X132860960Y-117536944D01*
X132865378Y-117541851D01*
X132865379Y-117541852D01*
X132962966Y-117650233D01*
X132988747Y-117678866D01*
X133143248Y-117791118D01*
X133149276Y-117793802D01*
X133149278Y-117793803D01*
X133311681Y-117866109D01*
X133317712Y-117868794D01*
X133411112Y-117888647D01*
X133498056Y-117907128D01*
X133498061Y-117907128D01*
X133504513Y-117908500D01*
X133695487Y-117908500D01*
X133701939Y-117907128D01*
X133701944Y-117907128D01*
X133788888Y-117888647D01*
X133882288Y-117868794D01*
X133888319Y-117866109D01*
X134050722Y-117793803D01*
X134050724Y-117793802D01*
X134056752Y-117791118D01*
X134211253Y-117678866D01*
X134237034Y-117650233D01*
X134334621Y-117541852D01*
X134334622Y-117541851D01*
X134339040Y-117536944D01*
X134434527Y-117371556D01*
X134493542Y-117189928D01*
X134513504Y-117000000D01*
X134493542Y-116810072D01*
X134434527Y-116628444D01*
X134375381Y-116526000D01*
X134358500Y-116463001D01*
X134358500Y-103674499D01*
X134375381Y-103611499D01*
X134380396Y-103602814D01*
X134405553Y-103559240D01*
X134431223Y-103514779D01*
X134431224Y-103514778D01*
X134434527Y-103509056D01*
X134493542Y-103327428D01*
X134494677Y-103316635D01*
X134512814Y-103144065D01*
X134513504Y-103137500D01*
X134510123Y-103105327D01*
X134494232Y-102954135D01*
X134494232Y-102954133D01*
X134493542Y-102947572D01*
X134434527Y-102765944D01*
X134339040Y-102600556D01*
X134211253Y-102458634D01*
X134101647Y-102379000D01*
X134062094Y-102350263D01*
X134062093Y-102350262D01*
X134056752Y-102346382D01*
X134050724Y-102343698D01*
X134050722Y-102343697D01*
X133888319Y-102271391D01*
X133888318Y-102271391D01*
X133882288Y-102268706D01*
X133788887Y-102248853D01*
X133701944Y-102230372D01*
X133701939Y-102230372D01*
X133695487Y-102229000D01*
X133504513Y-102229000D01*
X133498061Y-102230372D01*
X133498056Y-102230372D01*
X133411113Y-102248853D01*
X133317712Y-102268706D01*
X133311682Y-102271391D01*
X133311681Y-102271391D01*
X133149278Y-102343697D01*
X133149276Y-102343698D01*
X133143248Y-102346382D01*
X133137909Y-102350261D01*
X133137902Y-102350265D01*
X133131472Y-102354937D01*
X133057413Y-102379000D01*
X129136461Y-102379000D01*
X129068340Y-102358998D01*
X129027342Y-102316000D01*
X129018796Y-102301197D01*
X128939040Y-102163056D01*
X128875745Y-102092759D01*
X128815675Y-102026045D01*
X128815674Y-102026044D01*
X128811253Y-102021134D01*
X128684292Y-101928891D01*
X128662094Y-101912763D01*
X128662093Y-101912762D01*
X128656752Y-101908882D01*
X128650724Y-101906198D01*
X128650722Y-101906197D01*
X128488319Y-101833891D01*
X128488318Y-101833891D01*
X128482288Y-101831206D01*
X128388888Y-101811353D01*
X128301944Y-101792872D01*
X128301939Y-101792872D01*
X128295487Y-101791500D01*
X128104513Y-101791500D01*
X128098061Y-101792872D01*
X128098056Y-101792872D01*
X128011112Y-101811353D01*
X127917712Y-101831206D01*
X127911682Y-101833891D01*
X127911681Y-101833891D01*
X127749278Y-101906197D01*
X127749276Y-101906198D01*
X127743248Y-101908882D01*
X127737907Y-101912762D01*
X127737906Y-101912763D01*
X127715708Y-101928891D01*
X127588747Y-102021134D01*
X127584326Y-102026044D01*
X127584325Y-102026045D01*
X127524256Y-102092759D01*
X127460960Y-102163056D01*
X127424500Y-102226206D01*
X127372658Y-102316000D01*
X127365473Y-102328444D01*
X127306458Y-102510072D01*
X127286496Y-102700000D01*
X103508500Y-102700000D01*
X103508500Y-92052526D01*
X109882050Y-92052526D01*
X109882274Y-92057192D01*
X109882274Y-92057197D01*
X109884814Y-92110072D01*
X109894947Y-92321019D01*
X109947388Y-92584656D01*
X110038220Y-92837646D01*
X110040432Y-92841762D01*
X110040433Y-92841765D01*
X110104555Y-92961100D01*
X110165450Y-93074431D01*
X110168241Y-93078168D01*
X110168245Y-93078175D01*
X110192064Y-93110072D01*
X110326281Y-93289810D01*
X110329590Y-93293090D01*
X110329595Y-93293096D01*
X110471625Y-93433891D01*
X110517180Y-93479050D01*
X110520942Y-93481808D01*
X110520945Y-93481811D01*
X110633299Y-93564192D01*
X110733954Y-93637995D01*
X110738089Y-93640171D01*
X110738093Y-93640173D01*
X110962325Y-93758148D01*
X110971840Y-93763154D01*
X111026440Y-93782221D01*
X111197198Y-93841852D01*
X111225613Y-93851775D01*
X111230206Y-93852647D01*
X111485109Y-93901042D01*
X111485112Y-93901042D01*
X111489698Y-93901913D01*
X111617370Y-93906929D01*
X111753625Y-93912283D01*
X111753630Y-93912283D01*
X111758293Y-93912466D01*
X111862607Y-93901042D01*
X112020844Y-93883713D01*
X112020850Y-93883712D01*
X112025497Y-93883203D01*
X112030021Y-93882012D01*
X112280918Y-93815956D01*
X112280920Y-93815955D01*
X112285441Y-93814765D01*
X112313933Y-93802524D01*
X112528120Y-93710502D01*
X112528122Y-93710501D01*
X112532414Y-93708657D01*
X112680125Y-93617251D01*
X112757017Y-93569669D01*
X112757021Y-93569666D01*
X112760990Y-93567210D01*
X112966149Y-93393530D01*
X113048172Y-93300000D01*
X124186496Y-93300000D01*
X124187186Y-93306565D01*
X124205315Y-93479050D01*
X124206458Y-93489928D01*
X124265473Y-93671556D01*
X124268776Y-93677278D01*
X124268777Y-93677279D01*
X124292410Y-93718213D01*
X124360960Y-93836944D01*
X124365378Y-93841851D01*
X124365379Y-93841852D01*
X124409136Y-93890449D01*
X124439854Y-93954456D01*
X124441500Y-93974759D01*
X124441500Y-94463001D01*
X124424619Y-94526000D01*
X124365473Y-94628444D01*
X124306458Y-94810072D01*
X124305768Y-94816633D01*
X124305768Y-94816635D01*
X124295092Y-94918213D01*
X124286496Y-95000000D01*
X124287186Y-95006565D01*
X124304078Y-95167279D01*
X124306458Y-95189928D01*
X124365473Y-95371556D01*
X124460960Y-95536944D01*
X124465378Y-95541851D01*
X124465379Y-95541852D01*
X124577284Y-95666135D01*
X124588747Y-95678866D01*
X124743248Y-95791118D01*
X124749276Y-95793802D01*
X124749278Y-95793803D01*
X124889122Y-95856065D01*
X124917712Y-95868794D01*
X125011113Y-95888647D01*
X125098056Y-95907128D01*
X125098061Y-95907128D01*
X125104513Y-95908500D01*
X125295487Y-95908500D01*
X125301939Y-95907128D01*
X125301944Y-95907128D01*
X125388887Y-95888647D01*
X125482288Y-95868794D01*
X125510878Y-95856065D01*
X125650722Y-95793803D01*
X125650724Y-95793802D01*
X125656752Y-95791118D01*
X125811253Y-95678866D01*
X125921864Y-95556020D01*
X125982310Y-95518780D01*
X126053294Y-95520132D01*
X126112278Y-95559645D01*
X126140536Y-95624776D01*
X126141500Y-95640330D01*
X126141500Y-95763001D01*
X126124619Y-95826000D01*
X126065473Y-95928444D01*
X126006458Y-96110072D01*
X125986496Y-96300000D01*
X125987186Y-96306565D01*
X125995582Y-96386444D01*
X126006458Y-96489928D01*
X126065473Y-96671556D01*
X126160960Y-96836944D01*
X126165378Y-96841851D01*
X126165379Y-96841852D01*
X126283932Y-96973518D01*
X126288747Y-96978866D01*
X126443248Y-97091118D01*
X126449276Y-97093802D01*
X126449278Y-97093803D01*
X126611679Y-97166108D01*
X126617712Y-97168794D01*
X126711113Y-97188647D01*
X126798056Y-97207128D01*
X126798061Y-97207128D01*
X126804513Y-97208500D01*
X126995487Y-97208500D01*
X127001939Y-97207128D01*
X127001944Y-97207128D01*
X127088887Y-97188647D01*
X127182288Y-97168794D01*
X127188315Y-97166111D01*
X127188323Y-97166108D01*
X127264252Y-97132302D01*
X127334619Y-97122868D01*
X127398916Y-97152975D01*
X127436729Y-97213064D01*
X127441500Y-97247409D01*
X127441500Y-99763001D01*
X127424619Y-99826000D01*
X127365473Y-99928444D01*
X127306458Y-100110072D01*
X127286496Y-100300000D01*
X127306458Y-100489928D01*
X127365473Y-100671556D01*
X127460960Y-100836944D01*
X127588747Y-100978866D01*
X127743248Y-101091118D01*
X127749276Y-101093802D01*
X127749278Y-101093803D01*
X127911681Y-101166109D01*
X127917712Y-101168794D01*
X128011113Y-101188647D01*
X128098056Y-101207128D01*
X128098061Y-101207128D01*
X128104513Y-101208500D01*
X128295487Y-101208500D01*
X128301939Y-101207128D01*
X128301944Y-101207128D01*
X128388888Y-101188647D01*
X128482288Y-101168794D01*
X128488319Y-101166109D01*
X128650722Y-101093803D01*
X128650724Y-101093802D01*
X128656752Y-101091118D01*
X128811253Y-100978866D01*
X128939040Y-100836944D01*
X129034527Y-100671556D01*
X129093542Y-100489928D01*
X129113504Y-100300000D01*
X129093542Y-100110072D01*
X129034527Y-99928444D01*
X128975381Y-99826000D01*
X128958500Y-99763001D01*
X128958500Y-97900000D01*
X139786496Y-97900000D01*
X139787186Y-97906565D01*
X139804432Y-98070648D01*
X139806458Y-98089928D01*
X139865473Y-98271556D01*
X139960960Y-98436944D01*
X139965378Y-98441851D01*
X139965379Y-98441852D01*
X139989620Y-98468774D01*
X140088747Y-98578866D01*
X140243248Y-98691118D01*
X140249276Y-98693802D01*
X140249278Y-98693803D01*
X140366749Y-98746104D01*
X140420845Y-98792084D01*
X140441500Y-98861211D01*
X140441500Y-112563001D01*
X140424619Y-112626000D01*
X140365473Y-112728444D01*
X140306458Y-112910072D01*
X140305768Y-112916633D01*
X140305768Y-112916635D01*
X140295952Y-113010031D01*
X140286496Y-113100000D01*
X140287186Y-113106565D01*
X140302379Y-113251114D01*
X140306458Y-113289928D01*
X140365473Y-113471556D01*
X140368776Y-113477278D01*
X140368777Y-113477279D01*
X140394447Y-113521740D01*
X140423209Y-113571556D01*
X140424619Y-113573999D01*
X140441500Y-113636999D01*
X140441500Y-118382268D01*
X140435333Y-118421205D01*
X140406458Y-118510072D01*
X140386496Y-118700000D01*
X140406458Y-118889928D01*
X140465473Y-119071556D01*
X140560960Y-119236944D01*
X140688747Y-119378866D01*
X140843248Y-119491118D01*
X140849276Y-119493802D01*
X140849278Y-119493803D01*
X141011681Y-119566109D01*
X141017712Y-119568794D01*
X141111113Y-119588647D01*
X141198056Y-119607128D01*
X141198061Y-119607128D01*
X141204513Y-119608500D01*
X141395487Y-119608500D01*
X141401939Y-119607128D01*
X141401944Y-119607128D01*
X141488887Y-119588647D01*
X141582288Y-119568794D01*
X141588319Y-119566109D01*
X141750722Y-119493803D01*
X141750724Y-119493802D01*
X141756752Y-119491118D01*
X141911253Y-119378866D01*
X142039040Y-119236944D01*
X142134527Y-119071556D01*
X142193542Y-118889928D01*
X142213504Y-118700000D01*
X142193542Y-118510072D01*
X142134527Y-118328444D01*
X142039040Y-118163056D01*
X141990864Y-118109551D01*
X141960146Y-118045544D01*
X141958500Y-118025241D01*
X141958500Y-113636999D01*
X141975381Y-113573999D01*
X141976792Y-113571556D01*
X142005553Y-113521740D01*
X142031223Y-113477279D01*
X142031224Y-113477278D01*
X142034527Y-113471556D01*
X142093542Y-113289928D01*
X142097622Y-113251114D01*
X142112814Y-113106565D01*
X142113504Y-113100000D01*
X142104048Y-113010031D01*
X142094232Y-112916635D01*
X142094232Y-112916633D01*
X142093542Y-112910072D01*
X142034527Y-112728444D01*
X141975381Y-112626000D01*
X141958500Y-112563001D01*
X141958500Y-103717921D01*
X141978502Y-103649800D01*
X142032158Y-103603307D01*
X142102432Y-103593203D01*
X142135746Y-103602813D01*
X142220927Y-103640738D01*
X142261071Y-103658611D01*
X142272712Y-103663794D01*
X142279167Y-103665166D01*
X142279176Y-103665169D01*
X142348615Y-103679929D01*
X142403995Y-103707149D01*
X142404338Y-103707440D01*
X142431285Y-103730333D01*
X142437798Y-103733659D01*
X142442837Y-103737020D01*
X142447979Y-103740196D01*
X142453716Y-103744734D01*
X142519875Y-103775655D01*
X142523769Y-103777558D01*
X142588808Y-103810769D01*
X142595916Y-103812508D01*
X142601559Y-103814607D01*
X142607322Y-103816524D01*
X142613950Y-103819622D01*
X142621112Y-103821112D01*
X142621113Y-103821112D01*
X142685412Y-103834486D01*
X142689696Y-103835456D01*
X142760610Y-103852808D01*
X142766212Y-103853156D01*
X142766215Y-103853156D01*
X142771764Y-103853500D01*
X142771762Y-103853536D01*
X142775755Y-103853775D01*
X142779947Y-103854149D01*
X142787115Y-103855640D01*
X142864520Y-103853546D01*
X142867928Y-103853500D01*
X147512413Y-103853500D01*
X147586472Y-103877563D01*
X147592902Y-103882235D01*
X147592909Y-103882239D01*
X147598248Y-103886118D01*
X147604276Y-103888802D01*
X147604278Y-103888803D01*
X147766681Y-103961109D01*
X147772712Y-103963794D01*
X147866112Y-103983647D01*
X147953056Y-104002128D01*
X147953061Y-104002128D01*
X147959513Y-104003500D01*
X148150487Y-104003500D01*
X148156939Y-104002128D01*
X148156944Y-104002128D01*
X148289303Y-103973994D01*
X148360094Y-103979396D01*
X148416727Y-104022213D01*
X148441220Y-104088851D01*
X148441500Y-104097241D01*
X148441500Y-121463001D01*
X148424619Y-121526000D01*
X148365473Y-121628444D01*
X148306458Y-121810072D01*
X148286496Y-122000000D01*
X148306458Y-122189928D01*
X148365473Y-122371556D01*
X148368776Y-122377278D01*
X148368777Y-122377279D01*
X148424619Y-122473999D01*
X148441500Y-122536999D01*
X148441500Y-126163001D01*
X148424619Y-126226000D01*
X148365473Y-126328444D01*
X148306458Y-126510072D01*
X148286496Y-126700000D01*
X148306458Y-126889928D01*
X148365473Y-127071556D01*
X148460960Y-127236944D01*
X148588747Y-127378866D01*
X148743248Y-127491118D01*
X148749276Y-127493802D01*
X148749278Y-127493803D01*
X148911681Y-127566109D01*
X148917712Y-127568794D01*
X149011113Y-127588647D01*
X149098056Y-127607128D01*
X149098061Y-127607128D01*
X149104513Y-127608500D01*
X149295487Y-127608500D01*
X149301939Y-127607128D01*
X149301944Y-127607128D01*
X149388887Y-127588647D01*
X149482288Y-127568794D01*
X149488319Y-127566109D01*
X149650722Y-127493803D01*
X149650724Y-127493802D01*
X149656752Y-127491118D01*
X149811253Y-127378866D01*
X149939040Y-127236944D01*
X150034527Y-127071556D01*
X150093542Y-126889928D01*
X150113504Y-126700000D01*
X150093542Y-126510072D01*
X150034527Y-126328444D01*
X149975381Y-126226000D01*
X149958500Y-126163001D01*
X149958500Y-122536999D01*
X149975381Y-122473999D01*
X150031223Y-122377279D01*
X150031224Y-122377278D01*
X150034527Y-122371556D01*
X150093542Y-122189928D01*
X150113504Y-122000000D01*
X150093542Y-121810072D01*
X150034527Y-121628444D01*
X149975381Y-121526000D01*
X149958500Y-121463001D01*
X149958500Y-99636999D01*
X149975381Y-99573999D01*
X150031223Y-99477279D01*
X150031224Y-99477278D01*
X150034527Y-99471556D01*
X150093542Y-99289928D01*
X150103393Y-99196206D01*
X150112814Y-99106565D01*
X150113504Y-99100000D01*
X150093542Y-98910072D01*
X150034527Y-98728444D01*
X150019390Y-98702225D01*
X149997314Y-98663990D01*
X149939040Y-98563056D01*
X149811253Y-98421134D01*
X149656752Y-98308882D01*
X149650724Y-98306198D01*
X149650722Y-98306197D01*
X149488319Y-98233891D01*
X149488318Y-98233891D01*
X149482288Y-98231206D01*
X149388888Y-98211353D01*
X149301944Y-98192872D01*
X149301939Y-98192872D01*
X149295487Y-98191500D01*
X149104513Y-98191500D01*
X149098061Y-98192872D01*
X149098056Y-98192872D01*
X149011112Y-98211353D01*
X148917712Y-98231206D01*
X148911682Y-98233891D01*
X148911681Y-98233891D01*
X148749278Y-98306197D01*
X148749276Y-98306198D01*
X148743248Y-98308882D01*
X148588747Y-98421134D01*
X148460960Y-98563056D01*
X148402686Y-98663990D01*
X148380611Y-98702225D01*
X148365473Y-98728444D01*
X148306458Y-98910072D01*
X148286496Y-99100000D01*
X148287186Y-99106565D01*
X148296608Y-99196206D01*
X148306458Y-99289928D01*
X148365473Y-99471556D01*
X148368776Y-99477278D01*
X148368777Y-99477279D01*
X148424619Y-99573999D01*
X148441500Y-99636999D01*
X148441500Y-102092759D01*
X148421498Y-102160880D01*
X148367842Y-102207373D01*
X148297568Y-102217477D01*
X148289303Y-102216006D01*
X148156944Y-102187872D01*
X148156939Y-102187872D01*
X148150487Y-102186500D01*
X147959513Y-102186500D01*
X147953061Y-102187872D01*
X147953056Y-102187872D01*
X147866112Y-102206353D01*
X147772712Y-102226206D01*
X147766682Y-102228891D01*
X147766681Y-102228891D01*
X147604278Y-102301197D01*
X147604276Y-102301198D01*
X147598248Y-102303882D01*
X147592909Y-102307761D01*
X147592902Y-102307765D01*
X147586472Y-102312437D01*
X147512413Y-102336500D01*
X143412076Y-102336500D01*
X143343955Y-102316498D01*
X143302958Y-102273502D01*
X143297341Y-102263774D01*
X143294040Y-102258056D01*
X143206543Y-102160880D01*
X143170675Y-102121045D01*
X143170674Y-102121044D01*
X143166253Y-102116134D01*
X143011752Y-102003882D01*
X143005724Y-102001198D01*
X143005722Y-102001197D01*
X142843319Y-101928891D01*
X142843318Y-101928891D01*
X142837288Y-101926206D01*
X142743154Y-101906197D01*
X142656944Y-101887872D01*
X142656939Y-101887872D01*
X142650487Y-101886500D01*
X142459513Y-101886500D01*
X142453061Y-101887872D01*
X142453056Y-101887872D01*
X142366846Y-101906197D01*
X142272712Y-101926206D01*
X142135748Y-101987186D01*
X142065382Y-101996620D01*
X142001085Y-101966514D01*
X141963271Y-101906425D01*
X141958500Y-101872079D01*
X141958500Y-99000000D01*
X145586496Y-99000000D01*
X145606458Y-99189928D01*
X145665473Y-99371556D01*
X145760960Y-99536944D01*
X145888747Y-99678866D01*
X146043248Y-99791118D01*
X146049276Y-99793802D01*
X146049278Y-99793803D01*
X146211681Y-99866109D01*
X146217712Y-99868794D01*
X146311112Y-99888647D01*
X146398056Y-99907128D01*
X146398061Y-99907128D01*
X146404513Y-99908500D01*
X146595487Y-99908500D01*
X146601939Y-99907128D01*
X146601944Y-99907128D01*
X146688888Y-99888647D01*
X146782288Y-99868794D01*
X146788319Y-99866109D01*
X146950722Y-99793803D01*
X146950724Y-99793802D01*
X146956752Y-99791118D01*
X147111253Y-99678866D01*
X147239040Y-99536944D01*
X147334527Y-99371556D01*
X147393542Y-99189928D01*
X147413504Y-99000000D01*
X147404742Y-98916635D01*
X147394233Y-98816642D01*
X147394232Y-98816635D01*
X147393542Y-98810072D01*
X147364667Y-98721205D01*
X147358500Y-98682268D01*
X147358500Y-95536999D01*
X147375381Y-95473999D01*
X147431223Y-95377279D01*
X147431224Y-95377278D01*
X147434527Y-95371556D01*
X147493542Y-95189928D01*
X147495923Y-95167279D01*
X147512814Y-95006565D01*
X147513504Y-95000000D01*
X147504908Y-94918213D01*
X147494232Y-94816635D01*
X147494232Y-94816633D01*
X147493542Y-94810072D01*
X147434527Y-94628444D01*
X147339040Y-94463056D01*
X147211253Y-94321134D01*
X147056752Y-94208882D01*
X147050724Y-94206198D01*
X147050722Y-94206197D01*
X146888319Y-94133891D01*
X146888318Y-94133891D01*
X146882288Y-94131206D01*
X146782861Y-94110072D01*
X146701944Y-94092872D01*
X146701939Y-94092872D01*
X146695487Y-94091500D01*
X146504513Y-94091500D01*
X146498061Y-94092872D01*
X146498056Y-94092872D01*
X146417139Y-94110072D01*
X146317712Y-94131206D01*
X146311682Y-94133891D01*
X146311681Y-94133891D01*
X146149278Y-94206197D01*
X146149276Y-94206198D01*
X146143248Y-94208882D01*
X145988747Y-94321134D01*
X145860960Y-94463056D01*
X145765473Y-94628444D01*
X145706458Y-94810072D01*
X145705768Y-94816633D01*
X145705768Y-94816635D01*
X145695092Y-94918213D01*
X145686496Y-95000000D01*
X145687186Y-95006565D01*
X145704078Y-95167279D01*
X145706458Y-95189928D01*
X145765473Y-95371556D01*
X145768776Y-95377278D01*
X145768777Y-95377279D01*
X145824619Y-95473999D01*
X145841500Y-95536999D01*
X145841500Y-98325241D01*
X145821498Y-98393362D01*
X145809136Y-98409551D01*
X145765927Y-98457540D01*
X145760960Y-98463056D01*
X145665473Y-98628444D01*
X145606458Y-98810072D01*
X145605768Y-98816633D01*
X145605768Y-98816635D01*
X145595948Y-98910072D01*
X145586496Y-99000000D01*
X141958500Y-99000000D01*
X141958500Y-98467070D01*
X141959933Y-98448120D01*
X141962099Y-98433885D01*
X141962099Y-98433881D01*
X141963199Y-98426651D01*
X141962435Y-98417251D01*
X141958915Y-98373982D01*
X141958500Y-98363767D01*
X141958500Y-98355707D01*
X141955209Y-98327480D01*
X141954778Y-98323121D01*
X141948860Y-98250364D01*
X141946605Y-98243403D01*
X141945418Y-98237463D01*
X141944029Y-98231588D01*
X141943182Y-98224319D01*
X141918264Y-98155670D01*
X141916847Y-98151542D01*
X141896607Y-98089064D01*
X141896606Y-98089062D01*
X141894351Y-98082101D01*
X141890555Y-98075846D01*
X141888049Y-98070372D01*
X141885330Y-98064942D01*
X141882833Y-98058063D01*
X141842814Y-97997024D01*
X141840467Y-97993305D01*
X141802595Y-97930893D01*
X141795197Y-97922516D01*
X141795224Y-97922492D01*
X141792571Y-97919500D01*
X141789868Y-97916267D01*
X141785856Y-97910148D01*
X141729617Y-97856872D01*
X141727175Y-97854494D01*
X141620125Y-97747444D01*
X141589387Y-97697285D01*
X141536569Y-97534729D01*
X141534527Y-97528444D01*
X141439040Y-97363056D01*
X141311253Y-97221134D01*
X141156752Y-97108882D01*
X141150724Y-97106198D01*
X141150722Y-97106197D01*
X140988319Y-97033891D01*
X140988318Y-97033891D01*
X140982288Y-97031206D01*
X140869570Y-97007247D01*
X140807097Y-96973518D01*
X140793245Y-96948436D01*
X140780221Y-96966008D01*
X140713820Y-96991135D01*
X140704233Y-96991500D01*
X140604513Y-96991500D01*
X140598061Y-96992872D01*
X140598056Y-96992872D01*
X140511113Y-97011353D01*
X140417712Y-97031206D01*
X140411682Y-97033891D01*
X140411681Y-97033891D01*
X140249278Y-97106197D01*
X140249276Y-97106198D01*
X140243248Y-97108882D01*
X140088747Y-97221134D01*
X139960960Y-97363056D01*
X139865473Y-97528444D01*
X139806458Y-97710072D01*
X139786496Y-97900000D01*
X128958500Y-97900000D01*
X128958500Y-95849500D01*
X139986496Y-95849500D01*
X140006458Y-96039428D01*
X140065473Y-96221056D01*
X140160960Y-96386444D01*
X140288747Y-96528366D01*
X140443248Y-96640618D01*
X140449276Y-96643302D01*
X140449278Y-96643303D01*
X140512736Y-96671556D01*
X140617712Y-96718294D01*
X140730430Y-96742253D01*
X140792903Y-96775982D01*
X140806755Y-96801064D01*
X140819779Y-96783492D01*
X140886180Y-96758365D01*
X140895767Y-96758000D01*
X140995487Y-96758000D01*
X141001939Y-96756628D01*
X141001944Y-96756628D01*
X141088888Y-96738147D01*
X141182288Y-96718294D01*
X141287264Y-96671556D01*
X141350722Y-96643303D01*
X141350724Y-96643302D01*
X141356752Y-96640618D01*
X141511253Y-96528366D01*
X141639040Y-96386444D01*
X141734527Y-96221056D01*
X141793542Y-96039428D01*
X141813504Y-95849500D01*
X141793542Y-95659572D01*
X141734527Y-95477944D01*
X141639040Y-95312556D01*
X141565863Y-95231285D01*
X141535147Y-95167279D01*
X141533500Y-95146976D01*
X141533500Y-93100000D01*
X151786496Y-93100000D01*
X151806458Y-93289928D01*
X151865473Y-93471556D01*
X151868776Y-93477278D01*
X151868777Y-93477279D01*
X151871394Y-93481811D01*
X151960960Y-93636944D01*
X152034137Y-93718215D01*
X152064853Y-93782221D01*
X152066500Y-93802524D01*
X152066500Y-103105327D01*
X152060333Y-103144263D01*
X152006458Y-103310072D01*
X152005768Y-103316633D01*
X152005768Y-103316635D01*
X151988486Y-103481062D01*
X151986496Y-103500000D01*
X151987186Y-103506565D01*
X152004265Y-103669059D01*
X152006458Y-103689928D01*
X152065473Y-103871556D01*
X152068776Y-103877278D01*
X152068777Y-103877279D01*
X152080707Y-103897942D01*
X152160960Y-104036944D01*
X152165378Y-104041851D01*
X152165379Y-104041852D01*
X152218662Y-104101029D01*
X152288747Y-104178866D01*
X152443248Y-104291118D01*
X152449276Y-104293802D01*
X152449278Y-104293803D01*
X152601785Y-104361703D01*
X152617712Y-104368794D01*
X152711113Y-104388647D01*
X152798056Y-104407128D01*
X152798061Y-104407128D01*
X152804513Y-104408500D01*
X152995487Y-104408500D01*
X153001939Y-104407128D01*
X153001944Y-104407128D01*
X153088887Y-104388647D01*
X153182288Y-104368794D01*
X153198215Y-104361703D01*
X153350722Y-104293803D01*
X153350724Y-104293802D01*
X153356752Y-104291118D01*
X153511253Y-104178866D01*
X153581338Y-104101029D01*
X153634621Y-104041852D01*
X153634622Y-104041851D01*
X153639040Y-104036944D01*
X153719293Y-103897942D01*
X153731223Y-103877279D01*
X153731224Y-103877278D01*
X153734527Y-103871556D01*
X153793542Y-103689928D01*
X153795736Y-103669059D01*
X153812814Y-103506565D01*
X153813504Y-103500000D01*
X153811514Y-103481062D01*
X153794232Y-103316635D01*
X153794232Y-103316633D01*
X153793542Y-103310072D01*
X153734527Y-103128444D01*
X153719286Y-103102045D01*
X153642341Y-102968774D01*
X153639040Y-102963056D01*
X153619446Y-102941294D01*
X153515675Y-102826045D01*
X153515674Y-102826044D01*
X153511253Y-102821134D01*
X153427414Y-102760221D01*
X153385439Y-102729724D01*
X153342085Y-102673501D01*
X153333500Y-102627788D01*
X153333500Y-93802524D01*
X153353502Y-93734403D01*
X153365858Y-93718221D01*
X153439040Y-93636944D01*
X153528606Y-93481811D01*
X153531223Y-93477279D01*
X153531224Y-93477278D01*
X153534527Y-93471556D01*
X153593542Y-93289928D01*
X153613504Y-93100000D01*
X153595473Y-92928444D01*
X153594232Y-92916635D01*
X153594232Y-92916633D01*
X153593542Y-92910072D01*
X153534527Y-92728444D01*
X153529813Y-92720278D01*
X153472571Y-92621134D01*
X153439040Y-92563056D01*
X153322740Y-92433891D01*
X153315675Y-92426045D01*
X153315674Y-92426044D01*
X153311253Y-92421134D01*
X153173457Y-92321019D01*
X153162094Y-92312763D01*
X153162093Y-92312762D01*
X153156752Y-92308882D01*
X153150724Y-92306198D01*
X153150722Y-92306197D01*
X152988319Y-92233891D01*
X152988318Y-92233891D01*
X152982288Y-92231206D01*
X152888888Y-92211353D01*
X152801944Y-92192872D01*
X152801939Y-92192872D01*
X152795487Y-92191500D01*
X152604513Y-92191500D01*
X152598061Y-92192872D01*
X152598056Y-92192872D01*
X152511112Y-92211353D01*
X152417712Y-92231206D01*
X152411682Y-92233891D01*
X152411681Y-92233891D01*
X152249278Y-92306197D01*
X152249276Y-92306198D01*
X152243248Y-92308882D01*
X152237907Y-92312762D01*
X152237906Y-92312763D01*
X152226543Y-92321019D01*
X152088747Y-92421134D01*
X152084326Y-92426044D01*
X152084325Y-92426045D01*
X152077261Y-92433891D01*
X151960960Y-92563056D01*
X151927429Y-92621134D01*
X151870188Y-92720278D01*
X151865473Y-92728444D01*
X151806458Y-92910072D01*
X151805768Y-92916633D01*
X151805768Y-92916635D01*
X151804527Y-92928444D01*
X151786496Y-93100000D01*
X141533500Y-93100000D01*
X141533500Y-93002524D01*
X141553502Y-92934403D01*
X141565858Y-92918221D01*
X141639040Y-92836944D01*
X141734527Y-92671556D01*
X141793542Y-92489928D01*
X141796050Y-92466072D01*
X141812814Y-92306565D01*
X141813504Y-92300000D01*
X141802245Y-92192872D01*
X141794232Y-92116635D01*
X141794232Y-92116633D01*
X141793542Y-92110072D01*
X141734527Y-91928444D01*
X141639040Y-91763056D01*
X141511253Y-91621134D01*
X141378310Y-91524545D01*
X141362094Y-91512763D01*
X141362093Y-91512762D01*
X141356752Y-91508882D01*
X141350724Y-91506198D01*
X141350722Y-91506197D01*
X141188319Y-91433891D01*
X141188318Y-91433891D01*
X141182288Y-91431206D01*
X141066362Y-91406565D01*
X141001944Y-91392872D01*
X141001939Y-91392872D01*
X140995487Y-91391500D01*
X140804513Y-91391500D01*
X140798061Y-91392872D01*
X140798056Y-91392872D01*
X140733638Y-91406565D01*
X140617712Y-91431206D01*
X140611682Y-91433891D01*
X140611681Y-91433891D01*
X140449278Y-91506197D01*
X140449276Y-91506198D01*
X140443248Y-91508882D01*
X140437907Y-91512762D01*
X140437906Y-91512763D01*
X140421690Y-91524545D01*
X140288747Y-91621134D01*
X140160960Y-91763056D01*
X140065473Y-91928444D01*
X140006458Y-92110072D01*
X140005768Y-92116633D01*
X140005768Y-92116635D01*
X139997755Y-92192872D01*
X139986496Y-92300000D01*
X139987186Y-92306565D01*
X140003951Y-92466072D01*
X140006458Y-92489928D01*
X140065473Y-92671556D01*
X140160960Y-92836944D01*
X140234137Y-92918215D01*
X140264853Y-92982221D01*
X140266500Y-93002524D01*
X140266500Y-95146976D01*
X140246498Y-95215097D01*
X140234142Y-95231279D01*
X140160960Y-95312556D01*
X140065473Y-95477944D01*
X140006458Y-95659572D01*
X139986496Y-95849500D01*
X128958500Y-95849500D01*
X128958500Y-89836999D01*
X128975381Y-89773999D01*
X129031223Y-89677279D01*
X129031224Y-89677278D01*
X129034527Y-89671556D01*
X129093542Y-89489928D01*
X129103393Y-89396206D01*
X129112814Y-89306565D01*
X129113504Y-89300000D01*
X129099744Y-89169077D01*
X129094232Y-89116635D01*
X129094232Y-89116633D01*
X129093542Y-89110072D01*
X129034527Y-88928444D01*
X128975381Y-88826000D01*
X128958500Y-88763001D01*
X128958500Y-81400000D01*
X137286496Y-81400000D01*
X137287186Y-81406565D01*
X137305129Y-81577279D01*
X137306458Y-81589928D01*
X137365473Y-81771556D01*
X137368776Y-81777278D01*
X137368777Y-81777279D01*
X137381895Y-81800000D01*
X137460960Y-81936944D01*
X137465378Y-81941851D01*
X137465379Y-81941852D01*
X137579678Y-82068794D01*
X137588747Y-82078866D01*
X137743248Y-82191118D01*
X137749276Y-82193802D01*
X137749278Y-82193803D01*
X137763197Y-82200000D01*
X137917712Y-82268794D01*
X138011113Y-82288647D01*
X138098056Y-82307128D01*
X138098061Y-82307128D01*
X138104513Y-82308500D01*
X138295487Y-82308500D01*
X138301939Y-82307128D01*
X138301944Y-82307128D01*
X138388887Y-82288647D01*
X138482288Y-82268794D01*
X138636803Y-82200000D01*
X138650722Y-82193803D01*
X138650724Y-82193802D01*
X138656752Y-82191118D01*
X138811253Y-82078866D01*
X138820322Y-82068794D01*
X138934621Y-81941852D01*
X138934622Y-81941851D01*
X138939040Y-81936944D01*
X139018105Y-81800000D01*
X139031223Y-81777279D01*
X139031224Y-81777278D01*
X139034527Y-81771556D01*
X139093542Y-81589928D01*
X139094872Y-81577279D01*
X139112814Y-81406565D01*
X139113504Y-81400000D01*
X139093542Y-81210072D01*
X139034527Y-81028444D01*
X138939040Y-80863056D01*
X138865863Y-80781785D01*
X138835147Y-80717779D01*
X138833500Y-80697476D01*
X138833500Y-78372212D01*
X138853502Y-78304091D01*
X138885439Y-78270276D01*
X138973129Y-78206565D01*
X139011253Y-78178866D01*
X139139040Y-78036944D01*
X139200076Y-77931226D01*
X139231223Y-77877279D01*
X139231224Y-77877278D01*
X139234527Y-77871556D01*
X139293542Y-77689928D01*
X139294751Y-77678430D01*
X139312814Y-77506565D01*
X139313504Y-77500000D01*
X139309667Y-77463489D01*
X139294232Y-77316635D01*
X139294232Y-77316633D01*
X139293542Y-77310072D01*
X139234527Y-77128444D01*
X139210284Y-77086453D01*
X139197314Y-77063990D01*
X139139040Y-76963056D01*
X139053514Y-76868069D01*
X139015675Y-76826045D01*
X139015674Y-76826044D01*
X139011253Y-76821134D01*
X138880375Y-76726045D01*
X138862094Y-76712763D01*
X138862093Y-76712762D01*
X138856752Y-76708882D01*
X138850724Y-76706198D01*
X138850722Y-76706197D01*
X138688319Y-76633891D01*
X138688318Y-76633891D01*
X138682288Y-76631206D01*
X138588887Y-76611353D01*
X138501944Y-76592872D01*
X138501939Y-76592872D01*
X138495487Y-76591500D01*
X138304513Y-76591500D01*
X138298061Y-76592872D01*
X138298056Y-76592872D01*
X138211113Y-76611353D01*
X138117712Y-76631206D01*
X138111682Y-76633891D01*
X138111681Y-76633891D01*
X137949278Y-76706197D01*
X137949276Y-76706198D01*
X137943248Y-76708882D01*
X137937907Y-76712762D01*
X137937906Y-76712763D01*
X137919625Y-76726045D01*
X137788747Y-76821134D01*
X137784326Y-76826044D01*
X137784325Y-76826045D01*
X137746487Y-76868069D01*
X137660960Y-76963056D01*
X137602686Y-77063990D01*
X137589717Y-77086453D01*
X137565473Y-77128444D01*
X137506458Y-77310072D01*
X137505768Y-77316633D01*
X137505768Y-77316635D01*
X137490333Y-77463489D01*
X137486496Y-77500000D01*
X137487186Y-77506565D01*
X137505250Y-77678430D01*
X137506458Y-77689928D01*
X137508498Y-77696206D01*
X137560333Y-77855737D01*
X137566500Y-77894673D01*
X137566500Y-80697476D01*
X137546498Y-80765597D01*
X137534142Y-80781779D01*
X137460960Y-80863056D01*
X137365473Y-81028444D01*
X137306458Y-81210072D01*
X137286496Y-81400000D01*
X128958500Y-81400000D01*
X128958500Y-70700000D01*
X139986496Y-70700000D01*
X140006458Y-70889928D01*
X140065473Y-71071556D01*
X140160960Y-71236944D01*
X140234137Y-71318215D01*
X140264853Y-71382221D01*
X140266500Y-71402524D01*
X140266500Y-88621233D01*
X140265973Y-88632416D01*
X140264298Y-88639909D01*
X140264547Y-88647835D01*
X140264547Y-88647836D01*
X140266438Y-88707986D01*
X140266500Y-88711945D01*
X140266500Y-88739856D01*
X140266997Y-88743790D01*
X140266997Y-88743791D01*
X140267005Y-88743856D01*
X140267938Y-88755693D01*
X140269327Y-88799889D01*
X140272975Y-88812445D01*
X140274978Y-88819339D01*
X140278987Y-88838700D01*
X140281526Y-88858797D01*
X140284445Y-88866168D01*
X140284445Y-88866170D01*
X140297804Y-88899912D01*
X140301649Y-88911142D01*
X140311771Y-88945983D01*
X140313982Y-88953593D01*
X140318015Y-88960412D01*
X140318017Y-88960417D01*
X140324293Y-88971028D01*
X140332988Y-88988776D01*
X140340448Y-89007617D01*
X140345110Y-89014033D01*
X140345110Y-89014034D01*
X140366436Y-89043387D01*
X140372952Y-89053307D01*
X140395458Y-89091362D01*
X140409779Y-89105683D01*
X140422619Y-89120716D01*
X140434528Y-89137107D01*
X140440634Y-89142158D01*
X140468605Y-89165298D01*
X140477384Y-89173288D01*
X141652878Y-90348783D01*
X141686904Y-90411095D01*
X141689093Y-90424708D01*
X141701215Y-90540039D01*
X141706458Y-90589928D01*
X141765473Y-90771556D01*
X141860960Y-90936944D01*
X141865378Y-90941851D01*
X141865379Y-90941852D01*
X141984325Y-91073955D01*
X141988747Y-91078866D01*
X142143248Y-91191118D01*
X142149276Y-91193802D01*
X142149278Y-91193803D01*
X142311681Y-91266109D01*
X142317712Y-91268794D01*
X142411113Y-91288647D01*
X142498056Y-91307128D01*
X142498061Y-91307128D01*
X142504513Y-91308500D01*
X142695487Y-91308500D01*
X142701939Y-91307128D01*
X142701944Y-91307128D01*
X142788887Y-91288647D01*
X142882288Y-91268794D01*
X142888319Y-91266109D01*
X143050722Y-91193803D01*
X143050724Y-91193802D01*
X143056752Y-91191118D01*
X143211253Y-91078866D01*
X143215675Y-91073955D01*
X143334621Y-90941852D01*
X143334622Y-90941851D01*
X143339040Y-90936944D01*
X143434527Y-90771556D01*
X143493542Y-90589928D01*
X143498786Y-90540039D01*
X143512814Y-90406565D01*
X143513504Y-90400000D01*
X143505733Y-90326060D01*
X143494232Y-90216635D01*
X143494232Y-90216633D01*
X143493542Y-90210072D01*
X143434527Y-90028444D01*
X143339040Y-89863056D01*
X143226076Y-89737596D01*
X143215675Y-89726045D01*
X143215674Y-89726044D01*
X143211253Y-89721134D01*
X143056752Y-89608882D01*
X143050724Y-89606198D01*
X143050722Y-89606197D01*
X142888319Y-89533891D01*
X142888318Y-89533891D01*
X142882288Y-89531206D01*
X142788887Y-89511353D01*
X142701944Y-89492872D01*
X142701939Y-89492872D01*
X142695487Y-89491500D01*
X142639594Y-89491500D01*
X142571473Y-89471498D01*
X142550499Y-89454595D01*
X141570405Y-88474500D01*
X141536379Y-88412188D01*
X141533500Y-88385405D01*
X141533500Y-74200000D01*
X141886496Y-74200000D01*
X141906458Y-74389928D01*
X141965473Y-74571556D01*
X142060960Y-74736944D01*
X142134137Y-74818215D01*
X142164853Y-74882221D01*
X142166500Y-74902524D01*
X142166500Y-80619699D01*
X142149619Y-80682699D01*
X142107713Y-80755283D01*
X142065473Y-80828444D01*
X142006458Y-81010072D01*
X142005768Y-81016633D01*
X142005768Y-81016635D01*
X141995193Y-81117251D01*
X141986496Y-81200000D01*
X141987186Y-81206565D01*
X141992608Y-81258148D01*
X142006458Y-81389928D01*
X142065473Y-81571556D01*
X142068776Y-81577278D01*
X142068777Y-81577279D01*
X142099590Y-81630648D01*
X142160960Y-81736944D01*
X142165378Y-81741851D01*
X142165379Y-81741852D01*
X142243347Y-81828444D01*
X142288747Y-81878866D01*
X142387843Y-81950864D01*
X142437100Y-81986651D01*
X142443248Y-81991118D01*
X142449276Y-81993802D01*
X142449278Y-81993803D01*
X142611681Y-82066109D01*
X142617712Y-82068794D01*
X142683365Y-82082749D01*
X142798056Y-82107128D01*
X142798061Y-82107128D01*
X142804513Y-82108500D01*
X142995487Y-82108500D01*
X143001939Y-82107128D01*
X143001944Y-82107128D01*
X143116635Y-82082749D01*
X143182288Y-82068794D01*
X143188319Y-82066109D01*
X143350722Y-81993803D01*
X143350724Y-81993802D01*
X143356752Y-81991118D01*
X143362901Y-81986651D01*
X143412157Y-81950864D01*
X143511253Y-81878866D01*
X143556653Y-81828444D01*
X143634621Y-81741852D01*
X143634622Y-81741851D01*
X143639040Y-81736944D01*
X143700410Y-81630648D01*
X143731223Y-81577279D01*
X143731224Y-81577278D01*
X143734527Y-81571556D01*
X143793542Y-81389928D01*
X143807393Y-81258148D01*
X143812814Y-81206565D01*
X143813504Y-81200000D01*
X143804807Y-81117251D01*
X143794232Y-81016635D01*
X143794232Y-81016633D01*
X143793542Y-81010072D01*
X143734527Y-80828444D01*
X143639040Y-80663056D01*
X143588293Y-80606695D01*
X143515675Y-80526045D01*
X143515674Y-80526044D01*
X143511253Y-80521134D01*
X143485439Y-80502379D01*
X143442085Y-80446157D01*
X143433500Y-80400443D01*
X143433500Y-74902524D01*
X143453502Y-74834403D01*
X143465858Y-74818221D01*
X143539040Y-74736944D01*
X143634527Y-74571556D01*
X143693542Y-74389928D01*
X143713504Y-74200000D01*
X143693542Y-74010072D01*
X143634527Y-73828444D01*
X143625231Y-73812342D01*
X143542341Y-73668774D01*
X143539040Y-73663056D01*
X143487415Y-73605720D01*
X143415675Y-73526045D01*
X143415674Y-73526044D01*
X143411253Y-73521134D01*
X143256752Y-73408882D01*
X143250724Y-73406198D01*
X143250722Y-73406197D01*
X143088319Y-73333891D01*
X143088318Y-73333891D01*
X143082288Y-73331206D01*
X142988887Y-73311353D01*
X142901944Y-73292872D01*
X142901939Y-73292872D01*
X142895487Y-73291500D01*
X142704513Y-73291500D01*
X142698061Y-73292872D01*
X142698056Y-73292872D01*
X142611113Y-73311353D01*
X142517712Y-73331206D01*
X142511682Y-73333891D01*
X142511681Y-73333891D01*
X142349278Y-73406197D01*
X142349276Y-73406198D01*
X142343248Y-73408882D01*
X142188747Y-73521134D01*
X142184326Y-73526044D01*
X142184325Y-73526045D01*
X142112586Y-73605720D01*
X142060960Y-73663056D01*
X142057659Y-73668774D01*
X141974770Y-73812342D01*
X141965473Y-73828444D01*
X141906458Y-74010072D01*
X141886496Y-74200000D01*
X141533500Y-74200000D01*
X141533500Y-71402524D01*
X141553502Y-71334403D01*
X141565858Y-71318221D01*
X141639040Y-71236944D01*
X141734527Y-71071556D01*
X141793542Y-70889928D01*
X141813504Y-70700000D01*
X152786496Y-70700000D01*
X152806458Y-70889928D01*
X152865473Y-71071556D01*
X152960960Y-71236944D01*
X152965375Y-71241847D01*
X152965379Y-71241852D01*
X153034135Y-71318213D01*
X153088747Y-71378866D01*
X153152500Y-71425185D01*
X153214561Y-71470276D01*
X153257915Y-71526499D01*
X153266500Y-71572212D01*
X153266500Y-73497476D01*
X153246498Y-73565597D01*
X153234142Y-73581779D01*
X153160960Y-73663056D01*
X153157659Y-73668774D01*
X153074770Y-73812342D01*
X153065473Y-73828444D01*
X153006458Y-74010072D01*
X152986496Y-74200000D01*
X153006458Y-74389928D01*
X153065473Y-74571556D01*
X153160960Y-74736944D01*
X153165375Y-74741847D01*
X153165379Y-74741852D01*
X153266500Y-74854158D01*
X153288747Y-74878866D01*
X153350165Y-74923489D01*
X153422856Y-74976302D01*
X153443248Y-74991118D01*
X153449276Y-74993802D01*
X153449278Y-74993803D01*
X153541200Y-75034729D01*
X153617712Y-75068794D01*
X153690055Y-75084171D01*
X153798056Y-75107128D01*
X153798061Y-75107128D01*
X153804513Y-75108500D01*
X153995487Y-75108500D01*
X154001939Y-75107128D01*
X154001944Y-75107128D01*
X154109945Y-75084171D01*
X154182288Y-75068794D01*
X154258800Y-75034729D01*
X154350722Y-74993803D01*
X154350724Y-74993802D01*
X154356752Y-74991118D01*
X154366439Y-74984080D01*
X154433307Y-74960221D01*
X154502458Y-74976302D01*
X154551939Y-75027216D01*
X154566500Y-75086016D01*
X154566500Y-89685405D01*
X154546498Y-89753526D01*
X154529595Y-89774501D01*
X153949499Y-90354596D01*
X153887187Y-90388621D01*
X153860404Y-90391500D01*
X153804513Y-90391500D01*
X153798061Y-90392872D01*
X153798056Y-90392872D01*
X153712326Y-90411095D01*
X153617712Y-90431206D01*
X153611682Y-90433891D01*
X153611681Y-90433891D01*
X153449278Y-90506197D01*
X153449276Y-90506198D01*
X153443248Y-90508882D01*
X153437907Y-90512762D01*
X153437906Y-90512763D01*
X153414410Y-90529834D01*
X153288747Y-90621134D01*
X153284326Y-90626044D01*
X153284325Y-90626045D01*
X153249868Y-90664314D01*
X153160960Y-90763056D01*
X153065473Y-90928444D01*
X153006458Y-91110072D01*
X153005768Y-91116633D01*
X153005768Y-91116635D01*
X152995948Y-91210072D01*
X152986496Y-91300000D01*
X153006458Y-91489928D01*
X153065473Y-91671556D01*
X153160960Y-91836944D01*
X153288747Y-91978866D01*
X153443248Y-92091118D01*
X153449276Y-92093802D01*
X153449278Y-92093803D01*
X153500560Y-92116635D01*
X153617712Y-92168794D01*
X153711112Y-92188647D01*
X153798056Y-92207128D01*
X153798061Y-92207128D01*
X153804513Y-92208500D01*
X153995487Y-92208500D01*
X154001939Y-92207128D01*
X154001944Y-92207128D01*
X154088888Y-92188647D01*
X154182288Y-92168794D01*
X154299440Y-92116635D01*
X154350722Y-92093803D01*
X154350724Y-92093802D01*
X154356752Y-92091118D01*
X154511253Y-91978866D01*
X154639040Y-91836944D01*
X154734527Y-91671556D01*
X154793542Y-91489928D01*
X154810907Y-91324706D01*
X154837920Y-91259050D01*
X154847122Y-91248782D01*
X155592247Y-90503657D01*
X155600537Y-90496113D01*
X155607018Y-90492000D01*
X155626271Y-90471498D01*
X155653658Y-90442333D01*
X155656413Y-90439491D01*
X155676135Y-90419769D01*
X155678612Y-90416576D01*
X155686317Y-90407555D01*
X155704097Y-90388621D01*
X155716586Y-90375321D01*
X155721985Y-90365500D01*
X155726346Y-90357568D01*
X155737202Y-90341041D01*
X155744757Y-90331302D01*
X155744758Y-90331300D01*
X155749614Y-90325040D01*
X155767174Y-90284460D01*
X155772391Y-90273812D01*
X155789875Y-90242009D01*
X155789876Y-90242007D01*
X155793695Y-90235060D01*
X155798733Y-90215437D01*
X155805137Y-90196734D01*
X155810033Y-90185420D01*
X155810033Y-90185419D01*
X155813181Y-90178145D01*
X155814420Y-90170322D01*
X155814423Y-90170312D01*
X155820099Y-90134476D01*
X155822505Y-90122856D01*
X155831528Y-90087711D01*
X155831528Y-90087710D01*
X155833500Y-90080030D01*
X155833500Y-90059776D01*
X155835051Y-90040065D01*
X155836980Y-90027886D01*
X155838220Y-90020057D01*
X155834059Y-89976038D01*
X155833500Y-89964181D01*
X155833500Y-82640005D01*
X155853502Y-82571884D01*
X155907158Y-82525391D01*
X155977432Y-82515287D01*
X156042012Y-82544781D01*
X156068619Y-82577005D01*
X156160960Y-82736944D01*
X156234137Y-82818215D01*
X156264853Y-82882221D01*
X156266500Y-82902524D01*
X156266500Y-112097476D01*
X156246498Y-112165597D01*
X156234142Y-112181779D01*
X156160960Y-112263056D01*
X156118762Y-112336145D01*
X156099640Y-112369266D01*
X156065473Y-112428444D01*
X156006458Y-112610072D01*
X156005768Y-112616633D01*
X156005768Y-112616635D01*
X156004784Y-112626001D01*
X155986496Y-112800000D01*
X155987186Y-112806565D01*
X156004235Y-112968774D01*
X156006458Y-112989928D01*
X156065473Y-113171556D01*
X156160960Y-113336944D01*
X156165378Y-113341851D01*
X156165379Y-113341852D01*
X156255646Y-113442104D01*
X156288747Y-113478866D01*
X156443248Y-113591118D01*
X156449276Y-113593802D01*
X156449278Y-113593803D01*
X156611681Y-113666109D01*
X156617712Y-113668794D01*
X156686263Y-113683365D01*
X156798056Y-113707128D01*
X156798061Y-113707128D01*
X156804513Y-113708500D01*
X156865000Y-113708500D01*
X156933121Y-113728502D01*
X156979614Y-113782158D01*
X156991000Y-113834500D01*
X156991000Y-123470266D01*
X156970998Y-123538387D01*
X156958643Y-123554568D01*
X156860960Y-123663056D01*
X156765473Y-123828444D01*
X156706458Y-124010072D01*
X156686496Y-124200000D01*
X156706458Y-124389928D01*
X156765473Y-124571556D01*
X156860960Y-124736944D01*
X156988747Y-124878866D01*
X157143248Y-124991118D01*
X157149276Y-124993802D01*
X157149278Y-124993803D01*
X157311681Y-125066109D01*
X157317712Y-125068794D01*
X157411113Y-125088647D01*
X157498056Y-125107128D01*
X157498061Y-125107128D01*
X157504513Y-125108500D01*
X157695487Y-125108500D01*
X157701939Y-125107128D01*
X157701944Y-125107128D01*
X157788887Y-125088647D01*
X157882288Y-125068794D01*
X157888319Y-125066109D01*
X158050722Y-124993803D01*
X158050724Y-124993802D01*
X158056752Y-124991118D01*
X158211253Y-124878866D01*
X158339040Y-124736944D01*
X158434527Y-124571556D01*
X158493542Y-124389928D01*
X158513504Y-124200000D01*
X158493542Y-124010072D01*
X158434527Y-123828444D01*
X158339040Y-123663056D01*
X158290363Y-123608995D01*
X158259647Y-123544989D01*
X158258000Y-123524686D01*
X158258000Y-111500000D01*
X162286496Y-111500000D01*
X162287186Y-111506565D01*
X162303213Y-111659050D01*
X162306458Y-111689928D01*
X162365473Y-111871556D01*
X162460960Y-112036944D01*
X162465378Y-112041851D01*
X162465379Y-112041852D01*
X162584325Y-112173955D01*
X162588747Y-112178866D01*
X162743248Y-112291118D01*
X162749276Y-112293802D01*
X162749278Y-112293803D01*
X162889935Y-112356427D01*
X162917712Y-112368794D01*
X162983365Y-112382749D01*
X163098056Y-112407128D01*
X163098061Y-112407128D01*
X163104513Y-112408500D01*
X163111115Y-112408500D01*
X163117682Y-112409190D01*
X163117437Y-112411517D01*
X163175284Y-112428502D01*
X163221777Y-112482158D01*
X163231881Y-112552432D01*
X163200801Y-112618808D01*
X163160960Y-112663056D01*
X163065473Y-112828444D01*
X163006458Y-113010072D01*
X163005768Y-113016633D01*
X163005768Y-113016635D01*
X162999368Y-113077529D01*
X162986496Y-113200000D01*
X162987186Y-113206565D01*
X162997971Y-113309174D01*
X163006458Y-113389928D01*
X163065473Y-113571556D01*
X163068776Y-113577278D01*
X163068777Y-113577279D01*
X163074526Y-113587237D01*
X163160960Y-113736944D01*
X163288747Y-113878866D01*
X163443248Y-113991118D01*
X163449276Y-113993802D01*
X163449278Y-113993803D01*
X163557199Y-114041852D01*
X163617712Y-114068794D01*
X163711113Y-114088647D01*
X163798056Y-114107128D01*
X163798061Y-114107128D01*
X163804513Y-114108500D01*
X163995487Y-114108500D01*
X164001939Y-114107128D01*
X164001944Y-114107128D01*
X164088887Y-114088647D01*
X164182288Y-114068794D01*
X164188315Y-114066111D01*
X164188323Y-114066108D01*
X164318057Y-114008347D01*
X164388424Y-113998913D01*
X164452721Y-114029020D01*
X164462941Y-114039144D01*
X164549959Y-114135787D01*
X164588747Y-114178866D01*
X164743248Y-114291118D01*
X164749276Y-114293802D01*
X164749278Y-114293803D01*
X164911681Y-114366109D01*
X164917712Y-114368794D01*
X165011113Y-114388647D01*
X165098056Y-114407128D01*
X165098061Y-114407128D01*
X165104513Y-114408500D01*
X165295487Y-114408500D01*
X165301939Y-114407128D01*
X165301944Y-114407128D01*
X165388887Y-114388647D01*
X165482288Y-114368794D01*
X165488319Y-114366109D01*
X165650722Y-114293803D01*
X165650724Y-114293802D01*
X165656752Y-114291118D01*
X165811253Y-114178866D01*
X165849891Y-114135954D01*
X165934621Y-114041852D01*
X165934622Y-114041851D01*
X165939040Y-114036944D01*
X166003890Y-113924621D01*
X166031223Y-113877279D01*
X166031224Y-113877278D01*
X166034527Y-113871556D01*
X166093542Y-113689928D01*
X166096046Y-113666109D01*
X166112814Y-113506565D01*
X166113504Y-113500000D01*
X166096882Y-113341852D01*
X166094232Y-113316635D01*
X166094232Y-113316633D01*
X166093542Y-113310072D01*
X166034527Y-113128444D01*
X165939040Y-112963056D01*
X165865863Y-112881785D01*
X165835147Y-112817779D01*
X165833500Y-112797476D01*
X165833500Y-112734500D01*
X165853502Y-112666379D01*
X165907158Y-112619886D01*
X165959500Y-112608500D01*
X166019987Y-112608500D01*
X166026439Y-112607128D01*
X166026444Y-112607128D01*
X166142344Y-112582492D01*
X166206788Y-112568794D01*
X166212819Y-112566109D01*
X166375222Y-112493803D01*
X166375224Y-112493802D01*
X166381252Y-112491118D01*
X166393585Y-112482158D01*
X166441095Y-112447639D01*
X166535753Y-112378866D01*
X166544822Y-112368794D01*
X166659121Y-112241852D01*
X166659122Y-112241851D01*
X166663540Y-112236944D01*
X166759027Y-112071556D01*
X166818042Y-111889928D01*
X166819372Y-111877279D01*
X166826848Y-111806144D01*
X166835407Y-111724706D01*
X166862420Y-111659050D01*
X166871622Y-111648782D01*
X167385676Y-111134729D01*
X167917253Y-110603152D01*
X167925539Y-110595612D01*
X167932018Y-110591500D01*
X167978644Y-110541848D01*
X167981398Y-110539007D01*
X168001135Y-110519270D01*
X168003615Y-110516073D01*
X168011320Y-110507051D01*
X168036159Y-110480600D01*
X168041586Y-110474821D01*
X168045405Y-110467875D01*
X168045407Y-110467872D01*
X168051348Y-110457066D01*
X168062199Y-110440547D01*
X168069758Y-110430801D01*
X168074614Y-110424541D01*
X168077759Y-110417272D01*
X168077762Y-110417268D01*
X168092174Y-110383963D01*
X168097391Y-110373313D01*
X168118695Y-110334560D01*
X168123733Y-110314937D01*
X168130137Y-110296234D01*
X168135033Y-110284920D01*
X168135033Y-110284919D01*
X168138181Y-110277645D01*
X168139420Y-110269822D01*
X168139423Y-110269812D01*
X168145099Y-110233976D01*
X168147505Y-110222356D01*
X168156528Y-110187211D01*
X168156528Y-110187210D01*
X168158500Y-110179530D01*
X168158500Y-110159276D01*
X168160051Y-110139565D01*
X168161980Y-110127386D01*
X168163220Y-110119557D01*
X168159059Y-110075538D01*
X168158500Y-110063681D01*
X168158500Y-86100000D01*
X169186496Y-86100000D01*
X169206458Y-86289928D01*
X169265473Y-86471556D01*
X169360960Y-86636944D01*
X169365378Y-86641851D01*
X169365379Y-86641852D01*
X169442927Y-86727978D01*
X169488747Y-86778866D01*
X169643248Y-86891118D01*
X169649276Y-86893802D01*
X169649278Y-86893803D01*
X169811681Y-86966109D01*
X169817712Y-86968794D01*
X169911112Y-86988647D01*
X169998056Y-87007128D01*
X169998061Y-87007128D01*
X170004513Y-87008500D01*
X170195487Y-87008500D01*
X170201939Y-87007128D01*
X170201944Y-87007128D01*
X170288888Y-86988647D01*
X170382288Y-86968794D01*
X170388319Y-86966109D01*
X170550722Y-86893803D01*
X170550724Y-86893802D01*
X170556752Y-86891118D01*
X170711253Y-86778866D01*
X170839040Y-86636944D01*
X170839963Y-86635346D01*
X170894785Y-86593071D01*
X170965521Y-86586994D01*
X171028313Y-86620126D01*
X171063225Y-86681945D01*
X171066500Y-86710485D01*
X171066500Y-106921233D01*
X171065973Y-106932416D01*
X171064298Y-106939909D01*
X171064547Y-106947835D01*
X171064547Y-106947836D01*
X171066438Y-107007986D01*
X171066500Y-107011945D01*
X171066500Y-107039856D01*
X171066997Y-107043790D01*
X171066997Y-107043791D01*
X171067005Y-107043856D01*
X171067938Y-107055693D01*
X171069327Y-107099889D01*
X171074978Y-107119339D01*
X171078987Y-107138700D01*
X171081526Y-107158797D01*
X171084445Y-107166168D01*
X171084445Y-107166170D01*
X171097804Y-107199912D01*
X171101649Y-107211142D01*
X171108994Y-107236425D01*
X171113982Y-107253593D01*
X171118015Y-107260412D01*
X171118017Y-107260417D01*
X171124293Y-107271028D01*
X171132988Y-107288776D01*
X171140448Y-107307617D01*
X171145110Y-107314033D01*
X171145110Y-107314034D01*
X171166436Y-107343387D01*
X171172952Y-107353307D01*
X171188068Y-107378866D01*
X171195458Y-107391362D01*
X171209779Y-107405683D01*
X171222619Y-107420716D01*
X171234528Y-107437107D01*
X171264390Y-107461811D01*
X171268605Y-107465298D01*
X171277384Y-107473288D01*
X171952878Y-108148782D01*
X171986904Y-108211094D01*
X171989092Y-108224703D01*
X171991053Y-108243357D01*
X172003534Y-108362104D01*
X172006458Y-108389928D01*
X172065473Y-108571556D01*
X172160960Y-108736944D01*
X172165378Y-108741851D01*
X172165379Y-108741852D01*
X172245986Y-108831375D01*
X172288747Y-108878866D01*
X172443248Y-108991118D01*
X172449276Y-108993802D01*
X172449278Y-108993803D01*
X172540230Y-109034297D01*
X172617712Y-109068794D01*
X172711112Y-109088647D01*
X172798056Y-109107128D01*
X172798061Y-109107128D01*
X172804513Y-109108500D01*
X172995487Y-109108500D01*
X173001939Y-109107128D01*
X173001944Y-109107128D01*
X173088887Y-109088647D01*
X173182288Y-109068794D01*
X173259770Y-109034297D01*
X173350722Y-108993803D01*
X173350724Y-108993802D01*
X173356752Y-108991118D01*
X173511253Y-108878866D01*
X173554014Y-108831375D01*
X173634621Y-108741852D01*
X173634622Y-108741851D01*
X173639040Y-108736944D01*
X173734527Y-108571556D01*
X173793542Y-108389928D01*
X173796467Y-108362104D01*
X173812814Y-108206565D01*
X173813504Y-108200000D01*
X173793542Y-108010072D01*
X173734527Y-107828444D01*
X173639040Y-107663056D01*
X173607928Y-107628502D01*
X173515675Y-107526045D01*
X173515674Y-107526044D01*
X173511253Y-107521134D01*
X173386774Y-107430694D01*
X173362094Y-107412763D01*
X173362093Y-107412762D01*
X173356752Y-107408882D01*
X173350724Y-107406198D01*
X173350722Y-107406197D01*
X173188319Y-107333891D01*
X173188318Y-107333891D01*
X173182288Y-107331206D01*
X173084009Y-107310316D01*
X173001944Y-107292872D01*
X173001939Y-107292872D01*
X172995487Y-107291500D01*
X172939595Y-107291500D01*
X172871474Y-107271498D01*
X172850500Y-107254595D01*
X172370405Y-106774500D01*
X172336379Y-106712188D01*
X172333500Y-106685405D01*
X172333500Y-80173349D01*
X173536801Y-80173349D01*
X173537394Y-80180641D01*
X173537394Y-80180644D01*
X173541085Y-80226018D01*
X173541500Y-80236233D01*
X173541500Y-80244293D01*
X173541925Y-80247937D01*
X173544789Y-80272507D01*
X173545222Y-80276882D01*
X173546961Y-80298255D01*
X173551140Y-80349637D01*
X173553396Y-80356601D01*
X173554587Y-80362560D01*
X173555971Y-80368415D01*
X173556818Y-80375681D01*
X173581735Y-80444327D01*
X173583152Y-80448455D01*
X173605649Y-80517899D01*
X173609445Y-80524154D01*
X173611951Y-80529628D01*
X173614670Y-80535058D01*
X173617167Y-80541937D01*
X173621180Y-80548057D01*
X173621180Y-80548058D01*
X173657186Y-80602976D01*
X173659523Y-80606680D01*
X173697405Y-80669107D01*
X173701121Y-80673315D01*
X173701122Y-80673316D01*
X173704803Y-80677484D01*
X173704776Y-80677508D01*
X173707429Y-80680500D01*
X173710132Y-80683733D01*
X173714144Y-80689852D01*
X173719456Y-80694884D01*
X173770383Y-80743128D01*
X173772825Y-80745506D01*
X175264595Y-82237276D01*
X175298621Y-82299588D01*
X175301500Y-82326371D01*
X175301500Y-102982462D01*
X175281498Y-103050583D01*
X175227842Y-103097076D01*
X175215376Y-103101986D01*
X175205362Y-103105327D01*
X175136054Y-103128450D01*
X174985652Y-103221522D01*
X174860695Y-103346697D01*
X174856855Y-103352927D01*
X174856854Y-103352928D01*
X174772453Y-103489852D01*
X174767885Y-103497262D01*
X174763973Y-103509056D01*
X174717291Y-103649800D01*
X174712203Y-103665139D01*
X174711503Y-103671975D01*
X174711502Y-103671978D01*
X174710010Y-103686544D01*
X174701500Y-103769600D01*
X174701500Y-105070400D01*
X174701837Y-105073646D01*
X174701837Y-105073650D01*
X174706354Y-105117180D01*
X174712474Y-105176166D01*
X174714655Y-105182702D01*
X174714655Y-105182704D01*
X174723634Y-105209616D01*
X174768450Y-105343946D01*
X174861522Y-105494348D01*
X174986697Y-105619305D01*
X174992927Y-105623145D01*
X174992928Y-105623146D01*
X175010464Y-105633955D01*
X175137262Y-105712115D01*
X175144209Y-105714419D01*
X175146276Y-105715383D01*
X175199561Y-105762299D01*
X175219023Y-105830576D01*
X175198482Y-105898536D01*
X175168681Y-105930337D01*
X175154965Y-105940635D01*
X175000629Y-106102138D01*
X174874743Y-106286680D01*
X174780688Y-106489305D01*
X174720989Y-106704570D01*
X174697251Y-106926695D01*
X174697548Y-106931848D01*
X174697548Y-106931851D01*
X174707237Y-107099889D01*
X174710110Y-107149715D01*
X174711247Y-107154761D01*
X174711248Y-107154767D01*
X174733056Y-107251531D01*
X174759222Y-107367639D01*
X174819973Y-107517251D01*
X174840731Y-107568372D01*
X174843266Y-107574616D01*
X174883021Y-107639491D01*
X174957291Y-107760688D01*
X174959987Y-107765088D01*
X175106250Y-107933938D01*
X175278126Y-108076632D01*
X175348595Y-108117811D01*
X175351445Y-108119476D01*
X175400169Y-108171114D01*
X175413240Y-108240897D01*
X175386509Y-108306669D01*
X175346055Y-108340027D01*
X175333607Y-108346507D01*
X175329474Y-108349610D01*
X175329471Y-108349612D01*
X175267414Y-108396206D01*
X175154965Y-108480635D01*
X175000629Y-108642138D01*
X174874743Y-108826680D01*
X174780688Y-109029305D01*
X174720989Y-109244570D01*
X174697251Y-109466695D01*
X174697548Y-109471848D01*
X174697548Y-109471851D01*
X174703011Y-109566590D01*
X174710110Y-109689715D01*
X174711247Y-109694761D01*
X174711248Y-109694767D01*
X174731119Y-109782939D01*
X174759222Y-109907639D01*
X174843266Y-110114616D01*
X174883045Y-110179530D01*
X174957291Y-110300688D01*
X174959987Y-110305088D01*
X175106250Y-110473938D01*
X175278126Y-110616632D01*
X175296651Y-110627457D01*
X175351445Y-110659476D01*
X175400169Y-110711114D01*
X175413240Y-110780897D01*
X175386509Y-110846669D01*
X175346055Y-110880027D01*
X175333607Y-110886507D01*
X175329474Y-110889610D01*
X175329471Y-110889612D01*
X175159100Y-111017530D01*
X175154965Y-111020635D01*
X175000629Y-111182138D01*
X174874743Y-111366680D01*
X174859003Y-111400590D01*
X174805615Y-111515605D01*
X174780688Y-111569305D01*
X174720989Y-111784570D01*
X174697251Y-112006695D01*
X174697548Y-112011848D01*
X174697548Y-112011851D01*
X174707402Y-112182749D01*
X174710110Y-112229715D01*
X174711247Y-112234761D01*
X174711248Y-112234767D01*
X174718912Y-112268774D01*
X174759222Y-112447639D01*
X174843266Y-112654616D01*
X174885001Y-112722721D01*
X174957291Y-112840688D01*
X174959987Y-112845088D01*
X175106250Y-113013938D01*
X175278126Y-113156632D01*
X175341107Y-113193435D01*
X175351445Y-113199476D01*
X175400169Y-113251114D01*
X175413240Y-113320897D01*
X175386509Y-113386669D01*
X175346055Y-113420027D01*
X175333607Y-113426507D01*
X175329474Y-113429610D01*
X175329471Y-113429612D01*
X175159100Y-113557530D01*
X175154965Y-113560635D01*
X175000629Y-113722138D01*
X174997720Y-113726403D01*
X174997714Y-113726411D01*
X174990529Y-113736944D01*
X174874743Y-113906680D01*
X174859003Y-113940590D01*
X174787755Y-114094081D01*
X174780688Y-114109305D01*
X174720989Y-114324570D01*
X174697251Y-114546695D01*
X174697548Y-114551848D01*
X174697548Y-114551851D01*
X174704847Y-114678437D01*
X174710110Y-114769715D01*
X174711247Y-114774761D01*
X174711248Y-114774767D01*
X174726684Y-114843260D01*
X174759222Y-114987639D01*
X174843266Y-115194616D01*
X174894019Y-115277438D01*
X174957291Y-115380688D01*
X174959987Y-115385088D01*
X175106250Y-115553938D01*
X175278126Y-115696632D01*
X175471000Y-115809338D01*
X175679692Y-115889030D01*
X175684760Y-115890061D01*
X175684763Y-115890062D01*
X175792017Y-115911883D01*
X175898597Y-115933567D01*
X175903772Y-115933757D01*
X175903774Y-115933757D01*
X176116673Y-115941564D01*
X176116677Y-115941564D01*
X176121837Y-115941753D01*
X176126957Y-115941097D01*
X176126959Y-115941097D01*
X176338288Y-115914025D01*
X176338289Y-115914025D01*
X176343416Y-115913368D01*
X176398470Y-115896851D01*
X176552429Y-115850661D01*
X176552434Y-115850659D01*
X176557384Y-115849174D01*
X176757994Y-115750896D01*
X176939860Y-115621173D01*
X176976083Y-115585077D01*
X177094435Y-115467137D01*
X177098096Y-115463489D01*
X177157594Y-115380689D01*
X177228453Y-115282077D01*
X177229776Y-115283028D01*
X177276645Y-115239857D01*
X177346580Y-115227625D01*
X177412026Y-115255144D01*
X177439875Y-115286994D01*
X177499987Y-115385088D01*
X177646250Y-115553938D01*
X177818126Y-115696632D01*
X178011000Y-115809338D01*
X178219692Y-115889030D01*
X178224760Y-115890061D01*
X178224763Y-115890062D01*
X178332017Y-115911883D01*
X178438597Y-115933567D01*
X178443772Y-115933757D01*
X178443774Y-115933757D01*
X178656673Y-115941564D01*
X178656677Y-115941564D01*
X178661837Y-115941753D01*
X178666957Y-115941097D01*
X178666959Y-115941097D01*
X178878288Y-115914025D01*
X178878289Y-115914025D01*
X178883416Y-115913368D01*
X178938470Y-115896851D01*
X179092429Y-115850661D01*
X179092434Y-115850659D01*
X179097384Y-115849174D01*
X179297994Y-115750896D01*
X179479860Y-115621173D01*
X179516083Y-115585077D01*
X179634435Y-115467137D01*
X179638096Y-115463489D01*
X179697594Y-115380689D01*
X179765435Y-115286277D01*
X179768453Y-115282077D01*
X179789320Y-115239857D01*
X179865136Y-115086453D01*
X179865137Y-115086451D01*
X179867430Y-115081811D01*
X179925731Y-114889922D01*
X179930865Y-114873023D01*
X179930865Y-114873021D01*
X179932370Y-114868069D01*
X179961529Y-114646590D01*
X179961611Y-114643240D01*
X179963074Y-114583365D01*
X179963074Y-114583361D01*
X179963156Y-114580000D01*
X179944852Y-114357361D01*
X179890431Y-114140702D01*
X179801354Y-113935840D01*
X179680014Y-113748277D01*
X179529670Y-113583051D01*
X179525619Y-113579852D01*
X179525615Y-113579848D01*
X179358414Y-113447800D01*
X179358410Y-113447798D01*
X179354359Y-113444598D01*
X179313053Y-113421796D01*
X179263084Y-113371364D01*
X179248312Y-113301921D01*
X179273428Y-113235516D01*
X179300780Y-113208909D01*
X179361958Y-113165271D01*
X179479860Y-113081173D01*
X179638096Y-112923489D01*
X179697594Y-112840689D01*
X179765435Y-112746277D01*
X179768453Y-112742077D01*
X179778020Y-112722721D01*
X179865136Y-112546453D01*
X179865137Y-112546451D01*
X179867430Y-112541811D01*
X179903612Y-112422721D01*
X179930865Y-112333023D01*
X179930865Y-112333021D01*
X179932370Y-112328069D01*
X179961529Y-112106590D01*
X179963156Y-112040000D01*
X179944852Y-111817361D01*
X179890431Y-111600702D01*
X179801354Y-111395840D01*
X179716327Y-111264408D01*
X179682822Y-111212617D01*
X179682820Y-111212614D01*
X179680014Y-111208277D01*
X179529670Y-111043051D01*
X179525619Y-111039852D01*
X179525615Y-111039848D01*
X179358414Y-110907800D01*
X179358410Y-110907798D01*
X179354359Y-110904598D01*
X179313053Y-110881796D01*
X179263084Y-110831364D01*
X179248312Y-110761921D01*
X179273428Y-110695516D01*
X179300780Y-110668909D01*
X179345987Y-110636663D01*
X179479860Y-110541173D01*
X179514102Y-110507051D01*
X179634435Y-110387137D01*
X179638096Y-110383489D01*
X179697594Y-110300689D01*
X179765435Y-110206277D01*
X179768453Y-110202077D01*
X179779597Y-110179530D01*
X179865136Y-110006453D01*
X179865137Y-110006451D01*
X179867430Y-110001811D01*
X179906262Y-109874001D01*
X179930865Y-109793023D01*
X179930865Y-109793021D01*
X179932370Y-109788069D01*
X179961529Y-109566590D01*
X179963156Y-109500000D01*
X179944852Y-109277361D01*
X179916821Y-109165765D01*
X179919625Y-109094823D01*
X179949930Y-109045974D01*
X181292247Y-107703657D01*
X181300537Y-107696113D01*
X181307018Y-107692000D01*
X181328829Y-107668774D01*
X181353658Y-107642333D01*
X181356413Y-107639491D01*
X181376134Y-107619770D01*
X181378612Y-107616575D01*
X181386318Y-107607553D01*
X181411158Y-107581101D01*
X181416586Y-107575321D01*
X181426346Y-107557568D01*
X181437199Y-107541045D01*
X181444753Y-107531306D01*
X181449613Y-107525041D01*
X181467176Y-107484457D01*
X181472383Y-107473827D01*
X181493695Y-107435060D01*
X181495666Y-107427383D01*
X181495668Y-107427378D01*
X181498732Y-107415442D01*
X181505138Y-107396730D01*
X181510033Y-107385419D01*
X181513181Y-107378145D01*
X181514421Y-107370317D01*
X181514423Y-107370310D01*
X181520099Y-107334476D01*
X181522505Y-107322856D01*
X181531528Y-107287711D01*
X181531528Y-107287710D01*
X181533500Y-107280030D01*
X181533500Y-107259776D01*
X181535051Y-107240065D01*
X181536980Y-107227886D01*
X181538220Y-107220057D01*
X181534059Y-107176038D01*
X181533500Y-107164181D01*
X181533500Y-95002524D01*
X181553502Y-94934403D01*
X181565858Y-94918221D01*
X181639040Y-94836944D01*
X181734527Y-94671556D01*
X181793542Y-94489928D01*
X181795766Y-94468774D01*
X181812814Y-94306565D01*
X181813504Y-94300000D01*
X181803645Y-94206197D01*
X181794232Y-94116635D01*
X181794232Y-94116633D01*
X181793542Y-94110072D01*
X181734527Y-93928444D01*
X181725197Y-93912283D01*
X181642341Y-93768774D01*
X181639040Y-93763056D01*
X181511253Y-93621134D01*
X181356752Y-93508882D01*
X181350724Y-93506198D01*
X181350722Y-93506197D01*
X181188319Y-93433891D01*
X181188318Y-93433891D01*
X181182288Y-93431206D01*
X181088887Y-93411353D01*
X181001944Y-93392872D01*
X181001939Y-93392872D01*
X180995487Y-93391500D01*
X180804513Y-93391500D01*
X180798061Y-93392872D01*
X180798056Y-93392872D01*
X180711112Y-93411353D01*
X180617712Y-93431206D01*
X180611682Y-93433891D01*
X180611681Y-93433891D01*
X180449278Y-93506197D01*
X180449276Y-93506198D01*
X180443248Y-93508882D01*
X180288747Y-93621134D01*
X180160960Y-93763056D01*
X180157659Y-93768774D01*
X180074804Y-93912283D01*
X180065473Y-93928444D01*
X180006458Y-94110072D01*
X180005768Y-94116633D01*
X180005768Y-94116635D01*
X179996355Y-94206197D01*
X179986496Y-94300000D01*
X179987186Y-94306565D01*
X180004235Y-94468774D01*
X180006458Y-94489928D01*
X180065473Y-94671556D01*
X180160960Y-94836944D01*
X180234137Y-94918215D01*
X180264853Y-94982221D01*
X180266500Y-95002524D01*
X180266500Y-106885405D01*
X180246498Y-106953526D01*
X180229595Y-106974500D01*
X180176877Y-107027218D01*
X180114565Y-107061244D01*
X180043750Y-107056179D01*
X179986914Y-107013632D01*
X179962206Y-106948447D01*
X179945276Y-106742522D01*
X179944852Y-106737361D01*
X179890431Y-106520702D01*
X179801354Y-106315840D01*
X179680014Y-106128277D01*
X179529670Y-105963051D01*
X179525616Y-105959849D01*
X179525615Y-105959848D01*
X179358414Y-105827800D01*
X179358410Y-105827798D01*
X179354359Y-105824598D01*
X179312569Y-105801529D01*
X179262598Y-105751097D01*
X179247826Y-105681654D01*
X179272942Y-105615248D01*
X179300293Y-105588642D01*
X179349247Y-105553723D01*
X179357648Y-105543023D01*
X179350660Y-105529870D01*
X178612812Y-104792022D01*
X178598868Y-104784408D01*
X178597035Y-104784539D01*
X178590420Y-104788790D01*
X177846737Y-105532473D01*
X177839977Y-105544853D01*
X177845258Y-105551907D01*
X177891969Y-105579203D01*
X177940693Y-105630841D01*
X177953764Y-105700624D01*
X177927033Y-105766396D01*
X177886584Y-105799752D01*
X177873607Y-105806507D01*
X177869474Y-105809610D01*
X177869471Y-105809612D01*
X177699100Y-105937530D01*
X177694965Y-105940635D01*
X177540629Y-106102138D01*
X177433201Y-106259621D01*
X177378293Y-106304621D01*
X177307768Y-106312792D01*
X177244021Y-106281538D01*
X177223324Y-106257054D01*
X177142822Y-106132617D01*
X177142820Y-106132614D01*
X177140014Y-106128277D01*
X176989670Y-105963051D01*
X176947006Y-105929357D01*
X176905944Y-105871441D01*
X176902712Y-105800518D01*
X176938337Y-105739107D01*
X176971647Y-105716376D01*
X176977007Y-105713865D01*
X176983946Y-105711550D01*
X177134348Y-105618478D01*
X177259305Y-105493303D01*
X177352115Y-105342738D01*
X177376913Y-105267975D01*
X177417342Y-105209616D01*
X177446630Y-105191934D01*
X177485694Y-105175096D01*
X178227978Y-104432812D01*
X178234356Y-104421132D01*
X178964408Y-104421132D01*
X178964539Y-104422965D01*
X178968790Y-104429580D01*
X179710474Y-105171264D01*
X179722484Y-105177823D01*
X179734223Y-105168855D01*
X179765004Y-105126019D01*
X179770315Y-105117180D01*
X179864670Y-104926267D01*
X179868469Y-104916672D01*
X179930376Y-104712915D01*
X179932555Y-104702834D01*
X179960590Y-104489887D01*
X179961109Y-104483212D01*
X179962572Y-104423364D01*
X179962378Y-104416646D01*
X179944781Y-104202604D01*
X179943096Y-104192424D01*
X179891214Y-103985875D01*
X179887894Y-103976124D01*
X179802972Y-103780814D01*
X179798105Y-103771739D01*
X179733063Y-103671197D01*
X179722377Y-103661995D01*
X179712812Y-103666398D01*
X178972022Y-104407188D01*
X178964408Y-104421132D01*
X178234356Y-104421132D01*
X178235592Y-104418868D01*
X178235461Y-104417035D01*
X178231210Y-104410420D01*
X177489849Y-103669059D01*
X177449510Y-103647031D01*
X177436523Y-103644206D01*
X177386322Y-103594003D01*
X177377388Y-103573497D01*
X177353870Y-103503007D01*
X177353869Y-103503005D01*
X177351550Y-103496054D01*
X177258478Y-103345652D01*
X177209167Y-103296427D01*
X177841223Y-103296427D01*
X177847968Y-103308758D01*
X178587188Y-104047978D01*
X178601132Y-104055592D01*
X178602965Y-104055461D01*
X178609580Y-104051210D01*
X179353389Y-103307401D01*
X179360410Y-103294544D01*
X179353611Y-103285213D01*
X179349554Y-103282518D01*
X179163117Y-103179599D01*
X179153705Y-103175369D01*
X178952959Y-103104280D01*
X178942989Y-103101646D01*
X178733327Y-103064301D01*
X178723073Y-103063331D01*
X178510116Y-103060728D01*
X178499832Y-103061448D01*
X178289321Y-103093661D01*
X178279293Y-103096050D01*
X178076868Y-103162212D01*
X178067359Y-103166209D01*
X177878466Y-103264540D01*
X177869734Y-103270039D01*
X177849677Y-103285099D01*
X177841223Y-103296427D01*
X177209167Y-103296427D01*
X177133303Y-103220695D01*
X177127072Y-103216854D01*
X176988968Y-103131725D01*
X176988966Y-103131724D01*
X176982738Y-103127885D01*
X176925051Y-103108751D01*
X176904833Y-103102045D01*
X176846473Y-103061614D01*
X176819236Y-102996050D01*
X176818500Y-102982452D01*
X176818500Y-82027070D01*
X176819933Y-82008120D01*
X176822099Y-81993885D01*
X176822099Y-81993881D01*
X176823199Y-81986651D01*
X176818915Y-81933982D01*
X176818500Y-81923767D01*
X176818500Y-81915707D01*
X176815209Y-81887480D01*
X176814778Y-81883121D01*
X176814432Y-81878866D01*
X176808860Y-81810364D01*
X176806605Y-81803403D01*
X176805418Y-81797463D01*
X176804029Y-81791588D01*
X176803182Y-81784319D01*
X176778264Y-81715670D01*
X176776847Y-81711542D01*
X176756607Y-81649064D01*
X176756606Y-81649062D01*
X176754351Y-81642101D01*
X176750555Y-81635846D01*
X176748049Y-81630372D01*
X176745330Y-81624942D01*
X176742833Y-81618063D01*
X176716094Y-81577279D01*
X176702814Y-81557024D01*
X176700467Y-81553305D01*
X176662595Y-81490893D01*
X176655197Y-81482516D01*
X176655224Y-81482492D01*
X176652571Y-81479500D01*
X176649868Y-81476267D01*
X176645856Y-81470148D01*
X176589617Y-81416872D01*
X176587175Y-81414494D01*
X175095405Y-79922724D01*
X175061379Y-79860412D01*
X175058500Y-79833629D01*
X175058500Y-77793044D01*
X175078502Y-77724923D01*
X175132158Y-77678430D01*
X175202432Y-77668326D01*
X175256147Y-77692170D01*
X175257412Y-77690363D01*
X175261645Y-77693327D01*
X175265626Y-77696632D01*
X175458500Y-77809338D01*
X175667192Y-77889030D01*
X175672260Y-77890061D01*
X175672263Y-77890062D01*
X175779517Y-77911883D01*
X175886097Y-77933567D01*
X175891272Y-77933757D01*
X175891274Y-77933757D01*
X176104173Y-77941564D01*
X176104177Y-77941564D01*
X176109337Y-77941753D01*
X176114457Y-77941097D01*
X176114459Y-77941097D01*
X176325788Y-77914025D01*
X176325789Y-77914025D01*
X176330916Y-77913368D01*
X176335866Y-77911883D01*
X176539929Y-77850661D01*
X176539934Y-77850659D01*
X176544884Y-77849174D01*
X176745494Y-77750896D01*
X176927360Y-77621173D01*
X176952415Y-77596206D01*
X177081935Y-77467137D01*
X177085596Y-77463489D01*
X177215953Y-77282077D01*
X177217276Y-77283028D01*
X177264145Y-77239857D01*
X177334080Y-77227625D01*
X177399526Y-77255144D01*
X177427375Y-77286994D01*
X177487487Y-77385088D01*
X177633750Y-77553938D01*
X177805626Y-77696632D01*
X177998500Y-77809338D01*
X178207192Y-77889030D01*
X178212260Y-77890061D01*
X178212263Y-77890062D01*
X178319517Y-77911883D01*
X178426097Y-77933567D01*
X178431272Y-77933757D01*
X178431274Y-77933757D01*
X178644173Y-77941564D01*
X178644177Y-77941564D01*
X178649337Y-77941753D01*
X178654457Y-77941097D01*
X178654459Y-77941097D01*
X178865788Y-77914025D01*
X178865789Y-77914025D01*
X178870916Y-77913368D01*
X178875866Y-77911883D01*
X179079929Y-77850661D01*
X179079934Y-77850659D01*
X179084884Y-77849174D01*
X179285494Y-77750896D01*
X179467360Y-77621173D01*
X179492415Y-77596206D01*
X179621935Y-77467137D01*
X179625596Y-77463489D01*
X179755953Y-77282077D01*
X179776820Y-77239857D01*
X179852636Y-77086453D01*
X179852637Y-77086451D01*
X179854930Y-77081811D01*
X179919870Y-76868069D01*
X179949029Y-76646590D01*
X179949405Y-76631206D01*
X179950574Y-76583365D01*
X179950574Y-76583361D01*
X179950656Y-76580000D01*
X179932352Y-76357361D01*
X179877931Y-76140702D01*
X179788854Y-75935840D01*
X179704984Y-75806197D01*
X179670322Y-75752617D01*
X179670320Y-75752614D01*
X179667514Y-75748277D01*
X179517170Y-75583051D01*
X179513119Y-75579852D01*
X179513115Y-75579848D01*
X179345914Y-75447800D01*
X179345910Y-75447798D01*
X179341859Y-75444598D01*
X179300553Y-75421796D01*
X179250584Y-75371364D01*
X179235812Y-75301921D01*
X179260928Y-75235516D01*
X179288280Y-75208909D01*
X179344547Y-75168774D01*
X179467360Y-75081173D01*
X179479783Y-75068794D01*
X179621935Y-74927137D01*
X179625596Y-74923489D01*
X179633304Y-74912763D01*
X179752935Y-74746277D01*
X179755953Y-74742077D01*
X179763877Y-74726045D01*
X179852636Y-74546453D01*
X179852637Y-74546451D01*
X179854930Y-74541811D01*
X179919870Y-74328069D01*
X179949029Y-74106590D01*
X179950656Y-74040000D01*
X179932352Y-73817361D01*
X179877931Y-73600702D01*
X179788854Y-73395840D01*
X179722241Y-73292872D01*
X179670322Y-73212617D01*
X179670320Y-73212614D01*
X179667514Y-73208277D01*
X179517170Y-73043051D01*
X179513119Y-73039852D01*
X179513115Y-73039848D01*
X179345914Y-72907800D01*
X179345910Y-72907798D01*
X179341859Y-72904598D01*
X179300553Y-72881796D01*
X179250584Y-72831364D01*
X179235812Y-72761921D01*
X179260928Y-72695516D01*
X179288280Y-72668909D01*
X179332103Y-72637650D01*
X179467360Y-72541173D01*
X179625596Y-72383489D01*
X179755953Y-72202077D01*
X179776820Y-72159857D01*
X179852636Y-72006453D01*
X179852637Y-72006451D01*
X179854930Y-72001811D01*
X179919870Y-71788069D01*
X179949029Y-71566590D01*
X179950656Y-71500000D01*
X179932352Y-71277361D01*
X179877931Y-71060702D01*
X179788854Y-70855840D01*
X179688037Y-70700000D01*
X179670322Y-70672617D01*
X179670320Y-70672614D01*
X179667514Y-70668277D01*
X179517170Y-70503051D01*
X179513119Y-70499852D01*
X179513115Y-70499848D01*
X179345914Y-70367800D01*
X179345910Y-70367798D01*
X179341859Y-70364598D01*
X179300553Y-70341796D01*
X179250584Y-70291364D01*
X179235812Y-70221921D01*
X179260928Y-70155516D01*
X179288280Y-70128909D01*
X179340399Y-70091733D01*
X179467360Y-70001173D01*
X179471513Y-69997035D01*
X179621935Y-69847137D01*
X179625596Y-69843489D01*
X179689787Y-69754158D01*
X179752935Y-69666277D01*
X179755953Y-69662077D01*
X179768375Y-69636944D01*
X179852636Y-69466453D01*
X179852637Y-69466451D01*
X179854930Y-69461811D01*
X179919870Y-69248069D01*
X179949029Y-69026590D01*
X179950656Y-68960000D01*
X179932352Y-68737361D01*
X179877931Y-68520702D01*
X179788854Y-68315840D01*
X179731937Y-68227860D01*
X179670322Y-68132617D01*
X179670320Y-68132614D01*
X179667514Y-68128277D01*
X179517170Y-67963051D01*
X179513116Y-67959849D01*
X179513115Y-67959848D01*
X179345914Y-67827800D01*
X179345910Y-67827798D01*
X179341859Y-67824598D01*
X179300069Y-67801529D01*
X179250098Y-67751097D01*
X179235326Y-67681654D01*
X179260442Y-67615248D01*
X179287793Y-67588642D01*
X179336747Y-67553723D01*
X179345148Y-67543023D01*
X179338160Y-67529870D01*
X178600312Y-66792022D01*
X178586368Y-66784408D01*
X178584535Y-66784539D01*
X178577920Y-66788790D01*
X177834237Y-67532473D01*
X177827477Y-67544853D01*
X177832758Y-67551907D01*
X177879469Y-67579203D01*
X177928193Y-67630841D01*
X177941264Y-67700624D01*
X177914533Y-67766396D01*
X177874084Y-67799752D01*
X177861107Y-67806507D01*
X177856974Y-67809610D01*
X177856971Y-67809612D01*
X177686600Y-67937530D01*
X177682465Y-67940635D01*
X177678893Y-67944373D01*
X177544483Y-68085025D01*
X177528129Y-68102138D01*
X177420701Y-68259621D01*
X177365793Y-68304621D01*
X177295268Y-68312792D01*
X177231521Y-68281538D01*
X177210824Y-68257054D01*
X177130322Y-68132617D01*
X177130320Y-68132614D01*
X177127514Y-68128277D01*
X176977170Y-67963051D01*
X176934506Y-67929357D01*
X176893444Y-67871441D01*
X176890212Y-67800518D01*
X176925837Y-67739107D01*
X176959147Y-67716376D01*
X176964507Y-67713865D01*
X176971446Y-67711550D01*
X177121848Y-67618478D01*
X177246805Y-67493303D01*
X177314952Y-67382749D01*
X177335775Y-67348968D01*
X177335776Y-67348966D01*
X177339615Y-67342738D01*
X177364413Y-67267975D01*
X177404842Y-67209616D01*
X177434130Y-67191934D01*
X177473194Y-67175096D01*
X178215478Y-66432812D01*
X178221856Y-66421132D01*
X178951908Y-66421132D01*
X178952039Y-66422965D01*
X178956290Y-66429580D01*
X179697974Y-67171264D01*
X179709984Y-67177823D01*
X179721723Y-67168855D01*
X179752504Y-67126019D01*
X179757815Y-67117180D01*
X179852170Y-66926267D01*
X179855969Y-66916672D01*
X179917876Y-66712915D01*
X179920055Y-66702834D01*
X179948090Y-66489887D01*
X179948609Y-66483212D01*
X179950072Y-66423364D01*
X179949878Y-66416646D01*
X179932281Y-66202604D01*
X179930596Y-66192424D01*
X179878714Y-65985875D01*
X179875394Y-65976124D01*
X179790472Y-65780814D01*
X179785605Y-65771739D01*
X179720563Y-65671197D01*
X179709877Y-65661995D01*
X179700312Y-65666398D01*
X178959522Y-66407188D01*
X178951908Y-66421132D01*
X178221856Y-66421132D01*
X178223092Y-66418868D01*
X178222961Y-66417035D01*
X178218710Y-66410420D01*
X177477349Y-65669059D01*
X177437010Y-65647031D01*
X177424023Y-65644206D01*
X177373822Y-65594003D01*
X177364888Y-65573497D01*
X177341370Y-65503007D01*
X177341369Y-65503005D01*
X177339050Y-65496054D01*
X177245978Y-65345652D01*
X177196667Y-65296427D01*
X177828723Y-65296427D01*
X177835468Y-65308758D01*
X178574688Y-66047978D01*
X178588632Y-66055592D01*
X178590465Y-66055461D01*
X178597080Y-66051210D01*
X179340889Y-65307401D01*
X179347910Y-65294544D01*
X179341111Y-65285213D01*
X179337054Y-65282518D01*
X179150617Y-65179599D01*
X179141205Y-65175369D01*
X178940459Y-65104280D01*
X178930489Y-65101646D01*
X178720827Y-65064301D01*
X178710573Y-65063331D01*
X178497616Y-65060728D01*
X178487332Y-65061448D01*
X178276821Y-65093661D01*
X178266793Y-65096050D01*
X178064368Y-65162212D01*
X178054859Y-65166209D01*
X177865966Y-65264540D01*
X177857234Y-65270039D01*
X177837177Y-65285099D01*
X177828723Y-65296427D01*
X177196667Y-65296427D01*
X177120803Y-65220695D01*
X177114572Y-65216854D01*
X176976468Y-65131725D01*
X176976466Y-65131724D01*
X176970238Y-65127885D01*
X176809754Y-65074655D01*
X176808889Y-65074368D01*
X176808887Y-65074368D01*
X176802361Y-65072203D01*
X176795525Y-65071503D01*
X176795522Y-65071502D01*
X176752469Y-65067091D01*
X176697900Y-65061500D01*
X175397100Y-65061500D01*
X175393854Y-65061837D01*
X175393850Y-65061837D01*
X175298192Y-65071762D01*
X175298188Y-65071763D01*
X175291334Y-65072474D01*
X175284798Y-65074655D01*
X175284796Y-65074655D01*
X175227829Y-65093661D01*
X175123554Y-65128450D01*
X174973152Y-65221522D01*
X174848195Y-65346697D01*
X174755385Y-65497262D01*
X174730100Y-65573497D01*
X174725250Y-65588118D01*
X174684820Y-65646478D01*
X174632582Y-65670960D01*
X174630364Y-65671140D01*
X174623398Y-65673397D01*
X174617449Y-65674585D01*
X174611585Y-65675971D01*
X174604319Y-65676818D01*
X174597443Y-65679314D01*
X174597434Y-65679316D01*
X174535702Y-65701725D01*
X174531598Y-65703135D01*
X174462101Y-65725648D01*
X174455846Y-65729444D01*
X174450387Y-65731943D01*
X174444939Y-65734671D01*
X174438063Y-65737167D01*
X174377010Y-65777195D01*
X174373337Y-65779513D01*
X174310893Y-65817405D01*
X174302517Y-65824802D01*
X174302493Y-65824775D01*
X174299499Y-65827430D01*
X174296268Y-65830132D01*
X174290148Y-65834144D01*
X174285116Y-65839456D01*
X174236872Y-65890383D01*
X174234494Y-65892825D01*
X173811089Y-66316230D01*
X173796677Y-66328616D01*
X173785082Y-66337149D01*
X173785077Y-66337154D01*
X173779182Y-66341492D01*
X173774443Y-66347070D01*
X173774440Y-66347073D01*
X173744965Y-66381768D01*
X173738035Y-66389284D01*
X173732340Y-66394979D01*
X173730060Y-66397861D01*
X173714719Y-66417251D01*
X173711928Y-66420655D01*
X173711523Y-66421132D01*
X173664667Y-66476285D01*
X173661339Y-66482801D01*
X173657972Y-66487850D01*
X173654805Y-66492979D01*
X173650266Y-66498716D01*
X173619345Y-66564875D01*
X173617442Y-66568769D01*
X173584231Y-66633808D01*
X173582492Y-66640916D01*
X173580393Y-66646559D01*
X173578476Y-66652322D01*
X173575378Y-66658950D01*
X173573888Y-66666112D01*
X173573888Y-66666113D01*
X173560514Y-66730412D01*
X173559544Y-66734696D01*
X173542192Y-66805610D01*
X173541500Y-66816764D01*
X173541464Y-66816762D01*
X173541225Y-66820755D01*
X173540851Y-66824947D01*
X173539360Y-66832115D01*
X173539558Y-66839432D01*
X173541454Y-66909521D01*
X173541500Y-66912928D01*
X173541500Y-80132930D01*
X173540067Y-80151880D01*
X173536801Y-80173349D01*
X172333500Y-80173349D01*
X172333500Y-79902524D01*
X172353502Y-79834403D01*
X172365858Y-79818221D01*
X172439040Y-79736944D01*
X172534527Y-79571556D01*
X172593542Y-79389928D01*
X172613504Y-79200000D01*
X172593542Y-79010072D01*
X172534527Y-78828444D01*
X172439040Y-78663056D01*
X172315586Y-78525947D01*
X172284871Y-78461942D01*
X172289391Y-78402702D01*
X172291503Y-78396202D01*
X172293542Y-78389928D01*
X172313504Y-78200000D01*
X172296882Y-78041852D01*
X172294232Y-78016635D01*
X172294232Y-78016633D01*
X172293542Y-78010072D01*
X172234527Y-77828444D01*
X172139040Y-77663056D01*
X172065863Y-77581785D01*
X172035147Y-77517779D01*
X172033500Y-77497476D01*
X172033500Y-69802524D01*
X172053502Y-69734403D01*
X172065858Y-69718221D01*
X172139040Y-69636944D01*
X172234527Y-69471556D01*
X172293542Y-69289928D01*
X172297981Y-69247699D01*
X172312814Y-69106565D01*
X172313504Y-69100000D01*
X172297061Y-68943556D01*
X172294232Y-68916635D01*
X172294232Y-68916633D01*
X172293542Y-68910072D01*
X172234527Y-68728444D01*
X172139040Y-68563056D01*
X172120034Y-68541947D01*
X172015675Y-68426045D01*
X172015674Y-68426044D01*
X172011253Y-68421134D01*
X171856752Y-68308882D01*
X171850724Y-68306198D01*
X171850722Y-68306197D01*
X171688319Y-68233891D01*
X171688318Y-68233891D01*
X171682288Y-68231206D01*
X171588887Y-68211353D01*
X171501944Y-68192872D01*
X171501939Y-68192872D01*
X171495487Y-68191500D01*
X171304513Y-68191500D01*
X171298061Y-68192872D01*
X171298056Y-68192872D01*
X171211113Y-68211353D01*
X171117712Y-68231206D01*
X171111682Y-68233891D01*
X171111681Y-68233891D01*
X170949278Y-68306197D01*
X170949276Y-68306198D01*
X170943248Y-68308882D01*
X170788747Y-68421134D01*
X170784326Y-68426044D01*
X170784325Y-68426045D01*
X170679967Y-68541947D01*
X170660960Y-68563056D01*
X170565473Y-68728444D01*
X170506458Y-68910072D01*
X170505768Y-68916633D01*
X170505768Y-68916635D01*
X170502939Y-68943556D01*
X170486496Y-69100000D01*
X170487186Y-69106565D01*
X170502020Y-69247699D01*
X170506458Y-69289928D01*
X170565473Y-69471556D01*
X170660960Y-69636944D01*
X170734137Y-69718215D01*
X170764853Y-69782221D01*
X170766500Y-69802524D01*
X170766500Y-74463722D01*
X170746498Y-74531843D01*
X170692842Y-74578336D01*
X170622568Y-74588440D01*
X170589253Y-74578829D01*
X170529328Y-74552149D01*
X170488319Y-74533891D01*
X170488318Y-74533891D01*
X170482288Y-74531206D01*
X170388887Y-74511353D01*
X170301944Y-74492872D01*
X170301939Y-74492872D01*
X170295487Y-74491500D01*
X170104513Y-74491500D01*
X170098061Y-74492872D01*
X170098056Y-74492872D01*
X170011113Y-74511353D01*
X169917712Y-74531206D01*
X169911682Y-74533891D01*
X169911681Y-74533891D01*
X169749278Y-74606197D01*
X169749276Y-74606198D01*
X169743248Y-74608882D01*
X169588747Y-74721134D01*
X169584326Y-74726044D01*
X169584325Y-74726045D01*
X169501972Y-74817508D01*
X169460960Y-74863056D01*
X169434502Y-74908882D01*
X169371942Y-75017240D01*
X169365473Y-75028444D01*
X169306458Y-75210072D01*
X169305768Y-75216633D01*
X169305768Y-75216635D01*
X169289506Y-75371364D01*
X169286496Y-75400000D01*
X169287186Y-75406565D01*
X169305399Y-75579848D01*
X169306458Y-75589928D01*
X169365473Y-75771556D01*
X169368776Y-75777278D01*
X169368777Y-75777279D01*
X169449619Y-75917301D01*
X169466500Y-75980301D01*
X169466500Y-85397476D01*
X169446498Y-85465597D01*
X169434142Y-85481779D01*
X169360960Y-85563056D01*
X169265473Y-85728444D01*
X169206458Y-85910072D01*
X169205768Y-85916633D01*
X169205768Y-85916635D01*
X169194376Y-86025026D01*
X169186496Y-86100000D01*
X168158500Y-86100000D01*
X168158500Y-78074759D01*
X168178502Y-78006638D01*
X168190864Y-77990449D01*
X168234621Y-77941852D01*
X168234622Y-77941851D01*
X168239040Y-77936944D01*
X168304987Y-77822721D01*
X168331223Y-77777279D01*
X168331224Y-77777278D01*
X168334527Y-77771556D01*
X168393542Y-77589928D01*
X168413504Y-77400000D01*
X168404052Y-77310072D01*
X168394232Y-77216635D01*
X168394232Y-77216633D01*
X168393542Y-77210072D01*
X168334527Y-77028444D01*
X168239040Y-76863056D01*
X168111253Y-76721134D01*
X167985590Y-76629834D01*
X167962094Y-76612763D01*
X167962093Y-76612762D01*
X167956752Y-76608882D01*
X167950724Y-76606198D01*
X167950722Y-76606197D01*
X167788319Y-76533891D01*
X167788318Y-76533891D01*
X167782288Y-76531206D01*
X167688887Y-76511353D01*
X167601944Y-76492872D01*
X167601939Y-76492872D01*
X167595487Y-76491500D01*
X167404513Y-76491500D01*
X167398061Y-76492872D01*
X167398056Y-76492872D01*
X167311113Y-76511353D01*
X167217712Y-76531206D01*
X167211682Y-76533891D01*
X167211681Y-76533891D01*
X167210747Y-76534307D01*
X167210158Y-76534386D01*
X167205400Y-76535932D01*
X167205117Y-76535062D01*
X167140380Y-76543740D01*
X167076083Y-76513632D01*
X167038271Y-76453543D01*
X167033500Y-76419199D01*
X167033500Y-68799557D01*
X167053502Y-68731436D01*
X167085439Y-68697621D01*
X167105909Y-68682749D01*
X167105911Y-68682747D01*
X167111253Y-68678866D01*
X167233500Y-68543097D01*
X167234621Y-68541852D01*
X167234622Y-68541851D01*
X167239040Y-68536944D01*
X167334527Y-68371556D01*
X167393542Y-68189928D01*
X167413504Y-68000000D01*
X167393542Y-67810072D01*
X167334527Y-67628444D01*
X167239040Y-67463056D01*
X167111253Y-67321134D01*
X166956752Y-67208882D01*
X166950724Y-67206198D01*
X166950722Y-67206197D01*
X166788319Y-67133891D01*
X166788318Y-67133891D01*
X166782288Y-67131206D01*
X166688888Y-67111353D01*
X166601944Y-67092872D01*
X166601939Y-67092872D01*
X166595487Y-67091500D01*
X166404513Y-67091500D01*
X166398061Y-67092872D01*
X166398056Y-67092872D01*
X166311112Y-67111353D01*
X166217712Y-67131206D01*
X166211682Y-67133891D01*
X166211681Y-67133891D01*
X166049278Y-67206197D01*
X166049276Y-67206198D01*
X166043248Y-67208882D01*
X165888747Y-67321134D01*
X165760960Y-67463056D01*
X165665473Y-67628444D01*
X165606458Y-67810072D01*
X165586496Y-68000000D01*
X165606458Y-68189928D01*
X165665473Y-68371556D01*
X165668776Y-68377278D01*
X165668777Y-68377279D01*
X165749619Y-68517301D01*
X165766500Y-68580301D01*
X165766500Y-83697476D01*
X165746498Y-83765597D01*
X165734142Y-83781779D01*
X165660960Y-83863056D01*
X165565473Y-84028444D01*
X165506458Y-84210072D01*
X165486496Y-84400000D01*
X165506458Y-84589928D01*
X165565473Y-84771556D01*
X165660960Y-84936944D01*
X165734137Y-85018215D01*
X165764853Y-85082221D01*
X165766500Y-85102524D01*
X165766500Y-94713984D01*
X165746498Y-94782105D01*
X165692842Y-94828598D01*
X165622568Y-94838702D01*
X165566439Y-94815920D01*
X165562094Y-94812763D01*
X165562093Y-94812762D01*
X165556752Y-94808882D01*
X165550724Y-94806198D01*
X165550722Y-94806197D01*
X165388319Y-94733891D01*
X165388318Y-94733891D01*
X165382288Y-94731206D01*
X165288887Y-94711353D01*
X165201944Y-94692872D01*
X165201939Y-94692872D01*
X165195487Y-94691500D01*
X165004513Y-94691500D01*
X164998061Y-94692872D01*
X164998056Y-94692872D01*
X164911112Y-94711353D01*
X164817712Y-94731206D01*
X164811685Y-94733889D01*
X164811677Y-94733892D01*
X164735748Y-94767698D01*
X164665381Y-94777132D01*
X164601084Y-94747025D01*
X164563271Y-94686936D01*
X164558500Y-94652591D01*
X164558500Y-77301969D01*
X164578502Y-77233848D01*
X164590864Y-77217659D01*
X164659121Y-77141852D01*
X164659122Y-77141851D01*
X164663540Y-77136944D01*
X164759027Y-76971556D01*
X164818042Y-76789928D01*
X164825273Y-76721134D01*
X164837314Y-76606565D01*
X164838004Y-76600000D01*
X164831108Y-76534386D01*
X164818732Y-76416635D01*
X164818732Y-76416633D01*
X164818042Y-76410072D01*
X164759027Y-76228444D01*
X164663540Y-76063056D01*
X164535753Y-75921134D01*
X164381252Y-75808882D01*
X164375224Y-75806198D01*
X164375222Y-75806197D01*
X164212819Y-75733891D01*
X164212818Y-75733891D01*
X164206788Y-75731206D01*
X164200332Y-75729834D01*
X164194048Y-75727792D01*
X164194778Y-75725546D01*
X164141798Y-75696943D01*
X164107476Y-75634793D01*
X164105158Y-75620594D01*
X164094232Y-75516635D01*
X164094232Y-75516633D01*
X164093542Y-75510072D01*
X164034527Y-75328444D01*
X164023402Y-75309174D01*
X163942341Y-75168774D01*
X163939040Y-75163056D01*
X163811253Y-75021134D01*
X163656752Y-74908882D01*
X163650724Y-74906198D01*
X163650722Y-74906197D01*
X163488319Y-74833891D01*
X163488318Y-74833891D01*
X163482288Y-74831206D01*
X163388888Y-74811353D01*
X163301944Y-74792872D01*
X163301939Y-74792872D01*
X163295487Y-74791500D01*
X163104513Y-74791500D01*
X163098061Y-74792872D01*
X163098056Y-74792872D01*
X163011112Y-74811353D01*
X162917712Y-74831206D01*
X162911682Y-74833891D01*
X162911681Y-74833891D01*
X162749278Y-74906197D01*
X162749276Y-74906198D01*
X162743248Y-74908882D01*
X162588747Y-75021134D01*
X162460960Y-75163056D01*
X162457659Y-75168774D01*
X162376599Y-75309174D01*
X162365473Y-75328444D01*
X162306458Y-75510072D01*
X162286496Y-75700000D01*
X162306458Y-75889928D01*
X162365473Y-76071556D01*
X162460960Y-76236944D01*
X162534137Y-76318215D01*
X162564853Y-76382221D01*
X162566500Y-76402524D01*
X162566500Y-110797476D01*
X162546498Y-110865597D01*
X162534142Y-110881779D01*
X162460960Y-110963056D01*
X162365473Y-111128444D01*
X162306458Y-111310072D01*
X162305768Y-111316633D01*
X162305768Y-111316635D01*
X162296944Y-111400590D01*
X162286496Y-111500000D01*
X158258000Y-111500000D01*
X158258000Y-92102524D01*
X158278002Y-92034403D01*
X158290358Y-92018221D01*
X158363540Y-91936944D01*
X158459027Y-91771556D01*
X158518042Y-91589928D01*
X158520162Y-91569763D01*
X158537314Y-91406565D01*
X158538004Y-91400000D01*
X158537111Y-91391500D01*
X158518732Y-91216635D01*
X158518732Y-91216633D01*
X158518042Y-91210072D01*
X158459027Y-91028444D01*
X158363540Y-90863056D01*
X158235753Y-90721134D01*
X158104875Y-90626045D01*
X158086594Y-90612763D01*
X158086593Y-90612762D01*
X158081252Y-90608882D01*
X158075224Y-90606198D01*
X158075222Y-90606197D01*
X157912819Y-90533891D01*
X157912818Y-90533891D01*
X157906788Y-90531206D01*
X157813388Y-90511353D01*
X157726444Y-90492872D01*
X157726439Y-90492872D01*
X157719987Y-90491500D01*
X157659500Y-90491500D01*
X157591379Y-90471498D01*
X157544886Y-90417842D01*
X157533500Y-90365500D01*
X157533500Y-90227748D01*
X157553502Y-90159627D01*
X157607158Y-90113134D01*
X157677432Y-90103030D01*
X157685694Y-90104501D01*
X157698049Y-90107127D01*
X157698058Y-90107128D01*
X157704513Y-90108500D01*
X157895487Y-90108500D01*
X157901939Y-90107128D01*
X157901944Y-90107128D01*
X157993291Y-90087711D01*
X158082288Y-90068794D01*
X158102543Y-90059776D01*
X158250722Y-89993803D01*
X158250724Y-89993802D01*
X158256752Y-89991118D01*
X158277507Y-89976039D01*
X158312157Y-89950864D01*
X158411253Y-89878866D01*
X158539040Y-89736944D01*
X158634527Y-89571556D01*
X158693542Y-89389928D01*
X158713504Y-89200000D01*
X158712814Y-89193435D01*
X158694232Y-89016635D01*
X158694232Y-89016633D01*
X158693542Y-89010072D01*
X158634527Y-88828444D01*
X158575381Y-88726000D01*
X158558500Y-88663001D01*
X158558500Y-69472254D01*
X158575381Y-69409254D01*
X158665351Y-69253422D01*
X158665352Y-69253421D01*
X158668655Y-69247699D01*
X158727670Y-69066071D01*
X158747632Y-68876143D01*
X158732423Y-68731436D01*
X158728360Y-68692778D01*
X158728360Y-68692776D01*
X158727670Y-68686215D01*
X158668655Y-68504587D01*
X158573168Y-68339199D01*
X158556413Y-68320590D01*
X158449803Y-68202188D01*
X158449802Y-68202187D01*
X158445381Y-68197277D01*
X158314434Y-68102138D01*
X158296222Y-68088906D01*
X158296221Y-68088905D01*
X158290880Y-68085025D01*
X158284852Y-68082341D01*
X158284850Y-68082340D01*
X158122447Y-68010034D01*
X158122446Y-68010034D01*
X158116416Y-68007349D01*
X158023015Y-67987496D01*
X157936072Y-67969015D01*
X157936067Y-67969015D01*
X157929615Y-67967643D01*
X157738641Y-67967643D01*
X157732189Y-67969015D01*
X157732184Y-67969015D01*
X157645241Y-67987496D01*
X157551840Y-68007349D01*
X157545810Y-68010034D01*
X157545809Y-68010034D01*
X157383406Y-68082340D01*
X157383404Y-68082341D01*
X157377376Y-68085025D01*
X157372035Y-68088905D01*
X157372034Y-68088906D01*
X157353822Y-68102138D01*
X157222875Y-68197277D01*
X157218454Y-68202187D01*
X157218453Y-68202188D01*
X157111844Y-68320590D01*
X157095088Y-68339199D01*
X156999601Y-68504587D01*
X156940586Y-68686215D01*
X156939896Y-68692776D01*
X156939896Y-68692778D01*
X156935833Y-68731436D01*
X156920624Y-68876143D01*
X156940586Y-69066071D01*
X156999601Y-69247699D01*
X157002904Y-69253421D01*
X157002905Y-69253422D01*
X157024619Y-69291031D01*
X157041500Y-69354031D01*
X157041500Y-81165500D01*
X157021498Y-81233621D01*
X156967842Y-81280114D01*
X156915500Y-81291500D01*
X156804513Y-81291500D01*
X156798061Y-81292872D01*
X156798056Y-81292872D01*
X156711113Y-81311353D01*
X156617712Y-81331206D01*
X156611682Y-81333891D01*
X156611681Y-81333891D01*
X156449278Y-81406197D01*
X156449276Y-81406198D01*
X156443248Y-81408882D01*
X156288747Y-81521134D01*
X156284326Y-81526044D01*
X156284325Y-81526045D01*
X156202758Y-81616635D01*
X156160960Y-81663056D01*
X156078105Y-81806565D01*
X156068619Y-81822995D01*
X156017236Y-81871988D01*
X155947523Y-81885424D01*
X155881612Y-81859038D01*
X155840430Y-81801205D01*
X155833500Y-81759995D01*
X155833500Y-70402524D01*
X155853502Y-70334403D01*
X155865858Y-70318221D01*
X155939040Y-70236944D01*
X156022878Y-70091733D01*
X156031223Y-70077279D01*
X156031224Y-70077278D01*
X156034527Y-70071556D01*
X156093542Y-69889928D01*
X156098040Y-69847137D01*
X156112814Y-69706565D01*
X156113504Y-69700000D01*
X156106721Y-69635461D01*
X156094232Y-69516635D01*
X156094232Y-69516633D01*
X156093542Y-69510072D01*
X156034527Y-69328444D01*
X155939040Y-69163056D01*
X155851715Y-69066071D01*
X155815675Y-69026045D01*
X155815674Y-69026044D01*
X155811253Y-69021134D01*
X155712157Y-68949136D01*
X155662094Y-68912763D01*
X155662093Y-68912762D01*
X155656752Y-68908882D01*
X155650724Y-68906198D01*
X155650722Y-68906197D01*
X155488319Y-68833891D01*
X155488318Y-68833891D01*
X155482288Y-68831206D01*
X155388888Y-68811353D01*
X155301944Y-68792872D01*
X155301939Y-68792872D01*
X155295487Y-68791500D01*
X155104513Y-68791500D01*
X155098061Y-68792872D01*
X155098056Y-68792872D01*
X155011112Y-68811353D01*
X154917712Y-68831206D01*
X154911682Y-68833891D01*
X154911681Y-68833891D01*
X154749278Y-68906197D01*
X154749276Y-68906198D01*
X154743248Y-68908882D01*
X154737907Y-68912762D01*
X154737906Y-68912763D01*
X154687843Y-68949136D01*
X154588747Y-69021134D01*
X154584326Y-69026044D01*
X154584325Y-69026045D01*
X154548286Y-69066071D01*
X154460960Y-69163056D01*
X154365473Y-69328444D01*
X154306458Y-69510072D01*
X154305768Y-69516633D01*
X154305768Y-69516635D01*
X154293279Y-69635461D01*
X154286496Y-69700000D01*
X154287186Y-69706565D01*
X154287186Y-69706567D01*
X154293085Y-69762697D01*
X154280312Y-69832535D01*
X154231810Y-69884381D01*
X154162977Y-69901775D01*
X154116529Y-69890974D01*
X153982288Y-69831206D01*
X153888887Y-69811353D01*
X153801944Y-69792872D01*
X153801939Y-69792872D01*
X153795487Y-69791500D01*
X153604513Y-69791500D01*
X153598061Y-69792872D01*
X153598056Y-69792872D01*
X153511113Y-69811353D01*
X153417712Y-69831206D01*
X153411682Y-69833891D01*
X153411681Y-69833891D01*
X153249278Y-69906197D01*
X153249276Y-69906198D01*
X153243248Y-69908882D01*
X153237907Y-69912762D01*
X153237906Y-69912763D01*
X153204217Y-69937240D01*
X153088747Y-70021134D01*
X153084326Y-70026044D01*
X153084325Y-70026045D01*
X153000200Y-70119476D01*
X152960960Y-70163056D01*
X152865473Y-70328444D01*
X152806458Y-70510072D01*
X152786496Y-70700000D01*
X141813504Y-70700000D01*
X141793542Y-70510072D01*
X141734527Y-70328444D01*
X141639040Y-70163056D01*
X141599801Y-70119476D01*
X141515675Y-70026045D01*
X141515674Y-70026044D01*
X141511253Y-70021134D01*
X141395783Y-69937240D01*
X141362094Y-69912763D01*
X141362093Y-69912762D01*
X141356752Y-69908882D01*
X141350724Y-69906198D01*
X141350722Y-69906197D01*
X141188319Y-69833891D01*
X141188318Y-69833891D01*
X141182288Y-69831206D01*
X141088887Y-69811353D01*
X141001944Y-69792872D01*
X141001939Y-69792872D01*
X140995487Y-69791500D01*
X140804513Y-69791500D01*
X140798061Y-69792872D01*
X140798056Y-69792872D01*
X140711113Y-69811353D01*
X140617712Y-69831206D01*
X140611682Y-69833891D01*
X140611681Y-69833891D01*
X140449278Y-69906197D01*
X140449276Y-69906198D01*
X140443248Y-69908882D01*
X140437907Y-69912762D01*
X140437906Y-69912763D01*
X140404217Y-69937240D01*
X140288747Y-70021134D01*
X140284326Y-70026044D01*
X140284325Y-70026045D01*
X140200200Y-70119476D01*
X140160960Y-70163056D01*
X140065473Y-70328444D01*
X140006458Y-70510072D01*
X139986496Y-70700000D01*
X128958500Y-70700000D01*
X128958500Y-67236999D01*
X128975381Y-67173999D01*
X129031223Y-67077279D01*
X129031224Y-67077278D01*
X129034527Y-67071556D01*
X129093542Y-66889928D01*
X129102978Y-66800155D01*
X129112814Y-66706565D01*
X129113504Y-66700000D01*
X151486496Y-66700000D01*
X151487186Y-66706565D01*
X151497023Y-66800155D01*
X151506458Y-66889928D01*
X151565473Y-67071556D01*
X151660960Y-67236944D01*
X151788747Y-67378866D01*
X151943248Y-67491118D01*
X151949276Y-67493802D01*
X151949278Y-67493803D01*
X152111681Y-67566109D01*
X152117712Y-67568794D01*
X152211089Y-67588642D01*
X152298056Y-67607128D01*
X152298061Y-67607128D01*
X152304513Y-67608500D01*
X152495487Y-67608500D01*
X152501939Y-67607128D01*
X152501944Y-67607128D01*
X152588911Y-67588642D01*
X152682288Y-67568794D01*
X152688319Y-67566109D01*
X152850722Y-67493803D01*
X152850724Y-67493802D01*
X152856752Y-67491118D01*
X153011253Y-67378866D01*
X153139040Y-67236944D01*
X153234527Y-67071556D01*
X153293542Y-66889928D01*
X153302978Y-66800155D01*
X153312814Y-66706565D01*
X153313504Y-66700000D01*
X153299508Y-66566834D01*
X153294232Y-66516635D01*
X153294232Y-66516633D01*
X153293542Y-66510072D01*
X153234527Y-66328444D01*
X153175381Y-66226000D01*
X153158500Y-66163001D01*
X153158500Y-65336999D01*
X153175381Y-65273999D01*
X153177668Y-65270039D01*
X153208374Y-65216854D01*
X153231223Y-65177279D01*
X153231224Y-65177278D01*
X153234527Y-65171556D01*
X153293542Y-64989928D01*
X153313504Y-64800000D01*
X153293542Y-64610072D01*
X153234527Y-64428444D01*
X153175381Y-64326000D01*
X153158500Y-64263001D01*
X153158500Y-59136999D01*
X153175381Y-59073999D01*
X153231223Y-58977279D01*
X153231224Y-58977278D01*
X153234527Y-58971556D01*
X153293542Y-58789928D01*
X153313504Y-58600000D01*
X153293542Y-58410072D01*
X153234527Y-58228444D01*
X153139040Y-58063056D01*
X153076748Y-57993873D01*
X153015675Y-57926045D01*
X153015674Y-57926044D01*
X153011253Y-57921134D01*
X152896335Y-57837641D01*
X152862094Y-57812763D01*
X152862093Y-57812762D01*
X152856752Y-57808882D01*
X152850724Y-57806198D01*
X152850722Y-57806197D01*
X152688319Y-57733891D01*
X152688318Y-57733891D01*
X152682288Y-57731206D01*
X152588887Y-57711353D01*
X152501944Y-57692872D01*
X152501939Y-57692872D01*
X152495487Y-57691500D01*
X152304513Y-57691500D01*
X152298061Y-57692872D01*
X152298056Y-57692872D01*
X152211113Y-57711353D01*
X152117712Y-57731206D01*
X152111682Y-57733891D01*
X152111681Y-57733891D01*
X151949278Y-57806197D01*
X151949276Y-57806198D01*
X151943248Y-57808882D01*
X151937907Y-57812762D01*
X151937906Y-57812763D01*
X151903665Y-57837641D01*
X151788747Y-57921134D01*
X151784326Y-57926044D01*
X151784325Y-57926045D01*
X151723253Y-57993873D01*
X151660960Y-58063056D01*
X151565473Y-58228444D01*
X151506458Y-58410072D01*
X151486496Y-58600000D01*
X151506458Y-58789928D01*
X151565473Y-58971556D01*
X151568776Y-58977278D01*
X151568777Y-58977279D01*
X151624619Y-59073999D01*
X151641500Y-59136999D01*
X151641500Y-64263001D01*
X151624619Y-64326000D01*
X151565473Y-64428444D01*
X151506458Y-64610072D01*
X151486496Y-64800000D01*
X151506458Y-64989928D01*
X151565473Y-65171556D01*
X151568776Y-65177278D01*
X151568777Y-65177279D01*
X151591626Y-65216854D01*
X151622333Y-65270039D01*
X151624619Y-65273999D01*
X151641500Y-65336999D01*
X151641500Y-66163001D01*
X151624619Y-66226000D01*
X151565473Y-66328444D01*
X151506458Y-66510072D01*
X151505768Y-66516633D01*
X151505768Y-66516635D01*
X151500492Y-66566834D01*
X151486496Y-66700000D01*
X129113504Y-66700000D01*
X129099508Y-66566834D01*
X129094232Y-66516635D01*
X129094232Y-66516633D01*
X129093542Y-66510072D01*
X129034527Y-66328444D01*
X128939040Y-66163056D01*
X128835424Y-66047978D01*
X128815675Y-66026045D01*
X128815674Y-66026044D01*
X128811253Y-66021134D01*
X128656752Y-65908882D01*
X128650724Y-65906198D01*
X128650722Y-65906197D01*
X128488319Y-65833891D01*
X128488318Y-65833891D01*
X128482288Y-65831206D01*
X128388887Y-65811353D01*
X128301944Y-65792872D01*
X128301939Y-65792872D01*
X128295487Y-65791500D01*
X128104513Y-65791500D01*
X128098061Y-65792872D01*
X128098056Y-65792872D01*
X128011113Y-65811353D01*
X127917712Y-65831206D01*
X127911682Y-65833891D01*
X127911681Y-65833891D01*
X127749278Y-65906197D01*
X127749276Y-65906198D01*
X127743248Y-65908882D01*
X127588747Y-66021134D01*
X127584326Y-66026044D01*
X127584325Y-66026045D01*
X127564577Y-66047978D01*
X127460960Y-66163056D01*
X127365473Y-66328444D01*
X127306458Y-66510072D01*
X127305768Y-66516633D01*
X127305768Y-66516635D01*
X127300492Y-66566834D01*
X127286496Y-66700000D01*
X127287186Y-66706565D01*
X127297023Y-66800155D01*
X127306458Y-66889928D01*
X127365473Y-67071556D01*
X127368776Y-67077278D01*
X127368777Y-67077279D01*
X127424619Y-67173999D01*
X127441500Y-67236999D01*
X127441500Y-80852591D01*
X127421498Y-80920712D01*
X127367842Y-80967205D01*
X127297568Y-80977309D01*
X127264252Y-80967698D01*
X127188323Y-80933892D01*
X127188315Y-80933889D01*
X127182288Y-80931206D01*
X127088888Y-80911353D01*
X127001944Y-80892872D01*
X127001939Y-80892872D01*
X126995487Y-80891500D01*
X126804513Y-80891500D01*
X126798061Y-80892872D01*
X126798056Y-80892872D01*
X126711112Y-80911353D01*
X126617712Y-80931206D01*
X126611682Y-80933891D01*
X126611681Y-80933891D01*
X126449278Y-81006197D01*
X126449276Y-81006198D01*
X126443248Y-81008882D01*
X126288747Y-81121134D01*
X126284326Y-81126044D01*
X126284325Y-81126045D01*
X126202758Y-81216635D01*
X126160960Y-81263056D01*
X126120063Y-81333891D01*
X126072819Y-81415721D01*
X126065473Y-81428444D01*
X126006458Y-81610072D01*
X126005768Y-81616633D01*
X126005768Y-81616635D01*
X125990701Y-81759995D01*
X125986496Y-81800000D01*
X125987186Y-81806565D01*
X125998275Y-81912067D01*
X126006458Y-81989928D01*
X126065473Y-82171556D01*
X126120064Y-82266109D01*
X126124619Y-82273999D01*
X126141500Y-82336999D01*
X126141500Y-92816694D01*
X126121498Y-92884815D01*
X126067842Y-92931308D01*
X125997568Y-92941412D01*
X125932988Y-92911918D01*
X125906381Y-92879694D01*
X125884483Y-92841765D01*
X125839040Y-92763056D01*
X125711253Y-92621134D01*
X125556752Y-92508882D01*
X125550724Y-92506198D01*
X125550722Y-92506197D01*
X125388319Y-92433891D01*
X125388318Y-92433891D01*
X125382288Y-92431206D01*
X125288887Y-92411353D01*
X125201944Y-92392872D01*
X125201939Y-92392872D01*
X125195487Y-92391500D01*
X125004513Y-92391500D01*
X124998061Y-92392872D01*
X124998056Y-92392872D01*
X124911113Y-92411353D01*
X124817712Y-92431206D01*
X124811682Y-92433891D01*
X124811681Y-92433891D01*
X124649278Y-92506197D01*
X124649276Y-92506198D01*
X124643248Y-92508882D01*
X124488747Y-92621134D01*
X124360960Y-92763056D01*
X124265473Y-92928444D01*
X124206458Y-93110072D01*
X124205768Y-93116633D01*
X124205768Y-93116635D01*
X124197537Y-93194947D01*
X124186496Y-93300000D01*
X113048172Y-93300000D01*
X113143382Y-93191434D01*
X113191495Y-93116635D01*
X113286269Y-92969291D01*
X113288797Y-92965361D01*
X113399199Y-92720278D01*
X113436209Y-92589051D01*
X113470893Y-92466072D01*
X113470894Y-92466069D01*
X113472163Y-92461568D01*
X113490043Y-92321019D01*
X113505688Y-92198045D01*
X113505688Y-92198041D01*
X113506086Y-92194915D01*
X113506176Y-92191500D01*
X113508307Y-92110072D01*
X113508571Y-92100000D01*
X113488650Y-91831937D01*
X113477020Y-91780538D01*
X113430361Y-91574331D01*
X113430360Y-91574326D01*
X113429327Y-91569763D01*
X113331902Y-91319238D01*
X113198518Y-91085864D01*
X113193002Y-91078866D01*
X113132416Y-91002014D01*
X113032105Y-90874769D01*
X112836317Y-90690591D01*
X112615457Y-90537374D01*
X112611264Y-90535306D01*
X112378564Y-90420551D01*
X112378561Y-90420550D01*
X112374376Y-90418486D01*
X112368613Y-90416641D01*
X112208847Y-90365500D01*
X112118370Y-90336538D01*
X112113763Y-90335788D01*
X112113760Y-90335787D01*
X111857674Y-90294081D01*
X111857675Y-90294081D01*
X111853063Y-90293330D01*
X111722719Y-90291624D01*
X111588961Y-90289873D01*
X111588958Y-90289873D01*
X111584284Y-90289812D01*
X111317937Y-90326060D01*
X111059874Y-90401278D01*
X111055621Y-90403238D01*
X111055620Y-90403239D01*
X111003007Y-90427494D01*
X110815763Y-90513815D01*
X110811854Y-90516378D01*
X110594881Y-90658631D01*
X110594876Y-90658635D01*
X110590968Y-90661197D01*
X110390426Y-90840188D01*
X110218544Y-91046854D01*
X110079096Y-91276656D01*
X110077287Y-91280970D01*
X110077285Y-91280974D01*
X110030938Y-91391500D01*
X109975148Y-91524545D01*
X109908981Y-91785077D01*
X109882050Y-92052526D01*
X103508500Y-92052526D01*
X103508500Y-88544906D01*
X110614839Y-88544906D01*
X110623553Y-88556427D01*
X110730452Y-88634809D01*
X110738351Y-88639745D01*
X110967905Y-88760519D01*
X110976454Y-88764236D01*
X111221327Y-88849749D01*
X111230336Y-88852163D01*
X111485166Y-88900544D01*
X111494423Y-88901598D01*
X111753607Y-88911783D01*
X111762921Y-88911457D01*
X112020753Y-88883220D01*
X112029930Y-88881519D01*
X112280758Y-88815481D01*
X112289574Y-88812445D01*
X112527880Y-88710062D01*
X112536167Y-88705748D01*
X112756718Y-88569266D01*
X112764268Y-88563780D01*
X112769559Y-88559301D01*
X112777997Y-88546497D01*
X112771935Y-88536145D01*
X111707812Y-87472022D01*
X111693868Y-87464408D01*
X111692035Y-87464539D01*
X111685420Y-87468790D01*
X110621497Y-88532713D01*
X110614839Y-88544906D01*
X103508500Y-88544906D01*
X103508500Y-87057211D01*
X109882775Y-87057211D01*
X109895220Y-87316288D01*
X109896356Y-87325543D01*
X109946961Y-87579945D01*
X109949449Y-87588917D01*
X110037095Y-87833033D01*
X110040895Y-87841568D01*
X110163658Y-88070042D01*
X110168666Y-88077904D01*
X110238720Y-88171716D01*
X110249979Y-88180165D01*
X110262397Y-88173393D01*
X111322978Y-87112812D01*
X111329356Y-87101132D01*
X112059408Y-87101132D01*
X112059539Y-87102965D01*
X112063790Y-87109580D01*
X113131094Y-88176884D01*
X113143474Y-88183644D01*
X113151815Y-88177400D01*
X113285832Y-87969048D01*
X113290275Y-87960864D01*
X113396807Y-87724370D01*
X113399997Y-87715605D01*
X113470402Y-87465972D01*
X113472262Y-87456830D01*
X113505187Y-87198019D01*
X113505668Y-87191733D01*
X113507987Y-87103160D01*
X113507836Y-87096851D01*
X113488501Y-86836663D01*
X113487125Y-86827457D01*
X113429878Y-86574467D01*
X113427154Y-86565556D01*
X113333143Y-86323806D01*
X113329132Y-86315397D01*
X113200422Y-86090202D01*
X113195211Y-86082476D01*
X113151996Y-86027658D01*
X113140071Y-86019187D01*
X113128537Y-86025673D01*
X112067022Y-87087188D01*
X112059408Y-87101132D01*
X111329356Y-87101132D01*
X111330592Y-87098868D01*
X111330461Y-87097035D01*
X111326210Y-87090420D01*
X110260816Y-86025026D01*
X110247507Y-86017758D01*
X110237472Y-86024878D01*
X110221937Y-86043556D01*
X110216531Y-86051135D01*
X110081965Y-86272891D01*
X110077736Y-86281192D01*
X109977432Y-86520389D01*
X109974471Y-86529239D01*
X109910628Y-86780625D01*
X109909006Y-86789822D01*
X109883020Y-87047885D01*
X109882775Y-87057211D01*
X103508500Y-87057211D01*
X103508500Y-85652689D01*
X110612102Y-85652689D01*
X110616675Y-85662465D01*
X111682188Y-86727978D01*
X111696132Y-86735592D01*
X111697965Y-86735461D01*
X111704580Y-86731210D01*
X112769349Y-85666441D01*
X112775733Y-85654751D01*
X112766321Y-85642641D01*
X112619045Y-85540471D01*
X112611010Y-85535738D01*
X112378376Y-85421016D01*
X112369743Y-85417528D01*
X112122703Y-85338450D01*
X112113643Y-85336274D01*
X111857630Y-85294580D01*
X111848343Y-85293768D01*
X111588992Y-85290373D01*
X111579681Y-85290943D01*
X111322682Y-85325919D01*
X111313546Y-85327860D01*
X111064543Y-85400439D01*
X111055800Y-85403707D01*
X110820252Y-85512296D01*
X110812097Y-85516816D01*
X110621240Y-85641947D01*
X110612102Y-85652689D01*
X103508500Y-85652689D01*
X103508500Y-83448134D01*
X109886500Y-83448134D01*
X109893255Y-83510316D01*
X109944385Y-83646705D01*
X110031739Y-83763261D01*
X110148295Y-83850615D01*
X110284684Y-83901745D01*
X110346866Y-83908500D01*
X113043134Y-83908500D01*
X113105316Y-83901745D01*
X113241705Y-83850615D01*
X113358261Y-83763261D01*
X113445615Y-83646705D01*
X113496745Y-83510316D01*
X113503500Y-83448134D01*
X113503500Y-80751866D01*
X113496745Y-80689684D01*
X113445615Y-80553295D01*
X113358261Y-80436739D01*
X113241705Y-80349385D01*
X113105316Y-80298255D01*
X113043134Y-80291500D01*
X110346866Y-80291500D01*
X110284684Y-80298255D01*
X110148295Y-80349385D01*
X110031739Y-80436739D01*
X109944385Y-80553295D01*
X109893255Y-80689684D01*
X109886500Y-80751866D01*
X109886500Y-83448134D01*
X103508500Y-83448134D01*
X103508500Y-71444906D01*
X110614839Y-71444906D01*
X110623553Y-71456427D01*
X110730452Y-71534809D01*
X110738351Y-71539745D01*
X110967905Y-71660519D01*
X110976454Y-71664236D01*
X111221327Y-71749749D01*
X111230336Y-71752163D01*
X111485166Y-71800544D01*
X111494423Y-71801598D01*
X111753607Y-71811783D01*
X111762921Y-71811457D01*
X112020753Y-71783220D01*
X112029930Y-71781519D01*
X112280758Y-71715481D01*
X112289574Y-71712445D01*
X112527880Y-71610062D01*
X112536167Y-71605748D01*
X112756718Y-71469266D01*
X112764268Y-71463780D01*
X112769559Y-71459301D01*
X112777997Y-71446497D01*
X112771935Y-71436145D01*
X111707812Y-70372022D01*
X111693868Y-70364408D01*
X111692035Y-70364539D01*
X111685420Y-70368790D01*
X110621497Y-71432713D01*
X110614839Y-71444906D01*
X103508500Y-71444906D01*
X103508500Y-69957211D01*
X109882775Y-69957211D01*
X109895220Y-70216288D01*
X109896356Y-70225543D01*
X109946961Y-70479945D01*
X109949449Y-70488917D01*
X110037095Y-70733033D01*
X110040895Y-70741568D01*
X110163658Y-70970042D01*
X110168666Y-70977904D01*
X110238720Y-71071716D01*
X110249979Y-71080165D01*
X110262397Y-71073393D01*
X111322978Y-70012812D01*
X111329356Y-70001132D01*
X112059408Y-70001132D01*
X112059539Y-70002965D01*
X112063790Y-70009580D01*
X113131094Y-71076884D01*
X113143474Y-71083644D01*
X113151815Y-71077400D01*
X113285832Y-70869048D01*
X113290275Y-70860864D01*
X113396807Y-70624370D01*
X113399997Y-70615605D01*
X113470402Y-70365972D01*
X113472262Y-70356830D01*
X113505187Y-70098019D01*
X113505668Y-70091733D01*
X113507987Y-70003160D01*
X113507836Y-69996851D01*
X113488501Y-69736663D01*
X113487125Y-69727457D01*
X113429878Y-69474467D01*
X113427154Y-69465556D01*
X113333143Y-69223806D01*
X113329132Y-69215397D01*
X113200422Y-68990202D01*
X113195211Y-68982476D01*
X113151996Y-68927658D01*
X113140071Y-68919187D01*
X113128537Y-68925673D01*
X112067022Y-69987188D01*
X112059408Y-70001132D01*
X111329356Y-70001132D01*
X111330592Y-69998868D01*
X111330461Y-69997035D01*
X111326210Y-69990420D01*
X110260816Y-68925026D01*
X110247507Y-68917758D01*
X110237472Y-68924878D01*
X110221937Y-68943556D01*
X110216531Y-68951135D01*
X110081965Y-69172891D01*
X110077736Y-69181192D01*
X109977432Y-69420389D01*
X109974471Y-69429239D01*
X109910628Y-69680625D01*
X109909006Y-69689822D01*
X109883020Y-69947885D01*
X109882775Y-69957211D01*
X103508500Y-69957211D01*
X103508500Y-68552689D01*
X110612102Y-68552689D01*
X110616675Y-68562465D01*
X111682188Y-69627978D01*
X111696132Y-69635592D01*
X111697965Y-69635461D01*
X111704580Y-69631210D01*
X112769349Y-68566441D01*
X112775733Y-68554751D01*
X112766321Y-68542641D01*
X112619045Y-68440471D01*
X112611010Y-68435738D01*
X112378376Y-68321016D01*
X112369743Y-68317528D01*
X112122703Y-68238450D01*
X112113643Y-68236274D01*
X111857630Y-68194580D01*
X111848343Y-68193768D01*
X111588992Y-68190373D01*
X111579681Y-68190943D01*
X111322682Y-68225919D01*
X111313546Y-68227860D01*
X111064543Y-68300439D01*
X111055800Y-68303707D01*
X110820252Y-68412296D01*
X110812097Y-68416816D01*
X110621240Y-68541947D01*
X110612102Y-68552689D01*
X103508500Y-68552689D01*
X103508500Y-66348134D01*
X109886500Y-66348134D01*
X109893255Y-66410316D01*
X109944385Y-66546705D01*
X110031739Y-66663261D01*
X110148295Y-66750615D01*
X110284684Y-66801745D01*
X110346866Y-66808500D01*
X113043134Y-66808500D01*
X113105316Y-66801745D01*
X113241705Y-66750615D01*
X113358261Y-66663261D01*
X113445615Y-66546705D01*
X113496745Y-66410316D01*
X113503500Y-66348134D01*
X113503500Y-63651866D01*
X113496745Y-63589684D01*
X113445615Y-63453295D01*
X113358261Y-63336739D01*
X113241705Y-63249385D01*
X113105316Y-63198255D01*
X113043134Y-63191500D01*
X110346866Y-63191500D01*
X110284684Y-63198255D01*
X110148295Y-63249385D01*
X110031739Y-63336739D01*
X109944385Y-63453295D01*
X109893255Y-63589684D01*
X109886500Y-63651866D01*
X109886500Y-66348134D01*
X103508500Y-66348134D01*
X103508500Y-56032703D01*
X104890743Y-56032703D01*
X104928268Y-56317734D01*
X105004129Y-56595036D01*
X105116923Y-56859476D01*
X105264561Y-57106161D01*
X105444313Y-57330528D01*
X105652851Y-57528423D01*
X105886317Y-57696186D01*
X105890112Y-57698195D01*
X105890113Y-57698196D01*
X105911869Y-57709715D01*
X106140392Y-57830712D01*
X106164699Y-57839607D01*
X106400902Y-57926045D01*
X106410373Y-57929511D01*
X106691264Y-57990755D01*
X106719841Y-57993004D01*
X106914282Y-58008307D01*
X106914291Y-58008307D01*
X106916739Y-58008500D01*
X107072271Y-58008500D01*
X107074407Y-58008354D01*
X107074418Y-58008354D01*
X107282548Y-57994165D01*
X107282554Y-57994164D01*
X107286825Y-57993873D01*
X107291020Y-57993004D01*
X107291022Y-57993004D01*
X107427583Y-57964724D01*
X107568342Y-57935574D01*
X107839343Y-57839607D01*
X108094812Y-57707750D01*
X108098313Y-57705289D01*
X108098317Y-57705287D01*
X108212418Y-57625095D01*
X108330023Y-57542441D01*
X108540622Y-57346740D01*
X108722713Y-57124268D01*
X108872927Y-56879142D01*
X108988483Y-56615898D01*
X109067244Y-56339406D01*
X109107751Y-56054784D01*
X109107845Y-56036951D01*
X109107867Y-56032703D01*
X176890743Y-56032703D01*
X176928268Y-56317734D01*
X177004129Y-56595036D01*
X177116923Y-56859476D01*
X177264561Y-57106161D01*
X177444313Y-57330528D01*
X177652851Y-57528423D01*
X177886317Y-57696186D01*
X177890112Y-57698195D01*
X177890113Y-57698196D01*
X177911869Y-57709715D01*
X178140392Y-57830712D01*
X178164699Y-57839607D01*
X178400902Y-57926045D01*
X178410373Y-57929511D01*
X178691264Y-57990755D01*
X178719841Y-57993004D01*
X178914282Y-58008307D01*
X178914291Y-58008307D01*
X178916739Y-58008500D01*
X179072271Y-58008500D01*
X179074407Y-58008354D01*
X179074418Y-58008354D01*
X179282548Y-57994165D01*
X179282554Y-57994164D01*
X179286825Y-57993873D01*
X179291020Y-57993004D01*
X179291022Y-57993004D01*
X179427583Y-57964724D01*
X179568342Y-57935574D01*
X179839343Y-57839607D01*
X180094812Y-57707750D01*
X180098313Y-57705289D01*
X180098317Y-57705287D01*
X180212418Y-57625095D01*
X180330023Y-57542441D01*
X180540622Y-57346740D01*
X180722713Y-57124268D01*
X180872927Y-56879142D01*
X180988483Y-56615898D01*
X181067244Y-56339406D01*
X181107751Y-56054784D01*
X181107845Y-56036951D01*
X181109235Y-55771583D01*
X181109235Y-55771576D01*
X181109257Y-55767297D01*
X181071732Y-55482266D01*
X180995871Y-55204964D01*
X180883077Y-54940524D01*
X180735439Y-54693839D01*
X180555687Y-54469472D01*
X180347149Y-54271577D01*
X180113683Y-54103814D01*
X180091843Y-54092250D01*
X180068654Y-54079972D01*
X179859608Y-53969288D01*
X179589627Y-53870489D01*
X179308736Y-53809245D01*
X179277685Y-53806801D01*
X179085718Y-53791693D01*
X179085709Y-53791693D01*
X179083261Y-53791500D01*
X178927729Y-53791500D01*
X178925593Y-53791646D01*
X178925582Y-53791646D01*
X178717452Y-53805835D01*
X178717446Y-53805836D01*
X178713175Y-53806127D01*
X178708980Y-53806996D01*
X178708978Y-53806996D01*
X178572416Y-53835277D01*
X178431658Y-53864426D01*
X178160657Y-53960393D01*
X177905188Y-54092250D01*
X177901687Y-54094711D01*
X177901683Y-54094713D01*
X177891594Y-54101804D01*
X177669977Y-54257559D01*
X177459378Y-54453260D01*
X177277287Y-54675732D01*
X177127073Y-54920858D01*
X177011517Y-55184102D01*
X176932756Y-55460594D01*
X176892249Y-55745216D01*
X176892227Y-55749505D01*
X176892226Y-55749512D01*
X176891263Y-55933421D01*
X176890743Y-56032703D01*
X109107867Y-56032703D01*
X109109235Y-55771583D01*
X109109235Y-55771576D01*
X109109257Y-55767297D01*
X109071732Y-55482266D01*
X108995871Y-55204964D01*
X108883077Y-54940524D01*
X108735439Y-54693839D01*
X108555687Y-54469472D01*
X108347149Y-54271577D01*
X108113683Y-54103814D01*
X108091843Y-54092250D01*
X108068654Y-54079972D01*
X107859608Y-53969288D01*
X107589627Y-53870489D01*
X107308736Y-53809245D01*
X107277685Y-53806801D01*
X107085718Y-53791693D01*
X107085709Y-53791693D01*
X107083261Y-53791500D01*
X106927729Y-53791500D01*
X106925593Y-53791646D01*
X106925582Y-53791646D01*
X106717452Y-53805835D01*
X106717446Y-53805836D01*
X106713175Y-53806127D01*
X106708980Y-53806996D01*
X106708978Y-53806996D01*
X106572416Y-53835277D01*
X106431658Y-53864426D01*
X106160657Y-53960393D01*
X105905188Y-54092250D01*
X105901687Y-54094711D01*
X105901683Y-54094713D01*
X105891594Y-54101804D01*
X105669977Y-54257559D01*
X105459378Y-54453260D01*
X105277287Y-54675732D01*
X105127073Y-54920858D01*
X105011517Y-55184102D01*
X104932756Y-55460594D01*
X104892249Y-55745216D01*
X104892227Y-55749505D01*
X104892226Y-55749512D01*
X104891263Y-55933421D01*
X104890743Y-56032703D01*
X103508500Y-56032703D01*
X103508500Y-55953250D01*
X103510246Y-55932345D01*
X103512770Y-55917344D01*
X103512770Y-55917341D01*
X103513576Y-55912552D01*
X103513729Y-55900000D01*
X103513040Y-55895185D01*
X103513039Y-55895177D01*
X103511550Y-55884781D01*
X103510429Y-55860735D01*
X103515020Y-55767297D01*
X103525010Y-55563949D01*
X103526221Y-55551650D01*
X103537128Y-55478124D01*
X103574680Y-55224966D01*
X103577091Y-55212841D01*
X103578028Y-55209103D01*
X103601258Y-55116361D01*
X103657339Y-54892477D01*
X103660928Y-54880645D01*
X103772190Y-54569689D01*
X103776922Y-54558265D01*
X103911119Y-54274527D01*
X103918128Y-54259708D01*
X103923955Y-54248807D01*
X104093744Y-53965533D01*
X104100614Y-53955252D01*
X104168619Y-53863557D01*
X104297350Y-53689983D01*
X104305177Y-53680444D01*
X104526985Y-53435718D01*
X104535718Y-53426985D01*
X104780444Y-53205177D01*
X104789983Y-53197350D01*
X105055252Y-53000614D01*
X105065533Y-52993744D01*
X105207899Y-52908412D01*
X105348812Y-52823953D01*
X105359708Y-52818128D01*
X105590500Y-52708972D01*
X105658265Y-52676922D01*
X105669689Y-52672190D01*
X105980645Y-52560928D01*
X105992477Y-52557339D01*
X106218804Y-52500646D01*
X106312844Y-52477090D01*
X106324966Y-52474680D01*
X106651655Y-52426221D01*
X106663949Y-52425010D01*
X106957039Y-52410610D01*
X106982598Y-52411958D01*
X106993724Y-52413691D01*
X107025286Y-52409564D01*
X107041621Y-52408500D01*
X178950633Y-52408500D01*
X178970018Y-52410000D01*
G37*
%TD.AperFunction*%
%TD*%
M02*
