M48
; DRILL file {KiCad (6.0.7)} date Thu Dec 15 14:34:01 2022
; FORMAT={-:-/ absolute / inch / decimal}
; #@! TF.CreationDate,2022-12-15T14:34:01+00:00
; #@! TF.GenerationSoftware,Kicad,Pcbnew,(6.0.7)
; #@! TF.FileFunction,Plated,1,2,PTH
FMAT,2
INCH
; #@! TA.AperFunction,Plated,PTH,ViaDrill
T1C0.0157
; #@! TA.AperFunction,Plated,PTH,ComponentDrill
T2C0.0394
; #@! TA.AperFunction,Plated,PTH,ComponentDrill
T3C0.0512
%
G90
G05
T1
X4.5157Y-3.7835
X4.5157Y-4.0118
X4.5157Y-4.7205
X4.5197Y-3.0748
X4.6811Y-2.4922
X4.7677Y-3.3228
X4.9252Y-3.6732
X4.9291Y-3.7402
X4.9961Y-3.2205
X4.9961Y-3.7913
X5.0315Y-2.504
X5.0472Y-2.626
X5.0472Y-3.5157
X5.0472Y-3.9488
X5.0472Y-4.0433
X5.1299Y-4.2402
X5.1969Y-2.7461
X5.2598Y-4.0605
X5.2598Y-4.6063
X5.2775Y-2.4587
X5.2835Y-3.9685
X5.3268Y-2.7067
X5.4055Y-4.6732
X5.4409Y-3.2047
X5.4449Y-4.1181
X5.4488Y-3.0512
X5.4862Y-2.3643
X5.5394Y-3.8543
X5.5472Y-2.7835
X5.5472Y-3.6339
X5.5472Y-3.7736
X5.5591Y-4.4528
X5.563Y-4.6732
X5.6124Y-4.047
X5.6142Y-3.5591
X5.618Y-2.5081
X5.622Y-2.9213
X5.626Y-3.1969
X5.6811Y-2.7579
X5.6969Y-4.252
X5.7047Y-4.8386
X5.748Y-3.315
X5.7677Y-3.8976
X5.7717Y-3.7402
X5.8228Y-3.9606
X5.8289Y-4.0589
X5.8307Y-2.7106
X5.874Y-3.9016
X5.874Y-4.8031
X5.874Y-4.9882
X5.9054Y-2.4961
X6.0Y-2.3071
X6.0Y-2.5512
X6.0Y-2.626
X6.0Y-4.1142
X6.0118Y-3.6654
X6.0197Y-4.0748
X6.0433Y-3.4409
X6.0512Y-2.7835
X6.0591Y-2.9213
X6.0591Y-3.5945
X6.0984Y-2.4523
X6.1102Y-2.7441
X6.1614Y-2.3066
X6.1772Y-3.2362
X6.1772Y-4.4409
X6.1929Y-2.6575
X6.2047Y-4.8898
X6.2057Y-3.5984
X6.2126Y-3.5118
X6.2139Y-2.7117
X6.4252Y-2.9803
X6.4252Y-4.3898
X6.437Y-2.3027
X6.4528Y-4.4567
X6.4537Y-3.0157
X6.5Y-3.7638
X6.5039Y-4.4685
X6.5118Y-2.468
X6.5325Y-4.3976
X6.5512Y-3.3228
X6.5551Y-2.6772
X6.5669Y-4.2008
X6.5945Y-3.0472
X6.6969Y-3.3898
X6.7008Y-2.9685
X6.748Y-2.7205
X6.748Y-3.0787
X6.7598Y-3.1181
X6.8071Y-4.2598
X7.122Y-3.7126
T2
X6.931Y-2.615
X6.931Y-2.715
X6.931Y-2.815
X6.931Y-2.915
X6.931Y-3.015
X6.9315Y-4.111
X6.9315Y-4.211
X6.9315Y-4.311
X6.9315Y-4.411
X6.9315Y-4.511
X7.031Y-2.615
X7.031Y-2.715
X7.031Y-2.815
X7.031Y-2.915
X7.031Y-3.015
X7.0315Y-4.111
X7.0315Y-4.211
X7.0315Y-4.311
X7.0315Y-4.411
X7.0315Y-4.511
T3
X4.3974Y-2.5591
X4.3974Y-2.7559
X4.3974Y-3.2323
X4.3974Y-3.4291
X4.3974Y-3.626
X4.3974Y-4.1693
X4.3974Y-4.3661
X4.3974Y-4.563
T0
M30
