%TF.GenerationSoftware,KiCad,Pcbnew,(6.0.7)*%
%TF.CreationDate,2022-12-15T14:34:03+00:00*%
%TF.ProjectId,digital-tone,64696769-7461-46c2-9d74-6f6e652e6b69,rev?*%
%TF.SameCoordinates,Original*%
%TF.FileFunction,Paste,Top*%
%TF.FilePolarity,Positive*%
%FSLAX46Y46*%
G04 Gerber Fmt 4.6, Leading zero omitted, Abs format (unit mm)*
G04 Created by KiCad (PCBNEW (6.0.7)) date 2022-12-15 14:34:03*
%MOMM*%
%LPD*%
G01*
G04 APERTURE LIST*
G04 Aperture macros list*
%AMRoundRect*
0 Rectangle with rounded corners*
0 $1 Rounding radius*
0 $2 $3 $4 $5 $6 $7 $8 $9 X,Y pos of 4 corners*
0 Add a 4 corners polygon primitive as box body*
4,1,4,$2,$3,$4,$5,$6,$7,$8,$9,$2,$3,0*
0 Add four circle primitives for the rounded corners*
1,1,$1+$1,$2,$3*
1,1,$1+$1,$4,$5*
1,1,$1+$1,$6,$7*
1,1,$1+$1,$8,$9*
0 Add four rect primitives between the rounded corners*
20,1,$1+$1,$2,$3,$4,$5,0*
20,1,$1+$1,$4,$5,$6,$7,0*
20,1,$1+$1,$6,$7,$8,$9,0*
20,1,$1+$1,$8,$9,$2,$3,0*%
G04 Aperture macros list end*
%ADD10RoundRect,0.250000X0.325000X0.650000X-0.325000X0.650000X-0.325000X-0.650000X0.325000X-0.650000X0*%
%ADD11RoundRect,0.237500X-0.300000X-0.237500X0.300000X-0.237500X0.300000X0.237500X-0.300000X0.237500X0*%
%ADD12RoundRect,0.237500X0.250000X0.237500X-0.250000X0.237500X-0.250000X-0.237500X0.250000X-0.237500X0*%
%ADD13RoundRect,0.250000X-0.325000X-0.650000X0.325000X-0.650000X0.325000X0.650000X-0.325000X0.650000X0*%
%ADD14RoundRect,0.237500X0.237500X-0.250000X0.237500X0.250000X-0.237500X0.250000X-0.237500X-0.250000X0*%
%ADD15RoundRect,0.250000X0.412500X0.650000X-0.412500X0.650000X-0.412500X-0.650000X0.412500X-0.650000X0*%
%ADD16RoundRect,0.237500X-0.250000X-0.237500X0.250000X-0.237500X0.250000X0.237500X-0.250000X0.237500X0*%
%ADD17RoundRect,0.250000X-0.550000X1.500000X-0.550000X-1.500000X0.550000X-1.500000X0.550000X1.500000X0*%
%ADD18RoundRect,0.237500X0.237500X-0.300000X0.237500X0.300000X-0.237500X0.300000X-0.237500X-0.300000X0*%
%ADD19RoundRect,0.237500X0.300000X0.237500X-0.300000X0.237500X-0.300000X-0.237500X0.300000X-0.237500X0*%
%ADD20RoundRect,0.237500X-0.237500X0.250000X-0.237500X-0.250000X0.237500X-0.250000X0.237500X0.250000X0*%
%ADD21RoundRect,0.150000X-0.150000X0.825000X-0.150000X-0.825000X0.150000X-0.825000X0.150000X0.825000X0*%
%ADD22RoundRect,0.225000X0.250000X-0.225000X0.250000X0.225000X-0.250000X0.225000X-0.250000X-0.225000X0*%
%ADD23RoundRect,0.150000X-0.512500X-0.150000X0.512500X-0.150000X0.512500X0.150000X-0.512500X0.150000X0*%
%ADD24RoundRect,0.150000X0.150000X-0.825000X0.150000X0.825000X-0.150000X0.825000X-0.150000X-0.825000X0*%
%ADD25RoundRect,0.225000X-0.250000X0.225000X-0.250000X-0.225000X0.250000X-0.225000X0.250000X0.225000X0*%
%ADD26R,1.100000X1.100000*%
%ADD27RoundRect,0.150000X-0.825000X-0.150000X0.825000X-0.150000X0.825000X0.150000X-0.825000X0.150000X0*%
%ADD28RoundRect,0.250000X-0.412500X-0.650000X0.412500X-0.650000X0.412500X0.650000X-0.412500X0.650000X0*%
%ADD29RoundRect,0.200000X-0.200000X-0.275000X0.200000X-0.275000X0.200000X0.275000X-0.200000X0.275000X0*%
%ADD30RoundRect,0.237500X-0.237500X0.300000X-0.237500X-0.300000X0.237500X-0.300000X0.237500X0.300000X0*%
%ADD31R,1.200000X2.200000*%
%ADD32R,2.750000X3.050000*%
%ADD33RoundRect,0.150000X0.587500X0.150000X-0.587500X0.150000X-0.587500X-0.150000X0.587500X-0.150000X0*%
G04 APERTURE END LIST*
D10*
%TO.C,C32*%
X155550000Y-91400000D03*
X152600000Y-91400000D03*
%TD*%
%TO.C,C31*%
X155475000Y-82300000D03*
X152525000Y-82300000D03*
%TD*%
D11*
%TO.C,C10*%
X168425000Y-72600000D03*
X170150000Y-72600000D03*
%TD*%
D12*
%TO.C,R20*%
X147425000Y-121900000D03*
X145600000Y-121900000D03*
%TD*%
%TO.C,R28*%
X118870000Y-62202500D03*
X120695000Y-62202500D03*
%TD*%
D13*
%TO.C,C1*%
X118500000Y-92400000D03*
X121450000Y-92400000D03*
%TD*%
D14*
%TO.C,R35*%
X151855000Y-107095000D03*
X151855000Y-105270000D03*
%TD*%
D15*
%TO.C,C14*%
X121962500Y-105900000D03*
X118837500Y-105900000D03*
%TD*%
D16*
%TO.C,R37*%
X130475000Y-101637500D03*
X132300000Y-101637500D03*
%TD*%
D12*
%TO.C,R4*%
X125125000Y-81800000D03*
X123300000Y-81800000D03*
%TD*%
D17*
%TO.C,C21*%
X146195000Y-64102500D03*
X146195000Y-58502500D03*
%TD*%
D18*
%TO.C,C3*%
X127400000Y-89500000D03*
X127400000Y-87775000D03*
%TD*%
D19*
%TO.C,C26*%
X150055000Y-101595000D03*
X148330000Y-101595000D03*
%TD*%
D12*
%TO.C,R21*%
X144612500Y-114800000D03*
X142787500Y-114800000D03*
%TD*%
%TO.C,R12*%
X149800000Y-94300000D03*
X147975000Y-94300000D03*
%TD*%
D11*
%TO.C,C5*%
X129400000Y-83200000D03*
X131125000Y-83200000D03*
%TD*%
D12*
%TO.C,R22*%
X147425000Y-117000000D03*
X145600000Y-117000000D03*
%TD*%
D20*
%TO.C,R40*%
X146800000Y-70662500D03*
X146800000Y-72487500D03*
%TD*%
D11*
%TO.C,C11*%
X148075000Y-82200000D03*
X149800000Y-82200000D03*
%TD*%
D21*
%TO.C,U2*%
X150705000Y-84325000D03*
X149435000Y-84325000D03*
X148165000Y-84325000D03*
X146895000Y-84325000D03*
X146895000Y-89275000D03*
X148165000Y-89275000D03*
X149435000Y-89275000D03*
X150705000Y-89275000D03*
%TD*%
D19*
%TO.C,C30*%
X138062500Y-68787500D03*
X136337500Y-68787500D03*
%TD*%
D11*
%TO.C,C4*%
X129400000Y-90700000D03*
X131125000Y-90700000D03*
%TD*%
D14*
%TO.C,R43*%
X132000000Y-72412500D03*
X132000000Y-70587500D03*
%TD*%
D18*
%TO.C,C24*%
X153555000Y-107045000D03*
X153555000Y-105320000D03*
%TD*%
D16*
%TO.C,R39*%
X144742500Y-101595000D03*
X146567500Y-101595000D03*
%TD*%
D18*
%TO.C,C8*%
X152500000Y-89200000D03*
X152500000Y-87475000D03*
%TD*%
D12*
%TO.C,R11*%
X149825000Y-79200000D03*
X148000000Y-79200000D03*
%TD*%
D14*
%TO.C,R33*%
X137500000Y-107037500D03*
X137500000Y-105212500D03*
%TD*%
D15*
%TO.C,C15*%
X121962500Y-116000000D03*
X118837500Y-116000000D03*
%TD*%
D18*
%TO.C,C23*%
X139200000Y-107000000D03*
X139200000Y-105275000D03*
%TD*%
D22*
%TO.C,C33*%
X155000000Y-63237701D03*
X155000000Y-64787701D03*
%TD*%
D23*
%TO.C,U7*%
X135662500Y-70537500D03*
X135662500Y-71487500D03*
X135662500Y-72437500D03*
X137937500Y-72437500D03*
X137937500Y-70537500D03*
%TD*%
%TO.C,U6*%
X148625000Y-70587500D03*
X148625000Y-71537500D03*
X148625000Y-72487500D03*
X150900000Y-72487500D03*
X150900000Y-70587500D03*
%TD*%
D24*
%TO.C,U3*%
X139995000Y-121975000D03*
X141265000Y-121975000D03*
X142535000Y-121975000D03*
X143805000Y-121975000D03*
X143805000Y-117025000D03*
X142535000Y-117025000D03*
X141265000Y-117025000D03*
X139995000Y-117025000D03*
%TD*%
D25*
%TO.C,C17*%
X125195000Y-60077500D03*
X125195000Y-58527500D03*
%TD*%
D18*
%TO.C,C7*%
X167900000Y-108637500D03*
X167900000Y-110362500D03*
%TD*%
D16*
%TO.C,R8*%
X167800000Y-105000000D03*
X169625000Y-105000000D03*
%TD*%
D11*
%TO.C,C12*%
X148000000Y-91400000D03*
X149725000Y-91400000D03*
%TD*%
D16*
%TO.C,R30*%
X176475000Y-83500000D03*
X178300000Y-83500000D03*
%TD*%
%TO.C,R29*%
X111675000Y-101900000D03*
X113500000Y-101900000D03*
%TD*%
D12*
%TO.C,R3*%
X125125000Y-92400000D03*
X123300000Y-92400000D03*
%TD*%
D26*
%TO.C,D1*%
X123095000Y-61402500D03*
X123095000Y-58602500D03*
%TD*%
D16*
%TO.C,R17*%
X142775000Y-125900000D03*
X144600000Y-125900000D03*
%TD*%
D12*
%TO.C,R23*%
X141200000Y-114800000D03*
X139375000Y-114800000D03*
%TD*%
D16*
%TO.C,R7*%
X140987500Y-82200000D03*
X142812500Y-82200000D03*
%TD*%
D20*
%TO.C,R42*%
X133700000Y-70575000D03*
X133700000Y-72400000D03*
%TD*%
D18*
%TO.C,C28*%
X130300000Y-72350000D03*
X130300000Y-70625000D03*
%TD*%
D12*
%TO.C,R14*%
X170200000Y-74300000D03*
X168375000Y-74300000D03*
%TD*%
%TO.C,R6*%
X169625000Y-112300000D03*
X167800000Y-112300000D03*
%TD*%
D16*
%TO.C,R25*%
X111700000Y-96100000D03*
X113525000Y-96100000D03*
%TD*%
%TO.C,R5*%
X167800000Y-106700000D03*
X169625000Y-106700000D03*
%TD*%
D21*
%TO.C,U1*%
X125705000Y-84525000D03*
X124435000Y-84525000D03*
X123165000Y-84525000D03*
X121895000Y-84525000D03*
X121895000Y-89475000D03*
X123165000Y-89475000D03*
X124435000Y-89475000D03*
X125705000Y-89475000D03*
%TD*%
D14*
%TO.C,R45*%
X139700000Y-72400000D03*
X139700000Y-70575000D03*
%TD*%
D12*
%TO.C,R13*%
X170200000Y-69200000D03*
X168375000Y-69200000D03*
%TD*%
D27*
%TO.C,U5*%
X144680000Y-103290000D03*
X144680000Y-104560000D03*
X144680000Y-105830000D03*
X144680000Y-107100000D03*
X149630000Y-107100000D03*
X149630000Y-105830000D03*
X149630000Y-104560000D03*
X149630000Y-103290000D03*
%TD*%
D28*
%TO.C,C16*%
X125920000Y-63602500D03*
X122795000Y-63602500D03*
%TD*%
D12*
%TO.C,R19*%
X144625000Y-124200000D03*
X142800000Y-124200000D03*
%TD*%
D25*
%TO.C,C19*%
X135795000Y-60052500D03*
X135795000Y-58502500D03*
%TD*%
D16*
%TO.C,R18*%
X142775000Y-113200000D03*
X144600000Y-113200000D03*
%TD*%
D29*
%TO.C,L1*%
X139320000Y-58702500D03*
X137670000Y-58702500D03*
%TD*%
D12*
%TO.C,R9*%
X169625000Y-114000000D03*
X167800000Y-114000000D03*
%TD*%
D19*
%TO.C,C25*%
X135700000Y-101637500D03*
X133975000Y-101637500D03*
%TD*%
D25*
%TO.C,C22*%
X150895000Y-60077500D03*
X150895000Y-58527500D03*
%TD*%
D16*
%TO.C,R16*%
X144387500Y-91400000D03*
X146212500Y-91400000D03*
%TD*%
%TO.C,R38*%
X144730000Y-99995000D03*
X146555000Y-99995000D03*
%TD*%
D11*
%TO.C,C9*%
X168425000Y-70900000D03*
X170150000Y-70900000D03*
%TD*%
D10*
%TO.C,C34*%
X161550000Y-67500000D03*
X158600000Y-67500000D03*
%TD*%
D16*
%TO.C,R36*%
X130475000Y-100037500D03*
X132300000Y-100037500D03*
%TD*%
D20*
%TO.C,R32*%
X128100000Y-103912500D03*
X128100000Y-105737500D03*
%TD*%
D16*
%TO.C,R2*%
X118387500Y-79800000D03*
X120212500Y-79800000D03*
%TD*%
D30*
%TO.C,C13*%
X138200000Y-116975000D03*
X138200000Y-118700000D03*
%TD*%
D16*
%TO.C,R1*%
X118375000Y-94400000D03*
X120200000Y-94400000D03*
%TD*%
D12*
%TO.C,R24*%
X141100000Y-124200000D03*
X139275000Y-124200000D03*
%TD*%
D16*
%TO.C,R31*%
X111687500Y-119900000D03*
X113512500Y-119900000D03*
%TD*%
D31*
%TO.C,U8*%
X162155000Y-64812701D03*
X157595000Y-64812701D03*
D32*
X161400000Y-60187701D03*
X161400000Y-56837701D03*
X158350000Y-60187701D03*
X158350000Y-56837701D03*
%TD*%
D16*
%TO.C,R15*%
X144475000Y-82200000D03*
X146300000Y-82200000D03*
%TD*%
D22*
%TO.C,C35*%
X164400000Y-63287701D03*
X164400000Y-64837701D03*
%TD*%
D17*
%TO.C,C18*%
X130895000Y-58502500D03*
X130895000Y-64102500D03*
%TD*%
D18*
%TO.C,C27*%
X143400000Y-72450000D03*
X143400000Y-70725000D03*
%TD*%
D13*
%TO.C,C2*%
X118500000Y-81800000D03*
X121450000Y-81800000D03*
%TD*%
D16*
%TO.C,R27*%
X176575000Y-121200000D03*
X178400000Y-121200000D03*
%TD*%
D19*
%TO.C,C29*%
X151000000Y-68787500D03*
X149275000Y-68787500D03*
%TD*%
D18*
%TO.C,C6*%
X169600000Y-110362500D03*
X169600000Y-108637500D03*
%TD*%
D16*
%TO.C,R26*%
X111675000Y-78100000D03*
X113500000Y-78100000D03*
%TD*%
%TO.C,R10*%
X140887500Y-91400000D03*
X142712500Y-91400000D03*
%TD*%
D25*
%TO.C,C20*%
X141195000Y-60052500D03*
X141195000Y-58502500D03*
%TD*%
D33*
%TO.C,Q1*%
X118795000Y-59502500D03*
X120670000Y-58552500D03*
X120670000Y-60452500D03*
%TD*%
D20*
%TO.C,R34*%
X142455000Y-103970000D03*
X142455000Y-105795000D03*
%TD*%
D14*
%TO.C,R41*%
X145100000Y-72500000D03*
X145100000Y-70675000D03*
%TD*%
%TO.C,R44*%
X152700000Y-72500000D03*
X152700000Y-70675000D03*
%TD*%
D27*
%TO.C,U4*%
X130325000Y-103232500D03*
X130325000Y-104502500D03*
X130325000Y-105772500D03*
X130325000Y-107042500D03*
X135275000Y-107042500D03*
X135275000Y-105772500D03*
X135275000Y-104502500D03*
X135275000Y-103232500D03*
%TD*%
M02*
