M48
; DRILL file {KiCad (6.0.7)} date Sun Nov 13 12:45:07 2022
; FORMAT={-:-/ absolute / inch / decimal}
; #@! TF.CreationDate,2022-11-13T12:45:07+00:00
; #@! TF.GenerationSoftware,Kicad,Pcbnew,(6.0.7)
; #@! TF.FileFunction,Plated,1,2,PTH
FMAT,2
INCH
; #@! TA.AperFunction,Plated,PTH,ViaDrill
T1C0.0157
; #@! TA.AperFunction,Plated,PTH,ComponentDrill
T2C0.0472
; #@! TA.AperFunction,Plated,PTH,ComponentDrill
T3C0.0512
%
G90
G05
T1
X3.0118Y-3.3583
X3.0118Y-3.4094
X3.0551Y-2.5945
X3.0709Y-4.1693
X3.2244Y-2.3425
X3.2894Y-2.3406
X3.3543Y-2.8937
X3.3622Y-4.4685
X3.4055Y-2.6417
X3.4094Y-4.2205
X3.5079Y-3.6417
X3.5177Y-4.4665
X3.5669Y-2.9606
X3.5748Y-3.8425
X3.6378Y-4.2323
X3.6457Y-2.2244
X3.6457Y-4.0394
X3.6496Y-2.4921
X3.6535Y-3.1024
X3.6535Y-3.8346
X3.689Y-2.8543
X3.689Y-3.3071
X3.7598Y-4.1732
X3.7756Y-3.9094
X3.7795Y-3.8189
X3.9134Y-2.8425
X3.9286Y-2.2397
X3.9488Y-3.2598
X3.9528Y-3.1535
X3.9567Y-4.2717
X4.0984Y-3.622
X4.1024Y-2.9134
X4.1102Y-3.9882
X4.1358Y-3.1339
X4.1654Y-2.937
X4.2165Y-2.4724
X4.2165Y-3.0236
X4.2205Y-4.4724
X4.2313Y-2.1427
X4.2677Y-2.2913
X4.3504Y-4.2332
X4.4232Y-3.9252
X4.4409Y-2.2677
X4.4587Y-3.1575
X4.4587Y-3.8583
X4.4626Y-2.811
X4.5098Y-4.0827
X4.5177Y-2.8268
X4.5295Y-3.0433
X4.5295Y-3.3051
X4.5571Y-3.7598
X4.5728Y-2.7717
X4.5728Y-3.1909
X4.6161Y-3.185
X4.628Y-3.6969
X4.6673Y-4.1811
X4.687Y-2.8583
X4.6909Y-3.0118
X4.7579Y-2.8307
T2
X4.8878Y-2.7362
X4.8878Y-2.9331
X4.8878Y-3.1299
X4.8878Y-3.6969
X4.8878Y-3.8937
X4.8878Y-4.0906
X5.0846Y-2.7362
X5.0846Y-2.9331
X5.0846Y-3.1299
X5.0846Y-3.6969
X5.0846Y-3.8937
X5.0846Y-4.0906
T3
X2.9407Y-2.1457
X2.9407Y-2.3425
X2.9407Y-2.7559
X2.9407Y-2.9528
X2.9407Y-3.1496
X2.9407Y-3.6181
X2.9407Y-3.815
X2.9407Y-4.0118
T0
M30
