%TF.GenerationSoftware,KiCad,Pcbnew,(6.0.7)*%
%TF.CreationDate,2022-11-13T12:45:05+00:00*%
%TF.ProjectId,Actice-Tone,41637469-6365-42d5-946f-6e652e6b6963,rev?*%
%TF.SameCoordinates,Original*%
%TF.FileFunction,Soldermask,Top*%
%TF.FilePolarity,Negative*%
%FSLAX46Y46*%
G04 Gerber Fmt 4.6, Leading zero omitted, Abs format (unit mm)*
G04 Created by KiCad (PCBNEW (6.0.7)) date 2022-11-13 12:45:05*
%MOMM*%
%LPD*%
G01*
G04 APERTURE LIST*
G04 Aperture macros list*
%AMRoundRect*
0 Rectangle with rounded corners*
0 $1 Rounding radius*
0 $2 $3 $4 $5 $6 $7 $8 $9 X,Y pos of 4 corners*
0 Add a 4 corners polygon primitive as box body*
4,1,4,$2,$3,$4,$5,$6,$7,$8,$9,$2,$3,0*
0 Add four circle primitives for the rounded corners*
1,1,$1+$1,$2,$3*
1,1,$1+$1,$4,$5*
1,1,$1+$1,$6,$7*
1,1,$1+$1,$8,$9*
0 Add four rect primitives between the rounded corners*
20,1,$1+$1,$2,$3,$4,$5,0*
20,1,$1+$1,$4,$5,$6,$7,0*
20,1,$1+$1,$6,$7,$8,$9,0*
20,1,$1+$1,$8,$9,$2,$3,0*%
G04 Aperture macros list end*
%ADD10RoundRect,0.250000X-0.412500X-0.650000X0.412500X-0.650000X0.412500X0.650000X-0.412500X0.650000X0*%
%ADD11RoundRect,0.250000X0.412500X0.650000X-0.412500X0.650000X-0.412500X-0.650000X0.412500X-0.650000X0*%
%ADD12R,3.000000X3.000000*%
%ADD13C,3.000000*%
%ADD14RoundRect,0.237500X0.250000X0.237500X-0.250000X0.237500X-0.250000X-0.237500X0.250000X-0.237500X0*%
%ADD15RoundRect,0.237500X-0.237500X0.250000X-0.237500X-0.250000X0.237500X-0.250000X0.237500X0.250000X0*%
%ADD16RoundRect,0.237500X-0.250000X-0.237500X0.250000X-0.237500X0.250000X0.237500X-0.250000X0.237500X0*%
%ADD17RoundRect,0.237500X0.237500X-0.250000X0.237500X0.250000X-0.237500X0.250000X-0.237500X-0.250000X0*%
%ADD18C,3.200000*%
%ADD19RoundRect,0.150000X-0.825000X-0.150000X0.825000X-0.150000X0.825000X0.150000X-0.825000X0.150000X0*%
%ADD20RoundRect,0.150000X-0.150000X0.825000X-0.150000X-0.825000X0.150000X-0.825000X0.150000X0.825000X0*%
%ADD21RoundRect,0.150000X0.587500X0.150000X-0.587500X0.150000X-0.587500X-0.150000X0.587500X-0.150000X0*%
%ADD22RoundRect,0.200000X-0.200000X-0.275000X0.200000X-0.275000X0.200000X0.275000X-0.200000X0.275000X0*%
%ADD23R,2.600000X2.600000*%
%ADD24C,2.600000*%
%ADD25R,1.100000X1.100000*%
%ADD26RoundRect,0.237500X0.237500X-0.287500X0.237500X0.287500X-0.237500X0.287500X-0.237500X-0.287500X0*%
%ADD27RoundRect,0.237500X-0.237500X0.300000X-0.237500X-0.300000X0.237500X-0.300000X0.237500X0.300000X0*%
%ADD28RoundRect,0.237500X0.300000X0.237500X-0.300000X0.237500X-0.300000X-0.237500X0.300000X-0.237500X0*%
%ADD29RoundRect,0.237500X0.237500X-0.300000X0.237500X0.300000X-0.237500X0.300000X-0.237500X-0.300000X0*%
%ADD30RoundRect,0.237500X-0.300000X-0.237500X0.300000X-0.237500X0.300000X0.237500X-0.300000X0.237500X0*%
%ADD31RoundRect,0.250000X-0.650000X0.325000X-0.650000X-0.325000X0.650000X-0.325000X0.650000X0.325000X0*%
%ADD32RoundRect,0.250000X0.650000X-0.325000X0.650000X0.325000X-0.650000X0.325000X-0.650000X-0.325000X0*%
%ADD33RoundRect,0.225000X-0.250000X0.225000X-0.250000X-0.225000X0.250000X-0.225000X0.250000X0.225000X0*%
%ADD34RoundRect,0.250000X-0.550000X1.500000X-0.550000X-1.500000X0.550000X-1.500000X0.550000X1.500000X0*%
G04 APERTURE END LIST*
D10*
%TO.C,C44*%
X81637500Y-103200000D03*
X84762500Y-103200000D03*
%TD*%
D11*
%TO.C,C43*%
X84762500Y-100800000D03*
X81637500Y-100800000D03*
%TD*%
D10*
%TO.C,C42*%
X81637500Y-93100000D03*
X84762500Y-93100000D03*
%TD*%
D11*
%TO.C,C41*%
X84762500Y-90700000D03*
X81637500Y-90700000D03*
%TD*%
%TO.C,C10*%
X88187500Y-60200000D03*
X85062500Y-60200000D03*
%TD*%
D12*
%TO.C,RV31*%
X129150000Y-103900000D03*
D13*
X129150000Y-98900000D03*
X129150000Y-93900000D03*
X124150000Y-103900000D03*
X124150000Y-98900000D03*
X124150000Y-93900000D03*
%TD*%
D12*
%TO.C,RV30*%
X129150000Y-79500000D03*
D13*
X129150000Y-74500000D03*
X129150000Y-69500000D03*
X124150000Y-79500000D03*
X124150000Y-74500000D03*
X124150000Y-69500000D03*
%TD*%
D14*
%TO.C,R57*%
X106212500Y-108400000D03*
X104387500Y-108400000D03*
%TD*%
%TO.C,R56*%
X106212500Y-110100000D03*
X104387500Y-110100000D03*
%TD*%
%TO.C,R55*%
X88412500Y-108400000D03*
X86587500Y-108400000D03*
%TD*%
%TO.C,R54*%
X88412500Y-110100000D03*
X86587500Y-110100000D03*
%TD*%
D15*
%TO.C,R53*%
X106200000Y-111825000D03*
X106200000Y-113650000D03*
%TD*%
%TO.C,R52*%
X115500000Y-109287500D03*
X115500000Y-111112500D03*
%TD*%
%TO.C,R51*%
X88400000Y-113600000D03*
X88400000Y-111775000D03*
%TD*%
%TO.C,R50*%
X97700000Y-109287500D03*
X97700000Y-111112500D03*
%TD*%
D16*
%TO.C,R43*%
X89475000Y-101400000D03*
X91300000Y-101400000D03*
%TD*%
%TO.C,R42*%
X91475000Y-92200000D03*
X93300000Y-92200000D03*
%TD*%
D14*
%TO.C,R41*%
X95125000Y-101400000D03*
X93300000Y-101400000D03*
%TD*%
%TO.C,R40*%
X97012500Y-92200000D03*
X95187500Y-92200000D03*
%TD*%
D16*
%TO.C,R37*%
X111437500Y-78900000D03*
X113262500Y-78900000D03*
%TD*%
%TO.C,R36*%
X111525000Y-70100000D03*
X113350000Y-70100000D03*
%TD*%
D14*
%TO.C,R35*%
X113250000Y-76000000D03*
X111425000Y-76000000D03*
%TD*%
%TO.C,R34*%
X113350000Y-73000000D03*
X111525000Y-73000000D03*
%TD*%
D17*
%TO.C,R33*%
X117250000Y-71312500D03*
X117250000Y-69487500D03*
%TD*%
D16*
%TO.C,R32*%
X115137500Y-73000000D03*
X116962500Y-73000000D03*
%TD*%
D14*
%TO.C,R31*%
X115137500Y-76000000D03*
X116962500Y-76000000D03*
%TD*%
D17*
%TO.C,R30*%
X117250000Y-79500000D03*
X117250000Y-77675000D03*
%TD*%
%TO.C,R23*%
X81600000Y-80000000D03*
X81600000Y-78175000D03*
%TD*%
D15*
%TO.C,R22*%
X81600000Y-71825000D03*
X81600000Y-70000000D03*
%TD*%
D14*
%TO.C,R21*%
X85525000Y-82900000D03*
X83700000Y-82900000D03*
%TD*%
%TO.C,R20*%
X85512500Y-67100000D03*
X83687500Y-67100000D03*
%TD*%
D16*
%TO.C,R14*%
X74675000Y-105900000D03*
X76500000Y-105900000D03*
%TD*%
%TO.C,R13*%
X74687500Y-87900000D03*
X76512500Y-87900000D03*
%TD*%
%TO.C,R12*%
X74687500Y-65900000D03*
X76512500Y-65900000D03*
%TD*%
%TO.C,R11*%
X74675000Y-84000000D03*
X76500000Y-84000000D03*
%TD*%
D14*
%TO.C,R10*%
X85312500Y-58000000D03*
X83487500Y-58000000D03*
%TD*%
D18*
%TO.C,H4*%
X71000000Y-113000000D03*
%TD*%
%TO.C,H3*%
X129000000Y-46000000D03*
%TD*%
%TO.C,H2*%
X129000000Y-113000000D03*
%TD*%
%TO.C,H1*%
X71000000Y-46000000D03*
%TD*%
D19*
%TO.C,U51*%
X108325000Y-109295000D03*
X108325000Y-110565000D03*
X108325000Y-111835000D03*
X108325000Y-113105000D03*
X113275000Y-113105000D03*
X113275000Y-111835000D03*
X113275000Y-110565000D03*
X113275000Y-109295000D03*
%TD*%
%TO.C,U50*%
X90525000Y-109295000D03*
X90525000Y-110565000D03*
X90525000Y-111835000D03*
X90525000Y-113105000D03*
X95475000Y-113105000D03*
X95475000Y-111835000D03*
X95475000Y-110565000D03*
X95475000Y-109295000D03*
%TD*%
D20*
%TO.C,U40*%
X93305000Y-99275000D03*
X92035000Y-99275000D03*
X90765000Y-99275000D03*
X89495000Y-99275000D03*
X89495000Y-94325000D03*
X90765000Y-94325000D03*
X92035000Y-94325000D03*
X93305000Y-94325000D03*
%TD*%
%TO.C,U30*%
X104155000Y-72525000D03*
X102885000Y-72525000D03*
X101615000Y-72525000D03*
X100345000Y-72525000D03*
X100345000Y-77475000D03*
X101615000Y-77475000D03*
X102885000Y-77475000D03*
X104155000Y-77475000D03*
%TD*%
%TO.C,U20*%
X90705000Y-72525000D03*
X89435000Y-72525000D03*
X88165000Y-72525000D03*
X86895000Y-72525000D03*
X86895000Y-77475000D03*
X88165000Y-77475000D03*
X89435000Y-77475000D03*
X90705000Y-77475000D03*
%TD*%
D21*
%TO.C,Q10*%
X85600000Y-56300000D03*
X85600000Y-54400000D03*
X83725000Y-55350000D03*
%TD*%
D22*
%TO.C,L1*%
X102400000Y-54500000D03*
X104050000Y-54500000D03*
%TD*%
D23*
%TO.C,J3*%
X74695000Y-91900000D03*
D24*
X74695000Y-96900000D03*
X74695000Y-101900000D03*
%TD*%
D23*
%TO.C,J2*%
X74695000Y-70000000D03*
D24*
X74695000Y-75000000D03*
X74695000Y-80000000D03*
%TD*%
D23*
%TO.C,J1*%
X74695000Y-54500000D03*
D24*
X74695000Y-59500000D03*
%TD*%
D25*
%TO.C,D11*%
X88100000Y-57200000D03*
X88100000Y-54400000D03*
%TD*%
D26*
%TO.C,D10*%
X81700000Y-54450000D03*
X81700000Y-56200000D03*
%TD*%
D27*
%TO.C,C53*%
X104600000Y-111875000D03*
X104600000Y-113600000D03*
%TD*%
%TO.C,C52*%
X86700000Y-111825000D03*
X86700000Y-113550000D03*
%TD*%
D28*
%TO.C,C51*%
X113300000Y-107600000D03*
X111575000Y-107600000D03*
%TD*%
%TO.C,C50*%
X95500000Y-107600000D03*
X93775000Y-107600000D03*
%TD*%
D29*
%TO.C,C40*%
X95000000Y-99262500D03*
X95000000Y-97537500D03*
%TD*%
D30*
%TO.C,C36*%
X101650000Y-79600000D03*
X103375000Y-79600000D03*
%TD*%
%TO.C,C35*%
X102425000Y-70400000D03*
X104150000Y-70400000D03*
%TD*%
%TO.C,C34*%
X117587500Y-98000000D03*
X119312500Y-98000000D03*
%TD*%
%TO.C,C33*%
X117587500Y-99700000D03*
X119312500Y-99700000D03*
%TD*%
D27*
%TO.C,C32*%
X119050000Y-69537500D03*
X119050000Y-71262500D03*
%TD*%
%TO.C,C31*%
X119050000Y-77737500D03*
X119050000Y-79462500D03*
%TD*%
D29*
%TO.C,C30*%
X105850000Y-77500000D03*
X105850000Y-75775000D03*
%TD*%
%TO.C,C22*%
X92500000Y-77400000D03*
X92500000Y-75675000D03*
%TD*%
D31*
%TO.C,C21*%
X83700000Y-78250000D03*
X83700000Y-81200000D03*
%TD*%
D32*
%TO.C,C20*%
X83700000Y-71750000D03*
X83700000Y-68800000D03*
%TD*%
D33*
%TO.C,C16*%
X114900000Y-54500000D03*
X114900000Y-56050000D03*
%TD*%
D34*
%TO.C,C15*%
X110300000Y-54500000D03*
X110300000Y-60100000D03*
%TD*%
D33*
%TO.C,C14*%
X105700000Y-54425000D03*
X105700000Y-55975000D03*
%TD*%
%TO.C,C13*%
X100700000Y-54425000D03*
X100700000Y-55975000D03*
%TD*%
D34*
%TO.C,C12*%
X96100000Y-54400000D03*
X96100000Y-60000000D03*
%TD*%
D33*
%TO.C,C11*%
X90300000Y-54400000D03*
X90300000Y-55950000D03*
%TD*%
M02*
