%TF.GenerationSoftware,KiCad,Pcbnew,(6.0.7)*%
%TF.CreationDate,2022-11-13T12:45:05+00:00*%
%TF.ProjectId,Actice-Tone,41637469-6365-42d5-946f-6e652e6b6963,rev?*%
%TF.SameCoordinates,Original*%
%TF.FileFunction,Copper,L1,Top*%
%TF.FilePolarity,Positive*%
%FSLAX46Y46*%
G04 Gerber Fmt 4.6, Leading zero omitted, Abs format (unit mm)*
G04 Created by KiCad (PCBNEW (6.0.7)) date 2022-11-13 12:45:05*
%MOMM*%
%LPD*%
G01*
G04 APERTURE LIST*
G04 Aperture macros list*
%AMRoundRect*
0 Rectangle with rounded corners*
0 $1 Rounding radius*
0 $2 $3 $4 $5 $6 $7 $8 $9 X,Y pos of 4 corners*
0 Add a 4 corners polygon primitive as box body*
4,1,4,$2,$3,$4,$5,$6,$7,$8,$9,$2,$3,0*
0 Add four circle primitives for the rounded corners*
1,1,$1+$1,$2,$3*
1,1,$1+$1,$4,$5*
1,1,$1+$1,$6,$7*
1,1,$1+$1,$8,$9*
0 Add four rect primitives between the rounded corners*
20,1,$1+$1,$2,$3,$4,$5,0*
20,1,$1+$1,$4,$5,$6,$7,0*
20,1,$1+$1,$6,$7,$8,$9,0*
20,1,$1+$1,$8,$9,$2,$3,0*%
G04 Aperture macros list end*
%TA.AperFunction,SMDPad,CuDef*%
%ADD10RoundRect,0.250000X-0.412500X-0.650000X0.412500X-0.650000X0.412500X0.650000X-0.412500X0.650000X0*%
%TD*%
%TA.AperFunction,SMDPad,CuDef*%
%ADD11RoundRect,0.250000X0.412500X0.650000X-0.412500X0.650000X-0.412500X-0.650000X0.412500X-0.650000X0*%
%TD*%
%TA.AperFunction,ComponentPad*%
%ADD12R,3.000000X3.000000*%
%TD*%
%TA.AperFunction,ComponentPad*%
%ADD13C,3.000000*%
%TD*%
%TA.AperFunction,SMDPad,CuDef*%
%ADD14RoundRect,0.237500X0.250000X0.237500X-0.250000X0.237500X-0.250000X-0.237500X0.250000X-0.237500X0*%
%TD*%
%TA.AperFunction,SMDPad,CuDef*%
%ADD15RoundRect,0.237500X-0.237500X0.250000X-0.237500X-0.250000X0.237500X-0.250000X0.237500X0.250000X0*%
%TD*%
%TA.AperFunction,SMDPad,CuDef*%
%ADD16RoundRect,0.237500X-0.250000X-0.237500X0.250000X-0.237500X0.250000X0.237500X-0.250000X0.237500X0*%
%TD*%
%TA.AperFunction,SMDPad,CuDef*%
%ADD17RoundRect,0.237500X0.237500X-0.250000X0.237500X0.250000X-0.237500X0.250000X-0.237500X-0.250000X0*%
%TD*%
%TA.AperFunction,SMDPad,CuDef*%
%ADD18RoundRect,0.150000X-0.825000X-0.150000X0.825000X-0.150000X0.825000X0.150000X-0.825000X0.150000X0*%
%TD*%
%TA.AperFunction,SMDPad,CuDef*%
%ADD19RoundRect,0.150000X-0.150000X0.825000X-0.150000X-0.825000X0.150000X-0.825000X0.150000X0.825000X0*%
%TD*%
%TA.AperFunction,SMDPad,CuDef*%
%ADD20RoundRect,0.150000X0.587500X0.150000X-0.587500X0.150000X-0.587500X-0.150000X0.587500X-0.150000X0*%
%TD*%
%TA.AperFunction,SMDPad,CuDef*%
%ADD21RoundRect,0.200000X-0.200000X-0.275000X0.200000X-0.275000X0.200000X0.275000X-0.200000X0.275000X0*%
%TD*%
%TA.AperFunction,ComponentPad*%
%ADD22R,2.600000X2.600000*%
%TD*%
%TA.AperFunction,ComponentPad*%
%ADD23C,2.600000*%
%TD*%
%TA.AperFunction,SMDPad,CuDef*%
%ADD24R,1.100000X1.100000*%
%TD*%
%TA.AperFunction,SMDPad,CuDef*%
%ADD25RoundRect,0.237500X0.237500X-0.287500X0.237500X0.287500X-0.237500X0.287500X-0.237500X-0.287500X0*%
%TD*%
%TA.AperFunction,SMDPad,CuDef*%
%ADD26RoundRect,0.237500X-0.237500X0.300000X-0.237500X-0.300000X0.237500X-0.300000X0.237500X0.300000X0*%
%TD*%
%TA.AperFunction,SMDPad,CuDef*%
%ADD27RoundRect,0.237500X0.300000X0.237500X-0.300000X0.237500X-0.300000X-0.237500X0.300000X-0.237500X0*%
%TD*%
%TA.AperFunction,SMDPad,CuDef*%
%ADD28RoundRect,0.237500X0.237500X-0.300000X0.237500X0.300000X-0.237500X0.300000X-0.237500X-0.300000X0*%
%TD*%
%TA.AperFunction,SMDPad,CuDef*%
%ADD29RoundRect,0.237500X-0.300000X-0.237500X0.300000X-0.237500X0.300000X0.237500X-0.300000X0.237500X0*%
%TD*%
%TA.AperFunction,SMDPad,CuDef*%
%ADD30RoundRect,0.250000X-0.650000X0.325000X-0.650000X-0.325000X0.650000X-0.325000X0.650000X0.325000X0*%
%TD*%
%TA.AperFunction,SMDPad,CuDef*%
%ADD31RoundRect,0.250000X0.650000X-0.325000X0.650000X0.325000X-0.650000X0.325000X-0.650000X-0.325000X0*%
%TD*%
%TA.AperFunction,SMDPad,CuDef*%
%ADD32RoundRect,0.225000X-0.250000X0.225000X-0.250000X-0.225000X0.250000X-0.225000X0.250000X0.225000X0*%
%TD*%
%TA.AperFunction,SMDPad,CuDef*%
%ADD33RoundRect,0.250000X-0.550000X1.500000X-0.550000X-1.500000X0.550000X-1.500000X0.550000X1.500000X0*%
%TD*%
%TA.AperFunction,ViaPad*%
%ADD34C,0.800000*%
%TD*%
%TA.AperFunction,Conductor*%
%ADD35C,0.500000*%
%TD*%
%TA.AperFunction,Conductor*%
%ADD36C,0.750000*%
%TD*%
G04 APERTURE END LIST*
D10*
%TO.P,C44,1*%
%TO.N,AUDIO_OUT_R*%
X81637500Y-103200000D03*
%TO.P,C44,2*%
%TO.N,Net-(R43-Pad2)*%
X84762500Y-103200000D03*
%TD*%
D11*
%TO.P,C43,1*%
%TO.N,Net-(R43-Pad2)*%
X84762500Y-100800000D03*
%TO.P,C43,2*%
%TO.N,AUDIO_OUT_R*%
X81637500Y-100800000D03*
%TD*%
D10*
%TO.P,C42,1*%
%TO.N,AUDIO_OUT_L*%
X81637500Y-93100000D03*
%TO.P,C42,2*%
%TO.N,Net-(R42-Pad2)*%
X84762500Y-93100000D03*
%TD*%
D11*
%TO.P,C41,1*%
%TO.N,Net-(R42-Pad2)*%
X84762500Y-90700000D03*
%TO.P,C41,2*%
%TO.N,AUDIO_OUT_L*%
X81637500Y-90700000D03*
%TD*%
%TO.P,C10,1*%
%TO.N,/Connections/RP_GATE*%
X88187500Y-60200000D03*
%TO.P,C10,2*%
%TO.N,GNDA*%
X85062500Y-60200000D03*
%TD*%
D12*
%TO.P,RV31,1,1*%
%TO.N,Net-(RV31-Pad1)*%
X129150000Y-103900000D03*
D13*
%TO.P,RV31,2,2*%
%TO.N,Net-(RV31-Pad2)*%
X129150000Y-98900000D03*
%TO.P,RV31,3,3*%
%TO.N,AUDIO_BUFF_L*%
X129150000Y-93900000D03*
%TO.P,RV31,4,4*%
%TO.N,Net-(RV31-Pad4)*%
X124150000Y-103900000D03*
%TO.P,RV31,5,5*%
%TO.N,Net-(RV31-Pad5)*%
X124150000Y-98900000D03*
%TO.P,RV31,6,6*%
%TO.N,AUDIO_BUFF_R*%
X124150000Y-93900000D03*
%TD*%
D12*
%TO.P,RV30,1,1*%
%TO.N,Net-(RV30-Pad1)*%
X129150000Y-79500000D03*
D13*
%TO.P,RV30,2,2*%
%TO.N,Net-(RV30-Pad2)*%
X129150000Y-74500000D03*
%TO.P,RV30,3,3*%
%TO.N,Net-(RV30-Pad3)*%
X129150000Y-69500000D03*
%TO.P,RV30,4,4*%
%TO.N,Net-(RV30-Pad4)*%
X124150000Y-79500000D03*
%TO.P,RV30,5,5*%
%TO.N,Net-(RV30-Pad5)*%
X124150000Y-74500000D03*
%TO.P,RV30,6,6*%
%TO.N,Net-(RV30-Pad6)*%
X124150000Y-69500000D03*
%TD*%
D14*
%TO.P,R57,1*%
%TO.N,Net-(U51-Pad6)*%
X106212500Y-108400000D03*
%TO.P,R57,2*%
%TO.N,BIAS_R*%
X104387500Y-108400000D03*
%TD*%
%TO.P,R56,1*%
%TO.N,Net-(U51-Pad1)*%
X106212500Y-110100000D03*
%TO.P,R56,2*%
%TO.N,BIAS_R*%
X104387500Y-110100000D03*
%TD*%
%TO.P,R55,1*%
%TO.N,Net-(U50-Pad6)*%
X88412500Y-108400000D03*
%TO.P,R55,2*%
%TO.N,BIAS_L*%
X86587500Y-108400000D03*
%TD*%
%TO.P,R54,1*%
%TO.N,Net-(U50-Pad1)*%
X88412500Y-110100000D03*
%TO.P,R54,2*%
%TO.N,BIAS_L*%
X86587500Y-110100000D03*
%TD*%
D15*
%TO.P,R53,1*%
%TO.N,Net-(U51-Pad3)*%
X106200000Y-111825000D03*
%TO.P,R53,2*%
%TO.N,GNDA*%
X106200000Y-113650000D03*
%TD*%
%TO.P,R52,1*%
%TO.N,+15V*%
X115500000Y-109287500D03*
%TO.P,R52,2*%
%TO.N,Net-(U51-Pad3)*%
X115500000Y-111112500D03*
%TD*%
%TO.P,R51,2*%
%TO.N,GNDA*%
X88400000Y-113600000D03*
%TO.P,R51,1*%
%TO.N,Net-(U50-Pad3)*%
X88400000Y-111775000D03*
%TD*%
%TO.P,R50,1*%
%TO.N,+15V*%
X97700000Y-109287500D03*
%TO.P,R50,2*%
%TO.N,Net-(U50-Pad3)*%
X97700000Y-111112500D03*
%TD*%
D16*
%TO.P,R43,1*%
%TO.N,Net-(R43-Pad1)*%
X89475000Y-101400000D03*
%TO.P,R43,2*%
%TO.N,Net-(R43-Pad2)*%
X91300000Y-101400000D03*
%TD*%
%TO.P,R42,1*%
%TO.N,Net-(R42-Pad1)*%
X91475000Y-92200000D03*
%TO.P,R42,2*%
%TO.N,Net-(R42-Pad2)*%
X93300000Y-92200000D03*
%TD*%
D14*
%TO.P,R41,1*%
%TO.N,TONE_OUT_R*%
X95125000Y-101400000D03*
%TO.P,R41,2*%
%TO.N,Net-(R41-Pad2)*%
X93300000Y-101400000D03*
%TD*%
%TO.P,R40,1*%
%TO.N,TONE_OUT_L*%
X97012500Y-92200000D03*
%TO.P,R40,2*%
%TO.N,Net-(R40-Pad2)*%
X95187500Y-92200000D03*
%TD*%
D16*
%TO.P,R37,1*%
%TO.N,Net-(C36-Pad1)*%
X111437500Y-78900000D03*
%TO.P,R37,2*%
%TO.N,Net-(C34-Pad1)*%
X113262500Y-78900000D03*
%TD*%
%TO.P,R36,1*%
%TO.N,Net-(C35-Pad1)*%
X111525000Y-70100000D03*
%TO.P,R36,2*%
%TO.N,Net-(C33-Pad1)*%
X113350000Y-70100000D03*
%TD*%
D14*
%TO.P,R35,1*%
%TO.N,Net-(RV30-Pad5)*%
X113250000Y-76000000D03*
%TO.P,R35,2*%
%TO.N,Net-(C36-Pad1)*%
X111425000Y-76000000D03*
%TD*%
%TO.P,R34,1*%
%TO.N,Net-(RV30-Pad2)*%
X113350000Y-73000000D03*
%TO.P,R34,2*%
%TO.N,Net-(C35-Pad1)*%
X111525000Y-73000000D03*
%TD*%
D17*
%TO.P,R33,1*%
%TO.N,Net-(RV30-Pad6)*%
X117250000Y-71312500D03*
%TO.P,R33,2*%
%TO.N,AUDIO_BUFF_R*%
X117250000Y-69487500D03*
%TD*%
D16*
%TO.P,R32,1*%
%TO.N,Net-(RV31-Pad4)*%
X115137500Y-73000000D03*
%TO.P,R32,2*%
%TO.N,Net-(RV30-Pad4)*%
X116962500Y-73000000D03*
%TD*%
D14*
%TO.P,R31,2*%
%TO.N,AUDIO_BUFF_L*%
X115137500Y-76000000D03*
%TO.P,R31,1*%
%TO.N,Net-(RV30-Pad3)*%
X116962500Y-76000000D03*
%TD*%
D17*
%TO.P,R30,1*%
%TO.N,Net-(RV31-Pad1)*%
X117250000Y-79500000D03*
%TO.P,R30,2*%
%TO.N,Net-(RV30-Pad1)*%
X117250000Y-77675000D03*
%TD*%
%TO.P,R23,1*%
%TO.N,AUDIO_IN_R*%
X81600000Y-80000000D03*
%TO.P,R23,2*%
%TO.N,Net-(R23-Pad2)*%
X81600000Y-78175000D03*
%TD*%
D15*
%TO.P,R22,2*%
%TO.N,Net-(R22-Pad2)*%
X81600000Y-71825000D03*
%TO.P,R22,1*%
%TO.N,AUDIO_IN_L*%
X81600000Y-70000000D03*
%TD*%
D14*
%TO.P,R21,1*%
%TO.N,BIAS_R*%
X85525000Y-82900000D03*
%TO.P,R21,2*%
%TO.N,Net-(R21-Pad2)*%
X83700000Y-82900000D03*
%TD*%
%TO.P,R20,1*%
%TO.N,BIAS_L*%
X85512500Y-67100000D03*
%TO.P,R20,2*%
%TO.N,Net-(R20-Pad2)*%
X83687500Y-67100000D03*
%TD*%
D16*
%TO.P,R14,1*%
%TO.N,AUDIO_OUT_R*%
X74675000Y-105900000D03*
%TO.P,R14,2*%
%TO.N,GNDA*%
X76500000Y-105900000D03*
%TD*%
%TO.P,R13,1*%
%TO.N,AUDIO_OUT_L*%
X74687500Y-87900000D03*
%TO.P,R13,2*%
%TO.N,GNDA*%
X76512500Y-87900000D03*
%TD*%
%TO.P,R12,1*%
%TO.N,AUDIO_IN_L*%
X74687500Y-65900000D03*
%TO.P,R12,2*%
%TO.N,GNDA*%
X76512500Y-65900000D03*
%TD*%
%TO.P,R11,1*%
%TO.N,AUDIO_IN_R*%
X74675000Y-84000000D03*
%TO.P,R11,2*%
%TO.N,GNDA*%
X76500000Y-84000000D03*
%TD*%
D14*
%TO.P,R10,1*%
%TO.N,/Connections/RP_GATE*%
X85312500Y-58000000D03*
%TO.P,R10,2*%
%TO.N,GNDA*%
X83487500Y-58000000D03*
%TD*%
D18*
%TO.P,U51,1*%
%TO.N,Net-(U51-Pad1)*%
X108325000Y-109295000D03*
%TO.P,U51,2,-*%
X108325000Y-110565000D03*
%TO.P,U51,3,+*%
%TO.N,Net-(U51-Pad3)*%
X108325000Y-111835000D03*
%TO.P,U51,4,V-*%
%TO.N,GNDA*%
X108325000Y-113105000D03*
%TO.P,U51,5,+*%
%TO.N,Net-(U51-Pad3)*%
X113275000Y-113105000D03*
%TO.P,U51,6,-*%
%TO.N,Net-(U51-Pad6)*%
X113275000Y-111835000D03*
%TO.P,U51,7*%
X113275000Y-110565000D03*
%TO.P,U51,8,V+*%
%TO.N,+15V*%
X113275000Y-109295000D03*
%TD*%
%TO.P,U50,1*%
%TO.N,Net-(U50-Pad1)*%
X90525000Y-109295000D03*
%TO.P,U50,2,-*%
X90525000Y-110565000D03*
%TO.P,U50,3,+*%
%TO.N,Net-(U50-Pad3)*%
X90525000Y-111835000D03*
%TO.P,U50,4,V-*%
%TO.N,GNDA*%
X90525000Y-113105000D03*
%TO.P,U50,5,+*%
%TO.N,Net-(U50-Pad3)*%
X95475000Y-113105000D03*
%TO.P,U50,6,-*%
%TO.N,Net-(U50-Pad6)*%
X95475000Y-111835000D03*
%TO.P,U50,7*%
X95475000Y-110565000D03*
%TO.P,U50,8,V+*%
%TO.N,+15V*%
X95475000Y-109295000D03*
%TD*%
D19*
%TO.P,U40,8,V+*%
%TO.N,+15V*%
X93305000Y-99275000D03*
%TO.P,U40,7*%
%TO.N,Net-(R43-Pad2)*%
X92035000Y-99275000D03*
%TO.P,U40,6,-*%
%TO.N,Net-(R41-Pad2)*%
X90765000Y-99275000D03*
%TO.P,U40,5,+*%
%TO.N,Net-(R43-Pad1)*%
X89495000Y-99275000D03*
%TO.P,U40,4,V-*%
%TO.N,GNDA*%
X89495000Y-94325000D03*
%TO.P,U40,3,+*%
%TO.N,Net-(R42-Pad1)*%
X90765000Y-94325000D03*
%TO.P,U40,2,-*%
%TO.N,Net-(R40-Pad2)*%
X92035000Y-94325000D03*
%TO.P,U40,1*%
%TO.N,Net-(R42-Pad2)*%
X93305000Y-94325000D03*
%TD*%
%TO.P,U30,1*%
%TO.N,TONE_OUT_L*%
X104155000Y-72525000D03*
%TO.P,U30,2,-*%
%TO.N,Net-(C35-Pad1)*%
X102885000Y-72525000D03*
%TO.P,U30,3,+*%
%TO.N,BIAS_L*%
X101615000Y-72525000D03*
%TO.P,U30,4,V-*%
%TO.N,GNDA*%
X100345000Y-72525000D03*
%TO.P,U30,5,+*%
%TO.N,BIAS_R*%
X100345000Y-77475000D03*
%TO.P,U30,6,-*%
%TO.N,Net-(C36-Pad1)*%
X101615000Y-77475000D03*
%TO.P,U30,7*%
%TO.N,TONE_OUT_R*%
X102885000Y-77475000D03*
%TO.P,U30,8,V+*%
%TO.N,+15V*%
X104155000Y-77475000D03*
%TD*%
%TO.P,U20,1*%
%TO.N,AUDIO_BUFF_L*%
X90705000Y-72525000D03*
%TO.P,U20,2,-*%
X89435000Y-72525000D03*
%TO.P,U20,3,+*%
%TO.N,Net-(R20-Pad2)*%
X88165000Y-72525000D03*
%TO.P,U20,4,V-*%
%TO.N,GNDA*%
X86895000Y-72525000D03*
%TO.P,U20,5,+*%
%TO.N,Net-(R21-Pad2)*%
X86895000Y-77475000D03*
%TO.P,U20,6,-*%
%TO.N,AUDIO_BUFF_R*%
X88165000Y-77475000D03*
%TO.P,U20,7*%
X89435000Y-77475000D03*
%TO.P,U20,8,V+*%
%TO.N,+15V*%
X90705000Y-77475000D03*
%TD*%
D20*
%TO.P,Q10,1,G*%
%TO.N,/Connections/RP_GATE*%
X85600000Y-56300000D03*
%TO.P,Q10,2,S*%
%TO.N,/Connections/VIN*%
X85600000Y-54400000D03*
%TO.P,Q10,3,D*%
%TO.N,/Connections/VIN_RAW*%
X83725000Y-55350000D03*
%TD*%
D21*
%TO.P,L1,1,1*%
%TO.N,/Connections/VIN*%
X102400000Y-54500000D03*
%TO.P,L1,2,2*%
%TO.N,+15V*%
X104050000Y-54500000D03*
%TD*%
D22*
%TO.P,J3,1,Pin_1*%
%TO.N,AUDIO_OUT_L*%
X74695000Y-91900000D03*
D23*
%TO.P,J3,2,Pin_2*%
%TO.N,GNDA*%
X74695000Y-96900000D03*
%TO.P,J3,3,Pin_3*%
%TO.N,AUDIO_OUT_R*%
X74695000Y-101900000D03*
%TD*%
D22*
%TO.P,J2,1,Pin_1*%
%TO.N,AUDIO_IN_L*%
X74695000Y-70000000D03*
D23*
%TO.P,J2,2,Pin_2*%
%TO.N,GNDA*%
X74695000Y-75000000D03*
%TO.P,J2,3,Pin_3*%
%TO.N,AUDIO_IN_R*%
X74695000Y-80000000D03*
%TD*%
D22*
%TO.P,J1,1,Pin_1*%
%TO.N,/Connections/VIN_RAW*%
X74695000Y-54500000D03*
D23*
%TO.P,J1,2,Pin_2*%
%TO.N,GNDA*%
X74695000Y-59500000D03*
%TD*%
D24*
%TO.P,D11,2,A*%
%TO.N,/Connections/RP_GATE*%
X88100000Y-57200000D03*
%TO.P,D11,1,K*%
%TO.N,/Connections/VIN*%
X88100000Y-54400000D03*
%TD*%
D25*
%TO.P,D10,2,A2*%
%TO.N,/Connections/VIN_RAW*%
X81700000Y-54450000D03*
%TO.P,D10,1,A1*%
%TO.N,GNDA*%
X81700000Y-56200000D03*
%TD*%
D26*
%TO.P,C53,1*%
%TO.N,Net-(U51-Pad3)*%
X104600000Y-111875000D03*
%TO.P,C53,2*%
%TO.N,GNDA*%
X104600000Y-113600000D03*
%TD*%
%TO.P,C52,1*%
%TO.N,Net-(U50-Pad3)*%
X86700000Y-111825000D03*
%TO.P,C52,2*%
%TO.N,GNDA*%
X86700000Y-113550000D03*
%TD*%
D27*
%TO.P,C51,1*%
%TO.N,+15V*%
X113300000Y-107600000D03*
%TO.P,C51,2*%
%TO.N,GNDA*%
X111575000Y-107600000D03*
%TD*%
%TO.P,C50,1*%
%TO.N,+15V*%
X95500000Y-107600000D03*
%TO.P,C50,2*%
%TO.N,GNDA*%
X93775000Y-107600000D03*
%TD*%
D28*
%TO.P,C40,1*%
%TO.N,+15V*%
X95000000Y-99262500D03*
%TO.P,C40,2*%
%TO.N,GNDA*%
X95000000Y-97537500D03*
%TD*%
D29*
%TO.P,C36,1*%
%TO.N,Net-(C36-Pad1)*%
X101650000Y-79600000D03*
%TO.P,C36,2*%
%TO.N,TONE_OUT_R*%
X103375000Y-79600000D03*
%TD*%
%TO.P,C35,1*%
%TO.N,Net-(C35-Pad1)*%
X102425000Y-70400000D03*
%TO.P,C35,2*%
%TO.N,TONE_OUT_L*%
X104150000Y-70400000D03*
%TD*%
%TO.P,C34,1*%
%TO.N,Net-(C34-Pad1)*%
X117587500Y-98000000D03*
%TO.P,C34,2*%
%TO.N,Net-(RV31-Pad5)*%
X119312500Y-98000000D03*
%TD*%
%TO.P,C33,1*%
%TO.N,Net-(C33-Pad1)*%
X117587500Y-99700000D03*
%TO.P,C33,2*%
%TO.N,Net-(RV31-Pad2)*%
X119312500Y-99700000D03*
%TD*%
D26*
%TO.P,C32,1*%
%TO.N,Net-(RV30-Pad6)*%
X119050000Y-69537500D03*
%TO.P,C32,2*%
%TO.N,Net-(RV30-Pad4)*%
X119050000Y-71262500D03*
%TD*%
%TO.P,C31,1*%
%TO.N,Net-(RV30-Pad3)*%
X119050000Y-77737500D03*
%TO.P,C31,2*%
%TO.N,Net-(RV30-Pad1)*%
X119050000Y-79462500D03*
%TD*%
D28*
%TO.P,C30,1*%
%TO.N,+15V*%
X105850000Y-77500000D03*
%TO.P,C30,2*%
%TO.N,GNDA*%
X105850000Y-75775000D03*
%TD*%
%TO.P,C22,1*%
%TO.N,+15V*%
X92500000Y-77400000D03*
%TO.P,C22,2*%
%TO.N,GNDA*%
X92500000Y-75675000D03*
%TD*%
D30*
%TO.P,C21,1*%
%TO.N,Net-(R23-Pad2)*%
X83700000Y-78250000D03*
%TO.P,C21,2*%
%TO.N,Net-(R21-Pad2)*%
X83700000Y-81200000D03*
%TD*%
D31*
%TO.P,C20,1*%
%TO.N,Net-(R22-Pad2)*%
X83700000Y-71750000D03*
%TO.P,C20,2*%
%TO.N,Net-(R20-Pad2)*%
X83700000Y-68800000D03*
%TD*%
D32*
%TO.P,C16,1*%
%TO.N,+15V*%
X114900000Y-54500000D03*
%TO.P,C16,2*%
%TO.N,GNDA*%
X114900000Y-56050000D03*
%TD*%
D33*
%TO.P,C15,1*%
%TO.N,+15V*%
X110300000Y-54500000D03*
%TO.P,C15,2*%
%TO.N,GNDA*%
X110300000Y-60100000D03*
%TD*%
D32*
%TO.P,C14,1*%
%TO.N,+15V*%
X105700000Y-54425000D03*
%TO.P,C14,2*%
%TO.N,GNDA*%
X105700000Y-55975000D03*
%TD*%
%TO.P,C13,1*%
%TO.N,/Connections/VIN*%
X100700000Y-54425000D03*
%TO.P,C13,2*%
%TO.N,GNDA*%
X100700000Y-55975000D03*
%TD*%
D33*
%TO.P,C12,1*%
%TO.N,/Connections/VIN*%
X96100000Y-54400000D03*
%TO.P,C12,2*%
%TO.N,GNDA*%
X96100000Y-60000000D03*
%TD*%
D32*
%TO.P,C11,1*%
%TO.N,/Connections/VIN*%
X90300000Y-54400000D03*
%TO.P,C11,2*%
%TO.N,GNDA*%
X90300000Y-55950000D03*
%TD*%
D34*
%TO.N,GNDA*%
X83550000Y-59450000D03*
X81900000Y-59500000D03*
X92400000Y-107500000D03*
X89350000Y-113450000D03*
X107200000Y-113600000D03*
X110500000Y-107524500D03*
X96000000Y-97000000D03*
%TO.N,+15V*%
X95900000Y-99300000D03*
X95500000Y-106000000D03*
%TO.N,GNDA*%
X89100000Y-92500000D03*
X85400000Y-113500000D03*
X78000000Y-105900000D03*
X105800000Y-74600000D03*
X99400000Y-72200000D03*
X85200000Y-73500000D03*
X90600000Y-75200000D03*
%TO.N,+15V*%
X92800000Y-78800000D03*
%TO.N,GNDA*%
X112800000Y-57600000D03*
X108400000Y-58200000D03*
X99787500Y-56887500D03*
X92600000Y-56500000D03*
X76500000Y-86600000D03*
X76500000Y-85300000D03*
X77600000Y-65900000D03*
%TO.N,BIAS_L*%
X86500000Y-67100000D03*
X86600000Y-107200000D03*
%TO.N,BIAS_R*%
X100500000Y-108500000D03*
X100400000Y-80100000D03*
X100300000Y-82800000D03*
%TO.N,AUDIO_BUFF_R*%
X116150000Y-81050000D03*
%TO.N,AUDIO_BUFF_L*%
X115050000Y-83950000D03*
X93700000Y-72500000D03*
X93700000Y-84000000D03*
%TO.N,+15V*%
X107100000Y-76800000D03*
X107475000Y-54425000D03*
X107100000Y-62800000D03*
X92800000Y-97400000D03*
X92700000Y-63300000D03*
%TO.N,TONE_OUT_R*%
X104400000Y-101300000D03*
X105049500Y-79600000D03*
%TO.N,TONE_OUT_L*%
X104100000Y-92000000D03*
X104200000Y-74000000D03*
%TO.N,Net-(R41-Pad2)*%
X90800000Y-97600000D03*
X92600000Y-102600000D03*
%TO.N,Net-(RV31-Pad1)*%
X117250000Y-80900000D03*
X118550000Y-106200000D03*
%TO.N,Net-(RV31-Pad4)*%
X114550000Y-103700000D03*
X114750000Y-71800000D03*
%TO.N,AUDIO_BUFF_L*%
X115050000Y-77300000D03*
X115750000Y-95500000D03*
%TO.N,AUDIO_BUFF_R*%
X116150000Y-70400000D03*
X117550000Y-93900000D03*
%TO.N,Net-(C33-Pad1)*%
X113350000Y-71400000D03*
X112350000Y-99700000D03*
%TO.N,Net-(C34-Pad1)*%
X113250000Y-80200000D03*
X113250000Y-98000000D03*
%TO.N,Net-(RV30-Pad4)*%
X119050000Y-72600000D03*
%TO.N,Net-(RV30-Pad3)*%
X120850000Y-71900000D03*
X119150000Y-76500000D03*
%TD*%
D35*
%TO.N,GNDA*%
X83550000Y-59450000D02*
X84300000Y-60200000D01*
X81900000Y-59500000D02*
X83375000Y-59500000D01*
X92500000Y-107600000D02*
X92400000Y-107500000D01*
X93775000Y-107600000D02*
X92500000Y-107600000D01*
X89350000Y-113450000D02*
X89200000Y-113600000D01*
X107200000Y-113600000D02*
X107100000Y-113700000D01*
X110575500Y-107600000D02*
X110500000Y-107524500D01*
X111575000Y-107600000D02*
X110575500Y-107600000D01*
X95462500Y-97537500D02*
X96000000Y-97000000D01*
X95000000Y-97537500D02*
X95462500Y-97537500D01*
%TO.N,+15V*%
X95900000Y-99300000D02*
X95037500Y-99300000D01*
X95037500Y-99300000D02*
X95000000Y-99262500D01*
X95500000Y-106740000D02*
X95500000Y-106000000D01*
%TO.N,GNDA*%
X89495000Y-92895000D02*
X89100000Y-92500000D01*
X89495000Y-94325000D02*
X89495000Y-92895000D01*
X85450000Y-113550000D02*
X85400000Y-113500000D01*
X86700000Y-113550000D02*
X85450000Y-113550000D01*
X76500000Y-105900000D02*
X78000000Y-105900000D01*
X105850000Y-74650000D02*
X105800000Y-74600000D01*
X105850000Y-75775000D02*
X105850000Y-74650000D01*
X100345000Y-74245000D02*
X100345000Y-72525000D01*
X101875000Y-75775000D02*
X100345000Y-74245000D01*
X105850000Y-75775000D02*
X101875000Y-75775000D01*
X99725000Y-72525000D02*
X99400000Y-72200000D01*
X100345000Y-72525000D02*
X99725000Y-72525000D01*
X86175000Y-72525000D02*
X85200000Y-73500000D01*
X86895000Y-72525000D02*
X86175000Y-72525000D01*
X91075000Y-75675000D02*
X90600000Y-75200000D01*
X92500000Y-75675000D02*
X91075000Y-75675000D01*
%TO.N,+15V*%
X92500000Y-78500000D02*
X92800000Y-78800000D01*
X92500000Y-77400000D02*
X92500000Y-78500000D01*
%TO.N,GNDA*%
X112800000Y-57600000D02*
X114350000Y-56050000D01*
X108400000Y-58200000D02*
X106175000Y-55975000D01*
X99787500Y-56887500D02*
X100700000Y-55975000D01*
X92600000Y-56500000D02*
X92050000Y-55950000D01*
X76500000Y-86600000D02*
X76500000Y-87887500D01*
X76500000Y-85300000D02*
X76500000Y-86600000D01*
X76512500Y-65900000D02*
X77600000Y-65900000D01*
%TO.N,BIAS_L*%
X85512500Y-67100000D02*
X86500000Y-67100000D01*
X86587500Y-107212500D02*
X86600000Y-107200000D01*
X86500000Y-67100000D02*
X96743528Y-67100000D01*
X86587500Y-108400000D02*
X86587500Y-107212500D01*
%TO.N,BIAS_R*%
X104287500Y-108500000D02*
X104387500Y-108400000D01*
X100500000Y-108500000D02*
X104287500Y-108500000D01*
X100200000Y-82900000D02*
X85525000Y-82900000D01*
X100300000Y-82800000D02*
X100200000Y-82900000D01*
X100345000Y-80045000D02*
X100400000Y-80100000D01*
X100345000Y-77475000D02*
X100345000Y-80045000D01*
%TO.N,AUDIO_BUFF_R*%
X113700000Y-81500000D02*
X90000000Y-81500000D01*
X90000000Y-81500000D02*
X89435000Y-80935000D01*
X89435000Y-77475000D02*
X89435000Y-80935000D01*
X114150000Y-81050000D02*
X113700000Y-81500000D01*
X116150000Y-81050000D02*
X114150000Y-81050000D01*
%TO.N,AUDIO_BUFF_L*%
X115000000Y-84000000D02*
X115050000Y-83950000D01*
X93700000Y-84000000D02*
X115000000Y-84000000D01*
X93675000Y-72525000D02*
X93700000Y-72500000D01*
X90705000Y-72525000D02*
X93675000Y-72525000D01*
%TO.N,+15V*%
X106400000Y-77500000D02*
X107100000Y-76800000D01*
X105850000Y-77500000D02*
X106400000Y-77500000D01*
X105700000Y-54425000D02*
X107475000Y-54425000D01*
X93200000Y-62800000D02*
X107100000Y-62800000D01*
X93305000Y-97905000D02*
X92800000Y-97400000D01*
X92700000Y-63300000D02*
X93200000Y-62800000D01*
X93305000Y-99275000D02*
X93305000Y-97905000D01*
X107475000Y-54425000D02*
X110225000Y-54425000D01*
%TO.N,TONE_OUT_R*%
X104400000Y-101300000D02*
X95225000Y-101300000D01*
X103375000Y-79600000D02*
X105049500Y-79600000D01*
X95225000Y-101300000D02*
X95125000Y-101400000D01*
%TO.N,TONE_OUT_L*%
X104100000Y-92000000D02*
X103900000Y-92200000D01*
X103900000Y-92200000D02*
X97012500Y-92200000D01*
X104155000Y-73955000D02*
X104200000Y-74000000D01*
X104155000Y-72525000D02*
X104155000Y-73955000D01*
%TO.N,BIAS_L*%
X96743528Y-67100000D02*
X101615000Y-71971472D01*
X101615000Y-71971472D02*
X101615000Y-72525000D01*
%TO.N,Net-(R42-Pad2)*%
X85325000Y-91275000D02*
X84762500Y-91837500D01*
X92375000Y-91275000D02*
X85325000Y-91275000D01*
X84762500Y-91837500D02*
X84762500Y-90700000D01*
X93300000Y-92200000D02*
X92375000Y-91275000D01*
X84762500Y-93100000D02*
X84762500Y-91837500D01*
%TO.N,Net-(R43-Pad2)*%
X91300000Y-101400000D02*
X90375000Y-102325000D01*
X84762500Y-102062500D02*
X84762500Y-100800000D01*
X85025000Y-102325000D02*
X84762500Y-102062500D01*
X84762500Y-103200000D02*
X84762500Y-102062500D01*
X90375000Y-102325000D02*
X85025000Y-102325000D01*
%TO.N,Net-(R41-Pad2)*%
X90800000Y-99240000D02*
X90765000Y-99275000D01*
X90800000Y-97600000D02*
X90800000Y-99240000D01*
X93300000Y-101900000D02*
X92600000Y-102600000D01*
X93300000Y-101400000D02*
X93300000Y-101900000D01*
%TO.N,Net-(R40-Pad2)*%
X94400000Y-95900000D02*
X95187500Y-95112500D01*
X92700000Y-95900000D02*
X94400000Y-95900000D01*
X92035000Y-95235000D02*
X92700000Y-95900000D01*
X92035000Y-94325000D02*
X92035000Y-95235000D01*
X95187500Y-95112500D02*
X95187500Y-92200000D01*
%TO.N,Net-(R43-Pad2)*%
X92035000Y-100665000D02*
X91300000Y-101400000D01*
X92035000Y-99275000D02*
X92035000Y-100665000D01*
%TO.N,Net-(R43-Pad1)*%
X89495000Y-101380000D02*
X89475000Y-101400000D01*
X89495000Y-99275000D02*
X89495000Y-101380000D01*
%TO.N,Net-(R42-Pad1)*%
X90765000Y-94325000D02*
X90765000Y-92910000D01*
X90765000Y-92910000D02*
X91475000Y-92200000D01*
%TO.N,Net-(R42-Pad2)*%
X93305000Y-92205000D02*
X93300000Y-92200000D01*
X93305000Y-94325000D02*
X93305000Y-92205000D01*
%TO.N,+15V*%
X93317500Y-99262500D02*
X93305000Y-99275000D01*
X95000000Y-99262500D02*
X93317500Y-99262500D01*
%TO.N,AUDIO_OUT_R*%
X74695000Y-101900000D02*
X81500000Y-101900000D01*
X81637500Y-102037500D02*
X81637500Y-100800000D01*
X81637500Y-103200000D02*
X81637500Y-102037500D01*
X81500000Y-101900000D02*
X81637500Y-102037500D01*
%TO.N,AUDIO_OUT_L*%
X74695000Y-91900000D02*
X81500000Y-91900000D01*
X81500000Y-91900000D02*
X81637500Y-92037500D01*
X81637500Y-92037500D02*
X81637500Y-90700000D01*
X81637500Y-93100000D02*
X81637500Y-92037500D01*
%TO.N,AUDIO_OUT_R*%
X74675000Y-101920000D02*
X74695000Y-101900000D01*
X74675000Y-105900000D02*
X74675000Y-101920000D01*
%TO.N,GNDA*%
X76500000Y-84000000D02*
X76500000Y-85300000D01*
X76500000Y-87887500D02*
X76512500Y-87900000D01*
%TO.N,AUDIO_OUT_L*%
X74695000Y-87907500D02*
X74687500Y-87900000D01*
X74695000Y-91900000D02*
X74695000Y-87907500D01*
%TO.N,Net-(C35-Pad1)*%
X103050000Y-69400000D02*
X110825000Y-69400000D01*
X102425000Y-70025000D02*
X103050000Y-69400000D01*
X110825000Y-69400000D02*
X111525000Y-70100000D01*
X102425000Y-70400000D02*
X102425000Y-70025000D01*
X102885000Y-70860000D02*
X102425000Y-70400000D01*
X102885000Y-72525000D02*
X102885000Y-70860000D01*
%TO.N,TONE_OUT_L*%
X104155000Y-70405000D02*
X104150000Y-70400000D01*
X104155000Y-72525000D02*
X104155000Y-70405000D01*
%TO.N,Net-(C36-Pad1)*%
X109812500Y-80525000D02*
X111437500Y-78900000D01*
X102575000Y-80525000D02*
X109812500Y-80525000D01*
X101650000Y-79600000D02*
X102575000Y-80525000D01*
%TO.N,TONE_OUT_R*%
X102885000Y-79110000D02*
X103375000Y-79600000D01*
X102885000Y-77475000D02*
X102885000Y-79110000D01*
%TO.N,Net-(C36-Pad1)*%
X101650000Y-77510000D02*
X101615000Y-77475000D01*
X101650000Y-79600000D02*
X101650000Y-77510000D01*
%TO.N,Net-(RV31-Pad1)*%
X117250000Y-80900000D02*
X117250000Y-79500000D01*
X129150000Y-103900000D02*
X126850000Y-106200000D01*
X126850000Y-106200000D02*
X118550000Y-106200000D01*
%TO.N,Net-(RV31-Pad4)*%
X114750000Y-72612500D02*
X115137500Y-73000000D01*
X114750000Y-71800000D02*
X114750000Y-72612500D01*
X114750000Y-103900000D02*
X114550000Y-103700000D01*
X124150000Y-103900000D02*
X114750000Y-103900000D01*
%TO.N,AUDIO_BUFF_L*%
X115050000Y-76087500D02*
X115137500Y-76000000D01*
X115050000Y-77300000D02*
X115050000Y-76087500D01*
X116197839Y-95947839D02*
X115750000Y-95500000D01*
X127102161Y-95947839D02*
X116197839Y-95947839D01*
X129150000Y-93900000D02*
X127102161Y-95947839D01*
%TO.N,AUDIO_BUFF_R*%
X116337500Y-70400000D02*
X117250000Y-69487500D01*
X116150000Y-70400000D02*
X116337500Y-70400000D01*
X124150000Y-93900000D02*
X117550000Y-93900000D01*
%TO.N,Net-(C33-Pad1)*%
X113350000Y-71400000D02*
X113350000Y-70100000D01*
X117587500Y-99700000D02*
X112350000Y-99700000D01*
%TO.N,Net-(C34-Pad1)*%
X113250000Y-78912500D02*
X113262500Y-78900000D01*
X113250000Y-80200000D02*
X113250000Y-78912500D01*
X117587500Y-98000000D02*
X113250000Y-98000000D01*
%TO.N,Net-(RV31-Pad5)*%
X123250000Y-98000000D02*
X124150000Y-98900000D01*
X119312500Y-98000000D02*
X123250000Y-98000000D01*
%TO.N,Net-(RV31-Pad2)*%
X129150000Y-100000000D02*
X129150000Y-98900000D01*
X122950000Y-101100000D02*
X128050000Y-101100000D01*
X128050000Y-101100000D02*
X129150000Y-100000000D01*
X121550000Y-99700000D02*
X122950000Y-101100000D01*
X119312500Y-99700000D02*
X121550000Y-99700000D01*
D36*
%TO.N,Net-(C36-Pad1)*%
X111437500Y-76012500D02*
X111425000Y-76000000D01*
X111437500Y-78900000D02*
X111437500Y-76012500D01*
D35*
%TO.N,Net-(C35-Pad1)*%
X111525000Y-73000000D02*
X111525000Y-70100000D01*
%TO.N,Net-(RV30-Pad5)*%
X123950000Y-74700000D02*
X124150000Y-74500000D01*
X114550000Y-74700000D02*
X123950000Y-74700000D01*
X113250000Y-76000000D02*
X114550000Y-74700000D01*
%TO.N,Net-(RV30-Pad2)*%
X114350000Y-74000000D02*
X113350000Y-73000000D01*
X121450000Y-74000000D02*
X114350000Y-74000000D01*
X123050000Y-72400000D02*
X121450000Y-74000000D01*
X127050000Y-72400000D02*
X123050000Y-72400000D01*
X129150000Y-74500000D02*
X127050000Y-72400000D01*
%TO.N,Net-(RV30-Pad3)*%
X127150000Y-71500000D02*
X129150000Y-69500000D01*
X121250000Y-71500000D02*
X127150000Y-71500000D01*
X120850000Y-71900000D02*
X121250000Y-71500000D01*
X118650000Y-76000000D02*
X116962500Y-76000000D01*
%TO.N,Net-(RV30-Pad4)*%
X118650000Y-73000000D02*
X116962500Y-73000000D01*
%TO.N,Net-(RV30-Pad3)*%
X118650000Y-76000000D02*
X119150000Y-76500000D01*
%TO.N,Net-(RV30-Pad4)*%
X118650000Y-73000000D02*
X119050000Y-72600000D01*
%TO.N,Net-(RV30-Pad1)*%
X117262500Y-77675000D02*
X119050000Y-79462500D01*
X117250000Y-77675000D02*
X117262500Y-77675000D01*
%TO.N,Net-(RV30-Pad6)*%
X117275000Y-71312500D02*
X119050000Y-69537500D01*
X117250000Y-71312500D02*
X117275000Y-71312500D01*
%TO.N,Net-(RV30-Pad4)*%
X119050000Y-72600000D02*
X119050000Y-71262500D01*
%TO.N,Net-(RV30-Pad3)*%
X119150000Y-77637500D02*
X119050000Y-77737500D01*
X119150000Y-76500000D02*
X119150000Y-77637500D01*
%TO.N,Net-(RV30-Pad1)*%
X127050000Y-82400000D02*
X129150000Y-80300000D01*
X129150000Y-80300000D02*
X129150000Y-79500000D01*
X122050000Y-82400000D02*
X127050000Y-82400000D01*
X119112500Y-79462500D02*
X122050000Y-82400000D01*
X119050000Y-79462500D02*
X119112500Y-79462500D01*
%TO.N,Net-(RV30-Pad6)*%
X119087500Y-69500000D02*
X124150000Y-69500000D01*
X119050000Y-69537500D02*
X119087500Y-69500000D01*
%TO.N,+15V*%
X105825000Y-77475000D02*
X105850000Y-77500000D01*
X104155000Y-77475000D02*
X105825000Y-77475000D01*
X95500000Y-106740000D02*
X95565000Y-106675000D01*
X95500000Y-107600000D02*
X95500000Y-106740000D01*
X112375000Y-106675000D02*
X95565000Y-106675000D01*
X113300000Y-107600000D02*
X112375000Y-106675000D01*
%TO.N,Net-(U51-Pad3)*%
X110505000Y-113105000D02*
X113275000Y-113105000D01*
X109235000Y-111835000D02*
X110505000Y-113105000D01*
X108325000Y-111835000D02*
X109235000Y-111835000D01*
X106210000Y-111835000D02*
X106200000Y-111825000D01*
X108325000Y-111835000D02*
X106210000Y-111835000D01*
X106150000Y-111875000D02*
X106200000Y-111825000D01*
X104600000Y-111875000D02*
X106150000Y-111875000D01*
%TO.N,GNDA*%
X107100000Y-113700000D02*
X106250000Y-113700000D01*
X106250000Y-113700000D02*
X106200000Y-113650000D01*
X107695000Y-113105000D02*
X107200000Y-113600000D01*
X108325000Y-113105000D02*
X107695000Y-113105000D01*
X106150000Y-113600000D02*
X106200000Y-113650000D01*
X104600000Y-113600000D02*
X106150000Y-113600000D01*
%TO.N,Net-(U51-Pad6)*%
X109700000Y-108400000D02*
X106212500Y-108400000D01*
X111865000Y-110565000D02*
X109700000Y-108400000D01*
X113275000Y-110565000D02*
X111865000Y-110565000D01*
%TO.N,Net-(U51-Pad1)*%
X106800000Y-110100000D02*
X106212500Y-110100000D01*
X107265000Y-110565000D02*
X106800000Y-110100000D01*
X108325000Y-110565000D02*
X107265000Y-110565000D01*
%TO.N,BIAS_R*%
X104387500Y-110100000D02*
X104387500Y-108400000D01*
%TO.N,Net-(U51-Pad1)*%
X108325000Y-109295000D02*
X108325000Y-110565000D01*
%TO.N,Net-(U51-Pad6)*%
X113275000Y-111835000D02*
X113275000Y-110565000D01*
%TO.N,+15V*%
X113300000Y-109270000D02*
X113275000Y-109295000D01*
X113300000Y-107600000D02*
X113300000Y-109270000D01*
X115492500Y-109295000D02*
X115500000Y-109287500D01*
X113275000Y-109295000D02*
X115492500Y-109295000D01*
%TO.N,Net-(U51-Pad3)*%
X115500000Y-112400000D02*
X115500000Y-111112500D01*
X114795000Y-113105000D02*
X115500000Y-112400000D01*
X113275000Y-113105000D02*
X114795000Y-113105000D01*
%TO.N,Net-(U50-Pad6)*%
X92000000Y-108400000D02*
X88412500Y-108400000D01*
X94165000Y-110565000D02*
X92000000Y-108400000D01*
X95475000Y-110565000D02*
X94165000Y-110565000D01*
%TO.N,BIAS_L*%
X86587500Y-110100000D02*
X86587500Y-108400000D01*
%TO.N,Net-(U50-Pad1)*%
X88800000Y-110100000D02*
X88412500Y-110100000D01*
X89265000Y-110565000D02*
X88800000Y-110100000D01*
X90525000Y-110565000D02*
X89265000Y-110565000D01*
%TO.N,Net-(U50-Pad3)*%
X97700000Y-112500000D02*
X97700000Y-111112500D01*
X97095000Y-113105000D02*
X97700000Y-112500000D01*
X95475000Y-113105000D02*
X97095000Y-113105000D01*
%TO.N,+15V*%
X95482500Y-109287500D02*
X95475000Y-109295000D01*
X97700000Y-109287500D02*
X95482500Y-109287500D01*
%TO.N,GNDA*%
X89200000Y-113600000D02*
X88400000Y-113600000D01*
X89695000Y-113105000D02*
X89350000Y-113450000D01*
X90525000Y-113105000D02*
X89695000Y-113105000D01*
X86750000Y-113600000D02*
X86700000Y-113550000D01*
X88400000Y-113600000D02*
X86750000Y-113600000D01*
%TO.N,Net-(U50-Pad3)*%
X86700000Y-111825000D02*
X88350000Y-111825000D01*
X88350000Y-111825000D02*
X88400000Y-111775000D01*
X88460000Y-111835000D02*
X88400000Y-111775000D01*
X90525000Y-111835000D02*
X88460000Y-111835000D01*
X92905000Y-113105000D02*
X95475000Y-113105000D01*
X91635000Y-111835000D02*
X92905000Y-113105000D01*
X90525000Y-111835000D02*
X91635000Y-111835000D01*
%TO.N,Net-(U50-Pad6)*%
X95475000Y-111835000D02*
X95475000Y-110565000D01*
%TO.N,Net-(U50-Pad1)*%
X90525000Y-110565000D02*
X90525000Y-109295000D01*
%TO.N,+15V*%
X95475000Y-107625000D02*
X95500000Y-107600000D01*
X95475000Y-109295000D02*
X95475000Y-107625000D01*
X92425000Y-77475000D02*
X92500000Y-77400000D01*
X90705000Y-77475000D02*
X92425000Y-77475000D01*
%TO.N,AUDIO_BUFF_R*%
X88165000Y-77475000D02*
X89435000Y-77475000D01*
%TO.N,AUDIO_BUFF_L*%
X89435000Y-72525000D02*
X90705000Y-72525000D01*
%TO.N,Net-(R21-Pad2)*%
X86300000Y-81200000D02*
X83700000Y-81200000D01*
X86895000Y-80605000D02*
X86300000Y-81200000D01*
X86895000Y-77475000D02*
X86895000Y-80605000D01*
%TO.N,Net-(R20-Pad2)*%
X87000000Y-68800000D02*
X83700000Y-68800000D01*
X88165000Y-69965000D02*
X87000000Y-68800000D01*
X88165000Y-72525000D02*
X88165000Y-69965000D01*
D36*
%TO.N,AUDIO_IN_L*%
X74687500Y-69992500D02*
X74695000Y-70000000D01*
X74687500Y-65900000D02*
X74687500Y-69992500D01*
%TO.N,AUDIO_IN_R*%
X74675000Y-80020000D02*
X74695000Y-80000000D01*
X74675000Y-84000000D02*
X74675000Y-80020000D01*
%TO.N,Net-(R21-Pad2)*%
X83700000Y-82900000D02*
X83700000Y-81200000D01*
%TO.N,Net-(R20-Pad2)*%
X83700000Y-67112500D02*
X83687500Y-67100000D01*
X83700000Y-68800000D02*
X83700000Y-67112500D01*
%TO.N,Net-(R22-Pad2)*%
X83625000Y-71825000D02*
X83700000Y-71750000D01*
X81600000Y-71825000D02*
X83625000Y-71825000D01*
%TO.N,AUDIO_IN_L*%
X74695000Y-70000000D02*
X81600000Y-70000000D01*
%TO.N,Net-(R23-Pad2)*%
X83625000Y-78175000D02*
X83700000Y-78250000D01*
X81600000Y-78175000D02*
X83625000Y-78175000D01*
%TO.N,AUDIO_IN_R*%
X74695000Y-80000000D02*
X81600000Y-80000000D01*
D35*
%TO.N,GNDA*%
X92050000Y-55950000D02*
X90300000Y-55950000D01*
X96100000Y-60000000D02*
X92600000Y-56500000D01*
X114350000Y-56050000D02*
X114900000Y-56050000D01*
X110300000Y-60100000D02*
X112800000Y-57600000D01*
X106175000Y-55975000D02*
X105700000Y-55975000D01*
X110300000Y-60100000D02*
X108400000Y-58200000D01*
X105700000Y-55975000D02*
X100700000Y-55975000D01*
X96675000Y-60000000D02*
X99787500Y-56887500D01*
X96100000Y-60000000D02*
X96675000Y-60000000D01*
%TO.N,/Connections/VIN*%
X100700000Y-54425000D02*
X96125000Y-54425000D01*
X96125000Y-54425000D02*
X96100000Y-54400000D01*
X100775000Y-54500000D02*
X100700000Y-54425000D01*
X102400000Y-54500000D02*
X100775000Y-54500000D01*
%TO.N,+15V*%
X114900000Y-54500000D02*
X110300000Y-54500000D01*
X110225000Y-54425000D02*
X110300000Y-54500000D01*
X105625000Y-54500000D02*
X105700000Y-54425000D01*
X104050000Y-54500000D02*
X105625000Y-54500000D01*
%TO.N,GNDA*%
X83375000Y-59500000D02*
X83487500Y-59387500D01*
X74695000Y-59500000D02*
X81900000Y-59500000D01*
X84300000Y-60200000D02*
X85150000Y-60200000D01*
X83487500Y-59387500D02*
X83550000Y-59450000D01*
X83487500Y-58000000D02*
X83487500Y-59387500D01*
X82400000Y-58000000D02*
X83487500Y-58000000D01*
X81700000Y-57300000D02*
X82400000Y-58000000D01*
X81700000Y-56200000D02*
X81700000Y-57300000D01*
%TO.N,/Connections/RP_GATE*%
X87200000Y-56300000D02*
X85600000Y-56300000D01*
X88100000Y-57200000D02*
X87200000Y-56300000D01*
X85312500Y-56587500D02*
X85600000Y-56300000D01*
X85312500Y-58000000D02*
X85312500Y-56587500D01*
X88100000Y-57200000D02*
X88100000Y-60200000D01*
%TO.N,/Connections/VIN*%
X90300000Y-54400000D02*
X96100000Y-54400000D01*
X88100000Y-54400000D02*
X90300000Y-54400000D01*
X85600000Y-54400000D02*
X88100000Y-54400000D01*
%TO.N,/Connections/VIN_RAW*%
X83725000Y-55125000D02*
X83050000Y-54450000D01*
X83050000Y-54450000D02*
X81700000Y-54450000D01*
X83725000Y-55350000D02*
X83725000Y-55125000D01*
X81650000Y-54500000D02*
X81700000Y-54450000D01*
X74695000Y-54500000D02*
X81650000Y-54500000D01*
%TD*%
M02*
