%TF.GenerationSoftware,KiCad,Pcbnew,(6.0.7)*%
%TF.CreationDate,2022-11-13T12:45:05+00:00*%
%TF.ProjectId,Actice-Tone,41637469-6365-42d5-946f-6e652e6b6963,rev?*%
%TF.SameCoordinates,Original*%
%TF.FileFunction,Legend,Top*%
%TF.FilePolarity,Positive*%
%FSLAX46Y46*%
G04 Gerber Fmt 4.6, Leading zero omitted, Abs format (unit mm)*
G04 Created by KiCad (PCBNEW (6.0.7)) date 2022-11-13 12:45:05*
%MOMM*%
%LPD*%
G01*
G04 APERTURE LIST*
%ADD10C,0.150000*%
%ADD11C,0.120000*%
G04 APERTURE END LIST*
D10*
X109676190Y-47152380D02*
X110009523Y-48152380D01*
X110342857Y-47152380D01*
X110866666Y-47152380D02*
X110961904Y-47152380D01*
X111057142Y-47200000D01*
X111104761Y-47247619D01*
X111152380Y-47342857D01*
X111200000Y-47533333D01*
X111200000Y-47771428D01*
X111152380Y-47961904D01*
X111104761Y-48057142D01*
X111057142Y-48104761D01*
X110961904Y-48152380D01*
X110866666Y-48152380D01*
X110771428Y-48104761D01*
X110723809Y-48057142D01*
X110676190Y-47961904D01*
X110628571Y-47771428D01*
X110628571Y-47533333D01*
X110676190Y-47342857D01*
X110723809Y-47247619D01*
X110771428Y-47200000D01*
X110866666Y-47152380D01*
X111628571Y-48057142D02*
X111676190Y-48104761D01*
X111628571Y-48152380D01*
X111580952Y-48104761D01*
X111628571Y-48057142D01*
X111628571Y-48152380D01*
X112628571Y-48152380D02*
X112057142Y-48152380D01*
X112342857Y-48152380D02*
X112342857Y-47152380D01*
X112247619Y-47295238D01*
X112152380Y-47390476D01*
X112057142Y-47438095D01*
X91190476Y-48052380D02*
X91190476Y-47052380D01*
X91571428Y-47052380D01*
X91666666Y-47100000D01*
X91714285Y-47147619D01*
X91761904Y-47242857D01*
X91761904Y-47385714D01*
X91714285Y-47480952D01*
X91666666Y-47528571D01*
X91571428Y-47576190D01*
X91190476Y-47576190D01*
X92333333Y-48052380D02*
X92238095Y-48004761D01*
X92190476Y-47957142D01*
X92142857Y-47861904D01*
X92142857Y-47576190D01*
X92190476Y-47480952D01*
X92238095Y-47433333D01*
X92333333Y-47385714D01*
X92476190Y-47385714D01*
X92571428Y-47433333D01*
X92619047Y-47480952D01*
X92666666Y-47576190D01*
X92666666Y-47861904D01*
X92619047Y-47957142D01*
X92571428Y-48004761D01*
X92476190Y-48052380D01*
X92333333Y-48052380D01*
X93095238Y-47385714D02*
X93095238Y-48385714D01*
X93095238Y-47433333D02*
X93190476Y-47385714D01*
X93380952Y-47385714D01*
X93476190Y-47433333D01*
X93523809Y-47480952D01*
X93571428Y-47576190D01*
X93571428Y-47861904D01*
X93523809Y-47957142D01*
X93476190Y-48004761D01*
X93380952Y-48052380D01*
X93190476Y-48052380D01*
X93095238Y-48004761D01*
X94428571Y-47385714D02*
X94428571Y-48052380D01*
X94000000Y-47385714D02*
X94000000Y-47909523D01*
X94047619Y-48004761D01*
X94142857Y-48052380D01*
X94285714Y-48052380D01*
X94380952Y-48004761D01*
X94428571Y-47957142D01*
X94904761Y-47385714D02*
X94904761Y-48385714D01*
X94904761Y-47433333D02*
X95000000Y-47385714D01*
X95190476Y-47385714D01*
X95285714Y-47433333D01*
X95333333Y-47480952D01*
X95380952Y-47576190D01*
X95380952Y-47861904D01*
X95333333Y-47957142D01*
X95285714Y-48004761D01*
X95190476Y-48052380D01*
X95000000Y-48052380D01*
X94904761Y-48004761D01*
X95809523Y-47671428D02*
X96571428Y-47671428D01*
X97047619Y-48052380D02*
X97047619Y-47385714D01*
X97047619Y-47480952D02*
X97095238Y-47433333D01*
X97190476Y-47385714D01*
X97333333Y-47385714D01*
X97428571Y-47433333D01*
X97476190Y-47528571D01*
X97476190Y-48052380D01*
X97476190Y-47528571D02*
X97523809Y-47433333D01*
X97619047Y-47385714D01*
X97761904Y-47385714D01*
X97857142Y-47433333D01*
X97904761Y-47528571D01*
X97904761Y-48052380D01*
X98761904Y-48004761D02*
X98666666Y-48052380D01*
X98476190Y-48052380D01*
X98380952Y-48004761D01*
X98333333Y-47909523D01*
X98333333Y-47528571D01*
X98380952Y-47433333D01*
X98476190Y-47385714D01*
X98666666Y-47385714D01*
X98761904Y-47433333D01*
X98809523Y-47528571D01*
X98809523Y-47623809D01*
X98333333Y-47719047D01*
X99666666Y-48052380D02*
X99666666Y-47052380D01*
X99666666Y-48004761D02*
X99571428Y-48052380D01*
X99380952Y-48052380D01*
X99285714Y-48004761D01*
X99238095Y-47957142D01*
X99190476Y-47861904D01*
X99190476Y-47576190D01*
X99238095Y-47480952D01*
X99285714Y-47433333D01*
X99380952Y-47385714D01*
X99571428Y-47385714D01*
X99666666Y-47433333D01*
X100142857Y-48052380D02*
X100142857Y-47385714D01*
X100142857Y-47052380D02*
X100095238Y-47100000D01*
X100142857Y-47147619D01*
X100190476Y-47100000D01*
X100142857Y-47052380D01*
X100142857Y-47147619D01*
X101047619Y-48052380D02*
X101047619Y-47528571D01*
X101000000Y-47433333D01*
X100904761Y-47385714D01*
X100714285Y-47385714D01*
X100619047Y-47433333D01*
X101047619Y-48004761D02*
X100952380Y-48052380D01*
X100714285Y-48052380D01*
X100619047Y-48004761D01*
X100571428Y-47909523D01*
X100571428Y-47814285D01*
X100619047Y-47719047D01*
X100714285Y-47671428D01*
X100952380Y-47671428D01*
X101047619Y-47623809D01*
X101523809Y-47957142D02*
X101571428Y-48004761D01*
X101523809Y-48052380D01*
X101476190Y-48004761D01*
X101523809Y-47957142D01*
X101523809Y-48052380D01*
X102428571Y-48004761D02*
X102333333Y-48052380D01*
X102142857Y-48052380D01*
X102047619Y-48004761D01*
X102000000Y-47957142D01*
X101952380Y-47861904D01*
X101952380Y-47576190D01*
X102000000Y-47480952D01*
X102047619Y-47433333D01*
X102142857Y-47385714D01*
X102333333Y-47385714D01*
X102428571Y-47433333D01*
X103000000Y-48052380D02*
X102904761Y-48004761D01*
X102857142Y-47957142D01*
X102809523Y-47861904D01*
X102809523Y-47576190D01*
X102857142Y-47480952D01*
X102904761Y-47433333D01*
X103000000Y-47385714D01*
X103142857Y-47385714D01*
X103238095Y-47433333D01*
X103285714Y-47480952D01*
X103333333Y-47576190D01*
X103333333Y-47861904D01*
X103285714Y-47957142D01*
X103238095Y-48004761D01*
X103142857Y-48052380D01*
X103000000Y-48052380D01*
X103761904Y-48052380D02*
X103761904Y-47385714D01*
X103761904Y-47480952D02*
X103809523Y-47433333D01*
X103904761Y-47385714D01*
X104047619Y-47385714D01*
X104142857Y-47433333D01*
X104190476Y-47528571D01*
X104190476Y-48052380D01*
X104190476Y-47528571D02*
X104238095Y-47433333D01*
X104333333Y-47385714D01*
X104476190Y-47385714D01*
X104571428Y-47433333D01*
X104619047Y-47528571D01*
X104619047Y-48052380D01*
X105380952Y-48433333D02*
X105333333Y-48385714D01*
X105238095Y-48242857D01*
X105190476Y-48147619D01*
X105142857Y-48004761D01*
X105095238Y-47766666D01*
X105095238Y-47576190D01*
X105142857Y-47338095D01*
X105190476Y-47195238D01*
X105238095Y-47100000D01*
X105333333Y-46957142D01*
X105380952Y-46909523D01*
X106190476Y-48004761D02*
X106095238Y-48052380D01*
X105904761Y-48052380D01*
X105809523Y-48004761D01*
X105761904Y-47957142D01*
X105714285Y-47861904D01*
X105714285Y-47576190D01*
X105761904Y-47480952D01*
X105809523Y-47433333D01*
X105904761Y-47385714D01*
X106095238Y-47385714D01*
X106190476Y-47433333D01*
X106523809Y-48433333D02*
X106571428Y-48385714D01*
X106666666Y-48242857D01*
X106714285Y-48147619D01*
X106761904Y-48004761D01*
X106809523Y-47766666D01*
X106809523Y-47576190D01*
X106761904Y-47338095D01*
X106714285Y-47195238D01*
X106666666Y-47100000D01*
X106571428Y-46957142D01*
X106523809Y-46909523D01*
X68047619Y-91619047D02*
X68047619Y-91142857D01*
X69047619Y-91142857D01*
X68333333Y-93428571D02*
X68333333Y-93904761D01*
X68047619Y-93333333D02*
X69047619Y-93666666D01*
X68047619Y-94000000D01*
X68714285Y-94761904D02*
X68047619Y-94761904D01*
X68714285Y-94333333D02*
X68190476Y-94333333D01*
X68095238Y-94380952D01*
X68047619Y-94476190D01*
X68047619Y-94619047D01*
X68095238Y-94714285D01*
X68142857Y-94761904D01*
X68047619Y-95666666D02*
X69047619Y-95666666D01*
X68095238Y-95666666D02*
X68047619Y-95571428D01*
X68047619Y-95380952D01*
X68095238Y-95285714D01*
X68142857Y-95238095D01*
X68238095Y-95190476D01*
X68523809Y-95190476D01*
X68619047Y-95238095D01*
X68666666Y-95285714D01*
X68714285Y-95380952D01*
X68714285Y-95571428D01*
X68666666Y-95666666D01*
X68047619Y-96142857D02*
X68714285Y-96142857D01*
X69047619Y-96142857D02*
X69000000Y-96095238D01*
X68952380Y-96142857D01*
X69000000Y-96190476D01*
X69047619Y-96142857D01*
X68952380Y-96142857D01*
X68047619Y-96761904D02*
X68095238Y-96666666D01*
X68142857Y-96619047D01*
X68238095Y-96571428D01*
X68523809Y-96571428D01*
X68619047Y-96619047D01*
X68666666Y-96666666D01*
X68714285Y-96761904D01*
X68714285Y-96904761D01*
X68666666Y-97000000D01*
X68619047Y-97047619D01*
X68523809Y-97095238D01*
X68238095Y-97095238D01*
X68142857Y-97047619D01*
X68095238Y-97000000D01*
X68047619Y-96904761D01*
X68047619Y-96761904D01*
X69047619Y-98476190D02*
X69047619Y-98666666D01*
X69000000Y-98761904D01*
X68904761Y-98857142D01*
X68714285Y-98904761D01*
X68380952Y-98904761D01*
X68190476Y-98857142D01*
X68095238Y-98761904D01*
X68047619Y-98666666D01*
X68047619Y-98476190D01*
X68095238Y-98380952D01*
X68190476Y-98285714D01*
X68380952Y-98238095D01*
X68714285Y-98238095D01*
X68904761Y-98285714D01*
X69000000Y-98380952D01*
X69047619Y-98476190D01*
X68714285Y-99761904D02*
X68047619Y-99761904D01*
X68714285Y-99333333D02*
X68190476Y-99333333D01*
X68095238Y-99380952D01*
X68047619Y-99476190D01*
X68047619Y-99619047D01*
X68095238Y-99714285D01*
X68142857Y-99761904D01*
X68714285Y-100095238D02*
X68714285Y-100476190D01*
X69047619Y-100238095D02*
X68190476Y-100238095D01*
X68095238Y-100285714D01*
X68047619Y-100380952D01*
X68047619Y-100476190D01*
X68047619Y-102904761D02*
X68523809Y-102571428D01*
X68047619Y-102333333D02*
X69047619Y-102333333D01*
X69047619Y-102714285D01*
X69000000Y-102809523D01*
X68952380Y-102857142D01*
X68857142Y-102904761D01*
X68714285Y-102904761D01*
X68619047Y-102857142D01*
X68571428Y-102809523D01*
X68523809Y-102714285D01*
X68523809Y-102333333D01*
X68047619Y-70290476D02*
X68047619Y-69814285D01*
X69047619Y-69814285D01*
X68333333Y-72100000D02*
X68333333Y-72576190D01*
X68047619Y-72004761D02*
X69047619Y-72338095D01*
X68047619Y-72671428D01*
X68714285Y-73433333D02*
X68047619Y-73433333D01*
X68714285Y-73004761D02*
X68190476Y-73004761D01*
X68095238Y-73052380D01*
X68047619Y-73147619D01*
X68047619Y-73290476D01*
X68095238Y-73385714D01*
X68142857Y-73433333D01*
X68047619Y-74338095D02*
X69047619Y-74338095D01*
X68095238Y-74338095D02*
X68047619Y-74242857D01*
X68047619Y-74052380D01*
X68095238Y-73957142D01*
X68142857Y-73909523D01*
X68238095Y-73861904D01*
X68523809Y-73861904D01*
X68619047Y-73909523D01*
X68666666Y-73957142D01*
X68714285Y-74052380D01*
X68714285Y-74242857D01*
X68666666Y-74338095D01*
X68047619Y-74814285D02*
X68714285Y-74814285D01*
X69047619Y-74814285D02*
X69000000Y-74766666D01*
X68952380Y-74814285D01*
X69000000Y-74861904D01*
X69047619Y-74814285D01*
X68952380Y-74814285D01*
X68047619Y-75433333D02*
X68095238Y-75338095D01*
X68142857Y-75290476D01*
X68238095Y-75242857D01*
X68523809Y-75242857D01*
X68619047Y-75290476D01*
X68666666Y-75338095D01*
X68714285Y-75433333D01*
X68714285Y-75576190D01*
X68666666Y-75671428D01*
X68619047Y-75719047D01*
X68523809Y-75766666D01*
X68238095Y-75766666D01*
X68142857Y-75719047D01*
X68095238Y-75671428D01*
X68047619Y-75576190D01*
X68047619Y-75433333D01*
X68047619Y-76957142D02*
X69047619Y-76957142D01*
X68714285Y-77433333D02*
X68047619Y-77433333D01*
X68619047Y-77433333D02*
X68666666Y-77480952D01*
X68714285Y-77576190D01*
X68714285Y-77719047D01*
X68666666Y-77814285D01*
X68571428Y-77861904D01*
X68047619Y-77861904D01*
X68047619Y-80433333D02*
X68523809Y-80100000D01*
X68047619Y-79861904D02*
X69047619Y-79861904D01*
X69047619Y-80242857D01*
X69000000Y-80338095D01*
X68952380Y-80385714D01*
X68857142Y-80433333D01*
X68714285Y-80433333D01*
X68619047Y-80385714D01*
X68571428Y-80338095D01*
X68523809Y-80242857D01*
X68523809Y-79861904D01*
X68528571Y-52995238D02*
X68528571Y-53757142D01*
X68147619Y-53376190D02*
X68909523Y-53376190D01*
X68147619Y-56280952D02*
X68147619Y-55709523D01*
X68147619Y-55995238D02*
X69147619Y-55995238D01*
X69004761Y-55900000D01*
X68909523Y-55804761D01*
X68861904Y-55709523D01*
X69147619Y-57185714D02*
X69147619Y-56709523D01*
X68671428Y-56661904D01*
X68719047Y-56709523D01*
X68766666Y-56804761D01*
X68766666Y-57042857D01*
X68719047Y-57138095D01*
X68671428Y-57185714D01*
X68576190Y-57233333D01*
X68338095Y-57233333D01*
X68242857Y-57185714D01*
X68195238Y-57138095D01*
X68147619Y-57042857D01*
X68147619Y-56804761D01*
X68195238Y-56709523D01*
X68242857Y-56661904D01*
X69147619Y-57519047D02*
X68147619Y-57852380D01*
X69147619Y-58185714D01*
X68528571Y-60042857D02*
X68528571Y-60804761D01*
X84385714Y-44857142D02*
X84671428Y-44952380D01*
X84766666Y-45047619D01*
X84861904Y-45238095D01*
X84861904Y-45523809D01*
X84766666Y-45714285D01*
X84671428Y-45809523D01*
X84480952Y-45904761D01*
X83719047Y-45904761D01*
X83719047Y-43904761D01*
X84385714Y-43904761D01*
X84576190Y-44000000D01*
X84671428Y-44095238D01*
X84766666Y-44285714D01*
X84766666Y-44476190D01*
X84671428Y-44666666D01*
X84576190Y-44761904D01*
X84385714Y-44857142D01*
X83719047Y-44857142D01*
X86576190Y-45904761D02*
X86576190Y-44857142D01*
X86480952Y-44666666D01*
X86290476Y-44571428D01*
X85909523Y-44571428D01*
X85719047Y-44666666D01*
X86576190Y-45809523D02*
X86385714Y-45904761D01*
X85909523Y-45904761D01*
X85719047Y-45809523D01*
X85623809Y-45619047D01*
X85623809Y-45428571D01*
X85719047Y-45238095D01*
X85909523Y-45142857D01*
X86385714Y-45142857D01*
X86576190Y-45047619D01*
X87338095Y-45904761D02*
X88385714Y-44571428D01*
X87338095Y-44571428D02*
X88385714Y-45904761D01*
X90004761Y-45904761D02*
X90004761Y-44857142D01*
X89909523Y-44666666D01*
X89719047Y-44571428D01*
X89338095Y-44571428D01*
X89147619Y-44666666D01*
X90004761Y-45809523D02*
X89814285Y-45904761D01*
X89338095Y-45904761D01*
X89147619Y-45809523D01*
X89052380Y-45619047D01*
X89052380Y-45428571D01*
X89147619Y-45238095D01*
X89338095Y-45142857D01*
X89814285Y-45142857D01*
X90004761Y-45047619D01*
X90957142Y-45904761D02*
X90957142Y-43904761D01*
X90957142Y-44666666D02*
X91147619Y-44571428D01*
X91528571Y-44571428D01*
X91719047Y-44666666D01*
X91814285Y-44761904D01*
X91909523Y-44952380D01*
X91909523Y-45523809D01*
X91814285Y-45714285D01*
X91719047Y-45809523D01*
X91528571Y-45904761D01*
X91147619Y-45904761D01*
X90957142Y-45809523D01*
X93623809Y-45904761D02*
X93623809Y-44857142D01*
X93528571Y-44666666D01*
X93338095Y-44571428D01*
X92957142Y-44571428D01*
X92766666Y-44666666D01*
X93623809Y-45809523D02*
X93433333Y-45904761D01*
X92957142Y-45904761D01*
X92766666Y-45809523D01*
X92671428Y-45619047D01*
X92671428Y-45428571D01*
X92766666Y-45238095D01*
X92957142Y-45142857D01*
X93433333Y-45142857D01*
X93623809Y-45047619D01*
X94861904Y-45904761D02*
X94671428Y-45809523D01*
X94576190Y-45619047D01*
X94576190Y-43904761D01*
X95909523Y-45904761D02*
X95719047Y-45809523D01*
X95623809Y-45619047D01*
X95623809Y-43904761D01*
X97909523Y-43904761D02*
X99052380Y-43904761D01*
X98480952Y-45904761D02*
X98480952Y-43904761D01*
X100004761Y-45904761D02*
X99814285Y-45809523D01*
X99719047Y-45714285D01*
X99623809Y-45523809D01*
X99623809Y-44952380D01*
X99719047Y-44761904D01*
X99814285Y-44666666D01*
X100004761Y-44571428D01*
X100290476Y-44571428D01*
X100480952Y-44666666D01*
X100576190Y-44761904D01*
X100671428Y-44952380D01*
X100671428Y-45523809D01*
X100576190Y-45714285D01*
X100480952Y-45809523D01*
X100290476Y-45904761D01*
X100004761Y-45904761D01*
X101528571Y-44571428D02*
X101528571Y-45904761D01*
X101528571Y-44761904D02*
X101623809Y-44666666D01*
X101814285Y-44571428D01*
X102099999Y-44571428D01*
X102290476Y-44666666D01*
X102385714Y-44857142D01*
X102385714Y-45904761D01*
X104099999Y-45809523D02*
X103909523Y-45904761D01*
X103528571Y-45904761D01*
X103338095Y-45809523D01*
X103242857Y-45619047D01*
X103242857Y-44857142D01*
X103338095Y-44666666D01*
X103528571Y-44571428D01*
X103909523Y-44571428D01*
X104099999Y-44666666D01*
X104195238Y-44857142D01*
X104195238Y-45047619D01*
X103242857Y-45238095D01*
X107719047Y-45714285D02*
X107623809Y-45809523D01*
X107338095Y-45904761D01*
X107147619Y-45904761D01*
X106861904Y-45809523D01*
X106671428Y-45619047D01*
X106576190Y-45428571D01*
X106480952Y-45047619D01*
X106480952Y-44761904D01*
X106576190Y-44380952D01*
X106671428Y-44190476D01*
X106861904Y-44000000D01*
X107147619Y-43904761D01*
X107338095Y-43904761D01*
X107623809Y-44000000D01*
X107719047Y-44095238D01*
X108861904Y-45904761D02*
X108671428Y-45809523D01*
X108576190Y-45714285D01*
X108480952Y-45523809D01*
X108480952Y-44952380D01*
X108576190Y-44761904D01*
X108671428Y-44666666D01*
X108861904Y-44571428D01*
X109147619Y-44571428D01*
X109338095Y-44666666D01*
X109433333Y-44761904D01*
X109528571Y-44952380D01*
X109528571Y-45523809D01*
X109433333Y-45714285D01*
X109338095Y-45809523D01*
X109147619Y-45904761D01*
X108861904Y-45904761D01*
X110385714Y-44571428D02*
X110385714Y-45904761D01*
X110385714Y-44761904D02*
X110480952Y-44666666D01*
X110671428Y-44571428D01*
X110957142Y-44571428D01*
X111147619Y-44666666D01*
X111242857Y-44857142D01*
X111242857Y-45904761D01*
X111909523Y-44571428D02*
X112671428Y-44571428D01*
X112195238Y-43904761D02*
X112195238Y-45619047D01*
X112290476Y-45809523D01*
X112480952Y-45904761D01*
X112671428Y-45904761D01*
X113338095Y-45904761D02*
X113338095Y-44571428D01*
X113338095Y-44952380D02*
X113433333Y-44761904D01*
X113528571Y-44666666D01*
X113719047Y-44571428D01*
X113909523Y-44571428D01*
X114861904Y-45904761D02*
X114671428Y-45809523D01*
X114576190Y-45714285D01*
X114480952Y-45523809D01*
X114480952Y-44952380D01*
X114576190Y-44761904D01*
X114671428Y-44666666D01*
X114861904Y-44571428D01*
X115147619Y-44571428D01*
X115338095Y-44666666D01*
X115433333Y-44761904D01*
X115528571Y-44952380D01*
X115528571Y-45523809D01*
X115433333Y-45714285D01*
X115338095Y-45809523D01*
X115147619Y-45904761D01*
X114861904Y-45904761D01*
X116671428Y-45904761D02*
X116480952Y-45809523D01*
X116385714Y-45619047D01*
X116385714Y-43904761D01*
X120904761Y-88352380D02*
X121476190Y-88352380D01*
X121190476Y-89352380D02*
X121190476Y-88352380D01*
X122380952Y-89352380D02*
X122047619Y-88876190D01*
X121809523Y-89352380D02*
X121809523Y-88352380D01*
X122190476Y-88352380D01*
X122285714Y-88400000D01*
X122333333Y-88447619D01*
X122380952Y-88542857D01*
X122380952Y-88685714D01*
X122333333Y-88780952D01*
X122285714Y-88828571D01*
X122190476Y-88876190D01*
X121809523Y-88876190D01*
X122809523Y-88828571D02*
X123142857Y-88828571D01*
X123285714Y-89352380D02*
X122809523Y-89352380D01*
X122809523Y-88352380D01*
X123285714Y-88352380D01*
X124047619Y-88828571D02*
X124190476Y-88876190D01*
X124238095Y-88923809D01*
X124285714Y-89019047D01*
X124285714Y-89161904D01*
X124238095Y-89257142D01*
X124190476Y-89304761D01*
X124095238Y-89352380D01*
X123714285Y-89352380D01*
X123714285Y-88352380D01*
X124047619Y-88352380D01*
X124142857Y-88400000D01*
X124190476Y-88447619D01*
X124238095Y-88542857D01*
X124238095Y-88638095D01*
X124190476Y-88733333D01*
X124142857Y-88780952D01*
X124047619Y-88828571D01*
X123714285Y-88828571D01*
X125190476Y-89352380D02*
X124714285Y-89352380D01*
X124714285Y-88352380D01*
X125523809Y-88828571D02*
X125857142Y-88828571D01*
X126000000Y-89352380D02*
X125523809Y-89352380D01*
X125523809Y-88352380D01*
X126000000Y-88352380D01*
X121190476Y-64428571D02*
X121333333Y-64476190D01*
X121380952Y-64523809D01*
X121428571Y-64619047D01*
X121428571Y-64761904D01*
X121380952Y-64857142D01*
X121333333Y-64904761D01*
X121238095Y-64952380D01*
X120857142Y-64952380D01*
X120857142Y-63952380D01*
X121190476Y-63952380D01*
X121285714Y-64000000D01*
X121333333Y-64047619D01*
X121380952Y-64142857D01*
X121380952Y-64238095D01*
X121333333Y-64333333D01*
X121285714Y-64380952D01*
X121190476Y-64428571D01*
X120857142Y-64428571D01*
X121809523Y-64666666D02*
X122285714Y-64666666D01*
X121714285Y-64952380D02*
X122047619Y-63952380D01*
X122380952Y-64952380D01*
X122666666Y-64904761D02*
X122809523Y-64952380D01*
X123047619Y-64952380D01*
X123142857Y-64904761D01*
X123190476Y-64857142D01*
X123238095Y-64761904D01*
X123238095Y-64666666D01*
X123190476Y-64571428D01*
X123142857Y-64523809D01*
X123047619Y-64476190D01*
X122857142Y-64428571D01*
X122761904Y-64380952D01*
X122714285Y-64333333D01*
X122666666Y-64238095D01*
X122666666Y-64142857D01*
X122714285Y-64047619D01*
X122761904Y-64000000D01*
X122857142Y-63952380D01*
X123095238Y-63952380D01*
X123238095Y-64000000D01*
X123619047Y-64904761D02*
X123761904Y-64952380D01*
X124000000Y-64952380D01*
X124095238Y-64904761D01*
X124142857Y-64857142D01*
X124190476Y-64761904D01*
X124190476Y-64666666D01*
X124142857Y-64571428D01*
X124095238Y-64523809D01*
X124000000Y-64476190D01*
X123809523Y-64428571D01*
X123714285Y-64380952D01*
X123666666Y-64333333D01*
X123619047Y-64238095D01*
X123619047Y-64142857D01*
X123666666Y-64047619D01*
X123714285Y-64000000D01*
X123809523Y-63952380D01*
X124047619Y-63952380D01*
X124190476Y-64000000D01*
X121457142Y-109552380D02*
X120885714Y-109552380D01*
X121171428Y-109552380D02*
X121171428Y-108552380D01*
X121076190Y-108695238D01*
X120980952Y-108790476D01*
X120885714Y-108838095D01*
X122076190Y-108552380D02*
X122171428Y-108552380D01*
X122266666Y-108600000D01*
X122314285Y-108647619D01*
X122361904Y-108742857D01*
X122409523Y-108933333D01*
X122409523Y-109171428D01*
X122361904Y-109361904D01*
X122314285Y-109457142D01*
X122266666Y-109504761D01*
X122171428Y-109552380D01*
X122076190Y-109552380D01*
X121980952Y-109504761D01*
X121933333Y-109457142D01*
X121885714Y-109361904D01*
X121838095Y-109171428D01*
X121838095Y-108933333D01*
X121885714Y-108742857D01*
X121933333Y-108647619D01*
X121980952Y-108600000D01*
X122076190Y-108552380D01*
X122838095Y-109552380D02*
X122838095Y-108552380D01*
X122933333Y-109171428D02*
X123219047Y-109552380D01*
X123219047Y-108885714D02*
X122838095Y-109266666D01*
X124885714Y-109552380D02*
X124409523Y-109552380D01*
X124409523Y-108552380D01*
X125219047Y-109552380D02*
X125219047Y-108552380D01*
X125695238Y-109552380D02*
X125695238Y-108552380D01*
X126266666Y-109552380D01*
X126266666Y-108552380D01*
X121457142Y-85152380D02*
X120885714Y-85152380D01*
X121171428Y-85152380D02*
X121171428Y-84152380D01*
X121076190Y-84295238D01*
X120980952Y-84390476D01*
X120885714Y-84438095D01*
X122076190Y-84152380D02*
X122171428Y-84152380D01*
X122266666Y-84200000D01*
X122314285Y-84247619D01*
X122361904Y-84342857D01*
X122409523Y-84533333D01*
X122409523Y-84771428D01*
X122361904Y-84961904D01*
X122314285Y-85057142D01*
X122266666Y-85104761D01*
X122171428Y-85152380D01*
X122076190Y-85152380D01*
X121980952Y-85104761D01*
X121933333Y-85057142D01*
X121885714Y-84961904D01*
X121838095Y-84771428D01*
X121838095Y-84533333D01*
X121885714Y-84342857D01*
X121933333Y-84247619D01*
X121980952Y-84200000D01*
X122076190Y-84152380D01*
X122838095Y-85152380D02*
X122838095Y-84152380D01*
X122933333Y-84771428D02*
X123219047Y-85152380D01*
X123219047Y-84485714D02*
X122838095Y-84866666D01*
X124885714Y-85152380D02*
X124409523Y-85152380D01*
X124409523Y-84152380D01*
X125219047Y-85152380D02*
X125219047Y-84152380D01*
X125695238Y-85152380D02*
X125695238Y-84152380D01*
X126266666Y-85152380D01*
X126266666Y-84152380D01*
%TO.C,C44*%
X82557142Y-105657142D02*
X82509523Y-105704761D01*
X82366666Y-105752380D01*
X82271428Y-105752380D01*
X82128571Y-105704761D01*
X82033333Y-105609523D01*
X81985714Y-105514285D01*
X81938095Y-105323809D01*
X81938095Y-105180952D01*
X81985714Y-104990476D01*
X82033333Y-104895238D01*
X82128571Y-104800000D01*
X82271428Y-104752380D01*
X82366666Y-104752380D01*
X82509523Y-104800000D01*
X82557142Y-104847619D01*
X83414285Y-105085714D02*
X83414285Y-105752380D01*
X83176190Y-104704761D02*
X82938095Y-105419047D01*
X83557142Y-105419047D01*
X84366666Y-105085714D02*
X84366666Y-105752380D01*
X84128571Y-104704761D02*
X83890476Y-105419047D01*
X84509523Y-105419047D01*
%TO.C,C43*%
X82557142Y-99257142D02*
X82509523Y-99304761D01*
X82366666Y-99352380D01*
X82271428Y-99352380D01*
X82128571Y-99304761D01*
X82033333Y-99209523D01*
X81985714Y-99114285D01*
X81938095Y-98923809D01*
X81938095Y-98780952D01*
X81985714Y-98590476D01*
X82033333Y-98495238D01*
X82128571Y-98400000D01*
X82271428Y-98352380D01*
X82366666Y-98352380D01*
X82509523Y-98400000D01*
X82557142Y-98447619D01*
X83414285Y-98685714D02*
X83414285Y-99352380D01*
X83176190Y-98304761D02*
X82938095Y-99019047D01*
X83557142Y-99019047D01*
X83842857Y-98352380D02*
X84461904Y-98352380D01*
X84128571Y-98733333D01*
X84271428Y-98733333D01*
X84366666Y-98780952D01*
X84414285Y-98828571D01*
X84461904Y-98923809D01*
X84461904Y-99161904D01*
X84414285Y-99257142D01*
X84366666Y-99304761D01*
X84271428Y-99352380D01*
X83985714Y-99352380D01*
X83890476Y-99304761D01*
X83842857Y-99257142D01*
%TO.C,C42*%
X82557142Y-95457142D02*
X82509523Y-95504761D01*
X82366666Y-95552380D01*
X82271428Y-95552380D01*
X82128571Y-95504761D01*
X82033333Y-95409523D01*
X81985714Y-95314285D01*
X81938095Y-95123809D01*
X81938095Y-94980952D01*
X81985714Y-94790476D01*
X82033333Y-94695238D01*
X82128571Y-94600000D01*
X82271428Y-94552380D01*
X82366666Y-94552380D01*
X82509523Y-94600000D01*
X82557142Y-94647619D01*
X83414285Y-94885714D02*
X83414285Y-95552380D01*
X83176190Y-94504761D02*
X82938095Y-95219047D01*
X83557142Y-95219047D01*
X83890476Y-94647619D02*
X83938095Y-94600000D01*
X84033333Y-94552380D01*
X84271428Y-94552380D01*
X84366666Y-94600000D01*
X84414285Y-94647619D01*
X84461904Y-94742857D01*
X84461904Y-94838095D01*
X84414285Y-94980952D01*
X83842857Y-95552380D01*
X84461904Y-95552380D01*
%TO.C,C41*%
X82557142Y-89157142D02*
X82509523Y-89204761D01*
X82366666Y-89252380D01*
X82271428Y-89252380D01*
X82128571Y-89204761D01*
X82033333Y-89109523D01*
X81985714Y-89014285D01*
X81938095Y-88823809D01*
X81938095Y-88680952D01*
X81985714Y-88490476D01*
X82033333Y-88395238D01*
X82128571Y-88300000D01*
X82271428Y-88252380D01*
X82366666Y-88252380D01*
X82509523Y-88300000D01*
X82557142Y-88347619D01*
X83414285Y-88585714D02*
X83414285Y-89252380D01*
X83176190Y-88204761D02*
X82938095Y-88919047D01*
X83557142Y-88919047D01*
X84461904Y-89252380D02*
X83890476Y-89252380D01*
X84176190Y-89252380D02*
X84176190Y-88252380D01*
X84080952Y-88395238D01*
X83985714Y-88490476D01*
X83890476Y-88538095D01*
%TO.C,C10*%
X85982142Y-62407142D02*
X85934523Y-62454761D01*
X85791666Y-62502380D01*
X85696428Y-62502380D01*
X85553571Y-62454761D01*
X85458333Y-62359523D01*
X85410714Y-62264285D01*
X85363095Y-62073809D01*
X85363095Y-61930952D01*
X85410714Y-61740476D01*
X85458333Y-61645238D01*
X85553571Y-61550000D01*
X85696428Y-61502380D01*
X85791666Y-61502380D01*
X85934523Y-61550000D01*
X85982142Y-61597619D01*
X86934523Y-62502380D02*
X86363095Y-62502380D01*
X86648809Y-62502380D02*
X86648809Y-61502380D01*
X86553571Y-61645238D01*
X86458333Y-61740476D01*
X86363095Y-61788095D01*
X87553571Y-61502380D02*
X87648809Y-61502380D01*
X87744047Y-61550000D01*
X87791666Y-61597619D01*
X87839285Y-61692857D01*
X87886904Y-61883333D01*
X87886904Y-62121428D01*
X87839285Y-62311904D01*
X87791666Y-62407142D01*
X87744047Y-62454761D01*
X87648809Y-62502380D01*
X87553571Y-62502380D01*
X87458333Y-62454761D01*
X87410714Y-62407142D01*
X87363095Y-62311904D01*
X87315476Y-62121428D01*
X87315476Y-61883333D01*
X87363095Y-61692857D01*
X87410714Y-61597619D01*
X87458333Y-61550000D01*
X87553571Y-61502380D01*
%TO.C,RV31*%
X117328571Y-91252380D02*
X116995238Y-90776190D01*
X116757142Y-91252380D02*
X116757142Y-90252380D01*
X117138095Y-90252380D01*
X117233333Y-90300000D01*
X117280952Y-90347619D01*
X117328571Y-90442857D01*
X117328571Y-90585714D01*
X117280952Y-90680952D01*
X117233333Y-90728571D01*
X117138095Y-90776190D01*
X116757142Y-90776190D01*
X117614285Y-90252380D02*
X117947619Y-91252380D01*
X118280952Y-90252380D01*
X118519047Y-90252380D02*
X119138095Y-90252380D01*
X118804761Y-90633333D01*
X118947619Y-90633333D01*
X119042857Y-90680952D01*
X119090476Y-90728571D01*
X119138095Y-90823809D01*
X119138095Y-91061904D01*
X119090476Y-91157142D01*
X119042857Y-91204761D01*
X118947619Y-91252380D01*
X118661904Y-91252380D01*
X118566666Y-91204761D01*
X118519047Y-91157142D01*
X120090476Y-91252380D02*
X119519047Y-91252380D01*
X119804761Y-91252380D02*
X119804761Y-90252380D01*
X119709523Y-90395238D01*
X119614285Y-90490476D01*
X119519047Y-90538095D01*
%TO.C,RV30*%
X117228571Y-66652380D02*
X116895238Y-66176190D01*
X116657142Y-66652380D02*
X116657142Y-65652380D01*
X117038095Y-65652380D01*
X117133333Y-65700000D01*
X117180952Y-65747619D01*
X117228571Y-65842857D01*
X117228571Y-65985714D01*
X117180952Y-66080952D01*
X117133333Y-66128571D01*
X117038095Y-66176190D01*
X116657142Y-66176190D01*
X117514285Y-65652380D02*
X117847619Y-66652380D01*
X118180952Y-65652380D01*
X118419047Y-65652380D02*
X119038095Y-65652380D01*
X118704761Y-66033333D01*
X118847619Y-66033333D01*
X118942857Y-66080952D01*
X118990476Y-66128571D01*
X119038095Y-66223809D01*
X119038095Y-66461904D01*
X118990476Y-66557142D01*
X118942857Y-66604761D01*
X118847619Y-66652380D01*
X118561904Y-66652380D01*
X118466666Y-66604761D01*
X118419047Y-66557142D01*
X119657142Y-65652380D02*
X119752380Y-65652380D01*
X119847619Y-65700000D01*
X119895238Y-65747619D01*
X119942857Y-65842857D01*
X119990476Y-66033333D01*
X119990476Y-66271428D01*
X119942857Y-66461904D01*
X119895238Y-66557142D01*
X119847619Y-66604761D01*
X119752380Y-66652380D01*
X119657142Y-66652380D01*
X119561904Y-66604761D01*
X119514285Y-66557142D01*
X119466666Y-66461904D01*
X119419047Y-66271428D01*
X119419047Y-66033333D01*
X119466666Y-65842857D01*
X119514285Y-65747619D01*
X119561904Y-65700000D01*
X119657142Y-65652380D01*
%TO.C,R57*%
X101444642Y-108952380D02*
X101111309Y-108476190D01*
X100873214Y-108952380D02*
X100873214Y-107952380D01*
X101254166Y-107952380D01*
X101349404Y-108000000D01*
X101397023Y-108047619D01*
X101444642Y-108142857D01*
X101444642Y-108285714D01*
X101397023Y-108380952D01*
X101349404Y-108428571D01*
X101254166Y-108476190D01*
X100873214Y-108476190D01*
X102349404Y-107952380D02*
X101873214Y-107952380D01*
X101825595Y-108428571D01*
X101873214Y-108380952D01*
X101968452Y-108333333D01*
X102206547Y-108333333D01*
X102301785Y-108380952D01*
X102349404Y-108428571D01*
X102397023Y-108523809D01*
X102397023Y-108761904D01*
X102349404Y-108857142D01*
X102301785Y-108904761D01*
X102206547Y-108952380D01*
X101968452Y-108952380D01*
X101873214Y-108904761D01*
X101825595Y-108857142D01*
X102730357Y-107952380D02*
X103397023Y-107952380D01*
X102968452Y-108952380D01*
%TO.C,R56*%
X101544642Y-110552380D02*
X101211309Y-110076190D01*
X100973214Y-110552380D02*
X100973214Y-109552380D01*
X101354166Y-109552380D01*
X101449404Y-109600000D01*
X101497023Y-109647619D01*
X101544642Y-109742857D01*
X101544642Y-109885714D01*
X101497023Y-109980952D01*
X101449404Y-110028571D01*
X101354166Y-110076190D01*
X100973214Y-110076190D01*
X102449404Y-109552380D02*
X101973214Y-109552380D01*
X101925595Y-110028571D01*
X101973214Y-109980952D01*
X102068452Y-109933333D01*
X102306547Y-109933333D01*
X102401785Y-109980952D01*
X102449404Y-110028571D01*
X102497023Y-110123809D01*
X102497023Y-110361904D01*
X102449404Y-110457142D01*
X102401785Y-110504761D01*
X102306547Y-110552380D01*
X102068452Y-110552380D01*
X101973214Y-110504761D01*
X101925595Y-110457142D01*
X103354166Y-109552380D02*
X103163690Y-109552380D01*
X103068452Y-109600000D01*
X103020833Y-109647619D01*
X102925595Y-109790476D01*
X102877976Y-109980952D01*
X102877976Y-110361904D01*
X102925595Y-110457142D01*
X102973214Y-110504761D01*
X103068452Y-110552380D01*
X103258928Y-110552380D01*
X103354166Y-110504761D01*
X103401785Y-110457142D01*
X103449404Y-110361904D01*
X103449404Y-110123809D01*
X103401785Y-110028571D01*
X103354166Y-109980952D01*
X103258928Y-109933333D01*
X103068452Y-109933333D01*
X102973214Y-109980952D01*
X102925595Y-110028571D01*
X102877976Y-110123809D01*
%TO.C,R55*%
X83757142Y-108952380D02*
X83423809Y-108476190D01*
X83185714Y-108952380D02*
X83185714Y-107952380D01*
X83566666Y-107952380D01*
X83661904Y-108000000D01*
X83709523Y-108047619D01*
X83757142Y-108142857D01*
X83757142Y-108285714D01*
X83709523Y-108380952D01*
X83661904Y-108428571D01*
X83566666Y-108476190D01*
X83185714Y-108476190D01*
X84661904Y-107952380D02*
X84185714Y-107952380D01*
X84138095Y-108428571D01*
X84185714Y-108380952D01*
X84280952Y-108333333D01*
X84519047Y-108333333D01*
X84614285Y-108380952D01*
X84661904Y-108428571D01*
X84709523Y-108523809D01*
X84709523Y-108761904D01*
X84661904Y-108857142D01*
X84614285Y-108904761D01*
X84519047Y-108952380D01*
X84280952Y-108952380D01*
X84185714Y-108904761D01*
X84138095Y-108857142D01*
X85614285Y-107952380D02*
X85138095Y-107952380D01*
X85090476Y-108428571D01*
X85138095Y-108380952D01*
X85233333Y-108333333D01*
X85471428Y-108333333D01*
X85566666Y-108380952D01*
X85614285Y-108428571D01*
X85661904Y-108523809D01*
X85661904Y-108761904D01*
X85614285Y-108857142D01*
X85566666Y-108904761D01*
X85471428Y-108952380D01*
X85233333Y-108952380D01*
X85138095Y-108904761D01*
X85090476Y-108857142D01*
%TO.C,R54*%
X83644642Y-110652380D02*
X83311309Y-110176190D01*
X83073214Y-110652380D02*
X83073214Y-109652380D01*
X83454166Y-109652380D01*
X83549404Y-109700000D01*
X83597023Y-109747619D01*
X83644642Y-109842857D01*
X83644642Y-109985714D01*
X83597023Y-110080952D01*
X83549404Y-110128571D01*
X83454166Y-110176190D01*
X83073214Y-110176190D01*
X84549404Y-109652380D02*
X84073214Y-109652380D01*
X84025595Y-110128571D01*
X84073214Y-110080952D01*
X84168452Y-110033333D01*
X84406547Y-110033333D01*
X84501785Y-110080952D01*
X84549404Y-110128571D01*
X84597023Y-110223809D01*
X84597023Y-110461904D01*
X84549404Y-110557142D01*
X84501785Y-110604761D01*
X84406547Y-110652380D01*
X84168452Y-110652380D01*
X84073214Y-110604761D01*
X84025595Y-110557142D01*
X85454166Y-109985714D02*
X85454166Y-110652380D01*
X85216071Y-109604761D02*
X84977976Y-110319047D01*
X85597023Y-110319047D01*
%TO.C,R53*%
X104857142Y-115689880D02*
X104523809Y-115213690D01*
X104285714Y-115689880D02*
X104285714Y-114689880D01*
X104666666Y-114689880D01*
X104761904Y-114737500D01*
X104809523Y-114785119D01*
X104857142Y-114880357D01*
X104857142Y-115023214D01*
X104809523Y-115118452D01*
X104761904Y-115166071D01*
X104666666Y-115213690D01*
X104285714Y-115213690D01*
X105761904Y-114689880D02*
X105285714Y-114689880D01*
X105238095Y-115166071D01*
X105285714Y-115118452D01*
X105380952Y-115070833D01*
X105619047Y-115070833D01*
X105714285Y-115118452D01*
X105761904Y-115166071D01*
X105809523Y-115261309D01*
X105809523Y-115499404D01*
X105761904Y-115594642D01*
X105714285Y-115642261D01*
X105619047Y-115689880D01*
X105380952Y-115689880D01*
X105285714Y-115642261D01*
X105238095Y-115594642D01*
X106142857Y-114689880D02*
X106761904Y-114689880D01*
X106428571Y-115070833D01*
X106571428Y-115070833D01*
X106666666Y-115118452D01*
X106714285Y-115166071D01*
X106761904Y-115261309D01*
X106761904Y-115499404D01*
X106714285Y-115594642D01*
X106666666Y-115642261D01*
X106571428Y-115689880D01*
X106285714Y-115689880D01*
X106190476Y-115642261D01*
X106142857Y-115594642D01*
%TO.C,R52*%
X117382380Y-110842857D02*
X116906190Y-111176190D01*
X117382380Y-111414285D02*
X116382380Y-111414285D01*
X116382380Y-111033333D01*
X116430000Y-110938095D01*
X116477619Y-110890476D01*
X116572857Y-110842857D01*
X116715714Y-110842857D01*
X116810952Y-110890476D01*
X116858571Y-110938095D01*
X116906190Y-111033333D01*
X116906190Y-111414285D01*
X116382380Y-109938095D02*
X116382380Y-110414285D01*
X116858571Y-110461904D01*
X116810952Y-110414285D01*
X116763333Y-110319047D01*
X116763333Y-110080952D01*
X116810952Y-109985714D01*
X116858571Y-109938095D01*
X116953809Y-109890476D01*
X117191904Y-109890476D01*
X117287142Y-109938095D01*
X117334761Y-109985714D01*
X117382380Y-110080952D01*
X117382380Y-110319047D01*
X117334761Y-110414285D01*
X117287142Y-110461904D01*
X116477619Y-109509523D02*
X116430000Y-109461904D01*
X116382380Y-109366666D01*
X116382380Y-109128571D01*
X116430000Y-109033333D01*
X116477619Y-108985714D01*
X116572857Y-108938095D01*
X116668095Y-108938095D01*
X116810952Y-108985714D01*
X117382380Y-109557142D01*
X117382380Y-108938095D01*
%TO.C,R51*%
X87357142Y-115539880D02*
X87023809Y-115063690D01*
X86785714Y-115539880D02*
X86785714Y-114539880D01*
X87166666Y-114539880D01*
X87261904Y-114587500D01*
X87309523Y-114635119D01*
X87357142Y-114730357D01*
X87357142Y-114873214D01*
X87309523Y-114968452D01*
X87261904Y-115016071D01*
X87166666Y-115063690D01*
X86785714Y-115063690D01*
X88261904Y-114539880D02*
X87785714Y-114539880D01*
X87738095Y-115016071D01*
X87785714Y-114968452D01*
X87880952Y-114920833D01*
X88119047Y-114920833D01*
X88214285Y-114968452D01*
X88261904Y-115016071D01*
X88309523Y-115111309D01*
X88309523Y-115349404D01*
X88261904Y-115444642D01*
X88214285Y-115492261D01*
X88119047Y-115539880D01*
X87880952Y-115539880D01*
X87785714Y-115492261D01*
X87738095Y-115444642D01*
X89261904Y-115539880D02*
X88690476Y-115539880D01*
X88976190Y-115539880D02*
X88976190Y-114539880D01*
X88880952Y-114682738D01*
X88785714Y-114777976D01*
X88690476Y-114825595D01*
%TO.C,R50*%
X99582380Y-110842857D02*
X99106190Y-111176190D01*
X99582380Y-111414285D02*
X98582380Y-111414285D01*
X98582380Y-111033333D01*
X98630000Y-110938095D01*
X98677619Y-110890476D01*
X98772857Y-110842857D01*
X98915714Y-110842857D01*
X99010952Y-110890476D01*
X99058571Y-110938095D01*
X99106190Y-111033333D01*
X99106190Y-111414285D01*
X98582380Y-109938095D02*
X98582380Y-110414285D01*
X99058571Y-110461904D01*
X99010952Y-110414285D01*
X98963333Y-110319047D01*
X98963333Y-110080952D01*
X99010952Y-109985714D01*
X99058571Y-109938095D01*
X99153809Y-109890476D01*
X99391904Y-109890476D01*
X99487142Y-109938095D01*
X99534761Y-109985714D01*
X99582380Y-110080952D01*
X99582380Y-110319047D01*
X99534761Y-110414285D01*
X99487142Y-110461904D01*
X98582380Y-109271428D02*
X98582380Y-109176190D01*
X98630000Y-109080952D01*
X98677619Y-109033333D01*
X98772857Y-108985714D01*
X98963333Y-108938095D01*
X99201428Y-108938095D01*
X99391904Y-108985714D01*
X99487142Y-109033333D01*
X99534761Y-109080952D01*
X99582380Y-109176190D01*
X99582380Y-109271428D01*
X99534761Y-109366666D01*
X99487142Y-109414285D01*
X99391904Y-109461904D01*
X99201428Y-109509523D01*
X98963333Y-109509523D01*
X98772857Y-109461904D01*
X98677619Y-109414285D01*
X98630000Y-109366666D01*
X98582380Y-109271428D01*
%TO.C,R43*%
X89744642Y-103352380D02*
X89411309Y-102876190D01*
X89173214Y-103352380D02*
X89173214Y-102352380D01*
X89554166Y-102352380D01*
X89649404Y-102400000D01*
X89697023Y-102447619D01*
X89744642Y-102542857D01*
X89744642Y-102685714D01*
X89697023Y-102780952D01*
X89649404Y-102828571D01*
X89554166Y-102876190D01*
X89173214Y-102876190D01*
X90601785Y-102685714D02*
X90601785Y-103352380D01*
X90363690Y-102304761D02*
X90125595Y-103019047D01*
X90744642Y-103019047D01*
X91030357Y-102352380D02*
X91649404Y-102352380D01*
X91316071Y-102733333D01*
X91458928Y-102733333D01*
X91554166Y-102780952D01*
X91601785Y-102828571D01*
X91649404Y-102923809D01*
X91649404Y-103161904D01*
X91601785Y-103257142D01*
X91554166Y-103304761D01*
X91458928Y-103352380D01*
X91173214Y-103352380D01*
X91077976Y-103304761D01*
X91030357Y-103257142D01*
%TO.C,R42*%
X91744642Y-91222380D02*
X91411309Y-90746190D01*
X91173214Y-91222380D02*
X91173214Y-90222380D01*
X91554166Y-90222380D01*
X91649404Y-90270000D01*
X91697023Y-90317619D01*
X91744642Y-90412857D01*
X91744642Y-90555714D01*
X91697023Y-90650952D01*
X91649404Y-90698571D01*
X91554166Y-90746190D01*
X91173214Y-90746190D01*
X92601785Y-90555714D02*
X92601785Y-91222380D01*
X92363690Y-90174761D02*
X92125595Y-90889047D01*
X92744642Y-90889047D01*
X93077976Y-90317619D02*
X93125595Y-90270000D01*
X93220833Y-90222380D01*
X93458928Y-90222380D01*
X93554166Y-90270000D01*
X93601785Y-90317619D01*
X93649404Y-90412857D01*
X93649404Y-90508095D01*
X93601785Y-90650952D01*
X93030357Y-91222380D01*
X93649404Y-91222380D01*
%TO.C,R41*%
X93569642Y-103282380D02*
X93236309Y-102806190D01*
X92998214Y-103282380D02*
X92998214Y-102282380D01*
X93379166Y-102282380D01*
X93474404Y-102330000D01*
X93522023Y-102377619D01*
X93569642Y-102472857D01*
X93569642Y-102615714D01*
X93522023Y-102710952D01*
X93474404Y-102758571D01*
X93379166Y-102806190D01*
X92998214Y-102806190D01*
X94426785Y-102615714D02*
X94426785Y-103282380D01*
X94188690Y-102234761D02*
X93950595Y-102949047D01*
X94569642Y-102949047D01*
X95474404Y-103282380D02*
X94902976Y-103282380D01*
X95188690Y-103282380D02*
X95188690Y-102282380D01*
X95093452Y-102425238D01*
X94998214Y-102520476D01*
X94902976Y-102568095D01*
%TO.C,R40*%
X95457142Y-91252380D02*
X95123809Y-90776190D01*
X94885714Y-91252380D02*
X94885714Y-90252380D01*
X95266666Y-90252380D01*
X95361904Y-90300000D01*
X95409523Y-90347619D01*
X95457142Y-90442857D01*
X95457142Y-90585714D01*
X95409523Y-90680952D01*
X95361904Y-90728571D01*
X95266666Y-90776190D01*
X94885714Y-90776190D01*
X96314285Y-90585714D02*
X96314285Y-91252380D01*
X96076190Y-90204761D02*
X95838095Y-90919047D01*
X96457142Y-90919047D01*
X97028571Y-90252380D02*
X97123809Y-90252380D01*
X97219047Y-90300000D01*
X97266666Y-90347619D01*
X97314285Y-90442857D01*
X97361904Y-90633333D01*
X97361904Y-90871428D01*
X97314285Y-91061904D01*
X97266666Y-91157142D01*
X97219047Y-91204761D01*
X97123809Y-91252380D01*
X97028571Y-91252380D01*
X96933333Y-91204761D01*
X96885714Y-91157142D01*
X96838095Y-91061904D01*
X96790476Y-90871428D01*
X96790476Y-90633333D01*
X96838095Y-90442857D01*
X96885714Y-90347619D01*
X96933333Y-90300000D01*
X97028571Y-90252380D01*
%TO.C,R37*%
X111707142Y-80852380D02*
X111373809Y-80376190D01*
X111135714Y-80852380D02*
X111135714Y-79852380D01*
X111516666Y-79852380D01*
X111611904Y-79900000D01*
X111659523Y-79947619D01*
X111707142Y-80042857D01*
X111707142Y-80185714D01*
X111659523Y-80280952D01*
X111611904Y-80328571D01*
X111516666Y-80376190D01*
X111135714Y-80376190D01*
X112040476Y-79852380D02*
X112659523Y-79852380D01*
X112326190Y-80233333D01*
X112469047Y-80233333D01*
X112564285Y-80280952D01*
X112611904Y-80328571D01*
X112659523Y-80423809D01*
X112659523Y-80661904D01*
X112611904Y-80757142D01*
X112564285Y-80804761D01*
X112469047Y-80852380D01*
X112183333Y-80852380D01*
X112088095Y-80804761D01*
X112040476Y-80757142D01*
X112992857Y-79852380D02*
X113659523Y-79852380D01*
X113230952Y-80852380D01*
%TO.C,R36*%
X111794642Y-69122380D02*
X111461309Y-68646190D01*
X111223214Y-69122380D02*
X111223214Y-68122380D01*
X111604166Y-68122380D01*
X111699404Y-68170000D01*
X111747023Y-68217619D01*
X111794642Y-68312857D01*
X111794642Y-68455714D01*
X111747023Y-68550952D01*
X111699404Y-68598571D01*
X111604166Y-68646190D01*
X111223214Y-68646190D01*
X112127976Y-68122380D02*
X112747023Y-68122380D01*
X112413690Y-68503333D01*
X112556547Y-68503333D01*
X112651785Y-68550952D01*
X112699404Y-68598571D01*
X112747023Y-68693809D01*
X112747023Y-68931904D01*
X112699404Y-69027142D01*
X112651785Y-69074761D01*
X112556547Y-69122380D01*
X112270833Y-69122380D01*
X112175595Y-69074761D01*
X112127976Y-69027142D01*
X113604166Y-68122380D02*
X113413690Y-68122380D01*
X113318452Y-68170000D01*
X113270833Y-68217619D01*
X113175595Y-68360476D01*
X113127976Y-68550952D01*
X113127976Y-68931904D01*
X113175595Y-69027142D01*
X113223214Y-69074761D01*
X113318452Y-69122380D01*
X113508928Y-69122380D01*
X113604166Y-69074761D01*
X113651785Y-69027142D01*
X113699404Y-68931904D01*
X113699404Y-68693809D01*
X113651785Y-68598571D01*
X113604166Y-68550952D01*
X113508928Y-68503333D01*
X113318452Y-68503333D01*
X113223214Y-68550952D01*
X113175595Y-68598571D01*
X113127976Y-68693809D01*
%TO.C,R35*%
X111694642Y-77882380D02*
X111361309Y-77406190D01*
X111123214Y-77882380D02*
X111123214Y-76882380D01*
X111504166Y-76882380D01*
X111599404Y-76930000D01*
X111647023Y-76977619D01*
X111694642Y-77072857D01*
X111694642Y-77215714D01*
X111647023Y-77310952D01*
X111599404Y-77358571D01*
X111504166Y-77406190D01*
X111123214Y-77406190D01*
X112027976Y-76882380D02*
X112647023Y-76882380D01*
X112313690Y-77263333D01*
X112456547Y-77263333D01*
X112551785Y-77310952D01*
X112599404Y-77358571D01*
X112647023Y-77453809D01*
X112647023Y-77691904D01*
X112599404Y-77787142D01*
X112551785Y-77834761D01*
X112456547Y-77882380D01*
X112170833Y-77882380D01*
X112075595Y-77834761D01*
X112027976Y-77787142D01*
X113551785Y-76882380D02*
X113075595Y-76882380D01*
X113027976Y-77358571D01*
X113075595Y-77310952D01*
X113170833Y-77263333D01*
X113408928Y-77263333D01*
X113504166Y-77310952D01*
X113551785Y-77358571D01*
X113599404Y-77453809D01*
X113599404Y-77691904D01*
X113551785Y-77787142D01*
X113504166Y-77834761D01*
X113408928Y-77882380D01*
X113170833Y-77882380D01*
X113075595Y-77834761D01*
X113027976Y-77787142D01*
%TO.C,R34*%
X111907142Y-72052380D02*
X111573809Y-71576190D01*
X111335714Y-72052380D02*
X111335714Y-71052380D01*
X111716666Y-71052380D01*
X111811904Y-71100000D01*
X111859523Y-71147619D01*
X111907142Y-71242857D01*
X111907142Y-71385714D01*
X111859523Y-71480952D01*
X111811904Y-71528571D01*
X111716666Y-71576190D01*
X111335714Y-71576190D01*
X112240476Y-71052380D02*
X112859523Y-71052380D01*
X112526190Y-71433333D01*
X112669047Y-71433333D01*
X112764285Y-71480952D01*
X112811904Y-71528571D01*
X112859523Y-71623809D01*
X112859523Y-71861904D01*
X112811904Y-71957142D01*
X112764285Y-72004761D01*
X112669047Y-72052380D01*
X112383333Y-72052380D01*
X112288095Y-72004761D01*
X112240476Y-71957142D01*
X113716666Y-71385714D02*
X113716666Y-72052380D01*
X113478571Y-71004761D02*
X113240476Y-71719047D01*
X113859523Y-71719047D01*
%TO.C,R33*%
X116272380Y-71042857D02*
X115796190Y-71376190D01*
X116272380Y-71614285D02*
X115272380Y-71614285D01*
X115272380Y-71233333D01*
X115320000Y-71138095D01*
X115367619Y-71090476D01*
X115462857Y-71042857D01*
X115605714Y-71042857D01*
X115700952Y-71090476D01*
X115748571Y-71138095D01*
X115796190Y-71233333D01*
X115796190Y-71614285D01*
X115272380Y-70709523D02*
X115272380Y-70090476D01*
X115653333Y-70423809D01*
X115653333Y-70280952D01*
X115700952Y-70185714D01*
X115748571Y-70138095D01*
X115843809Y-70090476D01*
X116081904Y-70090476D01*
X116177142Y-70138095D01*
X116224761Y-70185714D01*
X116272380Y-70280952D01*
X116272380Y-70566666D01*
X116224761Y-70661904D01*
X116177142Y-70709523D01*
X115272380Y-69757142D02*
X115272380Y-69138095D01*
X115653333Y-69471428D01*
X115653333Y-69328571D01*
X115700952Y-69233333D01*
X115748571Y-69185714D01*
X115843809Y-69138095D01*
X116081904Y-69138095D01*
X116177142Y-69185714D01*
X116224761Y-69233333D01*
X116272380Y-69328571D01*
X116272380Y-69614285D01*
X116224761Y-69709523D01*
X116177142Y-69757142D01*
%TO.C,R32*%
X118407142Y-73452380D02*
X118073809Y-72976190D01*
X117835714Y-73452380D02*
X117835714Y-72452380D01*
X118216666Y-72452380D01*
X118311904Y-72500000D01*
X118359523Y-72547619D01*
X118407142Y-72642857D01*
X118407142Y-72785714D01*
X118359523Y-72880952D01*
X118311904Y-72928571D01*
X118216666Y-72976190D01*
X117835714Y-72976190D01*
X118740476Y-72452380D02*
X119359523Y-72452380D01*
X119026190Y-72833333D01*
X119169047Y-72833333D01*
X119264285Y-72880952D01*
X119311904Y-72928571D01*
X119359523Y-73023809D01*
X119359523Y-73261904D01*
X119311904Y-73357142D01*
X119264285Y-73404761D01*
X119169047Y-73452380D01*
X118883333Y-73452380D01*
X118788095Y-73404761D01*
X118740476Y-73357142D01*
X119740476Y-72547619D02*
X119788095Y-72500000D01*
X119883333Y-72452380D01*
X120121428Y-72452380D01*
X120216666Y-72500000D01*
X120264285Y-72547619D01*
X120311904Y-72642857D01*
X120311904Y-72738095D01*
X120264285Y-72880952D01*
X119692857Y-73452380D01*
X120311904Y-73452380D01*
%TO.C,R31*%
X118394642Y-76452380D02*
X118061309Y-75976190D01*
X117823214Y-76452380D02*
X117823214Y-75452380D01*
X118204166Y-75452380D01*
X118299404Y-75500000D01*
X118347023Y-75547619D01*
X118394642Y-75642857D01*
X118394642Y-75785714D01*
X118347023Y-75880952D01*
X118299404Y-75928571D01*
X118204166Y-75976190D01*
X117823214Y-75976190D01*
X118727976Y-75452380D02*
X119347023Y-75452380D01*
X119013690Y-75833333D01*
X119156547Y-75833333D01*
X119251785Y-75880952D01*
X119299404Y-75928571D01*
X119347023Y-76023809D01*
X119347023Y-76261904D01*
X119299404Y-76357142D01*
X119251785Y-76404761D01*
X119156547Y-76452380D01*
X118870833Y-76452380D01*
X118775595Y-76404761D01*
X118727976Y-76357142D01*
X120299404Y-76452380D02*
X119727976Y-76452380D01*
X120013690Y-76452380D02*
X120013690Y-75452380D01*
X119918452Y-75595238D01*
X119823214Y-75690476D01*
X119727976Y-75738095D01*
%TO.C,R30*%
X116272380Y-79230357D02*
X115796190Y-79563690D01*
X116272380Y-79801785D02*
X115272380Y-79801785D01*
X115272380Y-79420833D01*
X115320000Y-79325595D01*
X115367619Y-79277976D01*
X115462857Y-79230357D01*
X115605714Y-79230357D01*
X115700952Y-79277976D01*
X115748571Y-79325595D01*
X115796190Y-79420833D01*
X115796190Y-79801785D01*
X115272380Y-78897023D02*
X115272380Y-78277976D01*
X115653333Y-78611309D01*
X115653333Y-78468452D01*
X115700952Y-78373214D01*
X115748571Y-78325595D01*
X115843809Y-78277976D01*
X116081904Y-78277976D01*
X116177142Y-78325595D01*
X116224761Y-78373214D01*
X116272380Y-78468452D01*
X116272380Y-78754166D01*
X116224761Y-78849404D01*
X116177142Y-78897023D01*
X115272380Y-77658928D02*
X115272380Y-77563690D01*
X115320000Y-77468452D01*
X115367619Y-77420833D01*
X115462857Y-77373214D01*
X115653333Y-77325595D01*
X115891428Y-77325595D01*
X116081904Y-77373214D01*
X116177142Y-77420833D01*
X116224761Y-77468452D01*
X116272380Y-77563690D01*
X116272380Y-77658928D01*
X116224761Y-77754166D01*
X116177142Y-77801785D01*
X116081904Y-77849404D01*
X115891428Y-77897023D01*
X115653333Y-77897023D01*
X115462857Y-77849404D01*
X115367619Y-77801785D01*
X115320000Y-77754166D01*
X115272380Y-77658928D01*
%TO.C,R23*%
X82052380Y-82942857D02*
X81576190Y-83276190D01*
X82052380Y-83514285D02*
X81052380Y-83514285D01*
X81052380Y-83133333D01*
X81100000Y-83038095D01*
X81147619Y-82990476D01*
X81242857Y-82942857D01*
X81385714Y-82942857D01*
X81480952Y-82990476D01*
X81528571Y-83038095D01*
X81576190Y-83133333D01*
X81576190Y-83514285D01*
X81147619Y-82561904D02*
X81100000Y-82514285D01*
X81052380Y-82419047D01*
X81052380Y-82180952D01*
X81100000Y-82085714D01*
X81147619Y-82038095D01*
X81242857Y-81990476D01*
X81338095Y-81990476D01*
X81480952Y-82038095D01*
X82052380Y-82609523D01*
X82052380Y-81990476D01*
X81052380Y-81657142D02*
X81052380Y-81038095D01*
X81433333Y-81371428D01*
X81433333Y-81228571D01*
X81480952Y-81133333D01*
X81528571Y-81085714D01*
X81623809Y-81038095D01*
X81861904Y-81038095D01*
X81957142Y-81085714D01*
X82004761Y-81133333D01*
X82052380Y-81228571D01*
X82052380Y-81514285D01*
X82004761Y-81609523D01*
X81957142Y-81657142D01*
%TO.C,R22*%
X82052380Y-68442857D02*
X81576190Y-68776190D01*
X82052380Y-69014285D02*
X81052380Y-69014285D01*
X81052380Y-68633333D01*
X81100000Y-68538095D01*
X81147619Y-68490476D01*
X81242857Y-68442857D01*
X81385714Y-68442857D01*
X81480952Y-68490476D01*
X81528571Y-68538095D01*
X81576190Y-68633333D01*
X81576190Y-69014285D01*
X81147619Y-68061904D02*
X81100000Y-68014285D01*
X81052380Y-67919047D01*
X81052380Y-67680952D01*
X81100000Y-67585714D01*
X81147619Y-67538095D01*
X81242857Y-67490476D01*
X81338095Y-67490476D01*
X81480952Y-67538095D01*
X82052380Y-68109523D01*
X82052380Y-67490476D01*
X81147619Y-67109523D02*
X81100000Y-67061904D01*
X81052380Y-66966666D01*
X81052380Y-66728571D01*
X81100000Y-66633333D01*
X81147619Y-66585714D01*
X81242857Y-66538095D01*
X81338095Y-66538095D01*
X81480952Y-66585714D01*
X82052380Y-67157142D01*
X82052380Y-66538095D01*
%TO.C,R21*%
X83969642Y-84782380D02*
X83636309Y-84306190D01*
X83398214Y-84782380D02*
X83398214Y-83782380D01*
X83779166Y-83782380D01*
X83874404Y-83830000D01*
X83922023Y-83877619D01*
X83969642Y-83972857D01*
X83969642Y-84115714D01*
X83922023Y-84210952D01*
X83874404Y-84258571D01*
X83779166Y-84306190D01*
X83398214Y-84306190D01*
X84350595Y-83877619D02*
X84398214Y-83830000D01*
X84493452Y-83782380D01*
X84731547Y-83782380D01*
X84826785Y-83830000D01*
X84874404Y-83877619D01*
X84922023Y-83972857D01*
X84922023Y-84068095D01*
X84874404Y-84210952D01*
X84302976Y-84782380D01*
X84922023Y-84782380D01*
X85874404Y-84782380D02*
X85302976Y-84782380D01*
X85588690Y-84782380D02*
X85588690Y-83782380D01*
X85493452Y-83925238D01*
X85398214Y-84020476D01*
X85302976Y-84068095D01*
%TO.C,R20*%
X83957142Y-66152380D02*
X83623809Y-65676190D01*
X83385714Y-66152380D02*
X83385714Y-65152380D01*
X83766666Y-65152380D01*
X83861904Y-65200000D01*
X83909523Y-65247619D01*
X83957142Y-65342857D01*
X83957142Y-65485714D01*
X83909523Y-65580952D01*
X83861904Y-65628571D01*
X83766666Y-65676190D01*
X83385714Y-65676190D01*
X84338095Y-65247619D02*
X84385714Y-65200000D01*
X84480952Y-65152380D01*
X84719047Y-65152380D01*
X84814285Y-65200000D01*
X84861904Y-65247619D01*
X84909523Y-65342857D01*
X84909523Y-65438095D01*
X84861904Y-65580952D01*
X84290476Y-66152380D01*
X84909523Y-66152380D01*
X85528571Y-65152380D02*
X85623809Y-65152380D01*
X85719047Y-65200000D01*
X85766666Y-65247619D01*
X85814285Y-65342857D01*
X85861904Y-65533333D01*
X85861904Y-65771428D01*
X85814285Y-65961904D01*
X85766666Y-66057142D01*
X85719047Y-66104761D01*
X85623809Y-66152380D01*
X85528571Y-66152380D01*
X85433333Y-66104761D01*
X85385714Y-66057142D01*
X85338095Y-65961904D01*
X85290476Y-65771428D01*
X85290476Y-65533333D01*
X85338095Y-65342857D01*
X85385714Y-65247619D01*
X85433333Y-65200000D01*
X85528571Y-65152380D01*
%TO.C,R14*%
X78044642Y-106352380D02*
X77711309Y-105876190D01*
X77473214Y-106352380D02*
X77473214Y-105352380D01*
X77854166Y-105352380D01*
X77949404Y-105400000D01*
X77997023Y-105447619D01*
X78044642Y-105542857D01*
X78044642Y-105685714D01*
X77997023Y-105780952D01*
X77949404Y-105828571D01*
X77854166Y-105876190D01*
X77473214Y-105876190D01*
X78997023Y-106352380D02*
X78425595Y-106352380D01*
X78711309Y-106352380D02*
X78711309Y-105352380D01*
X78616071Y-105495238D01*
X78520833Y-105590476D01*
X78425595Y-105638095D01*
X79854166Y-105685714D02*
X79854166Y-106352380D01*
X79616071Y-105304761D02*
X79377976Y-106019047D01*
X79997023Y-106019047D01*
%TO.C,R13*%
X78057142Y-88352380D02*
X77723809Y-87876190D01*
X77485714Y-88352380D02*
X77485714Y-87352380D01*
X77866666Y-87352380D01*
X77961904Y-87400000D01*
X78009523Y-87447619D01*
X78057142Y-87542857D01*
X78057142Y-87685714D01*
X78009523Y-87780952D01*
X77961904Y-87828571D01*
X77866666Y-87876190D01*
X77485714Y-87876190D01*
X79009523Y-88352380D02*
X78438095Y-88352380D01*
X78723809Y-88352380D02*
X78723809Y-87352380D01*
X78628571Y-87495238D01*
X78533333Y-87590476D01*
X78438095Y-87638095D01*
X79342857Y-87352380D02*
X79961904Y-87352380D01*
X79628571Y-87733333D01*
X79771428Y-87733333D01*
X79866666Y-87780952D01*
X79914285Y-87828571D01*
X79961904Y-87923809D01*
X79961904Y-88161904D01*
X79914285Y-88257142D01*
X79866666Y-88304761D01*
X79771428Y-88352380D01*
X79485714Y-88352380D01*
X79390476Y-88304761D01*
X79342857Y-88257142D01*
%TO.C,R12*%
X78257142Y-66452380D02*
X77923809Y-65976190D01*
X77685714Y-66452380D02*
X77685714Y-65452380D01*
X78066666Y-65452380D01*
X78161904Y-65500000D01*
X78209523Y-65547619D01*
X78257142Y-65642857D01*
X78257142Y-65785714D01*
X78209523Y-65880952D01*
X78161904Y-65928571D01*
X78066666Y-65976190D01*
X77685714Y-65976190D01*
X79209523Y-66452380D02*
X78638095Y-66452380D01*
X78923809Y-66452380D02*
X78923809Y-65452380D01*
X78828571Y-65595238D01*
X78733333Y-65690476D01*
X78638095Y-65738095D01*
X79590476Y-65547619D02*
X79638095Y-65500000D01*
X79733333Y-65452380D01*
X79971428Y-65452380D01*
X80066666Y-65500000D01*
X80114285Y-65547619D01*
X80161904Y-65642857D01*
X80161904Y-65738095D01*
X80114285Y-65880952D01*
X79542857Y-66452380D01*
X80161904Y-66452380D01*
%TO.C,R11*%
X78057142Y-84452380D02*
X77723809Y-83976190D01*
X77485714Y-84452380D02*
X77485714Y-83452380D01*
X77866666Y-83452380D01*
X77961904Y-83500000D01*
X78009523Y-83547619D01*
X78057142Y-83642857D01*
X78057142Y-83785714D01*
X78009523Y-83880952D01*
X77961904Y-83928571D01*
X77866666Y-83976190D01*
X77485714Y-83976190D01*
X79009523Y-84452380D02*
X78438095Y-84452380D01*
X78723809Y-84452380D02*
X78723809Y-83452380D01*
X78628571Y-83595238D01*
X78533333Y-83690476D01*
X78438095Y-83738095D01*
X79961904Y-84452380D02*
X79390476Y-84452380D01*
X79676190Y-84452380D02*
X79676190Y-83452380D01*
X79580952Y-83595238D01*
X79485714Y-83690476D01*
X79390476Y-83738095D01*
%TO.C,R10*%
X81157142Y-59952380D02*
X80823809Y-59476190D01*
X80585714Y-59952380D02*
X80585714Y-58952380D01*
X80966666Y-58952380D01*
X81061904Y-59000000D01*
X81109523Y-59047619D01*
X81157142Y-59142857D01*
X81157142Y-59285714D01*
X81109523Y-59380952D01*
X81061904Y-59428571D01*
X80966666Y-59476190D01*
X80585714Y-59476190D01*
X82109523Y-59952380D02*
X81538095Y-59952380D01*
X81823809Y-59952380D02*
X81823809Y-58952380D01*
X81728571Y-59095238D01*
X81633333Y-59190476D01*
X81538095Y-59238095D01*
X82728571Y-58952380D02*
X82823809Y-58952380D01*
X82919047Y-59000000D01*
X82966666Y-59047619D01*
X83014285Y-59142857D01*
X83061904Y-59333333D01*
X83061904Y-59571428D01*
X83014285Y-59761904D01*
X82966666Y-59857142D01*
X82919047Y-59904761D01*
X82823809Y-59952380D01*
X82728571Y-59952380D01*
X82633333Y-59904761D01*
X82585714Y-59857142D01*
X82538095Y-59761904D01*
X82490476Y-59571428D01*
X82490476Y-59333333D01*
X82538095Y-59142857D01*
X82585714Y-59047619D01*
X82633333Y-59000000D01*
X82728571Y-58952380D01*
%TO.C,U51*%
X107161904Y-107252380D02*
X107161904Y-108061904D01*
X107209523Y-108157142D01*
X107257142Y-108204761D01*
X107352380Y-108252380D01*
X107542857Y-108252380D01*
X107638095Y-108204761D01*
X107685714Y-108157142D01*
X107733333Y-108061904D01*
X107733333Y-107252380D01*
X108685714Y-107252380D02*
X108209523Y-107252380D01*
X108161904Y-107728571D01*
X108209523Y-107680952D01*
X108304761Y-107633333D01*
X108542857Y-107633333D01*
X108638095Y-107680952D01*
X108685714Y-107728571D01*
X108733333Y-107823809D01*
X108733333Y-108061904D01*
X108685714Y-108157142D01*
X108638095Y-108204761D01*
X108542857Y-108252380D01*
X108304761Y-108252380D01*
X108209523Y-108204761D01*
X108161904Y-108157142D01*
X109685714Y-108252380D02*
X109114285Y-108252380D01*
X109400000Y-108252380D02*
X109400000Y-107252380D01*
X109304761Y-107395238D01*
X109209523Y-107490476D01*
X109114285Y-107538095D01*
%TO.C,U50*%
X89461904Y-107252380D02*
X89461904Y-108061904D01*
X89509523Y-108157142D01*
X89557142Y-108204761D01*
X89652380Y-108252380D01*
X89842857Y-108252380D01*
X89938095Y-108204761D01*
X89985714Y-108157142D01*
X90033333Y-108061904D01*
X90033333Y-107252380D01*
X90985714Y-107252380D02*
X90509523Y-107252380D01*
X90461904Y-107728571D01*
X90509523Y-107680952D01*
X90604761Y-107633333D01*
X90842857Y-107633333D01*
X90938095Y-107680952D01*
X90985714Y-107728571D01*
X91033333Y-107823809D01*
X91033333Y-108061904D01*
X90985714Y-108157142D01*
X90938095Y-108204761D01*
X90842857Y-108252380D01*
X90604761Y-108252380D01*
X90509523Y-108204761D01*
X90461904Y-108157142D01*
X91652380Y-107252380D02*
X91747619Y-107252380D01*
X91842857Y-107300000D01*
X91890476Y-107347619D01*
X91938095Y-107442857D01*
X91985714Y-107633333D01*
X91985714Y-107871428D01*
X91938095Y-108061904D01*
X91890476Y-108157142D01*
X91842857Y-108204761D01*
X91747619Y-108252380D01*
X91652380Y-108252380D01*
X91557142Y-108204761D01*
X91509523Y-108157142D01*
X91461904Y-108061904D01*
X91414285Y-107871428D01*
X91414285Y-107633333D01*
X91461904Y-107442857D01*
X91509523Y-107347619D01*
X91557142Y-107300000D01*
X91652380Y-107252380D01*
%TO.C,U40*%
X94361904Y-93252380D02*
X94361904Y-94061904D01*
X94409523Y-94157142D01*
X94457142Y-94204761D01*
X94552380Y-94252380D01*
X94742857Y-94252380D01*
X94838095Y-94204761D01*
X94885714Y-94157142D01*
X94933333Y-94061904D01*
X94933333Y-93252380D01*
X95838095Y-93585714D02*
X95838095Y-94252380D01*
X95600000Y-93204761D02*
X95361904Y-93919047D01*
X95980952Y-93919047D01*
X96552380Y-93252380D02*
X96647619Y-93252380D01*
X96742857Y-93300000D01*
X96790476Y-93347619D01*
X96838095Y-93442857D01*
X96885714Y-93633333D01*
X96885714Y-93871428D01*
X96838095Y-94061904D01*
X96790476Y-94157142D01*
X96742857Y-94204761D01*
X96647619Y-94252380D01*
X96552380Y-94252380D01*
X96457142Y-94204761D01*
X96409523Y-94157142D01*
X96361904Y-94061904D01*
X96314285Y-93871428D01*
X96314285Y-93633333D01*
X96361904Y-93442857D01*
X96409523Y-93347619D01*
X96457142Y-93300000D01*
X96552380Y-93252380D01*
%TO.C,U30*%
X105211904Y-71452380D02*
X105211904Y-72261904D01*
X105259523Y-72357142D01*
X105307142Y-72404761D01*
X105402380Y-72452380D01*
X105592857Y-72452380D01*
X105688095Y-72404761D01*
X105735714Y-72357142D01*
X105783333Y-72261904D01*
X105783333Y-71452380D01*
X106164285Y-71452380D02*
X106783333Y-71452380D01*
X106450000Y-71833333D01*
X106592857Y-71833333D01*
X106688095Y-71880952D01*
X106735714Y-71928571D01*
X106783333Y-72023809D01*
X106783333Y-72261904D01*
X106735714Y-72357142D01*
X106688095Y-72404761D01*
X106592857Y-72452380D01*
X106307142Y-72452380D01*
X106211904Y-72404761D01*
X106164285Y-72357142D01*
X107402380Y-71452380D02*
X107497619Y-71452380D01*
X107592857Y-71500000D01*
X107640476Y-71547619D01*
X107688095Y-71642857D01*
X107735714Y-71833333D01*
X107735714Y-72071428D01*
X107688095Y-72261904D01*
X107640476Y-72357142D01*
X107592857Y-72404761D01*
X107497619Y-72452380D01*
X107402380Y-72452380D01*
X107307142Y-72404761D01*
X107259523Y-72357142D01*
X107211904Y-72261904D01*
X107164285Y-72071428D01*
X107164285Y-71833333D01*
X107211904Y-71642857D01*
X107259523Y-71547619D01*
X107307142Y-71500000D01*
X107402380Y-71452380D01*
%TO.C,U20*%
X88861904Y-70052380D02*
X88861904Y-70861904D01*
X88909523Y-70957142D01*
X88957142Y-71004761D01*
X89052380Y-71052380D01*
X89242857Y-71052380D01*
X89338095Y-71004761D01*
X89385714Y-70957142D01*
X89433333Y-70861904D01*
X89433333Y-70052380D01*
X89861904Y-70147619D02*
X89909523Y-70100000D01*
X90004761Y-70052380D01*
X90242857Y-70052380D01*
X90338095Y-70100000D01*
X90385714Y-70147619D01*
X90433333Y-70242857D01*
X90433333Y-70338095D01*
X90385714Y-70480952D01*
X89814285Y-71052380D01*
X90433333Y-71052380D01*
X91052380Y-70052380D02*
X91147619Y-70052380D01*
X91242857Y-70100000D01*
X91290476Y-70147619D01*
X91338095Y-70242857D01*
X91385714Y-70433333D01*
X91385714Y-70671428D01*
X91338095Y-70861904D01*
X91290476Y-70957142D01*
X91242857Y-71004761D01*
X91147619Y-71052380D01*
X91052380Y-71052380D01*
X90957142Y-71004761D01*
X90909523Y-70957142D01*
X90861904Y-70861904D01*
X90814285Y-70671428D01*
X90814285Y-70433333D01*
X90861904Y-70242857D01*
X90909523Y-70147619D01*
X90957142Y-70100000D01*
X91052380Y-70052380D01*
%TO.C,Q10*%
X84628571Y-53047619D02*
X84533333Y-53000000D01*
X84438095Y-52904761D01*
X84295238Y-52761904D01*
X84200000Y-52714285D01*
X84104761Y-52714285D01*
X84152380Y-52952380D02*
X84057142Y-52904761D01*
X83961904Y-52809523D01*
X83914285Y-52619047D01*
X83914285Y-52285714D01*
X83961904Y-52095238D01*
X84057142Y-52000000D01*
X84152380Y-51952380D01*
X84342857Y-51952380D01*
X84438095Y-52000000D01*
X84533333Y-52095238D01*
X84580952Y-52285714D01*
X84580952Y-52619047D01*
X84533333Y-52809523D01*
X84438095Y-52904761D01*
X84342857Y-52952380D01*
X84152380Y-52952380D01*
X85533333Y-52952380D02*
X84961904Y-52952380D01*
X85247619Y-52952380D02*
X85247619Y-51952380D01*
X85152380Y-52095238D01*
X85057142Y-52190476D01*
X84961904Y-52238095D01*
X86152380Y-51952380D02*
X86247619Y-51952380D01*
X86342857Y-52000000D01*
X86390476Y-52047619D01*
X86438095Y-52142857D01*
X86485714Y-52333333D01*
X86485714Y-52571428D01*
X86438095Y-52761904D01*
X86390476Y-52857142D01*
X86342857Y-52904761D01*
X86247619Y-52952380D01*
X86152380Y-52952380D01*
X86057142Y-52904761D01*
X86009523Y-52857142D01*
X85961904Y-52761904D01*
X85914285Y-52571428D01*
X85914285Y-52333333D01*
X85961904Y-52142857D01*
X86009523Y-52047619D01*
X86057142Y-52000000D01*
X86152380Y-51952380D01*
%TO.C,L1*%
X103033333Y-56452380D02*
X102557142Y-56452380D01*
X102557142Y-55452380D01*
X103890476Y-56452380D02*
X103319047Y-56452380D01*
X103604761Y-56452380D02*
X103604761Y-55452380D01*
X103509523Y-55595238D01*
X103414285Y-55690476D01*
X103319047Y-55738095D01*
%TO.C,J3*%
X70366666Y-105552380D02*
X70366666Y-106266666D01*
X70319047Y-106409523D01*
X70223809Y-106504761D01*
X70080952Y-106552380D01*
X69985714Y-106552380D01*
X70747619Y-105552380D02*
X71366666Y-105552380D01*
X71033333Y-105933333D01*
X71176190Y-105933333D01*
X71271428Y-105980952D01*
X71319047Y-106028571D01*
X71366666Y-106123809D01*
X71366666Y-106361904D01*
X71319047Y-106457142D01*
X71271428Y-106504761D01*
X71176190Y-106552380D01*
X70890476Y-106552380D01*
X70795238Y-106504761D01*
X70747619Y-106457142D01*
%TO.C,J2*%
X70166666Y-83552380D02*
X70166666Y-84266666D01*
X70119047Y-84409523D01*
X70023809Y-84504761D01*
X69880952Y-84552380D01*
X69785714Y-84552380D01*
X70595238Y-83647619D02*
X70642857Y-83600000D01*
X70738095Y-83552380D01*
X70976190Y-83552380D01*
X71071428Y-83600000D01*
X71119047Y-83647619D01*
X71166666Y-83742857D01*
X71166666Y-83838095D01*
X71119047Y-83980952D01*
X70547619Y-84552380D01*
X71166666Y-84552380D01*
%TO.C,J1*%
X70266666Y-63052380D02*
X70266666Y-63766666D01*
X70219047Y-63909523D01*
X70123809Y-64004761D01*
X69980952Y-64052380D01*
X69885714Y-64052380D01*
X71266666Y-64052380D02*
X70695238Y-64052380D01*
X70980952Y-64052380D02*
X70980952Y-63052380D01*
X70885714Y-63195238D01*
X70790476Y-63290476D01*
X70695238Y-63338095D01*
%TO.C,D11*%
X86985714Y-53352380D02*
X86985714Y-52352380D01*
X87223809Y-52352380D01*
X87366666Y-52400000D01*
X87461904Y-52495238D01*
X87509523Y-52590476D01*
X87557142Y-52780952D01*
X87557142Y-52923809D01*
X87509523Y-53114285D01*
X87461904Y-53209523D01*
X87366666Y-53304761D01*
X87223809Y-53352380D01*
X86985714Y-53352380D01*
X88509523Y-53352380D02*
X87938095Y-53352380D01*
X88223809Y-53352380D02*
X88223809Y-52352380D01*
X88128571Y-52495238D01*
X88033333Y-52590476D01*
X87938095Y-52638095D01*
X89461904Y-53352380D02*
X88890476Y-53352380D01*
X89176190Y-53352380D02*
X89176190Y-52352380D01*
X89080952Y-52495238D01*
X88985714Y-52590476D01*
X88890476Y-52638095D01*
%TO.C,D10*%
X80985714Y-53352380D02*
X80985714Y-52352380D01*
X81223809Y-52352380D01*
X81366666Y-52400000D01*
X81461904Y-52495238D01*
X81509523Y-52590476D01*
X81557142Y-52780952D01*
X81557142Y-52923809D01*
X81509523Y-53114285D01*
X81461904Y-53209523D01*
X81366666Y-53304761D01*
X81223809Y-53352380D01*
X80985714Y-53352380D01*
X82509523Y-53352380D02*
X81938095Y-53352380D01*
X82223809Y-53352380D02*
X82223809Y-52352380D01*
X82128571Y-52495238D01*
X82033333Y-52590476D01*
X81938095Y-52638095D01*
X83128571Y-52352380D02*
X83223809Y-52352380D01*
X83319047Y-52400000D01*
X83366666Y-52447619D01*
X83414285Y-52542857D01*
X83461904Y-52733333D01*
X83461904Y-52971428D01*
X83414285Y-53161904D01*
X83366666Y-53257142D01*
X83319047Y-53304761D01*
X83223809Y-53352380D01*
X83128571Y-53352380D01*
X83033333Y-53304761D01*
X82985714Y-53257142D01*
X82938095Y-53161904D01*
X82890476Y-52971428D01*
X82890476Y-52733333D01*
X82938095Y-52542857D01*
X82985714Y-52447619D01*
X83033333Y-52400000D01*
X83128571Y-52352380D01*
%TO.C,C53*%
X101757142Y-112232142D02*
X101709523Y-112279761D01*
X101566666Y-112327380D01*
X101471428Y-112327380D01*
X101328571Y-112279761D01*
X101233333Y-112184523D01*
X101185714Y-112089285D01*
X101138095Y-111898809D01*
X101138095Y-111755952D01*
X101185714Y-111565476D01*
X101233333Y-111470238D01*
X101328571Y-111375000D01*
X101471428Y-111327380D01*
X101566666Y-111327380D01*
X101709523Y-111375000D01*
X101757142Y-111422619D01*
X102661904Y-111327380D02*
X102185714Y-111327380D01*
X102138095Y-111803571D01*
X102185714Y-111755952D01*
X102280952Y-111708333D01*
X102519047Y-111708333D01*
X102614285Y-111755952D01*
X102661904Y-111803571D01*
X102709523Y-111898809D01*
X102709523Y-112136904D01*
X102661904Y-112232142D01*
X102614285Y-112279761D01*
X102519047Y-112327380D01*
X102280952Y-112327380D01*
X102185714Y-112279761D01*
X102138095Y-112232142D01*
X103042857Y-111327380D02*
X103661904Y-111327380D01*
X103328571Y-111708333D01*
X103471428Y-111708333D01*
X103566666Y-111755952D01*
X103614285Y-111803571D01*
X103661904Y-111898809D01*
X103661904Y-112136904D01*
X103614285Y-112232142D01*
X103566666Y-112279761D01*
X103471428Y-112327380D01*
X103185714Y-112327380D01*
X103090476Y-112279761D01*
X103042857Y-112232142D01*
%TO.C,C52*%
X83857142Y-112157142D02*
X83809523Y-112204761D01*
X83666666Y-112252380D01*
X83571428Y-112252380D01*
X83428571Y-112204761D01*
X83333333Y-112109523D01*
X83285714Y-112014285D01*
X83238095Y-111823809D01*
X83238095Y-111680952D01*
X83285714Y-111490476D01*
X83333333Y-111395238D01*
X83428571Y-111300000D01*
X83571428Y-111252380D01*
X83666666Y-111252380D01*
X83809523Y-111300000D01*
X83857142Y-111347619D01*
X84761904Y-111252380D02*
X84285714Y-111252380D01*
X84238095Y-111728571D01*
X84285714Y-111680952D01*
X84380952Y-111633333D01*
X84619047Y-111633333D01*
X84714285Y-111680952D01*
X84761904Y-111728571D01*
X84809523Y-111823809D01*
X84809523Y-112061904D01*
X84761904Y-112157142D01*
X84714285Y-112204761D01*
X84619047Y-112252380D01*
X84380952Y-112252380D01*
X84285714Y-112204761D01*
X84238095Y-112157142D01*
X85190476Y-111347619D02*
X85238095Y-111300000D01*
X85333333Y-111252380D01*
X85571428Y-111252380D01*
X85666666Y-111300000D01*
X85714285Y-111347619D01*
X85761904Y-111442857D01*
X85761904Y-111538095D01*
X85714285Y-111680952D01*
X85142857Y-112252380D01*
X85761904Y-112252380D01*
%TO.C,C51*%
X111794642Y-106557142D02*
X111747023Y-106604761D01*
X111604166Y-106652380D01*
X111508928Y-106652380D01*
X111366071Y-106604761D01*
X111270833Y-106509523D01*
X111223214Y-106414285D01*
X111175595Y-106223809D01*
X111175595Y-106080952D01*
X111223214Y-105890476D01*
X111270833Y-105795238D01*
X111366071Y-105700000D01*
X111508928Y-105652380D01*
X111604166Y-105652380D01*
X111747023Y-105700000D01*
X111794642Y-105747619D01*
X112699404Y-105652380D02*
X112223214Y-105652380D01*
X112175595Y-106128571D01*
X112223214Y-106080952D01*
X112318452Y-106033333D01*
X112556547Y-106033333D01*
X112651785Y-106080952D01*
X112699404Y-106128571D01*
X112747023Y-106223809D01*
X112747023Y-106461904D01*
X112699404Y-106557142D01*
X112651785Y-106604761D01*
X112556547Y-106652380D01*
X112318452Y-106652380D01*
X112223214Y-106604761D01*
X112175595Y-106557142D01*
X113699404Y-106652380D02*
X113127976Y-106652380D01*
X113413690Y-106652380D02*
X113413690Y-105652380D01*
X113318452Y-105795238D01*
X113223214Y-105890476D01*
X113127976Y-105938095D01*
%TO.C,C50*%
X93957142Y-106557142D02*
X93909523Y-106604761D01*
X93766666Y-106652380D01*
X93671428Y-106652380D01*
X93528571Y-106604761D01*
X93433333Y-106509523D01*
X93385714Y-106414285D01*
X93338095Y-106223809D01*
X93338095Y-106080952D01*
X93385714Y-105890476D01*
X93433333Y-105795238D01*
X93528571Y-105700000D01*
X93671428Y-105652380D01*
X93766666Y-105652380D01*
X93909523Y-105700000D01*
X93957142Y-105747619D01*
X94861904Y-105652380D02*
X94385714Y-105652380D01*
X94338095Y-106128571D01*
X94385714Y-106080952D01*
X94480952Y-106033333D01*
X94719047Y-106033333D01*
X94814285Y-106080952D01*
X94861904Y-106128571D01*
X94909523Y-106223809D01*
X94909523Y-106461904D01*
X94861904Y-106557142D01*
X94814285Y-106604761D01*
X94719047Y-106652380D01*
X94480952Y-106652380D01*
X94385714Y-106604761D01*
X94338095Y-106557142D01*
X95528571Y-105652380D02*
X95623809Y-105652380D01*
X95719047Y-105700000D01*
X95766666Y-105747619D01*
X95814285Y-105842857D01*
X95861904Y-106033333D01*
X95861904Y-106271428D01*
X95814285Y-106461904D01*
X95766666Y-106557142D01*
X95719047Y-106604761D01*
X95623809Y-106652380D01*
X95528571Y-106652380D01*
X95433333Y-106604761D01*
X95385714Y-106557142D01*
X95338095Y-106461904D01*
X95290476Y-106271428D01*
X95290476Y-106033333D01*
X95338095Y-105842857D01*
X95385714Y-105747619D01*
X95433333Y-105700000D01*
X95528571Y-105652380D01*
%TO.C,C40*%
X94957142Y-96419642D02*
X94909523Y-96467261D01*
X94766666Y-96514880D01*
X94671428Y-96514880D01*
X94528571Y-96467261D01*
X94433333Y-96372023D01*
X94385714Y-96276785D01*
X94338095Y-96086309D01*
X94338095Y-95943452D01*
X94385714Y-95752976D01*
X94433333Y-95657738D01*
X94528571Y-95562500D01*
X94671428Y-95514880D01*
X94766666Y-95514880D01*
X94909523Y-95562500D01*
X94957142Y-95610119D01*
X95814285Y-95848214D02*
X95814285Y-96514880D01*
X95576190Y-95467261D02*
X95338095Y-96181547D01*
X95957142Y-96181547D01*
X96528571Y-95514880D02*
X96623809Y-95514880D01*
X96719047Y-95562500D01*
X96766666Y-95610119D01*
X96814285Y-95705357D01*
X96861904Y-95895833D01*
X96861904Y-96133928D01*
X96814285Y-96324404D01*
X96766666Y-96419642D01*
X96719047Y-96467261D01*
X96623809Y-96514880D01*
X96528571Y-96514880D01*
X96433333Y-96467261D01*
X96385714Y-96419642D01*
X96338095Y-96324404D01*
X96290476Y-96133928D01*
X96290476Y-95895833D01*
X96338095Y-95705357D01*
X96385714Y-95610119D01*
X96433333Y-95562500D01*
X96528571Y-95514880D01*
%TO.C,C36*%
X101869642Y-81457142D02*
X101822023Y-81504761D01*
X101679166Y-81552380D01*
X101583928Y-81552380D01*
X101441071Y-81504761D01*
X101345833Y-81409523D01*
X101298214Y-81314285D01*
X101250595Y-81123809D01*
X101250595Y-80980952D01*
X101298214Y-80790476D01*
X101345833Y-80695238D01*
X101441071Y-80600000D01*
X101583928Y-80552380D01*
X101679166Y-80552380D01*
X101822023Y-80600000D01*
X101869642Y-80647619D01*
X102202976Y-80552380D02*
X102822023Y-80552380D01*
X102488690Y-80933333D01*
X102631547Y-80933333D01*
X102726785Y-80980952D01*
X102774404Y-81028571D01*
X102822023Y-81123809D01*
X102822023Y-81361904D01*
X102774404Y-81457142D01*
X102726785Y-81504761D01*
X102631547Y-81552380D01*
X102345833Y-81552380D01*
X102250595Y-81504761D01*
X102202976Y-81457142D01*
X103679166Y-80552380D02*
X103488690Y-80552380D01*
X103393452Y-80600000D01*
X103345833Y-80647619D01*
X103250595Y-80790476D01*
X103202976Y-80980952D01*
X103202976Y-81361904D01*
X103250595Y-81457142D01*
X103298214Y-81504761D01*
X103393452Y-81552380D01*
X103583928Y-81552380D01*
X103679166Y-81504761D01*
X103726785Y-81457142D01*
X103774404Y-81361904D01*
X103774404Y-81123809D01*
X103726785Y-81028571D01*
X103679166Y-80980952D01*
X103583928Y-80933333D01*
X103393452Y-80933333D01*
X103298214Y-80980952D01*
X103250595Y-81028571D01*
X103202976Y-81123809D01*
%TO.C,C35*%
X102582142Y-69357142D02*
X102534523Y-69404761D01*
X102391666Y-69452380D01*
X102296428Y-69452380D01*
X102153571Y-69404761D01*
X102058333Y-69309523D01*
X102010714Y-69214285D01*
X101963095Y-69023809D01*
X101963095Y-68880952D01*
X102010714Y-68690476D01*
X102058333Y-68595238D01*
X102153571Y-68500000D01*
X102296428Y-68452380D01*
X102391666Y-68452380D01*
X102534523Y-68500000D01*
X102582142Y-68547619D01*
X102915476Y-68452380D02*
X103534523Y-68452380D01*
X103201190Y-68833333D01*
X103344047Y-68833333D01*
X103439285Y-68880952D01*
X103486904Y-68928571D01*
X103534523Y-69023809D01*
X103534523Y-69261904D01*
X103486904Y-69357142D01*
X103439285Y-69404761D01*
X103344047Y-69452380D01*
X103058333Y-69452380D01*
X102963095Y-69404761D01*
X102915476Y-69357142D01*
X104439285Y-68452380D02*
X103963095Y-68452380D01*
X103915476Y-68928571D01*
X103963095Y-68880952D01*
X104058333Y-68833333D01*
X104296428Y-68833333D01*
X104391666Y-68880952D01*
X104439285Y-68928571D01*
X104486904Y-69023809D01*
X104486904Y-69261904D01*
X104439285Y-69357142D01*
X104391666Y-69404761D01*
X104296428Y-69452380D01*
X104058333Y-69452380D01*
X103963095Y-69404761D01*
X103915476Y-69357142D01*
%TO.C,C34*%
X117807142Y-96927142D02*
X117759523Y-96974761D01*
X117616666Y-97022380D01*
X117521428Y-97022380D01*
X117378571Y-96974761D01*
X117283333Y-96879523D01*
X117235714Y-96784285D01*
X117188095Y-96593809D01*
X117188095Y-96450952D01*
X117235714Y-96260476D01*
X117283333Y-96165238D01*
X117378571Y-96070000D01*
X117521428Y-96022380D01*
X117616666Y-96022380D01*
X117759523Y-96070000D01*
X117807142Y-96117619D01*
X118140476Y-96022380D02*
X118759523Y-96022380D01*
X118426190Y-96403333D01*
X118569047Y-96403333D01*
X118664285Y-96450952D01*
X118711904Y-96498571D01*
X118759523Y-96593809D01*
X118759523Y-96831904D01*
X118711904Y-96927142D01*
X118664285Y-96974761D01*
X118569047Y-97022380D01*
X118283333Y-97022380D01*
X118188095Y-96974761D01*
X118140476Y-96927142D01*
X119616666Y-96355714D02*
X119616666Y-97022380D01*
X119378571Y-95974761D02*
X119140476Y-96689047D01*
X119759523Y-96689047D01*
%TO.C,C33*%
X117807142Y-101557142D02*
X117759523Y-101604761D01*
X117616666Y-101652380D01*
X117521428Y-101652380D01*
X117378571Y-101604761D01*
X117283333Y-101509523D01*
X117235714Y-101414285D01*
X117188095Y-101223809D01*
X117188095Y-101080952D01*
X117235714Y-100890476D01*
X117283333Y-100795238D01*
X117378571Y-100700000D01*
X117521428Y-100652380D01*
X117616666Y-100652380D01*
X117759523Y-100700000D01*
X117807142Y-100747619D01*
X118140476Y-100652380D02*
X118759523Y-100652380D01*
X118426190Y-101033333D01*
X118569047Y-101033333D01*
X118664285Y-101080952D01*
X118711904Y-101128571D01*
X118759523Y-101223809D01*
X118759523Y-101461904D01*
X118711904Y-101557142D01*
X118664285Y-101604761D01*
X118569047Y-101652380D01*
X118283333Y-101652380D01*
X118188095Y-101604761D01*
X118140476Y-101557142D01*
X119092857Y-100652380D02*
X119711904Y-100652380D01*
X119378571Y-101033333D01*
X119521428Y-101033333D01*
X119616666Y-101080952D01*
X119664285Y-101128571D01*
X119711904Y-101223809D01*
X119711904Y-101461904D01*
X119664285Y-101557142D01*
X119616666Y-101604761D01*
X119521428Y-101652380D01*
X119235714Y-101652380D01*
X119140476Y-101604761D01*
X119092857Y-101557142D01*
%TO.C,C32*%
X117707142Y-68457142D02*
X117659523Y-68504761D01*
X117516666Y-68552380D01*
X117421428Y-68552380D01*
X117278571Y-68504761D01*
X117183333Y-68409523D01*
X117135714Y-68314285D01*
X117088095Y-68123809D01*
X117088095Y-67980952D01*
X117135714Y-67790476D01*
X117183333Y-67695238D01*
X117278571Y-67600000D01*
X117421428Y-67552380D01*
X117516666Y-67552380D01*
X117659523Y-67600000D01*
X117707142Y-67647619D01*
X118040476Y-67552380D02*
X118659523Y-67552380D01*
X118326190Y-67933333D01*
X118469047Y-67933333D01*
X118564285Y-67980952D01*
X118611904Y-68028571D01*
X118659523Y-68123809D01*
X118659523Y-68361904D01*
X118611904Y-68457142D01*
X118564285Y-68504761D01*
X118469047Y-68552380D01*
X118183333Y-68552380D01*
X118088095Y-68504761D01*
X118040476Y-68457142D01*
X119040476Y-67647619D02*
X119088095Y-67600000D01*
X119183333Y-67552380D01*
X119421428Y-67552380D01*
X119516666Y-67600000D01*
X119564285Y-67647619D01*
X119611904Y-67742857D01*
X119611904Y-67838095D01*
X119564285Y-67980952D01*
X118992857Y-68552380D01*
X119611904Y-68552380D01*
%TO.C,C31*%
X118007142Y-81457142D02*
X117959523Y-81504761D01*
X117816666Y-81552380D01*
X117721428Y-81552380D01*
X117578571Y-81504761D01*
X117483333Y-81409523D01*
X117435714Y-81314285D01*
X117388095Y-81123809D01*
X117388095Y-80980952D01*
X117435714Y-80790476D01*
X117483333Y-80695238D01*
X117578571Y-80600000D01*
X117721428Y-80552380D01*
X117816666Y-80552380D01*
X117959523Y-80600000D01*
X118007142Y-80647619D01*
X118340476Y-80552380D02*
X118959523Y-80552380D01*
X118626190Y-80933333D01*
X118769047Y-80933333D01*
X118864285Y-80980952D01*
X118911904Y-81028571D01*
X118959523Y-81123809D01*
X118959523Y-81361904D01*
X118911904Y-81457142D01*
X118864285Y-81504761D01*
X118769047Y-81552380D01*
X118483333Y-81552380D01*
X118388095Y-81504761D01*
X118340476Y-81457142D01*
X119911904Y-81552380D02*
X119340476Y-81552380D01*
X119626190Y-81552380D02*
X119626190Y-80552380D01*
X119530952Y-80695238D01*
X119435714Y-80790476D01*
X119340476Y-80838095D01*
%TO.C,C30*%
X105757142Y-74557142D02*
X105709523Y-74604761D01*
X105566666Y-74652380D01*
X105471428Y-74652380D01*
X105328571Y-74604761D01*
X105233333Y-74509523D01*
X105185714Y-74414285D01*
X105138095Y-74223809D01*
X105138095Y-74080952D01*
X105185714Y-73890476D01*
X105233333Y-73795238D01*
X105328571Y-73700000D01*
X105471428Y-73652380D01*
X105566666Y-73652380D01*
X105709523Y-73700000D01*
X105757142Y-73747619D01*
X106090476Y-73652380D02*
X106709523Y-73652380D01*
X106376190Y-74033333D01*
X106519047Y-74033333D01*
X106614285Y-74080952D01*
X106661904Y-74128571D01*
X106709523Y-74223809D01*
X106709523Y-74461904D01*
X106661904Y-74557142D01*
X106614285Y-74604761D01*
X106519047Y-74652380D01*
X106233333Y-74652380D01*
X106138095Y-74604761D01*
X106090476Y-74557142D01*
X107328571Y-73652380D02*
X107423809Y-73652380D01*
X107519047Y-73700000D01*
X107566666Y-73747619D01*
X107614285Y-73842857D01*
X107661904Y-74033333D01*
X107661904Y-74271428D01*
X107614285Y-74461904D01*
X107566666Y-74557142D01*
X107519047Y-74604761D01*
X107423809Y-74652380D01*
X107328571Y-74652380D01*
X107233333Y-74604761D01*
X107185714Y-74557142D01*
X107138095Y-74461904D01*
X107090476Y-74271428D01*
X107090476Y-74033333D01*
X107138095Y-73842857D01*
X107185714Y-73747619D01*
X107233333Y-73700000D01*
X107328571Y-73652380D01*
%TO.C,C22*%
X92457142Y-74557142D02*
X92409523Y-74604761D01*
X92266666Y-74652380D01*
X92171428Y-74652380D01*
X92028571Y-74604761D01*
X91933333Y-74509523D01*
X91885714Y-74414285D01*
X91838095Y-74223809D01*
X91838095Y-74080952D01*
X91885714Y-73890476D01*
X91933333Y-73795238D01*
X92028571Y-73700000D01*
X92171428Y-73652380D01*
X92266666Y-73652380D01*
X92409523Y-73700000D01*
X92457142Y-73747619D01*
X92838095Y-73747619D02*
X92885714Y-73700000D01*
X92980952Y-73652380D01*
X93219047Y-73652380D01*
X93314285Y-73700000D01*
X93361904Y-73747619D01*
X93409523Y-73842857D01*
X93409523Y-73938095D01*
X93361904Y-74080952D01*
X92790476Y-74652380D01*
X93409523Y-74652380D01*
X93790476Y-73747619D02*
X93838095Y-73700000D01*
X93933333Y-73652380D01*
X94171428Y-73652380D01*
X94266666Y-73700000D01*
X94314285Y-73747619D01*
X94361904Y-73842857D01*
X94361904Y-73938095D01*
X94314285Y-74080952D01*
X93742857Y-74652380D01*
X94361904Y-74652380D01*
%TO.C,C21*%
X83057142Y-77157142D02*
X83009523Y-77204761D01*
X82866666Y-77252380D01*
X82771428Y-77252380D01*
X82628571Y-77204761D01*
X82533333Y-77109523D01*
X82485714Y-77014285D01*
X82438095Y-76823809D01*
X82438095Y-76680952D01*
X82485714Y-76490476D01*
X82533333Y-76395238D01*
X82628571Y-76300000D01*
X82771428Y-76252380D01*
X82866666Y-76252380D01*
X83009523Y-76300000D01*
X83057142Y-76347619D01*
X83438095Y-76347619D02*
X83485714Y-76300000D01*
X83580952Y-76252380D01*
X83819047Y-76252380D01*
X83914285Y-76300000D01*
X83961904Y-76347619D01*
X84009523Y-76442857D01*
X84009523Y-76538095D01*
X83961904Y-76680952D01*
X83390476Y-77252380D01*
X84009523Y-77252380D01*
X84961904Y-77252380D02*
X84390476Y-77252380D01*
X84676190Y-77252380D02*
X84676190Y-76252380D01*
X84580952Y-76395238D01*
X84485714Y-76490476D01*
X84390476Y-76538095D01*
%TO.C,C20*%
X83057142Y-73632142D02*
X83009523Y-73679761D01*
X82866666Y-73727380D01*
X82771428Y-73727380D01*
X82628571Y-73679761D01*
X82533333Y-73584523D01*
X82485714Y-73489285D01*
X82438095Y-73298809D01*
X82438095Y-73155952D01*
X82485714Y-72965476D01*
X82533333Y-72870238D01*
X82628571Y-72775000D01*
X82771428Y-72727380D01*
X82866666Y-72727380D01*
X83009523Y-72775000D01*
X83057142Y-72822619D01*
X83438095Y-72822619D02*
X83485714Y-72775000D01*
X83580952Y-72727380D01*
X83819047Y-72727380D01*
X83914285Y-72775000D01*
X83961904Y-72822619D01*
X84009523Y-72917857D01*
X84009523Y-73013095D01*
X83961904Y-73155952D01*
X83390476Y-73727380D01*
X84009523Y-73727380D01*
X84628571Y-72727380D02*
X84723809Y-72727380D01*
X84819047Y-72775000D01*
X84866666Y-72822619D01*
X84914285Y-72917857D01*
X84961904Y-73108333D01*
X84961904Y-73346428D01*
X84914285Y-73536904D01*
X84866666Y-73632142D01*
X84819047Y-73679761D01*
X84723809Y-73727380D01*
X84628571Y-73727380D01*
X84533333Y-73679761D01*
X84485714Y-73632142D01*
X84438095Y-73536904D01*
X84390476Y-73346428D01*
X84390476Y-73108333D01*
X84438095Y-72917857D01*
X84485714Y-72822619D01*
X84533333Y-72775000D01*
X84628571Y-72727380D01*
%TO.C,C16*%
X114257142Y-53557142D02*
X114209523Y-53604761D01*
X114066666Y-53652380D01*
X113971428Y-53652380D01*
X113828571Y-53604761D01*
X113733333Y-53509523D01*
X113685714Y-53414285D01*
X113638095Y-53223809D01*
X113638095Y-53080952D01*
X113685714Y-52890476D01*
X113733333Y-52795238D01*
X113828571Y-52700000D01*
X113971428Y-52652380D01*
X114066666Y-52652380D01*
X114209523Y-52700000D01*
X114257142Y-52747619D01*
X115209523Y-53652380D02*
X114638095Y-53652380D01*
X114923809Y-53652380D02*
X114923809Y-52652380D01*
X114828571Y-52795238D01*
X114733333Y-52890476D01*
X114638095Y-52938095D01*
X116066666Y-52652380D02*
X115876190Y-52652380D01*
X115780952Y-52700000D01*
X115733333Y-52747619D01*
X115638095Y-52890476D01*
X115590476Y-53080952D01*
X115590476Y-53461904D01*
X115638095Y-53557142D01*
X115685714Y-53604761D01*
X115780952Y-53652380D01*
X115971428Y-53652380D01*
X116066666Y-53604761D01*
X116114285Y-53557142D01*
X116161904Y-53461904D01*
X116161904Y-53223809D01*
X116114285Y-53128571D01*
X116066666Y-53080952D01*
X115971428Y-53033333D01*
X115780952Y-53033333D01*
X115685714Y-53080952D01*
X115638095Y-53128571D01*
X115590476Y-53223809D01*
%TO.C,C15*%
X104657142Y-57957142D02*
X104609523Y-58004761D01*
X104466666Y-58052380D01*
X104371428Y-58052380D01*
X104228571Y-58004761D01*
X104133333Y-57909523D01*
X104085714Y-57814285D01*
X104038095Y-57623809D01*
X104038095Y-57480952D01*
X104085714Y-57290476D01*
X104133333Y-57195238D01*
X104228571Y-57100000D01*
X104371428Y-57052380D01*
X104466666Y-57052380D01*
X104609523Y-57100000D01*
X104657142Y-57147619D01*
X105609523Y-58052380D02*
X105038095Y-58052380D01*
X105323809Y-58052380D02*
X105323809Y-57052380D01*
X105228571Y-57195238D01*
X105133333Y-57290476D01*
X105038095Y-57338095D01*
X106514285Y-57052380D02*
X106038095Y-57052380D01*
X105990476Y-57528571D01*
X106038095Y-57480952D01*
X106133333Y-57433333D01*
X106371428Y-57433333D01*
X106466666Y-57480952D01*
X106514285Y-57528571D01*
X106561904Y-57623809D01*
X106561904Y-57861904D01*
X106514285Y-57957142D01*
X106466666Y-58004761D01*
X106371428Y-58052380D01*
X106133333Y-58052380D01*
X106038095Y-58004761D01*
X105990476Y-57957142D01*
%TO.C,C14*%
X105057142Y-53457142D02*
X105009523Y-53504761D01*
X104866666Y-53552380D01*
X104771428Y-53552380D01*
X104628571Y-53504761D01*
X104533333Y-53409523D01*
X104485714Y-53314285D01*
X104438095Y-53123809D01*
X104438095Y-52980952D01*
X104485714Y-52790476D01*
X104533333Y-52695238D01*
X104628571Y-52600000D01*
X104771428Y-52552380D01*
X104866666Y-52552380D01*
X105009523Y-52600000D01*
X105057142Y-52647619D01*
X106009523Y-53552380D02*
X105438095Y-53552380D01*
X105723809Y-53552380D02*
X105723809Y-52552380D01*
X105628571Y-52695238D01*
X105533333Y-52790476D01*
X105438095Y-52838095D01*
X106866666Y-52885714D02*
X106866666Y-53552380D01*
X106628571Y-52504761D02*
X106390476Y-53219047D01*
X107009523Y-53219047D01*
%TO.C,C13*%
X99957142Y-53457142D02*
X99909523Y-53504761D01*
X99766666Y-53552380D01*
X99671428Y-53552380D01*
X99528571Y-53504761D01*
X99433333Y-53409523D01*
X99385714Y-53314285D01*
X99338095Y-53123809D01*
X99338095Y-52980952D01*
X99385714Y-52790476D01*
X99433333Y-52695238D01*
X99528571Y-52600000D01*
X99671428Y-52552380D01*
X99766666Y-52552380D01*
X99909523Y-52600000D01*
X99957142Y-52647619D01*
X100909523Y-53552380D02*
X100338095Y-53552380D01*
X100623809Y-53552380D02*
X100623809Y-52552380D01*
X100528571Y-52695238D01*
X100433333Y-52790476D01*
X100338095Y-52838095D01*
X101242857Y-52552380D02*
X101861904Y-52552380D01*
X101528571Y-52933333D01*
X101671428Y-52933333D01*
X101766666Y-52980952D01*
X101814285Y-53028571D01*
X101861904Y-53123809D01*
X101861904Y-53361904D01*
X101814285Y-53457142D01*
X101766666Y-53504761D01*
X101671428Y-53552380D01*
X101385714Y-53552380D01*
X101290476Y-53504761D01*
X101242857Y-53457142D01*
%TO.C,C12*%
X92857142Y-53257142D02*
X92809523Y-53304761D01*
X92666666Y-53352380D01*
X92571428Y-53352380D01*
X92428571Y-53304761D01*
X92333333Y-53209523D01*
X92285714Y-53114285D01*
X92238095Y-52923809D01*
X92238095Y-52780952D01*
X92285714Y-52590476D01*
X92333333Y-52495238D01*
X92428571Y-52400000D01*
X92571428Y-52352380D01*
X92666666Y-52352380D01*
X92809523Y-52400000D01*
X92857142Y-52447619D01*
X93809523Y-53352380D02*
X93238095Y-53352380D01*
X93523809Y-53352380D02*
X93523809Y-52352380D01*
X93428571Y-52495238D01*
X93333333Y-52590476D01*
X93238095Y-52638095D01*
X94190476Y-52447619D02*
X94238095Y-52400000D01*
X94333333Y-52352380D01*
X94571428Y-52352380D01*
X94666666Y-52400000D01*
X94714285Y-52447619D01*
X94761904Y-52542857D01*
X94761904Y-52638095D01*
X94714285Y-52780952D01*
X94142857Y-53352380D01*
X94761904Y-53352380D01*
%TO.C,C11*%
X90257142Y-57857142D02*
X90209523Y-57904761D01*
X90066666Y-57952380D01*
X89971428Y-57952380D01*
X89828571Y-57904761D01*
X89733333Y-57809523D01*
X89685714Y-57714285D01*
X89638095Y-57523809D01*
X89638095Y-57380952D01*
X89685714Y-57190476D01*
X89733333Y-57095238D01*
X89828571Y-57000000D01*
X89971428Y-56952380D01*
X90066666Y-56952380D01*
X90209523Y-57000000D01*
X90257142Y-57047619D01*
X91209523Y-57952380D02*
X90638095Y-57952380D01*
X90923809Y-57952380D02*
X90923809Y-56952380D01*
X90828571Y-57095238D01*
X90733333Y-57190476D01*
X90638095Y-57238095D01*
X92161904Y-57952380D02*
X91590476Y-57952380D01*
X91876190Y-57952380D02*
X91876190Y-56952380D01*
X91780952Y-57095238D01*
X91685714Y-57190476D01*
X91590476Y-57238095D01*
D11*
%TO.C,C44*%
X82488748Y-104110000D02*
X83911252Y-104110000D01*
X82488748Y-102290000D02*
X83911252Y-102290000D01*
%TO.C,C43*%
X83911252Y-99890000D02*
X82488748Y-99890000D01*
X83911252Y-101710000D02*
X82488748Y-101710000D01*
%TO.C,C42*%
X82488748Y-94010000D02*
X83911252Y-94010000D01*
X82488748Y-92190000D02*
X83911252Y-92190000D01*
%TO.C,C41*%
X83911252Y-89790000D02*
X82488748Y-89790000D01*
X83911252Y-91610000D02*
X82488748Y-91610000D01*
%TO.C,C10*%
X87336252Y-59290000D02*
X85913748Y-59290000D01*
X87336252Y-61110000D02*
X85913748Y-61110000D01*
%TO.C,RV31*%
X148070000Y-95780000D02*
X148070000Y-102020000D01*
X138070000Y-102020000D02*
X148070000Y-102020000D01*
X138070000Y-95780000D02*
X148070000Y-95780000D01*
X138070000Y-95280000D02*
X138070000Y-102520000D01*
X133070000Y-102520000D02*
X138070000Y-102520000D01*
X133070000Y-95280000D02*
X138070000Y-95280000D01*
X133070000Y-89830000D02*
X133070000Y-107970000D01*
X120730000Y-107970000D02*
X133070000Y-107970000D01*
X120730000Y-89830000D02*
X133070000Y-89830000D01*
X120730000Y-89830000D02*
X120730000Y-107970000D01*
%TO.C,RV30*%
X148070000Y-71380000D02*
X148070000Y-77620000D01*
X138070000Y-77620000D02*
X148070000Y-77620000D01*
X138070000Y-71380000D02*
X148070000Y-71380000D01*
X138070000Y-70880000D02*
X138070000Y-78120000D01*
X133070000Y-78120000D02*
X138070000Y-78120000D01*
X133070000Y-70880000D02*
X138070000Y-70880000D01*
X133070000Y-65430000D02*
X133070000Y-83570000D01*
X120730000Y-83570000D02*
X133070000Y-83570000D01*
X120730000Y-65430000D02*
X133070000Y-65430000D01*
X120730000Y-65430000D02*
X120730000Y-83570000D01*
%TO.C,R57*%
X105554724Y-108922500D02*
X105045276Y-108922500D01*
X105554724Y-107877500D02*
X105045276Y-107877500D01*
%TO.C,R56*%
X105554724Y-110622500D02*
X105045276Y-110622500D01*
X105554724Y-109577500D02*
X105045276Y-109577500D01*
%TO.C,R55*%
X87754724Y-108922500D02*
X87245276Y-108922500D01*
X87754724Y-107877500D02*
X87245276Y-107877500D01*
%TO.C,R54*%
X87754724Y-110622500D02*
X87245276Y-110622500D01*
X87754724Y-109577500D02*
X87245276Y-109577500D01*
%TO.C,R53*%
X106722500Y-112482776D02*
X106722500Y-112992224D01*
X105677500Y-112482776D02*
X105677500Y-112992224D01*
%TO.C,R52*%
X116022500Y-109945276D02*
X116022500Y-110454724D01*
X114977500Y-109945276D02*
X114977500Y-110454724D01*
%TO.C,R51*%
X87877500Y-112432776D02*
X87877500Y-112942224D01*
X88922500Y-112432776D02*
X88922500Y-112942224D01*
%TO.C,R50*%
X98222500Y-109945276D02*
X98222500Y-110454724D01*
X97177500Y-109945276D02*
X97177500Y-110454724D01*
%TO.C,R43*%
X90132776Y-100877500D02*
X90642224Y-100877500D01*
X90132776Y-101922500D02*
X90642224Y-101922500D01*
%TO.C,R42*%
X92132776Y-91677500D02*
X92642224Y-91677500D01*
X92132776Y-92722500D02*
X92642224Y-92722500D01*
%TO.C,R41*%
X94467224Y-101922500D02*
X93957776Y-101922500D01*
X94467224Y-100877500D02*
X93957776Y-100877500D01*
%TO.C,R40*%
X96354724Y-92722500D02*
X95845276Y-92722500D01*
X96354724Y-91677500D02*
X95845276Y-91677500D01*
%TO.C,R37*%
X112095276Y-78377500D02*
X112604724Y-78377500D01*
X112095276Y-79422500D02*
X112604724Y-79422500D01*
%TO.C,R36*%
X112182776Y-69577500D02*
X112692224Y-69577500D01*
X112182776Y-70622500D02*
X112692224Y-70622500D01*
%TO.C,R35*%
X112592224Y-76522500D02*
X112082776Y-76522500D01*
X112592224Y-75477500D02*
X112082776Y-75477500D01*
%TO.C,R34*%
X112692224Y-73522500D02*
X112182776Y-73522500D01*
X112692224Y-72477500D02*
X112182776Y-72477500D01*
%TO.C,R33*%
X116727500Y-70654724D02*
X116727500Y-70145276D01*
X117772500Y-70654724D02*
X117772500Y-70145276D01*
%TO.C,R32*%
X115795276Y-72477500D02*
X116304724Y-72477500D01*
X115795276Y-73522500D02*
X116304724Y-73522500D01*
%TO.C,R31*%
X116304724Y-75477500D02*
X115795276Y-75477500D01*
X116304724Y-76522500D02*
X115795276Y-76522500D01*
%TO.C,R30*%
X116727500Y-78842224D02*
X116727500Y-78332776D01*
X117772500Y-78842224D02*
X117772500Y-78332776D01*
%TO.C,R23*%
X81077500Y-79342224D02*
X81077500Y-78832776D01*
X82122500Y-79342224D02*
X82122500Y-78832776D01*
%TO.C,R22*%
X81077500Y-70657776D02*
X81077500Y-71167224D01*
X82122500Y-70657776D02*
X82122500Y-71167224D01*
%TO.C,R21*%
X84867224Y-83422500D02*
X84357776Y-83422500D01*
X84867224Y-82377500D02*
X84357776Y-82377500D01*
%TO.C,R20*%
X84854724Y-67622500D02*
X84345276Y-67622500D01*
X84854724Y-66577500D02*
X84345276Y-66577500D01*
%TO.C,R14*%
X75332776Y-105377500D02*
X75842224Y-105377500D01*
X75332776Y-106422500D02*
X75842224Y-106422500D01*
%TO.C,R13*%
X75345276Y-87377500D02*
X75854724Y-87377500D01*
X75345276Y-88422500D02*
X75854724Y-88422500D01*
%TO.C,R12*%
X75345276Y-65377500D02*
X75854724Y-65377500D01*
X75345276Y-66422500D02*
X75854724Y-66422500D01*
%TO.C,R11*%
X75332776Y-83477500D02*
X75842224Y-83477500D01*
X75332776Y-84522500D02*
X75842224Y-84522500D01*
%TO.C,R10*%
X84654724Y-58522500D02*
X84145276Y-58522500D01*
X84654724Y-57477500D02*
X84145276Y-57477500D01*
%TO.C,U51*%
X110800000Y-108640000D02*
X112750000Y-108640000D01*
X110800000Y-113760000D02*
X112750000Y-113760000D01*
X110800000Y-108640000D02*
X107350000Y-108640000D01*
X110800000Y-113760000D02*
X108850000Y-113760000D01*
%TO.C,U50*%
X93000000Y-108640000D02*
X94950000Y-108640000D01*
X93000000Y-113760000D02*
X94950000Y-113760000D01*
X93000000Y-108640000D02*
X89550000Y-108640000D01*
X93000000Y-113760000D02*
X91050000Y-113760000D01*
%TO.C,U40*%
X88840000Y-96800000D02*
X88840000Y-94850000D01*
X93960000Y-96800000D02*
X93960000Y-93350000D01*
X88840000Y-96800000D02*
X88840000Y-98750000D01*
X93960000Y-96800000D02*
X93960000Y-98750000D01*
%TO.C,U30*%
X104810000Y-75000000D02*
X104810000Y-76950000D01*
X99690000Y-75000000D02*
X99690000Y-76950000D01*
X104810000Y-75000000D02*
X104810000Y-71550000D01*
X99690000Y-75000000D02*
X99690000Y-73050000D01*
%TO.C,U20*%
X91360000Y-75000000D02*
X91360000Y-76950000D01*
X86240000Y-75000000D02*
X86240000Y-76950000D01*
X91360000Y-75000000D02*
X91360000Y-71550000D01*
X86240000Y-75000000D02*
X86240000Y-73050000D01*
%TO.C,Q10*%
X84662500Y-56910000D02*
X84012500Y-56910000D01*
X84662500Y-53790000D02*
X84012500Y-53790000D01*
X84662500Y-56910000D02*
X86337500Y-56910000D01*
X84662500Y-53790000D02*
X85312500Y-53790000D01*
%TO.C,L1*%
X102987742Y-55022500D02*
X103462258Y-55022500D01*
X102987742Y-53977500D02*
X103462258Y-53977500D01*
%TO.C,J3*%
X70035000Y-89340000D02*
X70035000Y-104460000D01*
X73456000Y-95866000D02*
X73421000Y-95831000D01*
X75970000Y-97970000D02*
X75934000Y-97935000D01*
X75764000Y-103175000D02*
X75718000Y-103128000D01*
X75764000Y-98175000D02*
X75718000Y-98128000D01*
X69795000Y-89100000D02*
X69795000Y-89600000D01*
X73672000Y-95673000D02*
X73626000Y-95626000D01*
X73456000Y-100866000D02*
X73421000Y-100831000D01*
X70595000Y-89340000D02*
X70595000Y-104460000D01*
X75970000Y-102970000D02*
X75934000Y-102935000D01*
X79956000Y-104460000D02*
X70035000Y-104460000D01*
X73672000Y-100673000D02*
X73626000Y-100626000D01*
X72095000Y-89340000D02*
X72095000Y-104460000D01*
X70535000Y-89100000D02*
X69795000Y-89100000D01*
X79956000Y-89340000D02*
X79956000Y-104460000D01*
X79956000Y-89340000D02*
X70035000Y-89340000D01*
X76996000Y-89340000D02*
X76996000Y-104460000D01*
X76230000Y-92584000D02*
G75*
G03*
X76230427Y-91216958I-1534993J684001D01*
G01*
X73015000Y-91900000D02*
G75*
G03*
X73160244Y-92583318I1680000J0D01*
G01*
X73160000Y-91216000D02*
G75*
G03*
X73014747Y-91928805I1535001J-683999D01*
G01*
X74011000Y-93435001D02*
G75*
G03*
X75378042Y-93435427I684000J1535001D01*
G01*
X75379000Y-90365000D02*
G75*
G03*
X74011958Y-90364573I-684001J-1534993D01*
G01*
X76375000Y-101900000D02*
G75*
G03*
X76375000Y-101900000I-1680000J0D01*
G01*
X76375000Y-96900000D02*
G75*
G03*
X76375000Y-96900000I-1680000J0D01*
G01*
%TO.C,J2*%
X70035000Y-67440000D02*
X70035000Y-82560000D01*
X73456000Y-73966000D02*
X73421000Y-73931000D01*
X75970000Y-76070000D02*
X75934000Y-76035000D01*
X75764000Y-81275000D02*
X75718000Y-81228000D01*
X75764000Y-76275000D02*
X75718000Y-76228000D01*
X69795000Y-67200000D02*
X69795000Y-67700000D01*
X73672000Y-73773000D02*
X73626000Y-73726000D01*
X73456000Y-78966000D02*
X73421000Y-78931000D01*
X70595000Y-67440000D02*
X70595000Y-82560000D01*
X75970000Y-81070000D02*
X75934000Y-81035000D01*
X79956000Y-82560000D02*
X70035000Y-82560000D01*
X73672000Y-78773000D02*
X73626000Y-78726000D01*
X72095000Y-67440000D02*
X72095000Y-82560000D01*
X70535000Y-67200000D02*
X69795000Y-67200000D01*
X79956000Y-67440000D02*
X79956000Y-82560000D01*
X79956000Y-67440000D02*
X70035000Y-67440000D01*
X76996000Y-67440000D02*
X76996000Y-82560000D01*
X76230000Y-70684000D02*
G75*
G03*
X76230427Y-69316958I-1534993J684001D01*
G01*
X73015000Y-70000000D02*
G75*
G03*
X73160244Y-70683318I1680000J0D01*
G01*
X73160000Y-69316000D02*
G75*
G03*
X73014747Y-70028805I1535001J-683999D01*
G01*
X74011000Y-71535001D02*
G75*
G03*
X75378042Y-71535427I684000J1535001D01*
G01*
X75379000Y-68465000D02*
G75*
G03*
X74011958Y-68464573I-684001J-1534993D01*
G01*
X76375000Y-80000000D02*
G75*
G03*
X76375000Y-80000000I-1680000J0D01*
G01*
X76375000Y-75000000D02*
G75*
G03*
X76375000Y-75000000I-1680000J0D01*
G01*
%TO.C,J1*%
X79956000Y-51940000D02*
X79956000Y-62060000D01*
X69795000Y-51700000D02*
X69795000Y-52200000D01*
X70035000Y-51940000D02*
X70035000Y-62060000D01*
X73672000Y-58273000D02*
X73626000Y-58226000D01*
X72095000Y-51940000D02*
X72095000Y-62060000D01*
X73456000Y-58466000D02*
X73421000Y-58431000D01*
X70535000Y-51700000D02*
X69795000Y-51700000D01*
X79956000Y-51940000D02*
X70035000Y-51940000D01*
X79956000Y-62060000D02*
X70035000Y-62060000D01*
X75764000Y-60775000D02*
X75718000Y-60728000D01*
X75970000Y-60570000D02*
X75934000Y-60535000D01*
X76996000Y-51940000D02*
X76996000Y-62060000D01*
X70595000Y-51940000D02*
X70595000Y-62060000D01*
X74011000Y-56035001D02*
G75*
G03*
X75378042Y-56035427I684000J1535001D01*
G01*
X73160000Y-53816000D02*
G75*
G03*
X73014747Y-54528805I1535001J-683999D01*
G01*
X73015000Y-54500000D02*
G75*
G03*
X73160244Y-55183318I1680000J0D01*
G01*
X75379000Y-52965000D02*
G75*
G03*
X74011958Y-52964573I-684001J-1534993D01*
G01*
X76230000Y-55184000D02*
G75*
G03*
X76230427Y-53816958I-1534993J684001D01*
G01*
X76375000Y-59500000D02*
G75*
G03*
X76375000Y-59500000I-1680000J0D01*
G01*
%TO.C,D11*%
X89100000Y-53600000D02*
X87100000Y-53600000D01*
X87100000Y-53600000D02*
X87100000Y-57450000D01*
X89100000Y-53600000D02*
X89100000Y-57450000D01*
%TO.C,D10*%
X80965000Y-54525000D02*
X80965000Y-56985000D01*
X80965000Y-56985000D02*
X82435000Y-56985000D01*
X82435000Y-56985000D02*
X82435000Y-54525000D01*
%TO.C,C53*%
X105110000Y-112591233D02*
X105110000Y-112883767D01*
X104090000Y-112591233D02*
X104090000Y-112883767D01*
%TO.C,C52*%
X87210000Y-112541233D02*
X87210000Y-112833767D01*
X86190000Y-112541233D02*
X86190000Y-112833767D01*
%TO.C,C51*%
X112583767Y-108110000D02*
X112291233Y-108110000D01*
X112583767Y-107090000D02*
X112291233Y-107090000D01*
%TO.C,C50*%
X94783767Y-108110000D02*
X94491233Y-108110000D01*
X94783767Y-107090000D02*
X94491233Y-107090000D01*
%TO.C,C40*%
X94490000Y-98546267D02*
X94490000Y-98253733D01*
X95510000Y-98546267D02*
X95510000Y-98253733D01*
%TO.C,C36*%
X102366233Y-79090000D02*
X102658767Y-79090000D01*
X102366233Y-80110000D02*
X102658767Y-80110000D01*
%TO.C,C35*%
X103141233Y-69890000D02*
X103433767Y-69890000D01*
X103141233Y-70910000D02*
X103433767Y-70910000D01*
%TO.C,C34*%
X118303733Y-97490000D02*
X118596267Y-97490000D01*
X118303733Y-98510000D02*
X118596267Y-98510000D01*
%TO.C,C33*%
X118303733Y-99190000D02*
X118596267Y-99190000D01*
X118303733Y-100210000D02*
X118596267Y-100210000D01*
%TO.C,C32*%
X119560000Y-70253733D02*
X119560000Y-70546267D01*
X118540000Y-70253733D02*
X118540000Y-70546267D01*
%TO.C,C31*%
X119560000Y-78453733D02*
X119560000Y-78746267D01*
X118540000Y-78453733D02*
X118540000Y-78746267D01*
%TO.C,C30*%
X105340000Y-76783767D02*
X105340000Y-76491233D01*
X106360000Y-76783767D02*
X106360000Y-76491233D01*
%TO.C,C22*%
X91990000Y-76683767D02*
X91990000Y-76391233D01*
X93010000Y-76683767D02*
X93010000Y-76391233D01*
%TO.C,C21*%
X84610000Y-79013748D02*
X84610000Y-80436252D01*
X82790000Y-79013748D02*
X82790000Y-80436252D01*
%TO.C,C20*%
X82790000Y-70986252D02*
X82790000Y-69563748D01*
X84610000Y-70986252D02*
X84610000Y-69563748D01*
%TO.C,C16*%
X114390000Y-55134420D02*
X114390000Y-55415580D01*
X115410000Y-55134420D02*
X115410000Y-55415580D01*
%TO.C,C15*%
X112147500Y-52862500D02*
X112147500Y-53650000D01*
X107954437Y-53890000D02*
X109240000Y-53890000D01*
X107954437Y-53890000D02*
X106890000Y-54954437D01*
X113710000Y-60710000D02*
X111360000Y-60710000D01*
X112645563Y-53890000D02*
X111360000Y-53890000D01*
X112541250Y-53256250D02*
X111753750Y-53256250D01*
X106890000Y-60710000D02*
X109240000Y-60710000D01*
X112645563Y-53890000D02*
X113710000Y-54954437D01*
X106890000Y-54954437D02*
X106890000Y-60710000D01*
X113710000Y-54954437D02*
X113710000Y-60710000D01*
%TO.C,C14*%
X105190000Y-55059420D02*
X105190000Y-55340580D01*
X106210000Y-55059420D02*
X106210000Y-55340580D01*
%TO.C,C13*%
X100190000Y-55059420D02*
X100190000Y-55340580D01*
X101210000Y-55059420D02*
X101210000Y-55340580D01*
%TO.C,C12*%
X97947500Y-52762500D02*
X97947500Y-53550000D01*
X93754437Y-53790000D02*
X95040000Y-53790000D01*
X93754437Y-53790000D02*
X92690000Y-54854437D01*
X99510000Y-60610000D02*
X97160000Y-60610000D01*
X98445563Y-53790000D02*
X97160000Y-53790000D01*
X98341250Y-53156250D02*
X97553750Y-53156250D01*
X92690000Y-60610000D02*
X95040000Y-60610000D01*
X98445563Y-53790000D02*
X99510000Y-54854437D01*
X92690000Y-54854437D02*
X92690000Y-60610000D01*
X99510000Y-54854437D02*
X99510000Y-60610000D01*
%TO.C,C11*%
X89790000Y-55034420D02*
X89790000Y-55315580D01*
X90810000Y-55034420D02*
X90810000Y-55315580D01*
%TD*%
M02*
