%TF.GenerationSoftware,KiCad,Pcbnew,(6.0.7)*%
%TF.CreationDate,2022-11-13T12:45:05+00:00*%
%TF.ProjectId,Actice-Tone,41637469-6365-42d5-946f-6e652e6b6963,rev?*%
%TF.SameCoordinates,Original*%
%TF.FileFunction,Copper,L2,Bot*%
%TF.FilePolarity,Positive*%
%FSLAX46Y46*%
G04 Gerber Fmt 4.6, Leading zero omitted, Abs format (unit mm)*
G04 Created by KiCad (PCBNEW (6.0.7)) date 2022-11-13 12:45:05*
%MOMM*%
%LPD*%
G01*
G04 APERTURE LIST*
%TA.AperFunction,ComponentPad*%
%ADD10R,3.000000X3.000000*%
%TD*%
%TA.AperFunction,ComponentPad*%
%ADD11C,3.000000*%
%TD*%
%TA.AperFunction,ComponentPad*%
%ADD12R,2.600000X2.600000*%
%TD*%
%TA.AperFunction,ComponentPad*%
%ADD13C,2.600000*%
%TD*%
%TA.AperFunction,ViaPad*%
%ADD14C,0.800000*%
%TD*%
%TA.AperFunction,Conductor*%
%ADD15C,0.500000*%
%TD*%
G04 APERTURE END LIST*
D10*
%TO.P,RV31,1,1*%
%TO.N,Net-(RV31-Pad1)*%
X129150000Y-103900000D03*
D11*
%TO.P,RV31,2,2*%
%TO.N,Net-(RV31-Pad2)*%
X129150000Y-98900000D03*
%TO.P,RV31,3,3*%
%TO.N,AUDIO_BUFF_L*%
X129150000Y-93900000D03*
%TO.P,RV31,4,4*%
%TO.N,Net-(RV31-Pad4)*%
X124150000Y-103900000D03*
%TO.P,RV31,5,5*%
%TO.N,Net-(RV31-Pad5)*%
X124150000Y-98900000D03*
%TO.P,RV31,6,6*%
%TO.N,AUDIO_BUFF_R*%
X124150000Y-93900000D03*
%TD*%
D10*
%TO.P,RV30,1,1*%
%TO.N,Net-(RV30-Pad1)*%
X129150000Y-79500000D03*
D11*
%TO.P,RV30,2,2*%
%TO.N,Net-(RV30-Pad2)*%
X129150000Y-74500000D03*
%TO.P,RV30,3,3*%
%TO.N,Net-(RV30-Pad3)*%
X129150000Y-69500000D03*
%TO.P,RV30,4,4*%
%TO.N,Net-(RV30-Pad4)*%
X124150000Y-79500000D03*
%TO.P,RV30,5,5*%
%TO.N,Net-(RV30-Pad5)*%
X124150000Y-74500000D03*
%TO.P,RV30,6,6*%
%TO.N,Net-(RV30-Pad6)*%
X124150000Y-69500000D03*
%TD*%
D12*
%TO.P,J3,1,Pin_1*%
%TO.N,AUDIO_OUT_L*%
X74695000Y-91900000D03*
D13*
%TO.P,J3,2,Pin_2*%
%TO.N,GNDA*%
X74695000Y-96900000D03*
%TO.P,J3,3,Pin_3*%
%TO.N,AUDIO_OUT_R*%
X74695000Y-101900000D03*
%TD*%
D12*
%TO.P,J2,1,Pin_1*%
%TO.N,AUDIO_IN_L*%
X74695000Y-70000000D03*
D13*
%TO.P,J2,2,Pin_2*%
%TO.N,GNDA*%
X74695000Y-75000000D03*
%TO.P,J2,3,Pin_3*%
%TO.N,AUDIO_IN_R*%
X74695000Y-80000000D03*
%TD*%
D12*
%TO.P,J1,1,Pin_1*%
%TO.N,/Connections/VIN_RAW*%
X74695000Y-54500000D03*
D13*
%TO.P,J1,2,Pin_2*%
%TO.N,GNDA*%
X74695000Y-59500000D03*
%TD*%
D14*
%TO.N,GNDA*%
X83550000Y-59450000D03*
X81900000Y-59500000D03*
X92400000Y-107500000D03*
X89350000Y-113450000D03*
X107200000Y-113600000D03*
X110500000Y-107524500D03*
X96000000Y-97000000D03*
%TO.N,+15V*%
X95900000Y-99300000D03*
X95500000Y-106000000D03*
%TO.N,GNDA*%
X89100000Y-92500000D03*
X85400000Y-113500000D03*
X78000000Y-105900000D03*
X105800000Y-74600000D03*
X99400000Y-72200000D03*
X85200000Y-73500000D03*
X90600000Y-75200000D03*
%TO.N,+15V*%
X92800000Y-78800000D03*
%TO.N,GNDA*%
X112800000Y-57600000D03*
X108400000Y-58200000D03*
X99787500Y-56887500D03*
X92600000Y-56500000D03*
X76500000Y-86600000D03*
X76500000Y-85300000D03*
X77600000Y-65900000D03*
%TO.N,BIAS_L*%
X86500000Y-67100000D03*
X86600000Y-107200000D03*
%TO.N,BIAS_R*%
X100500000Y-108500000D03*
X100400000Y-80100000D03*
X100300000Y-82800000D03*
%TO.N,AUDIO_BUFF_R*%
X116150000Y-81050000D03*
%TO.N,AUDIO_BUFF_L*%
X115050000Y-83950000D03*
X93700000Y-72500000D03*
X93700000Y-84000000D03*
%TO.N,+15V*%
X107100000Y-76800000D03*
X107475000Y-54425000D03*
X107100000Y-62800000D03*
X92800000Y-97400000D03*
X92700000Y-63300000D03*
%TO.N,TONE_OUT_R*%
X104400000Y-101300000D03*
X105049500Y-79600000D03*
%TO.N,TONE_OUT_L*%
X104100000Y-92000000D03*
X104200000Y-74000000D03*
%TO.N,Net-(R41-Pad2)*%
X90800000Y-97600000D03*
X92600000Y-102600000D03*
%TO.N,Net-(RV31-Pad1)*%
X117250000Y-80900000D03*
X118550000Y-106200000D03*
%TO.N,Net-(RV31-Pad4)*%
X114550000Y-103700000D03*
X114750000Y-71800000D03*
%TO.N,AUDIO_BUFF_L*%
X115050000Y-77300000D03*
X115750000Y-95500000D03*
%TO.N,AUDIO_BUFF_R*%
X116150000Y-70400000D03*
X117550000Y-93900000D03*
%TO.N,Net-(C33-Pad1)*%
X113350000Y-71400000D03*
X112350000Y-99700000D03*
%TO.N,Net-(C34-Pad1)*%
X113250000Y-80200000D03*
X113250000Y-98000000D03*
%TO.N,Net-(RV30-Pad4)*%
X119050000Y-72600000D03*
%TO.N,Net-(RV30-Pad3)*%
X120850000Y-71900000D03*
X119150000Y-76500000D03*
%TD*%
D15*
%TO.N,+15V*%
X95500000Y-99700000D02*
X95900000Y-99300000D01*
X95500000Y-106000000D02*
X95500000Y-99700000D01*
X92800000Y-78800000D02*
X92800000Y-63400000D01*
X92800000Y-97400000D02*
X92800000Y-78800000D01*
%TO.N,BIAS_L*%
X86600000Y-107200000D02*
X86600000Y-67200000D01*
X86600000Y-67200000D02*
X86500000Y-67100000D01*
%TO.N,BIAS_R*%
X100300000Y-108300000D02*
X100500000Y-108500000D01*
X100300000Y-82800000D02*
X100300000Y-108300000D01*
X100400000Y-82700000D02*
X100300000Y-82800000D01*
X100400000Y-80100000D02*
X100400000Y-82700000D01*
%TO.N,AUDIO_BUFF_R*%
X116150000Y-81050000D02*
X116150000Y-70400000D01*
%TO.N,AUDIO_BUFF_L*%
X115050000Y-94800000D02*
X115050000Y-83950000D01*
X93700000Y-72500000D02*
X93700000Y-84000000D01*
X115050000Y-83950000D02*
X115050000Y-77300000D01*
%TO.N,+15V*%
X107100000Y-76800000D02*
X107100000Y-62800000D01*
X107100000Y-54800000D02*
X107475000Y-54425000D01*
X107100000Y-62800000D02*
X107100000Y-54800000D01*
X92800000Y-63400000D02*
X92700000Y-63300000D01*
%TO.N,TONE_OUT_R*%
X105049500Y-100650500D02*
X104400000Y-101300000D01*
X105049500Y-79600000D02*
X105049500Y-100650500D01*
%TO.N,TONE_OUT_L*%
X104200000Y-74000000D02*
X104200000Y-91900000D01*
X104200000Y-91900000D02*
X104100000Y-92000000D01*
%TO.N,Net-(R41-Pad2)*%
X90800000Y-100800000D02*
X90800000Y-97600000D01*
X92600000Y-102600000D02*
X90800000Y-100800000D01*
%TO.N,Net-(RV31-Pad1)*%
X118550000Y-82200000D02*
X117250000Y-80900000D01*
X118550000Y-106200000D02*
X118550000Y-82200000D01*
%TO.N,Net-(RV31-Pad4)*%
X114200000Y-103350000D02*
X114200000Y-72350000D01*
X114200000Y-72350000D02*
X114750000Y-71800000D01*
X114550000Y-103700000D02*
X114200000Y-103350000D01*
%TO.N,AUDIO_BUFF_L*%
X115750000Y-95500000D02*
X115050000Y-94800000D01*
%TO.N,AUDIO_BUFF_R*%
X116150000Y-92500000D02*
X116150000Y-81050000D01*
X117550000Y-93900000D02*
X116150000Y-92500000D01*
%TO.N,Net-(C33-Pad1)*%
X112350000Y-72400000D02*
X113350000Y-71400000D01*
X112350000Y-99700000D02*
X112350000Y-72400000D01*
%TO.N,Net-(C34-Pad1)*%
X113250000Y-98000000D02*
X113250000Y-80200000D01*
%TO.N,Net-(RV30-Pad4)*%
X117850000Y-73800000D02*
X119050000Y-72600000D01*
X117850000Y-77400000D02*
X117850000Y-73800000D01*
X119950000Y-79500000D02*
X117850000Y-77400000D01*
X124150000Y-79500000D02*
X119950000Y-79500000D01*
%TO.N,Net-(RV30-Pad3)*%
X120850000Y-74800000D02*
X119150000Y-76500000D01*
X120850000Y-71900000D02*
X120850000Y-74800000D01*
%TD*%
%TA.AperFunction,Conductor*%
%TO.N,GNDA*%
G36*
X128970018Y-42510000D02*
G01*
X128984852Y-42512310D01*
X128984855Y-42512310D01*
X128993724Y-42513691D01*
X129002627Y-42512527D01*
X129002628Y-42512527D01*
X129013076Y-42511161D01*
X129035594Y-42510249D01*
X129336051Y-42525010D01*
X129348345Y-42526221D01*
X129675034Y-42574680D01*
X129687156Y-42577090D01*
X129781196Y-42600646D01*
X130007523Y-42657339D01*
X130019355Y-42660928D01*
X130330311Y-42772190D01*
X130341735Y-42776922D01*
X130409500Y-42808972D01*
X130640292Y-42918128D01*
X130651188Y-42923953D01*
X130792101Y-43008412D01*
X130934467Y-43093744D01*
X130944748Y-43100614D01*
X131210017Y-43297350D01*
X131219556Y-43305177D01*
X131464282Y-43526985D01*
X131473015Y-43535718D01*
X131694823Y-43780444D01*
X131702650Y-43789983D01*
X131831381Y-43963557D01*
X131899386Y-44055252D01*
X131906256Y-44065533D01*
X132076045Y-44348807D01*
X132081872Y-44359708D01*
X132088881Y-44374527D01*
X132223078Y-44658265D01*
X132227810Y-44669689D01*
X132339072Y-44980645D01*
X132342661Y-44992477D01*
X132398742Y-45216361D01*
X132421973Y-45309103D01*
X132422909Y-45312841D01*
X132425320Y-45324966D01*
X132462873Y-45578124D01*
X132473779Y-45651650D01*
X132474990Y-45663949D01*
X132485192Y-45871583D01*
X132489390Y-45957034D01*
X132488042Y-45982598D01*
X132486309Y-45993724D01*
X132487474Y-46002630D01*
X132490436Y-46025283D01*
X132491500Y-46041621D01*
X132491500Y-112950633D01*
X132490000Y-112970018D01*
X132486309Y-112993724D01*
X132487473Y-113002627D01*
X132487473Y-113002628D01*
X132488839Y-113013076D01*
X132489751Y-113035594D01*
X132483896Y-113154784D01*
X132474991Y-113336045D01*
X132473779Y-113348345D01*
X132460902Y-113435159D01*
X132425321Y-113675031D01*
X132422910Y-113687156D01*
X132420936Y-113695036D01*
X132342661Y-114007523D01*
X132339072Y-114019355D01*
X132227810Y-114330311D01*
X132223078Y-114341735D01*
X132173415Y-114446740D01*
X132087486Y-114628423D01*
X132081874Y-114640288D01*
X132076045Y-114651193D01*
X131906256Y-114934467D01*
X131899386Y-114944748D01*
X131702650Y-115210017D01*
X131694823Y-115219556D01*
X131473020Y-115464277D01*
X131464282Y-115473015D01*
X131219556Y-115694823D01*
X131210017Y-115702650D01*
X131015517Y-115846901D01*
X130944748Y-115899386D01*
X130934467Y-115906256D01*
X130792101Y-115991588D01*
X130651188Y-116076047D01*
X130640292Y-116081872D01*
X130505870Y-116145448D01*
X130341735Y-116223078D01*
X130330311Y-116227810D01*
X130019355Y-116339072D01*
X130007523Y-116342661D01*
X129781196Y-116399354D01*
X129687156Y-116422910D01*
X129675034Y-116425320D01*
X129348345Y-116473779D01*
X129336051Y-116474990D01*
X129042961Y-116489390D01*
X129017402Y-116488042D01*
X129006276Y-116486309D01*
X128974714Y-116490436D01*
X128958379Y-116491500D01*
X71049367Y-116491500D01*
X71029982Y-116490000D01*
X71015148Y-116487690D01*
X71015145Y-116487690D01*
X71006276Y-116486309D01*
X70997373Y-116487473D01*
X70997372Y-116487473D01*
X70986924Y-116488839D01*
X70964406Y-116489751D01*
X70663949Y-116474990D01*
X70651655Y-116473779D01*
X70324966Y-116425320D01*
X70312844Y-116422910D01*
X70218804Y-116399354D01*
X69992477Y-116342661D01*
X69980645Y-116339072D01*
X69669689Y-116227810D01*
X69658265Y-116223078D01*
X69494130Y-116145448D01*
X69359708Y-116081872D01*
X69348812Y-116076047D01*
X69207899Y-115991588D01*
X69065533Y-115906256D01*
X69055252Y-115899386D01*
X68984483Y-115846901D01*
X68789983Y-115702650D01*
X68780444Y-115694823D01*
X68535718Y-115473015D01*
X68526980Y-115464277D01*
X68305177Y-115219556D01*
X68297350Y-115210017D01*
X68100614Y-114944748D01*
X68093744Y-114934467D01*
X67923955Y-114651193D01*
X67918126Y-114640288D01*
X67912515Y-114628423D01*
X67826585Y-114446740D01*
X67776922Y-114341735D01*
X67772190Y-114330311D01*
X67660928Y-114019355D01*
X67657339Y-114007523D01*
X67579064Y-113695036D01*
X67577090Y-113687156D01*
X67574679Y-113675031D01*
X67539098Y-113435159D01*
X67526220Y-113348343D01*
X67525009Y-113336045D01*
X67515020Y-113132703D01*
X68890743Y-113132703D01*
X68928268Y-113417734D01*
X69004129Y-113695036D01*
X69116923Y-113959476D01*
X69264561Y-114206161D01*
X69444313Y-114430528D01*
X69652851Y-114628423D01*
X69886317Y-114796186D01*
X69890112Y-114798195D01*
X69890113Y-114798196D01*
X69911869Y-114809715D01*
X70140392Y-114930712D01*
X70410373Y-115029511D01*
X70691264Y-115090755D01*
X70719841Y-115093004D01*
X70914282Y-115108307D01*
X70914291Y-115108307D01*
X70916739Y-115108500D01*
X71072271Y-115108500D01*
X71074407Y-115108354D01*
X71074418Y-115108354D01*
X71282548Y-115094165D01*
X71282554Y-115094164D01*
X71286825Y-115093873D01*
X71291020Y-115093004D01*
X71291022Y-115093004D01*
X71427583Y-115064724D01*
X71568342Y-115035574D01*
X71839343Y-114939607D01*
X72094812Y-114807750D01*
X72098313Y-114805289D01*
X72098317Y-114805287D01*
X72317570Y-114651193D01*
X72330023Y-114642441D01*
X72540622Y-114446740D01*
X72722713Y-114224268D01*
X72872927Y-113979142D01*
X72988483Y-113715898D01*
X73067244Y-113439406D01*
X73107751Y-113154784D01*
X73107845Y-113136951D01*
X73107867Y-113132703D01*
X126890743Y-113132703D01*
X126928268Y-113417734D01*
X127004129Y-113695036D01*
X127116923Y-113959476D01*
X127264561Y-114206161D01*
X127444313Y-114430528D01*
X127652851Y-114628423D01*
X127886317Y-114796186D01*
X127890112Y-114798195D01*
X127890113Y-114798196D01*
X127911869Y-114809715D01*
X128140392Y-114930712D01*
X128410373Y-115029511D01*
X128691264Y-115090755D01*
X128719841Y-115093004D01*
X128914282Y-115108307D01*
X128914291Y-115108307D01*
X128916739Y-115108500D01*
X129072271Y-115108500D01*
X129074407Y-115108354D01*
X129074418Y-115108354D01*
X129282548Y-115094165D01*
X129282554Y-115094164D01*
X129286825Y-115093873D01*
X129291020Y-115093004D01*
X129291022Y-115093004D01*
X129427583Y-115064724D01*
X129568342Y-115035574D01*
X129839343Y-114939607D01*
X130094812Y-114807750D01*
X130098313Y-114805289D01*
X130098317Y-114805287D01*
X130317570Y-114651193D01*
X130330023Y-114642441D01*
X130540622Y-114446740D01*
X130722713Y-114224268D01*
X130872927Y-113979142D01*
X130988483Y-113715898D01*
X131067244Y-113439406D01*
X131107751Y-113154784D01*
X131107845Y-113136951D01*
X131109235Y-112871583D01*
X131109235Y-112871576D01*
X131109257Y-112867297D01*
X131071732Y-112582266D01*
X130995871Y-112304964D01*
X130883077Y-112040524D01*
X130735439Y-111793839D01*
X130555687Y-111569472D01*
X130347149Y-111371577D01*
X130113683Y-111203814D01*
X130091843Y-111192250D01*
X130068654Y-111179972D01*
X129859608Y-111069288D01*
X129589627Y-110970489D01*
X129308736Y-110909245D01*
X129277685Y-110906801D01*
X129085718Y-110891693D01*
X129085709Y-110891693D01*
X129083261Y-110891500D01*
X128927729Y-110891500D01*
X128925593Y-110891646D01*
X128925582Y-110891646D01*
X128717452Y-110905835D01*
X128717446Y-110905836D01*
X128713175Y-110906127D01*
X128708980Y-110906996D01*
X128708978Y-110906996D01*
X128572416Y-110935277D01*
X128431658Y-110964426D01*
X128160657Y-111060393D01*
X127905188Y-111192250D01*
X127901687Y-111194711D01*
X127901683Y-111194713D01*
X127891594Y-111201804D01*
X127669977Y-111357559D01*
X127459378Y-111553260D01*
X127277287Y-111775732D01*
X127127073Y-112020858D01*
X127011517Y-112284102D01*
X126932756Y-112560594D01*
X126892249Y-112845216D01*
X126892227Y-112849505D01*
X126892226Y-112849512D01*
X126890765Y-113128417D01*
X126890743Y-113132703D01*
X73107867Y-113132703D01*
X73109235Y-112871583D01*
X73109235Y-112871576D01*
X73109257Y-112867297D01*
X73071732Y-112582266D01*
X72995871Y-112304964D01*
X72883077Y-112040524D01*
X72735439Y-111793839D01*
X72555687Y-111569472D01*
X72347149Y-111371577D01*
X72113683Y-111203814D01*
X72091843Y-111192250D01*
X72068654Y-111179972D01*
X71859608Y-111069288D01*
X71589627Y-110970489D01*
X71308736Y-110909245D01*
X71277685Y-110906801D01*
X71085718Y-110891693D01*
X71085709Y-110891693D01*
X71083261Y-110891500D01*
X70927729Y-110891500D01*
X70925593Y-110891646D01*
X70925582Y-110891646D01*
X70717452Y-110905835D01*
X70717446Y-110905836D01*
X70713175Y-110906127D01*
X70708980Y-110906996D01*
X70708978Y-110906996D01*
X70572416Y-110935277D01*
X70431658Y-110964426D01*
X70160657Y-111060393D01*
X69905188Y-111192250D01*
X69901687Y-111194711D01*
X69901683Y-111194713D01*
X69891594Y-111201804D01*
X69669977Y-111357559D01*
X69459378Y-111553260D01*
X69277287Y-111775732D01*
X69127073Y-112020858D01*
X69011517Y-112284102D01*
X68932756Y-112560594D01*
X68892249Y-112845216D01*
X68892227Y-112849505D01*
X68892226Y-112849512D01*
X68890765Y-113128417D01*
X68890743Y-113132703D01*
X67515020Y-113132703D01*
X67510795Y-113046695D01*
X67512387Y-113019619D01*
X67513576Y-113012552D01*
X67513729Y-113000000D01*
X67509773Y-112972376D01*
X67508500Y-112954514D01*
X67508500Y-101852526D01*
X72882050Y-101852526D01*
X72882274Y-101857192D01*
X72882274Y-101857197D01*
X72886961Y-101954771D01*
X72894947Y-102121019D01*
X72947388Y-102384656D01*
X73038220Y-102637646D01*
X73165450Y-102874431D01*
X73168241Y-102878168D01*
X73168245Y-102878175D01*
X73242250Y-102977279D01*
X73326281Y-103089810D01*
X73329590Y-103093090D01*
X73329595Y-103093096D01*
X73512040Y-103273955D01*
X73517180Y-103279050D01*
X73520942Y-103281808D01*
X73520945Y-103281811D01*
X73674352Y-103394293D01*
X73733954Y-103437995D01*
X73738089Y-103440171D01*
X73738093Y-103440173D01*
X73967698Y-103560975D01*
X73971840Y-103563154D01*
X74225613Y-103651775D01*
X74230206Y-103652647D01*
X74485109Y-103701042D01*
X74485112Y-103701042D01*
X74489698Y-103701913D01*
X74608101Y-103706565D01*
X74753625Y-103712283D01*
X74753630Y-103712283D01*
X74758293Y-103712466D01*
X74872122Y-103700000D01*
X75020844Y-103683713D01*
X75020850Y-103683712D01*
X75025497Y-103683203D01*
X75040124Y-103679352D01*
X75280918Y-103615956D01*
X75280920Y-103615955D01*
X75285441Y-103614765D01*
X75333089Y-103594294D01*
X75528120Y-103510502D01*
X75528122Y-103510501D01*
X75532414Y-103508657D01*
X75711336Y-103397937D01*
X75757017Y-103369669D01*
X75757021Y-103369666D01*
X75760990Y-103367210D01*
X75966149Y-103193530D01*
X76143382Y-102991434D01*
X76288797Y-102765361D01*
X76399199Y-102520278D01*
X76428018Y-102418094D01*
X76470893Y-102266072D01*
X76470894Y-102266069D01*
X76472163Y-102261568D01*
X76490409Y-102118145D01*
X76505688Y-101998045D01*
X76505688Y-101998041D01*
X76506086Y-101994915D01*
X76508571Y-101900000D01*
X76488650Y-101631937D01*
X76477020Y-101580538D01*
X76430361Y-101374331D01*
X76430360Y-101374326D01*
X76429327Y-101369763D01*
X76331902Y-101119238D01*
X76198518Y-100885864D01*
X76191952Y-100877534D01*
X76091683Y-100750344D01*
X76032105Y-100674769D01*
X75836317Y-100490591D01*
X75667134Y-100373224D01*
X75619299Y-100340039D01*
X75619296Y-100340037D01*
X75615457Y-100337374D01*
X75611264Y-100335306D01*
X75378564Y-100220551D01*
X75378561Y-100220550D01*
X75374376Y-100218486D01*
X75326745Y-100203239D01*
X75272621Y-100185914D01*
X75118370Y-100136538D01*
X75113763Y-100135788D01*
X75113760Y-100135787D01*
X74857674Y-100094081D01*
X74857675Y-100094081D01*
X74853063Y-100093330D01*
X74722719Y-100091624D01*
X74588961Y-100089873D01*
X74588958Y-100089873D01*
X74584284Y-100089812D01*
X74317937Y-100126060D01*
X74313451Y-100127368D01*
X74313449Y-100127368D01*
X74284565Y-100135787D01*
X74059874Y-100201278D01*
X73815763Y-100313815D01*
X73811854Y-100316378D01*
X73594881Y-100458631D01*
X73594876Y-100458635D01*
X73590968Y-100461197D01*
X73515330Y-100528707D01*
X73416125Y-100617251D01*
X73390426Y-100640188D01*
X73218544Y-100846854D01*
X73216121Y-100850847D01*
X73148332Y-100962560D01*
X73079096Y-101076656D01*
X73077287Y-101080970D01*
X73077285Y-101080974D01*
X72982688Y-101306565D01*
X72975148Y-101324545D01*
X72908981Y-101585077D01*
X72882050Y-101852526D01*
X67508500Y-101852526D01*
X67508500Y-98344906D01*
X73614839Y-98344906D01*
X73623553Y-98356427D01*
X73730452Y-98434809D01*
X73738351Y-98439745D01*
X73967905Y-98560519D01*
X73976454Y-98564236D01*
X74221327Y-98649749D01*
X74230336Y-98652163D01*
X74485166Y-98700544D01*
X74494423Y-98701598D01*
X74753607Y-98711783D01*
X74762921Y-98711457D01*
X75020753Y-98683220D01*
X75029930Y-98681519D01*
X75280758Y-98615481D01*
X75289574Y-98612445D01*
X75527880Y-98510062D01*
X75536167Y-98505748D01*
X75756718Y-98369266D01*
X75764268Y-98363780D01*
X75769559Y-98359301D01*
X75777997Y-98346497D01*
X75771935Y-98336145D01*
X74707812Y-97272022D01*
X74693868Y-97264408D01*
X74692035Y-97264539D01*
X74685420Y-97268790D01*
X73621497Y-98332713D01*
X73614839Y-98344906D01*
X67508500Y-98344906D01*
X67508500Y-96857211D01*
X72882775Y-96857211D01*
X72895220Y-97116288D01*
X72896356Y-97125543D01*
X72946961Y-97379945D01*
X72949449Y-97388917D01*
X73037095Y-97633033D01*
X73040895Y-97641568D01*
X73163658Y-97870042D01*
X73168666Y-97877904D01*
X73238720Y-97971716D01*
X73249979Y-97980165D01*
X73262397Y-97973393D01*
X74322978Y-96912812D01*
X74329356Y-96901132D01*
X75059408Y-96901132D01*
X75059539Y-96902965D01*
X75063790Y-96909580D01*
X76131094Y-97976884D01*
X76143474Y-97983644D01*
X76151815Y-97977400D01*
X76285832Y-97769048D01*
X76290275Y-97760864D01*
X76396807Y-97524370D01*
X76399997Y-97515605D01*
X76470402Y-97265972D01*
X76472262Y-97256830D01*
X76505187Y-96998019D01*
X76505668Y-96991733D01*
X76507987Y-96903160D01*
X76507836Y-96896851D01*
X76488501Y-96636663D01*
X76487125Y-96627457D01*
X76429878Y-96374467D01*
X76427154Y-96365556D01*
X76333143Y-96123806D01*
X76329132Y-96115397D01*
X76200422Y-95890202D01*
X76195211Y-95882476D01*
X76151996Y-95827658D01*
X76140071Y-95819187D01*
X76128537Y-95825673D01*
X75067022Y-96887188D01*
X75059408Y-96901132D01*
X74329356Y-96901132D01*
X74330592Y-96898868D01*
X74330461Y-96897035D01*
X74326210Y-96890420D01*
X73260816Y-95825026D01*
X73247507Y-95817758D01*
X73237472Y-95824878D01*
X73221937Y-95843556D01*
X73216531Y-95851135D01*
X73081965Y-96072891D01*
X73077736Y-96081192D01*
X72977432Y-96320389D01*
X72974471Y-96329239D01*
X72910628Y-96580625D01*
X72909006Y-96589822D01*
X72883020Y-96847885D01*
X72882775Y-96857211D01*
X67508500Y-96857211D01*
X67508500Y-95452689D01*
X73612102Y-95452689D01*
X73616675Y-95462465D01*
X74682188Y-96527978D01*
X74696132Y-96535592D01*
X74697965Y-96535461D01*
X74704580Y-96531210D01*
X75769349Y-95466441D01*
X75775733Y-95454751D01*
X75766321Y-95442641D01*
X75619045Y-95340471D01*
X75611010Y-95335738D01*
X75378376Y-95221016D01*
X75369743Y-95217528D01*
X75122703Y-95138450D01*
X75113643Y-95136274D01*
X74857630Y-95094580D01*
X74848343Y-95093768D01*
X74588992Y-95090373D01*
X74579681Y-95090943D01*
X74322682Y-95125919D01*
X74313546Y-95127860D01*
X74064543Y-95200439D01*
X74055800Y-95203707D01*
X73820252Y-95312296D01*
X73812097Y-95316816D01*
X73621240Y-95441947D01*
X73612102Y-95452689D01*
X67508500Y-95452689D01*
X67508500Y-93248134D01*
X72886500Y-93248134D01*
X72893255Y-93310316D01*
X72944385Y-93446705D01*
X73031739Y-93563261D01*
X73148295Y-93650615D01*
X73284684Y-93701745D01*
X73346866Y-93708500D01*
X76043134Y-93708500D01*
X76105316Y-93701745D01*
X76241705Y-93650615D01*
X76358261Y-93563261D01*
X76445615Y-93446705D01*
X76496745Y-93310316D01*
X76503500Y-93248134D01*
X76503500Y-90551866D01*
X76496745Y-90489684D01*
X76445615Y-90353295D01*
X76358261Y-90236739D01*
X76241705Y-90149385D01*
X76105316Y-90098255D01*
X76043134Y-90091500D01*
X73346866Y-90091500D01*
X73284684Y-90098255D01*
X73148295Y-90149385D01*
X73031739Y-90236739D01*
X72944385Y-90353295D01*
X72893255Y-90489684D01*
X72886500Y-90551866D01*
X72886500Y-93248134D01*
X67508500Y-93248134D01*
X67508500Y-79952526D01*
X72882050Y-79952526D01*
X72882274Y-79957192D01*
X72882274Y-79957197D01*
X72884179Y-79996851D01*
X72894947Y-80221019D01*
X72947388Y-80484656D01*
X73038220Y-80737646D01*
X73165450Y-80974431D01*
X73168241Y-80978168D01*
X73168245Y-80978175D01*
X73223023Y-81051531D01*
X73326281Y-81189810D01*
X73329590Y-81193090D01*
X73329595Y-81193096D01*
X73506681Y-81368642D01*
X73517180Y-81379050D01*
X73520942Y-81381808D01*
X73520945Y-81381811D01*
X73693728Y-81508500D01*
X73733954Y-81537995D01*
X73738089Y-81540171D01*
X73738093Y-81540173D01*
X73967698Y-81660975D01*
X73971840Y-81663154D01*
X74091987Y-81705111D01*
X74198856Y-81742431D01*
X74225613Y-81751775D01*
X74230206Y-81752647D01*
X74485109Y-81801042D01*
X74485112Y-81801042D01*
X74489698Y-81801913D01*
X74617370Y-81806929D01*
X74753625Y-81812283D01*
X74753630Y-81812283D01*
X74758293Y-81812466D01*
X74862607Y-81801042D01*
X75020844Y-81783713D01*
X75020850Y-81783712D01*
X75025497Y-81783203D01*
X75080226Y-81768794D01*
X75280918Y-81715956D01*
X75280920Y-81715955D01*
X75285441Y-81714765D01*
X75289738Y-81712919D01*
X75528120Y-81610502D01*
X75528122Y-81610501D01*
X75532414Y-81608657D01*
X75694266Y-81508500D01*
X75757017Y-81469669D01*
X75757021Y-81469666D01*
X75760990Y-81467210D01*
X75966149Y-81293530D01*
X76143382Y-81091434D01*
X76169049Y-81051531D01*
X76286269Y-80869291D01*
X76288797Y-80865361D01*
X76399199Y-80620278D01*
X76410919Y-80578723D01*
X76470893Y-80366072D01*
X76470894Y-80366069D01*
X76472163Y-80361568D01*
X76482522Y-80280144D01*
X76505688Y-80098045D01*
X76505688Y-80098041D01*
X76506086Y-80094915D01*
X76506303Y-80086650D01*
X76508488Y-80003160D01*
X76508571Y-80000000D01*
X76507747Y-79988911D01*
X76488996Y-79736592D01*
X76488996Y-79736591D01*
X76488650Y-79731937D01*
X76460282Y-79606565D01*
X76430361Y-79474331D01*
X76430360Y-79474326D01*
X76429327Y-79469763D01*
X76331902Y-79219238D01*
X76198518Y-78985864D01*
X76177035Y-78958612D01*
X76132416Y-78902014D01*
X76032105Y-78774769D01*
X75836317Y-78590591D01*
X75615457Y-78437374D01*
X75611264Y-78435306D01*
X75378564Y-78320551D01*
X75378561Y-78320550D01*
X75374376Y-78318486D01*
X75326745Y-78303239D01*
X75272621Y-78285914D01*
X75118370Y-78236538D01*
X75113763Y-78235788D01*
X75113760Y-78235787D01*
X74857674Y-78194081D01*
X74857675Y-78194081D01*
X74853063Y-78193330D01*
X74722719Y-78191624D01*
X74588961Y-78189873D01*
X74588958Y-78189873D01*
X74584284Y-78189812D01*
X74317937Y-78226060D01*
X74313451Y-78227368D01*
X74313449Y-78227368D01*
X74293931Y-78233057D01*
X74059874Y-78301278D01*
X73815763Y-78413815D01*
X73811854Y-78416378D01*
X73594881Y-78558631D01*
X73594876Y-78558635D01*
X73590968Y-78561197D01*
X73587476Y-78564314D01*
X73402027Y-78729834D01*
X73390426Y-78740188D01*
X73358615Y-78778437D01*
X73243165Y-78917251D01*
X73218544Y-78946854D01*
X73079096Y-79176656D01*
X73077287Y-79180970D01*
X73077285Y-79180974D01*
X73030938Y-79291500D01*
X72975148Y-79424545D01*
X72908981Y-79685077D01*
X72882050Y-79952526D01*
X67508500Y-79952526D01*
X67508500Y-76444906D01*
X73614839Y-76444906D01*
X73623553Y-76456427D01*
X73730452Y-76534809D01*
X73738351Y-76539745D01*
X73967905Y-76660519D01*
X73976454Y-76664236D01*
X74221327Y-76749749D01*
X74230336Y-76752163D01*
X74485166Y-76800544D01*
X74494423Y-76801598D01*
X74753607Y-76811783D01*
X74762921Y-76811457D01*
X75020753Y-76783220D01*
X75029930Y-76781519D01*
X75280758Y-76715481D01*
X75289574Y-76712445D01*
X75527880Y-76610062D01*
X75536167Y-76605748D01*
X75756718Y-76469266D01*
X75764268Y-76463780D01*
X75769559Y-76459301D01*
X75777997Y-76446497D01*
X75771935Y-76436145D01*
X74707812Y-75372022D01*
X74693868Y-75364408D01*
X74692035Y-75364539D01*
X74685420Y-75368790D01*
X73621497Y-76432713D01*
X73614839Y-76444906D01*
X67508500Y-76444906D01*
X67508500Y-74957211D01*
X72882775Y-74957211D01*
X72895220Y-75216288D01*
X72896356Y-75225543D01*
X72946961Y-75479945D01*
X72949449Y-75488917D01*
X73037095Y-75733033D01*
X73040895Y-75741568D01*
X73163658Y-75970042D01*
X73168666Y-75977904D01*
X73238720Y-76071716D01*
X73249979Y-76080165D01*
X73262397Y-76073393D01*
X74322978Y-75012812D01*
X74329356Y-75001132D01*
X75059408Y-75001132D01*
X75059539Y-75002965D01*
X75063790Y-75009580D01*
X76131094Y-76076884D01*
X76143474Y-76083644D01*
X76151815Y-76077400D01*
X76285832Y-75869048D01*
X76290275Y-75860864D01*
X76396807Y-75624370D01*
X76399997Y-75615605D01*
X76470402Y-75365972D01*
X76472262Y-75356830D01*
X76505187Y-75098019D01*
X76505668Y-75091733D01*
X76507987Y-75003160D01*
X76507836Y-74996851D01*
X76488501Y-74736663D01*
X76487125Y-74727457D01*
X76429878Y-74474467D01*
X76427154Y-74465556D01*
X76333143Y-74223806D01*
X76329132Y-74215397D01*
X76200422Y-73990202D01*
X76195211Y-73982476D01*
X76151996Y-73927658D01*
X76140071Y-73919187D01*
X76128537Y-73925673D01*
X75067022Y-74987188D01*
X75059408Y-75001132D01*
X74329356Y-75001132D01*
X74330592Y-74998868D01*
X74330461Y-74997035D01*
X74326210Y-74990420D01*
X73260816Y-73925026D01*
X73247507Y-73917758D01*
X73237472Y-73924878D01*
X73221937Y-73943556D01*
X73216531Y-73951135D01*
X73081965Y-74172891D01*
X73077736Y-74181192D01*
X72977432Y-74420389D01*
X72974471Y-74429239D01*
X72910628Y-74680625D01*
X72909006Y-74689822D01*
X72883020Y-74947885D01*
X72882775Y-74957211D01*
X67508500Y-74957211D01*
X67508500Y-73552689D01*
X73612102Y-73552689D01*
X73616675Y-73562465D01*
X74682188Y-74627978D01*
X74696132Y-74635592D01*
X74697965Y-74635461D01*
X74704580Y-74631210D01*
X75769349Y-73566441D01*
X75775733Y-73554751D01*
X75766321Y-73542641D01*
X75619045Y-73440471D01*
X75611010Y-73435738D01*
X75378376Y-73321016D01*
X75369743Y-73317528D01*
X75122703Y-73238450D01*
X75113643Y-73236274D01*
X74857630Y-73194580D01*
X74848343Y-73193768D01*
X74588992Y-73190373D01*
X74579681Y-73190943D01*
X74322682Y-73225919D01*
X74313546Y-73227860D01*
X74064543Y-73300439D01*
X74055800Y-73303707D01*
X73820252Y-73412296D01*
X73812097Y-73416816D01*
X73621240Y-73541947D01*
X73612102Y-73552689D01*
X67508500Y-73552689D01*
X67508500Y-71348134D01*
X72886500Y-71348134D01*
X72893255Y-71410316D01*
X72944385Y-71546705D01*
X73031739Y-71663261D01*
X73148295Y-71750615D01*
X73284684Y-71801745D01*
X73346866Y-71808500D01*
X76043134Y-71808500D01*
X76105316Y-71801745D01*
X76241705Y-71750615D01*
X76358261Y-71663261D01*
X76445615Y-71546705D01*
X76496745Y-71410316D01*
X76503500Y-71348134D01*
X76503500Y-68651866D01*
X76496745Y-68589684D01*
X76445615Y-68453295D01*
X76358261Y-68336739D01*
X76241705Y-68249385D01*
X76105316Y-68198255D01*
X76043134Y-68191500D01*
X73346866Y-68191500D01*
X73284684Y-68198255D01*
X73148295Y-68249385D01*
X73031739Y-68336739D01*
X72944385Y-68453295D01*
X72893255Y-68589684D01*
X72886500Y-68651866D01*
X72886500Y-71348134D01*
X67508500Y-71348134D01*
X67508500Y-67100000D01*
X85586496Y-67100000D01*
X85606458Y-67289928D01*
X85665473Y-67471556D01*
X85760960Y-67636944D01*
X85765378Y-67641851D01*
X85765379Y-67641852D01*
X85809136Y-67690449D01*
X85839854Y-67754456D01*
X85841500Y-67774759D01*
X85841500Y-106663001D01*
X85824619Y-106726000D01*
X85765473Y-106828444D01*
X85706458Y-107010072D01*
X85686496Y-107200000D01*
X85706458Y-107389928D01*
X85765473Y-107571556D01*
X85860960Y-107736944D01*
X85865378Y-107741851D01*
X85865379Y-107741852D01*
X85902255Y-107782807D01*
X85988747Y-107878866D01*
X86143248Y-107991118D01*
X86149276Y-107993802D01*
X86149278Y-107993803D01*
X86311681Y-108066109D01*
X86317712Y-108068794D01*
X86411113Y-108088647D01*
X86498056Y-108107128D01*
X86498061Y-108107128D01*
X86504513Y-108108500D01*
X86695487Y-108108500D01*
X86701939Y-108107128D01*
X86701944Y-108107128D01*
X86788888Y-108088647D01*
X86882288Y-108068794D01*
X86888319Y-108066109D01*
X87050722Y-107993803D01*
X87050724Y-107993802D01*
X87056752Y-107991118D01*
X87211253Y-107878866D01*
X87297745Y-107782807D01*
X87334621Y-107741852D01*
X87334622Y-107741851D01*
X87339040Y-107736944D01*
X87434527Y-107571556D01*
X87493542Y-107389928D01*
X87513504Y-107200000D01*
X87493542Y-107010072D01*
X87434527Y-106828444D01*
X87375381Y-106726000D01*
X87358500Y-106663001D01*
X87358500Y-106000000D01*
X94586496Y-106000000D01*
X94606458Y-106189928D01*
X94665473Y-106371556D01*
X94760960Y-106536944D01*
X94888747Y-106678866D01*
X95043248Y-106791118D01*
X95049276Y-106793802D01*
X95049278Y-106793803D01*
X95141200Y-106834729D01*
X95217712Y-106868794D01*
X95283365Y-106882749D01*
X95398056Y-106907128D01*
X95398061Y-106907128D01*
X95404513Y-106908500D01*
X95595487Y-106908500D01*
X95601939Y-106907128D01*
X95601944Y-106907128D01*
X95716635Y-106882749D01*
X95782288Y-106868794D01*
X95858800Y-106834729D01*
X95950722Y-106793803D01*
X95950724Y-106793802D01*
X95956752Y-106791118D01*
X96111253Y-106678866D01*
X96239040Y-106536944D01*
X96334527Y-106371556D01*
X96393542Y-106189928D01*
X96413504Y-106000000D01*
X96400687Y-105878050D01*
X96394232Y-105816635D01*
X96394232Y-105816633D01*
X96393542Y-105810072D01*
X96334527Y-105628444D01*
X96275381Y-105526000D01*
X96258500Y-105463001D01*
X96258500Y-100216688D01*
X96278502Y-100148567D01*
X96333251Y-100101582D01*
X96350715Y-100093806D01*
X96350716Y-100093805D01*
X96356752Y-100091118D01*
X96511253Y-99978866D01*
X96525417Y-99963135D01*
X96634621Y-99841852D01*
X96634622Y-99841851D01*
X96639040Y-99836944D01*
X96734527Y-99671556D01*
X96793542Y-99489928D01*
X96794829Y-99477689D01*
X96812814Y-99306565D01*
X96813504Y-99300000D01*
X96812227Y-99287850D01*
X96794232Y-99116635D01*
X96794232Y-99116633D01*
X96793542Y-99110072D01*
X96734527Y-98928444D01*
X96716673Y-98897519D01*
X96642341Y-98768774D01*
X96639040Y-98763056D01*
X96567156Y-98683220D01*
X96515675Y-98626045D01*
X96515674Y-98626044D01*
X96511253Y-98621134D01*
X96356752Y-98508882D01*
X96350724Y-98506198D01*
X96350722Y-98506197D01*
X96188319Y-98433891D01*
X96188318Y-98433891D01*
X96182288Y-98431206D01*
X96088887Y-98411353D01*
X96001944Y-98392872D01*
X96001939Y-98392872D01*
X95995487Y-98391500D01*
X95804513Y-98391500D01*
X95798061Y-98392872D01*
X95798056Y-98392872D01*
X95711113Y-98411353D01*
X95617712Y-98431206D01*
X95611682Y-98433891D01*
X95611681Y-98433891D01*
X95449278Y-98506197D01*
X95449276Y-98506198D01*
X95443248Y-98508882D01*
X95288747Y-98621134D01*
X95284326Y-98626044D01*
X95284325Y-98626045D01*
X95232845Y-98683220D01*
X95160960Y-98763056D01*
X95157659Y-98768774D01*
X95083328Y-98897519D01*
X95065473Y-98928444D01*
X95063431Y-98934729D01*
X95013198Y-99089330D01*
X94980660Y-99140405D01*
X94979182Y-99141492D01*
X94973626Y-99148032D01*
X94944965Y-99181768D01*
X94938035Y-99189284D01*
X94932340Y-99194979D01*
X94930060Y-99197861D01*
X94914719Y-99217251D01*
X94911928Y-99220655D01*
X94869409Y-99270703D01*
X94864667Y-99276285D01*
X94861339Y-99282801D01*
X94857972Y-99287850D01*
X94854805Y-99292979D01*
X94850266Y-99298716D01*
X94819345Y-99364875D01*
X94817442Y-99368769D01*
X94784231Y-99433808D01*
X94782492Y-99440916D01*
X94780393Y-99446559D01*
X94778476Y-99452322D01*
X94775378Y-99458950D01*
X94773888Y-99466112D01*
X94773888Y-99466113D01*
X94760514Y-99530412D01*
X94759544Y-99534696D01*
X94742192Y-99605610D01*
X94741500Y-99616764D01*
X94741464Y-99616762D01*
X94741225Y-99620755D01*
X94740851Y-99624947D01*
X94739360Y-99632115D01*
X94739558Y-99639432D01*
X94741454Y-99709521D01*
X94741500Y-99712928D01*
X94741500Y-105463001D01*
X94724619Y-105526000D01*
X94665473Y-105628444D01*
X94606458Y-105810072D01*
X94605768Y-105816633D01*
X94605768Y-105816635D01*
X94599313Y-105878050D01*
X94586496Y-106000000D01*
X87358500Y-106000000D01*
X87358500Y-97600000D01*
X89886496Y-97600000D01*
X89887186Y-97606565D01*
X89905129Y-97777279D01*
X89906458Y-97789928D01*
X89965473Y-97971556D01*
X90024594Y-98073955D01*
X90024619Y-98073999D01*
X90041500Y-98136999D01*
X90041500Y-100732930D01*
X90040067Y-100751880D01*
X90038367Y-100763056D01*
X90036801Y-100773349D01*
X90037394Y-100780641D01*
X90037394Y-100780644D01*
X90041085Y-100826018D01*
X90041500Y-100836233D01*
X90041500Y-100844293D01*
X90041925Y-100847937D01*
X90044789Y-100872507D01*
X90045222Y-100876882D01*
X90048951Y-100922721D01*
X90051140Y-100949637D01*
X90053396Y-100956601D01*
X90054587Y-100962560D01*
X90055971Y-100968415D01*
X90056818Y-100975681D01*
X90081735Y-101044327D01*
X90083152Y-101048455D01*
X90101080Y-101103794D01*
X90105649Y-101117899D01*
X90109445Y-101124154D01*
X90111951Y-101129628D01*
X90114670Y-101135058D01*
X90117167Y-101141937D01*
X90121180Y-101148057D01*
X90121180Y-101148058D01*
X90157186Y-101202976D01*
X90159523Y-101206680D01*
X90197405Y-101269107D01*
X90201121Y-101273315D01*
X90201122Y-101273316D01*
X90204803Y-101277484D01*
X90204776Y-101277508D01*
X90207429Y-101280500D01*
X90210132Y-101283733D01*
X90214144Y-101289852D01*
X90255551Y-101329077D01*
X90270383Y-101343128D01*
X90272825Y-101345506D01*
X91679875Y-102752556D01*
X91710613Y-102802714D01*
X91765473Y-102971556D01*
X91768776Y-102977278D01*
X91768777Y-102977279D01*
X91778978Y-102994947D01*
X91860960Y-103136944D01*
X91988747Y-103278866D01*
X92076359Y-103342520D01*
X92110342Y-103367210D01*
X92143248Y-103391118D01*
X92149276Y-103393802D01*
X92149278Y-103393803D01*
X92311681Y-103466109D01*
X92317712Y-103468794D01*
X92411113Y-103488647D01*
X92498056Y-103507128D01*
X92498061Y-103507128D01*
X92504513Y-103508500D01*
X92695487Y-103508500D01*
X92701939Y-103507128D01*
X92701944Y-103507128D01*
X92788887Y-103488647D01*
X92882288Y-103468794D01*
X92888319Y-103466109D01*
X93050722Y-103393803D01*
X93050724Y-103393802D01*
X93056752Y-103391118D01*
X93089659Y-103367210D01*
X93123641Y-103342520D01*
X93211253Y-103278866D01*
X93339040Y-103136944D01*
X93421022Y-102994947D01*
X93431223Y-102977279D01*
X93431224Y-102977278D01*
X93434527Y-102971556D01*
X93493542Y-102789928D01*
X93513504Y-102600000D01*
X93496224Y-102435588D01*
X93494232Y-102416635D01*
X93494232Y-102416633D01*
X93493542Y-102410072D01*
X93434527Y-102228444D01*
X93339040Y-102063056D01*
X93211253Y-101921134D01*
X93056752Y-101808882D01*
X93050724Y-101806198D01*
X93050722Y-101806197D01*
X92888319Y-101733891D01*
X92888318Y-101733891D01*
X92882288Y-101731206D01*
X92875833Y-101729834D01*
X92875824Y-101729831D01*
X92819228Y-101717801D01*
X92756331Y-101683650D01*
X91595405Y-100522724D01*
X91561379Y-100460412D01*
X91558500Y-100433629D01*
X91558500Y-98136999D01*
X91575381Y-98073999D01*
X91575407Y-98073955D01*
X91634527Y-97971556D01*
X91693542Y-97789928D01*
X91694872Y-97777279D01*
X91699502Y-97733221D01*
X91726515Y-97667564D01*
X91784737Y-97626934D01*
X91855682Y-97624231D01*
X91916826Y-97660313D01*
X91944645Y-97707453D01*
X91965473Y-97771556D01*
X92060960Y-97936944D01*
X92188747Y-98078866D01*
X92343248Y-98191118D01*
X92349276Y-98193802D01*
X92349278Y-98193803D01*
X92511681Y-98266109D01*
X92517712Y-98268794D01*
X92611112Y-98288647D01*
X92698056Y-98307128D01*
X92698061Y-98307128D01*
X92704513Y-98308500D01*
X92895487Y-98308500D01*
X92901939Y-98307128D01*
X92901944Y-98307128D01*
X92988888Y-98288647D01*
X93082288Y-98268794D01*
X93088319Y-98266109D01*
X93250722Y-98193803D01*
X93250724Y-98193802D01*
X93256752Y-98191118D01*
X93411253Y-98078866D01*
X93539040Y-97936944D01*
X93634527Y-97771556D01*
X93693542Y-97589928D01*
X93710380Y-97429728D01*
X93712814Y-97406565D01*
X93713504Y-97400000D01*
X93700053Y-97272022D01*
X93694232Y-97216635D01*
X93694232Y-97216633D01*
X93693542Y-97210072D01*
X93634527Y-97028444D01*
X93620790Y-97004650D01*
X93578152Y-96930800D01*
X93575381Y-96926000D01*
X93558500Y-96863001D01*
X93558500Y-85034500D01*
X93578502Y-84966379D01*
X93632158Y-84919886D01*
X93684500Y-84908500D01*
X93795487Y-84908500D01*
X93801939Y-84907128D01*
X93801944Y-84907128D01*
X93888888Y-84888647D01*
X93982288Y-84868794D01*
X93988319Y-84866109D01*
X94150722Y-84793803D01*
X94150724Y-84793802D01*
X94156752Y-84791118D01*
X94311253Y-84678866D01*
X94439040Y-84536944D01*
X94534527Y-84371556D01*
X94593542Y-84189928D01*
X94613504Y-84000000D01*
X94593542Y-83810072D01*
X94534527Y-83628444D01*
X94475381Y-83526000D01*
X94458500Y-83463001D01*
X94458500Y-82800000D01*
X99386496Y-82800000D01*
X99406458Y-82989928D01*
X99465473Y-83171556D01*
X99468776Y-83177278D01*
X99468777Y-83177279D01*
X99524619Y-83273999D01*
X99541500Y-83336999D01*
X99541500Y-108232930D01*
X99540067Y-108251880D01*
X99536801Y-108273349D01*
X99537394Y-108280641D01*
X99537394Y-108280644D01*
X99541085Y-108326018D01*
X99541500Y-108336233D01*
X99541500Y-108344293D01*
X99541925Y-108347937D01*
X99544789Y-108372507D01*
X99545222Y-108376882D01*
X99551140Y-108449637D01*
X99553396Y-108456601D01*
X99554587Y-108462560D01*
X99555971Y-108468415D01*
X99556818Y-108475681D01*
X99581740Y-108544340D01*
X99583143Y-108548427D01*
X99591576Y-108574458D01*
X99597018Y-108600116D01*
X99606458Y-108689928D01*
X99665473Y-108871556D01*
X99760960Y-109036944D01*
X99888747Y-109178866D01*
X100043248Y-109291118D01*
X100049276Y-109293802D01*
X100049278Y-109293803D01*
X100211681Y-109366109D01*
X100217712Y-109368794D01*
X100311113Y-109388647D01*
X100398056Y-109407128D01*
X100398061Y-109407128D01*
X100404513Y-109408500D01*
X100595487Y-109408500D01*
X100601939Y-109407128D01*
X100601944Y-109407128D01*
X100688888Y-109388647D01*
X100782288Y-109368794D01*
X100788319Y-109366109D01*
X100950722Y-109293803D01*
X100950724Y-109293802D01*
X100956752Y-109291118D01*
X101111253Y-109178866D01*
X101239040Y-109036944D01*
X101334527Y-108871556D01*
X101393542Y-108689928D01*
X101413504Y-108500000D01*
X101393542Y-108310072D01*
X101334527Y-108128444D01*
X101239040Y-107963056D01*
X101111253Y-107821134D01*
X101105909Y-107817251D01*
X101101002Y-107812833D01*
X101102888Y-107810738D01*
X101067100Y-107764359D01*
X101058500Y-107718607D01*
X101058500Y-92000000D01*
X103186496Y-92000000D01*
X103187186Y-92006565D01*
X103198678Y-92115901D01*
X103206458Y-92189928D01*
X103265473Y-92371556D01*
X103360960Y-92536944D01*
X103488747Y-92678866D01*
X103643248Y-92791118D01*
X103649276Y-92793802D01*
X103649278Y-92793803D01*
X103797630Y-92859853D01*
X103817712Y-92868794D01*
X103909000Y-92888198D01*
X103998056Y-92907128D01*
X103998061Y-92907128D01*
X104004513Y-92908500D01*
X104165000Y-92908500D01*
X104233121Y-92928502D01*
X104279614Y-92982158D01*
X104291000Y-93034500D01*
X104291000Y-100284129D01*
X104270998Y-100352250D01*
X104254095Y-100373224D01*
X104243669Y-100383650D01*
X104180772Y-100417801D01*
X104124176Y-100429831D01*
X104124167Y-100429834D01*
X104117712Y-100431206D01*
X104111682Y-100433891D01*
X104111681Y-100433891D01*
X103949278Y-100506197D01*
X103949276Y-100506198D01*
X103943248Y-100508882D01*
X103937907Y-100512762D01*
X103937906Y-100512763D01*
X103915961Y-100528707D01*
X103788747Y-100621134D01*
X103784326Y-100626044D01*
X103784325Y-100626045D01*
X103688086Y-100732930D01*
X103660960Y-100763056D01*
X103628042Y-100820071D01*
X103578730Y-100905483D01*
X103565473Y-100928444D01*
X103506458Y-101110072D01*
X103505768Y-101116633D01*
X103505768Y-101116635D01*
X103488486Y-101281062D01*
X103486496Y-101300000D01*
X103506458Y-101489928D01*
X103565473Y-101671556D01*
X103568776Y-101677278D01*
X103568777Y-101677279D01*
X103592173Y-101717801D01*
X103660960Y-101836944D01*
X103665378Y-101841851D01*
X103665379Y-101841852D01*
X103717736Y-101900000D01*
X103788747Y-101978866D01*
X103943248Y-102091118D01*
X103949276Y-102093802D01*
X103949278Y-102093803D01*
X104101785Y-102161703D01*
X104117712Y-102168794D01*
X104211112Y-102188647D01*
X104298056Y-102207128D01*
X104298061Y-102207128D01*
X104304513Y-102208500D01*
X104495487Y-102208500D01*
X104501939Y-102207128D01*
X104501944Y-102207128D01*
X104588887Y-102188647D01*
X104682288Y-102168794D01*
X104698215Y-102161703D01*
X104850722Y-102093803D01*
X104850724Y-102093802D01*
X104856752Y-102091118D01*
X105011253Y-101978866D01*
X105082264Y-101900000D01*
X105134621Y-101841852D01*
X105134622Y-101841851D01*
X105139040Y-101836944D01*
X105207827Y-101717801D01*
X105231223Y-101677279D01*
X105231224Y-101677278D01*
X105234527Y-101671556D01*
X105289387Y-101502714D01*
X105320125Y-101452556D01*
X105538411Y-101234270D01*
X105552823Y-101221884D01*
X105564418Y-101213351D01*
X105564423Y-101213346D01*
X105570318Y-101209008D01*
X105575057Y-101203430D01*
X105575060Y-101203427D01*
X105604535Y-101168732D01*
X105611465Y-101161216D01*
X105617161Y-101155520D01*
X105619424Y-101152659D01*
X105619429Y-101152654D01*
X105634793Y-101133234D01*
X105637582Y-101129833D01*
X105646583Y-101119238D01*
X105684833Y-101074215D01*
X105688159Y-101067702D01*
X105691520Y-101062663D01*
X105694696Y-101057521D01*
X105699234Y-101051784D01*
X105730155Y-100985625D01*
X105732061Y-100981725D01*
X105748446Y-100949637D01*
X105765269Y-100916692D01*
X105767008Y-100909583D01*
X105769104Y-100903949D01*
X105771023Y-100898179D01*
X105774122Y-100891550D01*
X105777038Y-100877534D01*
X105788990Y-100820071D01*
X105789961Y-100815782D01*
X105792257Y-100806399D01*
X105807308Y-100744890D01*
X105808000Y-100733736D01*
X105808035Y-100733738D01*
X105808275Y-100729766D01*
X105808652Y-100725545D01*
X105810141Y-100718385D01*
X105808046Y-100640958D01*
X105808000Y-100637550D01*
X105808000Y-99700000D01*
X111436496Y-99700000D01*
X111456458Y-99889928D01*
X111515473Y-100071556D01*
X111518776Y-100077278D01*
X111518777Y-100077279D01*
X111546577Y-100125430D01*
X111610960Y-100236944D01*
X111615378Y-100241851D01*
X111615379Y-100241852D01*
X111701387Y-100337374D01*
X111738747Y-100378866D01*
X111814482Y-100433891D01*
X111885955Y-100485819D01*
X111893248Y-100491118D01*
X111899276Y-100493802D01*
X111899278Y-100493803D01*
X112059354Y-100565073D01*
X112067712Y-100568794D01*
X112161112Y-100588647D01*
X112248056Y-100607128D01*
X112248061Y-100607128D01*
X112254513Y-100608500D01*
X112445487Y-100608500D01*
X112451939Y-100607128D01*
X112451944Y-100607128D01*
X112538888Y-100588647D01*
X112632288Y-100568794D01*
X112640646Y-100565073D01*
X112800722Y-100493803D01*
X112800724Y-100493802D01*
X112806752Y-100491118D01*
X112814046Y-100485819D01*
X112885518Y-100433891D01*
X112961253Y-100378866D01*
X112998613Y-100337374D01*
X113084621Y-100241852D01*
X113084622Y-100241851D01*
X113089040Y-100236944D01*
X113153423Y-100125430D01*
X113181223Y-100077279D01*
X113181224Y-100077278D01*
X113184527Y-100071556D01*
X113195668Y-100037269D01*
X113235741Y-99978665D01*
X113301138Y-99951028D01*
X113371094Y-99963135D01*
X113423400Y-100011141D01*
X113441500Y-100076207D01*
X113441500Y-103282930D01*
X113440067Y-103301880D01*
X113436801Y-103323349D01*
X113437394Y-103330641D01*
X113437394Y-103330644D01*
X113441085Y-103376018D01*
X113441500Y-103386233D01*
X113441500Y-103394293D01*
X113441925Y-103397937D01*
X113444789Y-103422507D01*
X113445222Y-103426882D01*
X113451140Y-103499637D01*
X113453396Y-103506601D01*
X113454587Y-103512560D01*
X113455971Y-103518415D01*
X113456818Y-103525681D01*
X113481735Y-103594327D01*
X113483152Y-103598455D01*
X113492328Y-103626778D01*
X113505649Y-103667899D01*
X113509445Y-103674154D01*
X113511951Y-103679628D01*
X113514670Y-103685058D01*
X113517167Y-103691937D01*
X113521180Y-103698057D01*
X113521180Y-103698058D01*
X113557186Y-103752976D01*
X113559523Y-103756680D01*
X113597405Y-103819107D01*
X113601121Y-103823315D01*
X113601122Y-103823316D01*
X113604803Y-103827484D01*
X113604776Y-103827508D01*
X113607429Y-103830500D01*
X113610132Y-103833733D01*
X113614144Y-103839852D01*
X113619456Y-103844884D01*
X113628496Y-103853448D01*
X113661675Y-103905984D01*
X113715473Y-104071556D01*
X113810960Y-104236944D01*
X113938747Y-104378866D01*
X114037843Y-104450864D01*
X114074765Y-104477689D01*
X114093248Y-104491118D01*
X114099276Y-104493802D01*
X114099278Y-104493803D01*
X114261681Y-104566109D01*
X114267712Y-104568794D01*
X114361112Y-104588647D01*
X114448056Y-104607128D01*
X114448061Y-104607128D01*
X114454513Y-104608500D01*
X114645487Y-104608500D01*
X114651939Y-104607128D01*
X114651944Y-104607128D01*
X114738888Y-104588647D01*
X114832288Y-104568794D01*
X114838319Y-104566109D01*
X115000722Y-104493803D01*
X115000724Y-104493802D01*
X115006752Y-104491118D01*
X115025236Y-104477689D01*
X115062157Y-104450864D01*
X115161253Y-104378866D01*
X115289040Y-104236944D01*
X115384527Y-104071556D01*
X115443542Y-103889928D01*
X115444250Y-103883198D01*
X115462814Y-103706565D01*
X115463504Y-103700000D01*
X115443542Y-103510072D01*
X115384527Y-103328444D01*
X115289040Y-103163056D01*
X115236322Y-103104506D01*
X115165675Y-103026045D01*
X115165674Y-103026044D01*
X115161253Y-103021134D01*
X115084365Y-102965271D01*
X115010439Y-102911561D01*
X114967085Y-102855339D01*
X114958500Y-102809625D01*
X114958500Y-96295198D01*
X114978502Y-96227077D01*
X115032158Y-96180584D01*
X115102432Y-96170480D01*
X115158562Y-96193262D01*
X115293248Y-96291118D01*
X115299276Y-96293802D01*
X115299278Y-96293803D01*
X115460439Y-96365556D01*
X115467712Y-96368794D01*
X115561113Y-96388647D01*
X115648056Y-96407128D01*
X115648061Y-96407128D01*
X115654513Y-96408500D01*
X115845487Y-96408500D01*
X115851939Y-96407128D01*
X115851944Y-96407128D01*
X115938887Y-96388647D01*
X116032288Y-96368794D01*
X116039561Y-96365556D01*
X116200722Y-96293803D01*
X116200724Y-96293802D01*
X116206752Y-96291118D01*
X116361253Y-96178866D01*
X116489040Y-96036944D01*
X116564526Y-95906199D01*
X116581223Y-95877279D01*
X116581224Y-95877278D01*
X116584527Y-95871556D01*
X116643542Y-95689928D01*
X116645192Y-95674234D01*
X116662814Y-95506565D01*
X116663504Y-95500000D01*
X116658748Y-95454751D01*
X116644232Y-95316635D01*
X116644232Y-95316633D01*
X116643542Y-95310072D01*
X116584527Y-95128444D01*
X116489040Y-94963056D01*
X116361253Y-94821134D01*
X116206752Y-94708882D01*
X116200724Y-94706198D01*
X116200722Y-94706197D01*
X116038319Y-94633891D01*
X116038318Y-94633891D01*
X116032288Y-94631206D01*
X116025833Y-94629834D01*
X116025824Y-94629831D01*
X115969228Y-94617801D01*
X115906331Y-94583650D01*
X115845405Y-94522724D01*
X115811379Y-94460412D01*
X115808500Y-94433629D01*
X115808500Y-93535371D01*
X115828502Y-93467250D01*
X115882158Y-93420757D01*
X115952432Y-93410653D01*
X116017012Y-93440147D01*
X116023595Y-93446276D01*
X116629875Y-94052556D01*
X116660613Y-94102714D01*
X116715473Y-94271556D01*
X116810960Y-94436944D01*
X116815378Y-94441851D01*
X116815379Y-94441852D01*
X116934325Y-94573955D01*
X116938747Y-94578866D01*
X116992336Y-94617801D01*
X117083417Y-94683975D01*
X117093248Y-94691118D01*
X117099276Y-94693802D01*
X117099278Y-94693803D01*
X117261681Y-94766109D01*
X117267712Y-94768794D01*
X117361112Y-94788647D01*
X117448056Y-94807128D01*
X117448061Y-94807128D01*
X117454513Y-94808500D01*
X117645487Y-94808500D01*
X117651942Y-94807128D01*
X117652332Y-94807087D01*
X117722170Y-94819860D01*
X117774016Y-94868363D01*
X117791500Y-94932397D01*
X117791500Y-105663001D01*
X117774619Y-105726000D01*
X117715473Y-105828444D01*
X117656458Y-106010072D01*
X117636496Y-106200000D01*
X117637186Y-106206565D01*
X117655129Y-106377279D01*
X117656458Y-106389928D01*
X117715473Y-106571556D01*
X117810960Y-106736944D01*
X117815378Y-106741851D01*
X117815379Y-106741852D01*
X117929678Y-106868794D01*
X117938747Y-106878866D01*
X118093248Y-106991118D01*
X118099276Y-106993802D01*
X118099278Y-106993803D01*
X118150560Y-107016635D01*
X118267712Y-107068794D01*
X118361112Y-107088647D01*
X118448056Y-107107128D01*
X118448061Y-107107128D01*
X118454513Y-107108500D01*
X118645487Y-107108500D01*
X118651939Y-107107128D01*
X118651944Y-107107128D01*
X118738887Y-107088647D01*
X118832288Y-107068794D01*
X118949440Y-107016635D01*
X119000722Y-106993803D01*
X119000724Y-106993802D01*
X119006752Y-106991118D01*
X119161253Y-106878866D01*
X119170322Y-106868794D01*
X119284621Y-106741852D01*
X119284622Y-106741851D01*
X119289040Y-106736944D01*
X119384527Y-106571556D01*
X119443542Y-106389928D01*
X119444872Y-106377279D01*
X119462814Y-106206565D01*
X119463504Y-106200000D01*
X119443542Y-106010072D01*
X119384527Y-105828444D01*
X119325381Y-105726000D01*
X119308500Y-105663001D01*
X119308500Y-103878918D01*
X122136917Y-103878918D01*
X122152682Y-104152320D01*
X122153507Y-104156525D01*
X122153508Y-104156533D01*
X122169284Y-104236944D01*
X122205405Y-104421053D01*
X122206792Y-104425103D01*
X122206793Y-104425108D01*
X122292723Y-104676088D01*
X122294112Y-104680144D01*
X122417160Y-104924799D01*
X122419586Y-104928328D01*
X122419589Y-104928334D01*
X122569843Y-105146953D01*
X122572274Y-105150490D01*
X122756582Y-105353043D01*
X122966675Y-105528707D01*
X122970316Y-105530991D01*
X123195024Y-105671951D01*
X123195028Y-105671953D01*
X123198664Y-105674234D01*
X123266544Y-105704883D01*
X123444345Y-105785164D01*
X123444349Y-105785166D01*
X123448257Y-105786930D01*
X123452377Y-105788150D01*
X123452376Y-105788150D01*
X123706723Y-105863491D01*
X123706727Y-105863492D01*
X123710836Y-105864709D01*
X123715070Y-105865357D01*
X123715075Y-105865358D01*
X123977298Y-105905483D01*
X123977300Y-105905483D01*
X123981540Y-105906132D01*
X124120912Y-105908322D01*
X124251071Y-105910367D01*
X124251077Y-105910367D01*
X124255362Y-105910434D01*
X124527235Y-105877534D01*
X124792127Y-105808041D01*
X124796087Y-105806401D01*
X124796092Y-105806399D01*
X124918631Y-105755641D01*
X125045136Y-105703241D01*
X125281582Y-105565073D01*
X125430720Y-105448134D01*
X127141500Y-105448134D01*
X127148255Y-105510316D01*
X127199385Y-105646705D01*
X127286739Y-105763261D01*
X127403295Y-105850615D01*
X127539684Y-105901745D01*
X127601866Y-105908500D01*
X130698134Y-105908500D01*
X130760316Y-105901745D01*
X130896705Y-105850615D01*
X131013261Y-105763261D01*
X131100615Y-105646705D01*
X131151745Y-105510316D01*
X131158500Y-105448134D01*
X131158500Y-102351866D01*
X131151745Y-102289684D01*
X131100615Y-102153295D01*
X131013261Y-102036739D01*
X130896705Y-101949385D01*
X130760316Y-101898255D01*
X130698134Y-101891500D01*
X127601866Y-101891500D01*
X127539684Y-101898255D01*
X127403295Y-101949385D01*
X127286739Y-102036739D01*
X127199385Y-102153295D01*
X127148255Y-102289684D01*
X127141500Y-102351866D01*
X127141500Y-105448134D01*
X125430720Y-105448134D01*
X125497089Y-105396094D01*
X125538809Y-105353043D01*
X125684686Y-105202509D01*
X125687669Y-105199431D01*
X125690202Y-105195983D01*
X125690206Y-105195978D01*
X125847257Y-104982178D01*
X125849795Y-104978723D01*
X125877154Y-104928334D01*
X125978418Y-104741830D01*
X125978419Y-104741828D01*
X125980468Y-104738054D01*
X126029941Y-104607128D01*
X126075751Y-104485895D01*
X126075752Y-104485891D01*
X126077269Y-104481877D01*
X126133366Y-104236944D01*
X126137449Y-104219117D01*
X126137450Y-104219113D01*
X126138407Y-104214933D01*
X126162751Y-103942161D01*
X126163193Y-103900000D01*
X126162934Y-103896206D01*
X126144859Y-103631055D01*
X126144858Y-103631049D01*
X126144567Y-103626778D01*
X126089032Y-103358612D01*
X125997617Y-103100465D01*
X125872013Y-102857112D01*
X125862040Y-102842921D01*
X125717008Y-102636562D01*
X125714545Y-102633057D01*
X125528125Y-102432445D01*
X125524810Y-102429731D01*
X125524806Y-102429728D01*
X125363304Y-102297540D01*
X125316205Y-102258990D01*
X125082704Y-102115901D01*
X125078768Y-102114173D01*
X124835873Y-102007549D01*
X124835869Y-102007548D01*
X124831945Y-102005825D01*
X124568566Y-101930800D01*
X124564324Y-101930196D01*
X124564318Y-101930195D01*
X124359387Y-101901029D01*
X124297443Y-101892213D01*
X124153589Y-101891460D01*
X124027877Y-101890802D01*
X124027871Y-101890802D01*
X124023591Y-101890780D01*
X124019347Y-101891339D01*
X124019343Y-101891339D01*
X123900302Y-101907011D01*
X123752078Y-101926525D01*
X123747938Y-101927658D01*
X123747936Y-101927658D01*
X123680037Y-101946233D01*
X123487928Y-101998788D01*
X123483980Y-102000472D01*
X123239982Y-102104546D01*
X123239978Y-102104548D01*
X123236030Y-102106232D01*
X123117414Y-102177222D01*
X123004725Y-102244664D01*
X123004721Y-102244667D01*
X123001043Y-102246868D01*
X122787318Y-102418094D01*
X122770717Y-102435588D01*
X122608466Y-102606565D01*
X122598808Y-102616742D01*
X122439002Y-102839136D01*
X122310857Y-103081161D01*
X122309385Y-103085184D01*
X122309383Y-103085188D01*
X122224875Y-103316115D01*
X122216743Y-103338337D01*
X122158404Y-103605907D01*
X122136917Y-103878918D01*
X119308500Y-103878918D01*
X119308500Y-98878918D01*
X122136917Y-98878918D01*
X122152682Y-99152320D01*
X122153507Y-99156525D01*
X122153508Y-99156533D01*
X122175908Y-99270703D01*
X122205405Y-99421053D01*
X122206792Y-99425103D01*
X122206793Y-99425108D01*
X122292723Y-99676088D01*
X122294112Y-99680144D01*
X122417160Y-99924799D01*
X122419586Y-99928328D01*
X122419589Y-99928334D01*
X122561533Y-100134862D01*
X122572274Y-100150490D01*
X122575161Y-100153663D01*
X122575162Y-100153664D01*
X122693875Y-100284129D01*
X122756582Y-100353043D01*
X122759877Y-100355798D01*
X122759878Y-100355799D01*
X122787466Y-100378866D01*
X122966675Y-100528707D01*
X122970316Y-100530991D01*
X123195024Y-100671951D01*
X123195028Y-100671953D01*
X123198664Y-100674234D01*
X123266544Y-100704883D01*
X123444345Y-100785164D01*
X123444349Y-100785166D01*
X123448257Y-100786930D01*
X123452377Y-100788150D01*
X123452376Y-100788150D01*
X123706723Y-100863491D01*
X123706727Y-100863492D01*
X123710836Y-100864709D01*
X123715070Y-100865357D01*
X123715075Y-100865358D01*
X123977298Y-100905483D01*
X123977300Y-100905483D01*
X123981540Y-100906132D01*
X124120912Y-100908322D01*
X124251071Y-100910367D01*
X124251077Y-100910367D01*
X124255362Y-100910434D01*
X124527235Y-100877534D01*
X124792127Y-100808041D01*
X124796087Y-100806401D01*
X124796092Y-100806399D01*
X124927711Y-100751880D01*
X125045136Y-100703241D01*
X125209614Y-100607128D01*
X125277879Y-100567237D01*
X125277880Y-100567236D01*
X125281582Y-100565073D01*
X125497089Y-100396094D01*
X125510022Y-100382749D01*
X125684686Y-100202509D01*
X125687669Y-100199431D01*
X125690202Y-100195983D01*
X125690206Y-100195978D01*
X125847257Y-99982178D01*
X125849795Y-99978723D01*
X125877154Y-99928334D01*
X125978418Y-99741830D01*
X125978419Y-99741828D01*
X125980468Y-99738054D01*
X126066615Y-99510072D01*
X126075751Y-99485895D01*
X126075752Y-99485891D01*
X126077269Y-99481877D01*
X126135872Y-99226001D01*
X126137449Y-99219117D01*
X126137450Y-99219113D01*
X126138407Y-99214933D01*
X126141020Y-99185663D01*
X126162531Y-98944627D01*
X126162531Y-98944625D01*
X126162751Y-98942161D01*
X126163193Y-98900000D01*
X126161756Y-98878918D01*
X127136917Y-98878918D01*
X127152682Y-99152320D01*
X127153507Y-99156525D01*
X127153508Y-99156533D01*
X127175908Y-99270703D01*
X127205405Y-99421053D01*
X127206792Y-99425103D01*
X127206793Y-99425108D01*
X127292723Y-99676088D01*
X127294112Y-99680144D01*
X127417160Y-99924799D01*
X127419586Y-99928328D01*
X127419589Y-99928334D01*
X127561533Y-100134862D01*
X127572274Y-100150490D01*
X127575161Y-100153663D01*
X127575162Y-100153664D01*
X127693875Y-100284129D01*
X127756582Y-100353043D01*
X127759877Y-100355798D01*
X127759878Y-100355799D01*
X127787466Y-100378866D01*
X127966675Y-100528707D01*
X127970316Y-100530991D01*
X128195024Y-100671951D01*
X128195028Y-100671953D01*
X128198664Y-100674234D01*
X128266544Y-100704883D01*
X128444345Y-100785164D01*
X128444349Y-100785166D01*
X128448257Y-100786930D01*
X128452377Y-100788150D01*
X128452376Y-100788150D01*
X128706723Y-100863491D01*
X128706727Y-100863492D01*
X128710836Y-100864709D01*
X128715070Y-100865357D01*
X128715075Y-100865358D01*
X128977298Y-100905483D01*
X128977300Y-100905483D01*
X128981540Y-100906132D01*
X129120912Y-100908322D01*
X129251071Y-100910367D01*
X129251077Y-100910367D01*
X129255362Y-100910434D01*
X129527235Y-100877534D01*
X129792127Y-100808041D01*
X129796087Y-100806401D01*
X129796092Y-100806399D01*
X129927711Y-100751880D01*
X130045136Y-100703241D01*
X130209614Y-100607128D01*
X130277879Y-100567237D01*
X130277880Y-100567236D01*
X130281582Y-100565073D01*
X130497089Y-100396094D01*
X130510022Y-100382749D01*
X130684686Y-100202509D01*
X130687669Y-100199431D01*
X130690202Y-100195983D01*
X130690206Y-100195978D01*
X130847257Y-99982178D01*
X130849795Y-99978723D01*
X130877154Y-99928334D01*
X130978418Y-99741830D01*
X130978419Y-99741828D01*
X130980468Y-99738054D01*
X131066615Y-99510072D01*
X131075751Y-99485895D01*
X131075752Y-99485891D01*
X131077269Y-99481877D01*
X131135872Y-99226001D01*
X131137449Y-99219117D01*
X131137450Y-99219113D01*
X131138407Y-99214933D01*
X131141020Y-99185663D01*
X131162531Y-98944627D01*
X131162531Y-98944625D01*
X131162751Y-98942161D01*
X131163193Y-98900000D01*
X131154247Y-98768774D01*
X131144859Y-98631055D01*
X131144858Y-98631049D01*
X131144567Y-98626778D01*
X131142228Y-98615481D01*
X131089901Y-98362809D01*
X131089032Y-98358612D01*
X130997617Y-98100465D01*
X130872013Y-97857112D01*
X130862040Y-97842921D01*
X130733701Y-97660313D01*
X130714545Y-97633057D01*
X130528125Y-97432445D01*
X130524810Y-97429731D01*
X130524806Y-97429728D01*
X130324735Y-97265972D01*
X130316205Y-97258990D01*
X130082704Y-97115901D01*
X130078768Y-97114173D01*
X129835873Y-97007549D01*
X129835869Y-97007548D01*
X129831945Y-97005825D01*
X129568566Y-96930800D01*
X129564324Y-96930196D01*
X129564318Y-96930195D01*
X129344203Y-96898868D01*
X129297443Y-96892213D01*
X129153589Y-96891460D01*
X129027877Y-96890802D01*
X129027871Y-96890802D01*
X129023591Y-96890780D01*
X129019347Y-96891339D01*
X129019343Y-96891339D01*
X128900302Y-96907011D01*
X128752078Y-96926525D01*
X128747938Y-96927658D01*
X128747936Y-96927658D01*
X128675008Y-96947609D01*
X128487928Y-96998788D01*
X128483980Y-97000472D01*
X128239982Y-97104546D01*
X128239978Y-97104548D01*
X128236030Y-97106232D01*
X128117414Y-97177222D01*
X128004725Y-97244664D01*
X128004721Y-97244667D01*
X128001043Y-97246868D01*
X127787318Y-97418094D01*
X127686466Y-97524370D01*
X127608466Y-97606565D01*
X127598808Y-97616742D01*
X127439002Y-97839136D01*
X127310857Y-98081161D01*
X127309385Y-98085184D01*
X127309383Y-98085188D01*
X127302778Y-98103238D01*
X127216743Y-98338337D01*
X127158404Y-98605907D01*
X127136917Y-98878918D01*
X126161756Y-98878918D01*
X126154247Y-98768774D01*
X126144859Y-98631055D01*
X126144858Y-98631049D01*
X126144567Y-98626778D01*
X126142228Y-98615481D01*
X126089901Y-98362809D01*
X126089032Y-98358612D01*
X125997617Y-98100465D01*
X125872013Y-97857112D01*
X125862040Y-97842921D01*
X125733701Y-97660313D01*
X125714545Y-97633057D01*
X125528125Y-97432445D01*
X125524810Y-97429731D01*
X125524806Y-97429728D01*
X125324735Y-97265972D01*
X125316205Y-97258990D01*
X125082704Y-97115901D01*
X125078768Y-97114173D01*
X124835873Y-97007549D01*
X124835869Y-97007548D01*
X124831945Y-97005825D01*
X124568566Y-96930800D01*
X124564324Y-96930196D01*
X124564318Y-96930195D01*
X124344203Y-96898868D01*
X124297443Y-96892213D01*
X124153589Y-96891460D01*
X124027877Y-96890802D01*
X124027871Y-96890802D01*
X124023591Y-96890780D01*
X124019347Y-96891339D01*
X124019343Y-96891339D01*
X123900302Y-96907011D01*
X123752078Y-96926525D01*
X123747938Y-96927658D01*
X123747936Y-96927658D01*
X123675008Y-96947609D01*
X123487928Y-96998788D01*
X123483980Y-97000472D01*
X123239982Y-97104546D01*
X123239978Y-97104548D01*
X123236030Y-97106232D01*
X123117414Y-97177222D01*
X123004725Y-97244664D01*
X123004721Y-97244667D01*
X123001043Y-97246868D01*
X122787318Y-97418094D01*
X122686466Y-97524370D01*
X122608466Y-97606565D01*
X122598808Y-97616742D01*
X122439002Y-97839136D01*
X122310857Y-98081161D01*
X122309385Y-98085184D01*
X122309383Y-98085188D01*
X122302778Y-98103238D01*
X122216743Y-98338337D01*
X122158404Y-98605907D01*
X122136917Y-98878918D01*
X119308500Y-98878918D01*
X119308500Y-93878918D01*
X122136917Y-93878918D01*
X122152682Y-94152320D01*
X122153507Y-94156525D01*
X122153508Y-94156533D01*
X122164127Y-94210657D01*
X122205405Y-94421053D01*
X122206792Y-94425103D01*
X122206793Y-94425108D01*
X122278276Y-94633891D01*
X122294112Y-94680144D01*
X122417160Y-94924799D01*
X122419586Y-94928328D01*
X122419589Y-94928334D01*
X122563999Y-95138450D01*
X122572274Y-95150490D01*
X122575161Y-95153663D01*
X122575162Y-95153664D01*
X122636447Y-95221016D01*
X122756582Y-95353043D01*
X122966675Y-95528707D01*
X122970316Y-95530991D01*
X123195024Y-95671951D01*
X123195028Y-95671953D01*
X123198664Y-95674234D01*
X123266544Y-95704883D01*
X123444345Y-95785164D01*
X123444349Y-95785166D01*
X123448257Y-95786930D01*
X123452377Y-95788150D01*
X123452376Y-95788150D01*
X123706723Y-95863491D01*
X123706727Y-95863492D01*
X123710836Y-95864709D01*
X123715070Y-95865357D01*
X123715075Y-95865358D01*
X123977298Y-95905483D01*
X123977300Y-95905483D01*
X123981540Y-95906132D01*
X124120912Y-95908322D01*
X124251071Y-95910367D01*
X124251077Y-95910367D01*
X124255362Y-95910434D01*
X124527235Y-95877534D01*
X124792127Y-95808041D01*
X124796087Y-95806401D01*
X124796092Y-95806399D01*
X124918631Y-95755641D01*
X125045136Y-95703241D01*
X125281582Y-95565073D01*
X125497089Y-95396094D01*
X125538809Y-95353043D01*
X125621059Y-95268167D01*
X125687669Y-95199431D01*
X125690202Y-95195983D01*
X125690206Y-95195978D01*
X125847257Y-94982178D01*
X125849795Y-94978723D01*
X125877154Y-94928334D01*
X125978418Y-94741830D01*
X125978419Y-94741828D01*
X125980468Y-94738054D01*
X126077269Y-94481877D01*
X126138407Y-94214933D01*
X126149564Y-94089928D01*
X126162531Y-93944627D01*
X126162531Y-93944625D01*
X126162751Y-93942161D01*
X126163193Y-93900000D01*
X126161756Y-93878918D01*
X127136917Y-93878918D01*
X127152682Y-94152320D01*
X127153507Y-94156525D01*
X127153508Y-94156533D01*
X127164127Y-94210657D01*
X127205405Y-94421053D01*
X127206792Y-94425103D01*
X127206793Y-94425108D01*
X127278276Y-94633891D01*
X127294112Y-94680144D01*
X127417160Y-94924799D01*
X127419586Y-94928328D01*
X127419589Y-94928334D01*
X127563999Y-95138450D01*
X127572274Y-95150490D01*
X127575161Y-95153663D01*
X127575162Y-95153664D01*
X127636447Y-95221016D01*
X127756582Y-95353043D01*
X127966675Y-95528707D01*
X127970316Y-95530991D01*
X128195024Y-95671951D01*
X128195028Y-95671953D01*
X128198664Y-95674234D01*
X128266544Y-95704883D01*
X128444345Y-95785164D01*
X128444349Y-95785166D01*
X128448257Y-95786930D01*
X128452377Y-95788150D01*
X128452376Y-95788150D01*
X128706723Y-95863491D01*
X128706727Y-95863492D01*
X128710836Y-95864709D01*
X128715070Y-95865357D01*
X128715075Y-95865358D01*
X128977298Y-95905483D01*
X128977300Y-95905483D01*
X128981540Y-95906132D01*
X129120912Y-95908322D01*
X129251071Y-95910367D01*
X129251077Y-95910367D01*
X129255362Y-95910434D01*
X129527235Y-95877534D01*
X129792127Y-95808041D01*
X129796087Y-95806401D01*
X129796092Y-95806399D01*
X129918631Y-95755641D01*
X130045136Y-95703241D01*
X130281582Y-95565073D01*
X130497089Y-95396094D01*
X130538809Y-95353043D01*
X130621059Y-95268167D01*
X130687669Y-95199431D01*
X130690202Y-95195983D01*
X130690206Y-95195978D01*
X130847257Y-94982178D01*
X130849795Y-94978723D01*
X130877154Y-94928334D01*
X130978418Y-94741830D01*
X130978419Y-94741828D01*
X130980468Y-94738054D01*
X131077269Y-94481877D01*
X131138407Y-94214933D01*
X131149564Y-94089928D01*
X131162531Y-93944627D01*
X131162531Y-93944625D01*
X131162751Y-93942161D01*
X131163193Y-93900000D01*
X131144567Y-93626778D01*
X131089032Y-93358612D01*
X130997617Y-93100465D01*
X130872013Y-92857112D01*
X130862040Y-92842921D01*
X130746740Y-92678866D01*
X130714545Y-92633057D01*
X130528125Y-92432445D01*
X130524810Y-92429731D01*
X130524806Y-92429728D01*
X130319523Y-92261706D01*
X130316205Y-92258990D01*
X130082704Y-92115901D01*
X130078768Y-92114173D01*
X129835873Y-92007549D01*
X129835869Y-92007548D01*
X129831945Y-92005825D01*
X129568566Y-91930800D01*
X129564324Y-91930196D01*
X129564318Y-91930195D01*
X129363834Y-91901662D01*
X129297443Y-91892213D01*
X129153589Y-91891460D01*
X129027877Y-91890802D01*
X129027871Y-91890802D01*
X129023591Y-91890780D01*
X129019347Y-91891339D01*
X129019343Y-91891339D01*
X128900302Y-91907011D01*
X128752078Y-91926525D01*
X128747938Y-91927658D01*
X128747936Y-91927658D01*
X128675008Y-91947609D01*
X128487928Y-91998788D01*
X128483980Y-92000472D01*
X128239982Y-92104546D01*
X128239978Y-92104548D01*
X128236030Y-92106232D01*
X128216125Y-92118145D01*
X128004725Y-92244664D01*
X128004721Y-92244667D01*
X128001043Y-92246868D01*
X127787318Y-92418094D01*
X127598808Y-92616742D01*
X127439002Y-92839136D01*
X127310857Y-93081161D01*
X127309385Y-93085184D01*
X127309383Y-93085188D01*
X127302314Y-93104506D01*
X127216743Y-93338337D01*
X127158404Y-93605907D01*
X127136917Y-93878918D01*
X126161756Y-93878918D01*
X126144567Y-93626778D01*
X126089032Y-93358612D01*
X125997617Y-93100465D01*
X125872013Y-92857112D01*
X125862040Y-92842921D01*
X125746740Y-92678866D01*
X125714545Y-92633057D01*
X125528125Y-92432445D01*
X125524810Y-92429731D01*
X125524806Y-92429728D01*
X125319523Y-92261706D01*
X125316205Y-92258990D01*
X125082704Y-92115901D01*
X125078768Y-92114173D01*
X124835873Y-92007549D01*
X124835869Y-92007548D01*
X124831945Y-92005825D01*
X124568566Y-91930800D01*
X124564324Y-91930196D01*
X124564318Y-91930195D01*
X124363834Y-91901662D01*
X124297443Y-91892213D01*
X124153589Y-91891460D01*
X124027877Y-91890802D01*
X124027871Y-91890802D01*
X124023591Y-91890780D01*
X124019347Y-91891339D01*
X124019343Y-91891339D01*
X123900302Y-91907011D01*
X123752078Y-91926525D01*
X123747938Y-91927658D01*
X123747936Y-91927658D01*
X123675008Y-91947609D01*
X123487928Y-91998788D01*
X123483980Y-92000472D01*
X123239982Y-92104546D01*
X123239978Y-92104548D01*
X123236030Y-92106232D01*
X123216125Y-92118145D01*
X123004725Y-92244664D01*
X123004721Y-92244667D01*
X123001043Y-92246868D01*
X122787318Y-92418094D01*
X122598808Y-92616742D01*
X122439002Y-92839136D01*
X122310857Y-93081161D01*
X122309385Y-93085184D01*
X122309383Y-93085188D01*
X122302314Y-93104506D01*
X122216743Y-93338337D01*
X122158404Y-93605907D01*
X122136917Y-93878918D01*
X119308500Y-93878918D01*
X119308500Y-82267070D01*
X119309933Y-82248120D01*
X119312099Y-82233885D01*
X119312099Y-82233881D01*
X119313199Y-82226651D01*
X119308915Y-82173982D01*
X119308500Y-82163767D01*
X119308500Y-82155707D01*
X119305209Y-82127480D01*
X119304778Y-82123121D01*
X119299454Y-82057662D01*
X119299453Y-82057659D01*
X119298860Y-82050364D01*
X119296604Y-82043400D01*
X119295417Y-82037461D01*
X119294030Y-82031590D01*
X119293182Y-82024319D01*
X119290686Y-82017443D01*
X119290684Y-82017434D01*
X119268275Y-81955702D01*
X119266865Y-81951598D01*
X119244352Y-81882101D01*
X119240556Y-81875846D01*
X119238057Y-81870387D01*
X119235329Y-81864939D01*
X119232833Y-81858063D01*
X119192805Y-81797010D01*
X119190481Y-81793327D01*
X119155504Y-81735686D01*
X119155501Y-81735682D01*
X119152595Y-81730893D01*
X119145197Y-81722517D01*
X119145224Y-81722493D01*
X119142579Y-81719511D01*
X119139872Y-81716274D01*
X119135856Y-81710148D01*
X119079617Y-81656872D01*
X119077175Y-81654495D01*
X118170124Y-80747443D01*
X118139387Y-80697284D01*
X118086569Y-80534729D01*
X118084527Y-80528444D01*
X117989040Y-80363056D01*
X117894898Y-80258500D01*
X117865675Y-80226045D01*
X117865674Y-80226044D01*
X117861253Y-80221134D01*
X117706752Y-80108882D01*
X117700724Y-80106198D01*
X117700722Y-80106197D01*
X117538319Y-80033891D01*
X117538318Y-80033891D01*
X117532288Y-80031206D01*
X117438888Y-80011353D01*
X117351944Y-79992872D01*
X117351939Y-79992872D01*
X117345487Y-79991500D01*
X117154513Y-79991500D01*
X117148061Y-79992872D01*
X117148056Y-79992872D01*
X117060697Y-80011441D01*
X116989906Y-80006039D01*
X116933273Y-79963222D01*
X116908780Y-79896584D01*
X116908500Y-79888194D01*
X116908500Y-77752774D01*
X116928502Y-77684653D01*
X116982158Y-77638160D01*
X117052432Y-77628056D01*
X117117012Y-77657550D01*
X117148519Y-77705113D01*
X117150344Y-77704277D01*
X117153394Y-77710939D01*
X117155649Y-77717899D01*
X117159445Y-77724154D01*
X117161951Y-77729628D01*
X117164670Y-77735058D01*
X117167167Y-77741937D01*
X117171180Y-77748057D01*
X117171180Y-77748058D01*
X117207186Y-77802976D01*
X117209523Y-77806680D01*
X117247405Y-77869107D01*
X117251121Y-77873315D01*
X117251122Y-77873316D01*
X117254803Y-77877484D01*
X117254776Y-77877508D01*
X117257429Y-77880500D01*
X117260132Y-77883733D01*
X117264144Y-77889852D01*
X117269456Y-77894884D01*
X117320383Y-77943128D01*
X117322825Y-77945506D01*
X119366230Y-79988911D01*
X119378616Y-80003323D01*
X119387149Y-80014918D01*
X119387154Y-80014923D01*
X119391492Y-80020818D01*
X119397070Y-80025557D01*
X119397073Y-80025560D01*
X119431768Y-80055035D01*
X119439284Y-80061965D01*
X119444979Y-80067660D01*
X119447861Y-80069940D01*
X119467251Y-80085281D01*
X119470655Y-80088072D01*
X119520703Y-80130591D01*
X119526285Y-80135333D01*
X119532801Y-80138661D01*
X119537838Y-80142020D01*
X119542977Y-80145194D01*
X119548716Y-80149734D01*
X119555349Y-80152834D01*
X119614837Y-80180636D01*
X119618791Y-80182569D01*
X119683808Y-80215769D01*
X119690924Y-80217510D01*
X119696554Y-80219604D01*
X119702321Y-80221523D01*
X119708950Y-80224621D01*
X119716110Y-80226110D01*
X119716112Y-80226111D01*
X119780396Y-80239482D01*
X119784680Y-80240452D01*
X119855610Y-80257808D01*
X119861212Y-80258156D01*
X119861215Y-80258156D01*
X119866764Y-80258500D01*
X119866762Y-80258536D01*
X119870752Y-80258775D01*
X119874950Y-80259150D01*
X119882115Y-80260640D01*
X119959520Y-80258546D01*
X119962928Y-80258500D01*
X122205559Y-80258500D01*
X122273680Y-80278502D01*
X122318123Y-80327885D01*
X122417160Y-80524799D01*
X122419586Y-80528328D01*
X122419589Y-80528334D01*
X122566277Y-80741765D01*
X122572274Y-80750490D01*
X122756582Y-80953043D01*
X122966675Y-81128707D01*
X122970316Y-81130991D01*
X123195024Y-81271951D01*
X123195028Y-81271953D01*
X123198664Y-81274234D01*
X123266544Y-81304883D01*
X123444345Y-81385164D01*
X123444349Y-81385166D01*
X123448257Y-81386930D01*
X123452377Y-81388150D01*
X123452376Y-81388150D01*
X123706723Y-81463491D01*
X123706727Y-81463492D01*
X123710836Y-81464709D01*
X123715070Y-81465357D01*
X123715075Y-81465358D01*
X123977298Y-81505483D01*
X123977300Y-81505483D01*
X123981540Y-81506132D01*
X124120912Y-81508322D01*
X124251071Y-81510367D01*
X124251077Y-81510367D01*
X124255362Y-81510434D01*
X124527235Y-81477534D01*
X124792127Y-81408041D01*
X124796087Y-81406401D01*
X124796092Y-81406399D01*
X124918631Y-81355641D01*
X125045136Y-81303241D01*
X125163359Y-81234157D01*
X125277879Y-81167237D01*
X125277880Y-81167236D01*
X125281582Y-81165073D01*
X125430720Y-81048134D01*
X127141500Y-81048134D01*
X127148255Y-81110316D01*
X127199385Y-81246705D01*
X127286739Y-81363261D01*
X127403295Y-81450615D01*
X127539684Y-81501745D01*
X127601866Y-81508500D01*
X130698134Y-81508500D01*
X130760316Y-81501745D01*
X130896705Y-81450615D01*
X131013261Y-81363261D01*
X131100615Y-81246705D01*
X131151745Y-81110316D01*
X131158500Y-81048134D01*
X131158500Y-77951866D01*
X131151745Y-77889684D01*
X131100615Y-77753295D01*
X131013261Y-77636739D01*
X130896705Y-77549385D01*
X130760316Y-77498255D01*
X130698134Y-77491500D01*
X127601866Y-77491500D01*
X127539684Y-77498255D01*
X127403295Y-77549385D01*
X127286739Y-77636739D01*
X127199385Y-77753295D01*
X127148255Y-77889684D01*
X127141500Y-77951866D01*
X127141500Y-81048134D01*
X125430720Y-81048134D01*
X125497089Y-80996094D01*
X125538809Y-80953043D01*
X125684686Y-80802509D01*
X125687669Y-80799431D01*
X125690202Y-80795983D01*
X125690206Y-80795978D01*
X125847257Y-80582178D01*
X125849795Y-80578723D01*
X125873682Y-80534729D01*
X125978418Y-80341830D01*
X125978419Y-80341828D01*
X125980468Y-80338054D01*
X126054543Y-80142020D01*
X126075751Y-80085895D01*
X126075752Y-80085891D01*
X126077269Y-80081877D01*
X126138407Y-79814933D01*
X126140079Y-79796206D01*
X126162531Y-79544627D01*
X126162531Y-79544625D01*
X126162751Y-79542161D01*
X126163193Y-79500000D01*
X126161132Y-79469763D01*
X126144859Y-79231055D01*
X126144858Y-79231049D01*
X126144567Y-79226778D01*
X126142717Y-79217842D01*
X126111846Y-79068774D01*
X126089032Y-78958612D01*
X125997617Y-78700465D01*
X125872013Y-78457112D01*
X125862040Y-78442921D01*
X125773585Y-78317063D01*
X125714545Y-78233057D01*
X125528125Y-78032445D01*
X125524810Y-78029731D01*
X125524806Y-78029728D01*
X125353911Y-77889852D01*
X125316205Y-77858990D01*
X125082704Y-77715901D01*
X125078768Y-77714173D01*
X124835873Y-77607549D01*
X124835869Y-77607548D01*
X124831945Y-77605825D01*
X124568566Y-77530800D01*
X124564324Y-77530196D01*
X124564318Y-77530195D01*
X124359387Y-77501029D01*
X124297443Y-77492213D01*
X124153589Y-77491460D01*
X124027877Y-77490802D01*
X124027871Y-77490802D01*
X124023591Y-77490780D01*
X124019347Y-77491339D01*
X124019343Y-77491339D01*
X123945741Y-77501029D01*
X123752078Y-77526525D01*
X123747938Y-77527658D01*
X123747936Y-77527658D01*
X123680037Y-77546233D01*
X123487928Y-77598788D01*
X123483980Y-77600472D01*
X123239982Y-77704546D01*
X123239978Y-77704548D01*
X123236030Y-77706232D01*
X123158264Y-77752774D01*
X123004725Y-77844664D01*
X123004721Y-77844667D01*
X123001043Y-77846868D01*
X122787318Y-78018094D01*
X122770717Y-78035588D01*
X122624364Y-78189812D01*
X122598808Y-78216742D01*
X122439002Y-78439136D01*
X122315974Y-78671498D01*
X122314406Y-78674459D01*
X122264853Y-78725302D01*
X122203051Y-78741500D01*
X120316371Y-78741500D01*
X120248250Y-78721498D01*
X120227276Y-78704595D01*
X119146276Y-77623595D01*
X119112250Y-77561283D01*
X119117315Y-77490468D01*
X119159862Y-77433632D01*
X119226382Y-77408821D01*
X119235371Y-77408500D01*
X119245487Y-77408500D01*
X119251939Y-77407128D01*
X119251944Y-77407128D01*
X119338887Y-77388647D01*
X119432288Y-77368794D01*
X119438319Y-77366109D01*
X119600722Y-77293803D01*
X119600724Y-77293802D01*
X119606752Y-77291118D01*
X119761253Y-77178866D01*
X119889040Y-77036944D01*
X119984527Y-76871556D01*
X120039387Y-76702714D01*
X120070125Y-76652556D01*
X121338911Y-75383770D01*
X121353323Y-75371384D01*
X121364918Y-75362851D01*
X121364923Y-75362846D01*
X121370818Y-75358508D01*
X121375557Y-75352930D01*
X121375560Y-75352927D01*
X121405035Y-75318232D01*
X121411965Y-75310716D01*
X121417660Y-75305021D01*
X121435281Y-75282749D01*
X121438072Y-75279345D01*
X121480591Y-75229297D01*
X121480592Y-75229295D01*
X121485333Y-75223715D01*
X121488661Y-75217199D01*
X121492028Y-75212150D01*
X121495195Y-75207021D01*
X121499734Y-75201284D01*
X121530655Y-75135125D01*
X121532561Y-75131225D01*
X121549517Y-75098019D01*
X121565769Y-75066192D01*
X121567508Y-75059084D01*
X121569607Y-75053441D01*
X121571524Y-75047678D01*
X121574622Y-75041050D01*
X121589487Y-74969583D01*
X121590457Y-74965299D01*
X121606473Y-74899845D01*
X121607808Y-74894390D01*
X121608500Y-74883236D01*
X121608536Y-74883238D01*
X121608775Y-74879245D01*
X121609149Y-74875053D01*
X121610640Y-74867885D01*
X121608546Y-74790479D01*
X121608500Y-74787072D01*
X121608500Y-74478918D01*
X122136917Y-74478918D01*
X122152682Y-74752320D01*
X122153507Y-74756525D01*
X122153508Y-74756533D01*
X122178367Y-74883238D01*
X122205405Y-75021053D01*
X122206792Y-75025103D01*
X122206793Y-75025108D01*
X122270832Y-75212150D01*
X122294112Y-75280144D01*
X122417160Y-75524799D01*
X122419586Y-75528328D01*
X122419589Y-75528334D01*
X122489347Y-75629831D01*
X122572274Y-75750490D01*
X122756582Y-75953043D01*
X122759877Y-75955798D01*
X122759878Y-75955799D01*
X122804382Y-75993010D01*
X122966675Y-76128707D01*
X122970316Y-76130991D01*
X123195024Y-76271951D01*
X123195028Y-76271953D01*
X123198664Y-76274234D01*
X123266544Y-76304883D01*
X123444345Y-76385164D01*
X123444349Y-76385166D01*
X123448257Y-76386930D01*
X123452377Y-76388150D01*
X123452376Y-76388150D01*
X123706723Y-76463491D01*
X123706727Y-76463492D01*
X123710836Y-76464709D01*
X123715070Y-76465357D01*
X123715075Y-76465358D01*
X123977298Y-76505483D01*
X123977300Y-76505483D01*
X123981540Y-76506132D01*
X124120912Y-76508322D01*
X124251071Y-76510367D01*
X124251077Y-76510367D01*
X124255362Y-76510434D01*
X124527235Y-76477534D01*
X124792127Y-76408041D01*
X124796087Y-76406401D01*
X124796092Y-76406399D01*
X124918631Y-76355641D01*
X125045136Y-76303241D01*
X125281582Y-76165073D01*
X125497089Y-75996094D01*
X125514717Y-75977904D01*
X125684686Y-75802509D01*
X125687669Y-75799431D01*
X125690202Y-75795983D01*
X125690206Y-75795978D01*
X125847257Y-75582178D01*
X125849795Y-75578723D01*
X125877154Y-75528334D01*
X125978418Y-75341830D01*
X125978419Y-75341828D01*
X125980468Y-75338054D01*
X126058622Y-75131225D01*
X126075751Y-75085895D01*
X126075752Y-75085891D01*
X126077269Y-75081877D01*
X126123923Y-74878174D01*
X126137449Y-74819117D01*
X126137450Y-74819113D01*
X126138407Y-74814933D01*
X126140590Y-74790479D01*
X126162531Y-74544627D01*
X126162531Y-74544625D01*
X126162751Y-74542161D01*
X126163193Y-74500000D01*
X126161756Y-74478918D01*
X127136917Y-74478918D01*
X127152682Y-74752320D01*
X127153507Y-74756525D01*
X127153508Y-74756533D01*
X127178367Y-74883238D01*
X127205405Y-75021053D01*
X127206792Y-75025103D01*
X127206793Y-75025108D01*
X127270832Y-75212150D01*
X127294112Y-75280144D01*
X127417160Y-75524799D01*
X127419586Y-75528328D01*
X127419589Y-75528334D01*
X127489347Y-75629831D01*
X127572274Y-75750490D01*
X127756582Y-75953043D01*
X127759877Y-75955798D01*
X127759878Y-75955799D01*
X127804382Y-75993010D01*
X127966675Y-76128707D01*
X127970316Y-76130991D01*
X128195024Y-76271951D01*
X128195028Y-76271953D01*
X128198664Y-76274234D01*
X128266544Y-76304883D01*
X128444345Y-76385164D01*
X128444349Y-76385166D01*
X128448257Y-76386930D01*
X128452377Y-76388150D01*
X128452376Y-76388150D01*
X128706723Y-76463491D01*
X128706727Y-76463492D01*
X128710836Y-76464709D01*
X128715070Y-76465357D01*
X128715075Y-76465358D01*
X128977298Y-76505483D01*
X128977300Y-76505483D01*
X128981540Y-76506132D01*
X129120912Y-76508322D01*
X129251071Y-76510367D01*
X129251077Y-76510367D01*
X129255362Y-76510434D01*
X129527235Y-76477534D01*
X129792127Y-76408041D01*
X129796087Y-76406401D01*
X129796092Y-76406399D01*
X129918631Y-76355641D01*
X130045136Y-76303241D01*
X130281582Y-76165073D01*
X130497089Y-75996094D01*
X130514717Y-75977904D01*
X130684686Y-75802509D01*
X130687669Y-75799431D01*
X130690202Y-75795983D01*
X130690206Y-75795978D01*
X130847257Y-75582178D01*
X130849795Y-75578723D01*
X130877154Y-75528334D01*
X130978418Y-75341830D01*
X130978419Y-75341828D01*
X130980468Y-75338054D01*
X131058622Y-75131225D01*
X131075751Y-75085895D01*
X131075752Y-75085891D01*
X131077269Y-75081877D01*
X131123923Y-74878174D01*
X131137449Y-74819117D01*
X131137450Y-74819113D01*
X131138407Y-74814933D01*
X131140590Y-74790479D01*
X131162531Y-74544627D01*
X131162531Y-74544625D01*
X131162751Y-74542161D01*
X131163193Y-74500000D01*
X131161465Y-74474648D01*
X131144859Y-74231055D01*
X131144858Y-74231049D01*
X131144567Y-74226778D01*
X131133408Y-74172891D01*
X131097603Y-74000000D01*
X131089032Y-73958612D01*
X130997617Y-73700465D01*
X130898978Y-73509356D01*
X130873978Y-73460919D01*
X130873978Y-73460918D01*
X130872013Y-73457112D01*
X130862040Y-73442921D01*
X130749469Y-73282749D01*
X130714545Y-73233057D01*
X130575388Y-73083306D01*
X130531046Y-73035588D01*
X130531043Y-73035585D01*
X130528125Y-73032445D01*
X130524810Y-73029731D01*
X130524806Y-73029728D01*
X130338550Y-72877279D01*
X130316205Y-72858990D01*
X130082704Y-72715901D01*
X130078768Y-72714173D01*
X129835873Y-72607549D01*
X129835869Y-72607548D01*
X129831945Y-72605825D01*
X129568566Y-72530800D01*
X129564324Y-72530196D01*
X129564318Y-72530195D01*
X129363834Y-72501662D01*
X129297443Y-72492213D01*
X129153589Y-72491460D01*
X129027877Y-72490802D01*
X129027871Y-72490802D01*
X129023591Y-72490780D01*
X129019347Y-72491339D01*
X129019343Y-72491339D01*
X128953557Y-72500000D01*
X128752078Y-72526525D01*
X128747938Y-72527658D01*
X128747936Y-72527658D01*
X128675008Y-72547609D01*
X128487928Y-72598788D01*
X128483980Y-72600472D01*
X128239982Y-72704546D01*
X128239978Y-72704548D01*
X128236030Y-72706232D01*
X128117414Y-72777222D01*
X128004725Y-72844664D01*
X128004721Y-72844667D01*
X128001043Y-72846868D01*
X127787318Y-73018094D01*
X127770717Y-73035588D01*
X127620610Y-73193768D01*
X127598808Y-73216742D01*
X127439002Y-73439136D01*
X127310857Y-73681161D01*
X127309385Y-73685184D01*
X127309383Y-73685188D01*
X127292210Y-73732115D01*
X127216743Y-73938337D01*
X127158404Y-74205907D01*
X127136917Y-74478918D01*
X126161756Y-74478918D01*
X126161465Y-74474648D01*
X126144859Y-74231055D01*
X126144858Y-74231049D01*
X126144567Y-74226778D01*
X126133408Y-74172891D01*
X126097603Y-74000000D01*
X126089032Y-73958612D01*
X125997617Y-73700465D01*
X125898978Y-73509356D01*
X125873978Y-73460919D01*
X125873978Y-73460918D01*
X125872013Y-73457112D01*
X125862040Y-73442921D01*
X125749469Y-73282749D01*
X125714545Y-73233057D01*
X125575388Y-73083306D01*
X125531046Y-73035588D01*
X125531043Y-73035585D01*
X125528125Y-73032445D01*
X125524810Y-73029731D01*
X125524806Y-73029728D01*
X125338550Y-72877279D01*
X125316205Y-72858990D01*
X125082704Y-72715901D01*
X125078768Y-72714173D01*
X124835873Y-72607549D01*
X124835869Y-72607548D01*
X124831945Y-72605825D01*
X124568566Y-72530800D01*
X124564324Y-72530196D01*
X124564318Y-72530195D01*
X124363834Y-72501662D01*
X124297443Y-72492213D01*
X124153589Y-72491460D01*
X124027877Y-72490802D01*
X124027871Y-72490802D01*
X124023591Y-72490780D01*
X124019347Y-72491339D01*
X124019343Y-72491339D01*
X123953557Y-72500000D01*
X123752078Y-72526525D01*
X123747938Y-72527658D01*
X123747936Y-72527658D01*
X123675008Y-72547609D01*
X123487928Y-72598788D01*
X123483980Y-72600472D01*
X123239982Y-72704546D01*
X123239978Y-72704548D01*
X123236030Y-72706232D01*
X123117414Y-72777222D01*
X123004725Y-72844664D01*
X123004721Y-72844667D01*
X123001043Y-72846868D01*
X122787318Y-73018094D01*
X122770717Y-73035588D01*
X122620610Y-73193768D01*
X122598808Y-73216742D01*
X122439002Y-73439136D01*
X122310857Y-73681161D01*
X122309385Y-73685184D01*
X122309383Y-73685188D01*
X122292210Y-73732115D01*
X122216743Y-73938337D01*
X122158404Y-74205907D01*
X122136917Y-74478918D01*
X121608500Y-74478918D01*
X121608500Y-72436999D01*
X121625381Y-72373999D01*
X121681223Y-72277279D01*
X121681224Y-72277278D01*
X121684527Y-72271556D01*
X121743542Y-72089928D01*
X121745766Y-72068774D01*
X121762814Y-71906565D01*
X121763504Y-71900000D01*
X121752886Y-71798971D01*
X121744232Y-71716635D01*
X121744232Y-71716633D01*
X121743542Y-71710072D01*
X121684527Y-71528444D01*
X121671271Y-71505483D01*
X121620597Y-71417715D01*
X121589040Y-71363056D01*
X121535183Y-71303241D01*
X121465675Y-71226045D01*
X121465674Y-71226044D01*
X121461253Y-71221134D01*
X121334039Y-71128707D01*
X121312094Y-71112763D01*
X121312093Y-71112762D01*
X121306752Y-71108882D01*
X121300724Y-71106198D01*
X121300722Y-71106197D01*
X121138319Y-71033891D01*
X121138318Y-71033891D01*
X121132288Y-71031206D01*
X121038888Y-71011353D01*
X120951944Y-70992872D01*
X120951939Y-70992872D01*
X120945487Y-70991500D01*
X120754513Y-70991500D01*
X120748061Y-70992872D01*
X120748056Y-70992872D01*
X120661112Y-71011353D01*
X120567712Y-71031206D01*
X120561682Y-71033891D01*
X120561681Y-71033891D01*
X120399278Y-71106197D01*
X120399276Y-71106198D01*
X120393248Y-71108882D01*
X120387907Y-71112762D01*
X120387906Y-71112763D01*
X120365961Y-71128707D01*
X120238747Y-71221134D01*
X120234326Y-71226044D01*
X120234325Y-71226045D01*
X120164818Y-71303241D01*
X120110960Y-71363056D01*
X120079403Y-71417715D01*
X120028730Y-71505483D01*
X120015473Y-71528444D01*
X119956458Y-71710072D01*
X119955768Y-71716633D01*
X119955768Y-71716635D01*
X119947114Y-71798971D01*
X119936496Y-71900000D01*
X119936627Y-71901250D01*
X119917184Y-71967469D01*
X119863528Y-72013962D01*
X119793254Y-72024066D01*
X119728674Y-71994572D01*
X119717556Y-71983665D01*
X119661253Y-71921134D01*
X119545658Y-71837149D01*
X119512094Y-71812763D01*
X119512093Y-71812762D01*
X119506752Y-71808882D01*
X119500724Y-71806198D01*
X119500722Y-71806197D01*
X119338319Y-71733891D01*
X119338318Y-71733891D01*
X119332288Y-71731206D01*
X119232861Y-71710072D01*
X119151944Y-71692872D01*
X119151939Y-71692872D01*
X119145487Y-71691500D01*
X118954513Y-71691500D01*
X118948061Y-71692872D01*
X118948056Y-71692872D01*
X118867139Y-71710072D01*
X118767712Y-71731206D01*
X118761682Y-71733891D01*
X118761681Y-71733891D01*
X118599278Y-71806197D01*
X118599276Y-71806198D01*
X118593248Y-71808882D01*
X118587907Y-71812762D01*
X118587906Y-71812763D01*
X118554342Y-71837149D01*
X118438747Y-71921134D01*
X118310960Y-72063056D01*
X118215473Y-72228444D01*
X118165846Y-72381181D01*
X118160613Y-72397285D01*
X118129875Y-72447444D01*
X117361089Y-73216230D01*
X117346677Y-73228616D01*
X117335082Y-73237149D01*
X117335077Y-73237154D01*
X117329182Y-73241492D01*
X117324443Y-73247070D01*
X117324440Y-73247073D01*
X117294965Y-73281768D01*
X117288035Y-73289284D01*
X117282340Y-73294979D01*
X117280060Y-73297861D01*
X117264719Y-73317251D01*
X117261928Y-73320655D01*
X117257349Y-73326045D01*
X117214667Y-73376285D01*
X117211339Y-73382801D01*
X117207972Y-73387850D01*
X117204805Y-73392979D01*
X117200266Y-73398716D01*
X117169345Y-73464875D01*
X117167442Y-73468769D01*
X117146717Y-73509356D01*
X117097923Y-73560929D01*
X117028993Y-73577935D01*
X116961812Y-73554974D01*
X116917708Y-73499338D01*
X116908500Y-73452055D01*
X116908500Y-70936999D01*
X116925381Y-70873999D01*
X116981223Y-70777279D01*
X116981224Y-70777278D01*
X116984527Y-70771556D01*
X117043542Y-70589928D01*
X117063504Y-70400000D01*
X117056571Y-70334036D01*
X117044232Y-70216635D01*
X117044232Y-70216633D01*
X117043542Y-70210072D01*
X116984527Y-70028444D01*
X116889040Y-69863056D01*
X116793127Y-69756533D01*
X116765675Y-69726045D01*
X116765674Y-69726044D01*
X116761253Y-69721134D01*
X116606752Y-69608882D01*
X116600724Y-69606198D01*
X116600722Y-69606197D01*
X116438319Y-69533891D01*
X116438318Y-69533891D01*
X116432288Y-69531206D01*
X116338888Y-69511353D01*
X116251944Y-69492872D01*
X116251939Y-69492872D01*
X116245487Y-69491500D01*
X116054513Y-69491500D01*
X116048061Y-69492872D01*
X116048056Y-69492872D01*
X115961112Y-69511353D01*
X115867712Y-69531206D01*
X115861682Y-69533891D01*
X115861681Y-69533891D01*
X115699278Y-69606197D01*
X115699276Y-69606198D01*
X115693248Y-69608882D01*
X115538747Y-69721134D01*
X115534326Y-69726044D01*
X115534325Y-69726045D01*
X115506874Y-69756533D01*
X115410960Y-69863056D01*
X115315473Y-70028444D01*
X115256458Y-70210072D01*
X115255768Y-70216633D01*
X115255768Y-70216635D01*
X115243429Y-70334036D01*
X115236496Y-70400000D01*
X115256458Y-70589928D01*
X115315473Y-70771556D01*
X115329573Y-70795978D01*
X115343624Y-70820315D01*
X115360361Y-70889310D01*
X115337140Y-70956402D01*
X115281333Y-71000289D01*
X115210657Y-71007037D01*
X115183259Y-70998422D01*
X115074201Y-70949867D01*
X115038319Y-70933891D01*
X115038318Y-70933891D01*
X115032288Y-70931206D01*
X114938888Y-70911353D01*
X114851944Y-70892872D01*
X114851939Y-70892872D01*
X114845487Y-70891500D01*
X114654513Y-70891500D01*
X114648061Y-70892872D01*
X114648056Y-70892872D01*
X114561112Y-70911353D01*
X114467712Y-70931206D01*
X114461682Y-70933891D01*
X114461681Y-70933891D01*
X114347849Y-70984572D01*
X114321971Y-70996094D01*
X114301417Y-71005245D01*
X114231050Y-71014679D01*
X114166753Y-70984572D01*
X114141049Y-70953138D01*
X114129937Y-70933891D01*
X114089040Y-70863056D01*
X114011804Y-70777276D01*
X113965675Y-70726045D01*
X113965674Y-70726044D01*
X113961253Y-70721134D01*
X113806752Y-70608882D01*
X113800724Y-70606198D01*
X113800722Y-70606197D01*
X113638319Y-70533891D01*
X113638318Y-70533891D01*
X113632288Y-70531206D01*
X113538887Y-70511353D01*
X113451944Y-70492872D01*
X113451939Y-70492872D01*
X113445487Y-70491500D01*
X113254513Y-70491500D01*
X113248061Y-70492872D01*
X113248056Y-70492872D01*
X113161113Y-70511353D01*
X113067712Y-70531206D01*
X113061682Y-70533891D01*
X113061681Y-70533891D01*
X112899278Y-70606197D01*
X112899276Y-70606198D01*
X112893248Y-70608882D01*
X112738747Y-70721134D01*
X112734326Y-70726044D01*
X112734325Y-70726045D01*
X112688197Y-70777276D01*
X112610960Y-70863056D01*
X112570063Y-70933891D01*
X112536011Y-70992872D01*
X112515473Y-71028444D01*
X112513431Y-71034729D01*
X112460613Y-71197285D01*
X112429875Y-71247444D01*
X111861089Y-71816230D01*
X111846677Y-71828616D01*
X111835082Y-71837149D01*
X111835077Y-71837154D01*
X111829182Y-71841492D01*
X111824443Y-71847070D01*
X111824440Y-71847073D01*
X111794965Y-71881768D01*
X111788035Y-71889284D01*
X111782340Y-71894979D01*
X111778368Y-71900000D01*
X111764719Y-71917251D01*
X111761928Y-71920655D01*
X111721048Y-71968774D01*
X111714667Y-71976285D01*
X111711339Y-71982801D01*
X111707972Y-71987850D01*
X111704805Y-71992979D01*
X111700266Y-71998716D01*
X111669345Y-72064875D01*
X111667442Y-72068769D01*
X111634231Y-72133808D01*
X111632492Y-72140916D01*
X111630393Y-72146559D01*
X111628476Y-72152322D01*
X111625378Y-72158950D01*
X111623888Y-72166112D01*
X111623888Y-72166113D01*
X111610514Y-72230412D01*
X111609544Y-72234696D01*
X111592192Y-72305610D01*
X111591500Y-72316764D01*
X111591464Y-72316762D01*
X111591225Y-72320755D01*
X111590851Y-72324947D01*
X111589360Y-72332115D01*
X111589558Y-72339432D01*
X111591454Y-72409521D01*
X111591500Y-72412928D01*
X111591500Y-99163001D01*
X111574619Y-99226001D01*
X111528812Y-99305341D01*
X111515473Y-99328444D01*
X111456458Y-99510072D01*
X111455768Y-99516633D01*
X111455768Y-99516635D01*
X111445244Y-99616764D01*
X111436496Y-99700000D01*
X105808000Y-99700000D01*
X105808000Y-80136999D01*
X105824881Y-80073999D01*
X105827225Y-80069940D01*
X105884027Y-79971556D01*
X105943042Y-79789928D01*
X105963004Y-79600000D01*
X105948857Y-79465402D01*
X105943732Y-79416635D01*
X105943732Y-79416633D01*
X105943042Y-79410072D01*
X105884027Y-79228444D01*
X105876369Y-79215179D01*
X105791841Y-79068774D01*
X105788540Y-79063056D01*
X105690863Y-78954574D01*
X105665175Y-78926045D01*
X105665174Y-78926044D01*
X105660753Y-78921134D01*
X105506252Y-78808882D01*
X105500224Y-78806198D01*
X105500222Y-78806197D01*
X105337819Y-78733891D01*
X105337818Y-78733891D01*
X105331788Y-78731206D01*
X105238387Y-78711353D01*
X105151444Y-78692872D01*
X105151439Y-78692872D01*
X105144987Y-78691500D01*
X105084500Y-78691500D01*
X105016379Y-78671498D01*
X104969886Y-78617842D01*
X104958500Y-78565500D01*
X104958500Y-76800000D01*
X106186496Y-76800000D01*
X106206458Y-76989928D01*
X106265473Y-77171556D01*
X106360960Y-77336944D01*
X106365378Y-77341851D01*
X106365379Y-77341852D01*
X106387220Y-77366109D01*
X106488747Y-77478866D01*
X106643248Y-77591118D01*
X106649276Y-77593802D01*
X106649278Y-77593803D01*
X106792457Y-77657550D01*
X106817712Y-77668794D01*
X106911112Y-77688647D01*
X106998056Y-77707128D01*
X106998061Y-77707128D01*
X107004513Y-77708500D01*
X107195487Y-77708500D01*
X107201939Y-77707128D01*
X107201944Y-77707128D01*
X107288888Y-77688647D01*
X107382288Y-77668794D01*
X107407543Y-77657550D01*
X107550722Y-77593803D01*
X107550724Y-77593802D01*
X107556752Y-77591118D01*
X107711253Y-77478866D01*
X107812780Y-77366109D01*
X107834621Y-77341852D01*
X107834622Y-77341851D01*
X107839040Y-77336944D01*
X107934527Y-77171556D01*
X107993542Y-76989928D01*
X108013504Y-76800000D01*
X108008476Y-76752163D01*
X107994232Y-76616635D01*
X107994232Y-76616633D01*
X107993542Y-76610072D01*
X107934527Y-76428444D01*
X107875381Y-76326000D01*
X107858500Y-76263001D01*
X107858500Y-69478918D01*
X122136917Y-69478918D01*
X122152682Y-69752320D01*
X122153507Y-69756525D01*
X122153508Y-69756533D01*
X122174407Y-69863056D01*
X122205405Y-70021053D01*
X122206792Y-70025103D01*
X122206793Y-70025108D01*
X122227605Y-70085895D01*
X122294112Y-70280144D01*
X122417160Y-70524799D01*
X122419586Y-70528328D01*
X122419589Y-70528334D01*
X122474949Y-70608882D01*
X122572274Y-70750490D01*
X122575161Y-70753663D01*
X122575162Y-70753664D01*
X122736712Y-70931206D01*
X122756582Y-70953043D01*
X122966675Y-71128707D01*
X122970316Y-71130991D01*
X123195024Y-71271951D01*
X123195028Y-71271953D01*
X123198664Y-71274234D01*
X123266544Y-71304883D01*
X123444345Y-71385164D01*
X123444349Y-71385166D01*
X123448257Y-71386930D01*
X123452377Y-71388150D01*
X123452376Y-71388150D01*
X123706723Y-71463491D01*
X123706727Y-71463492D01*
X123710836Y-71464709D01*
X123715070Y-71465357D01*
X123715075Y-71465358D01*
X123977298Y-71505483D01*
X123977300Y-71505483D01*
X123981540Y-71506132D01*
X124120912Y-71508322D01*
X124251071Y-71510367D01*
X124251077Y-71510367D01*
X124255362Y-71510434D01*
X124527235Y-71477534D01*
X124792127Y-71408041D01*
X124796087Y-71406401D01*
X124796092Y-71406399D01*
X124945004Y-71344717D01*
X125045136Y-71303241D01*
X125281582Y-71165073D01*
X125497089Y-70996094D01*
X125500212Y-70992872D01*
X125684686Y-70802509D01*
X125687669Y-70799431D01*
X125690202Y-70795983D01*
X125690206Y-70795978D01*
X125847257Y-70582178D01*
X125849795Y-70578723D01*
X125877154Y-70528334D01*
X125978418Y-70341830D01*
X125978419Y-70341828D01*
X125980468Y-70338054D01*
X126077269Y-70081877D01*
X126126076Y-69868774D01*
X126137449Y-69819117D01*
X126137450Y-69819113D01*
X126138407Y-69814933D01*
X126146779Y-69721134D01*
X126162531Y-69544627D01*
X126162531Y-69544625D01*
X126162751Y-69542161D01*
X126163193Y-69500000D01*
X126161756Y-69478918D01*
X127136917Y-69478918D01*
X127152682Y-69752320D01*
X127153507Y-69756525D01*
X127153508Y-69756533D01*
X127174407Y-69863056D01*
X127205405Y-70021053D01*
X127206792Y-70025103D01*
X127206793Y-70025108D01*
X127227605Y-70085895D01*
X127294112Y-70280144D01*
X127417160Y-70524799D01*
X127419586Y-70528328D01*
X127419589Y-70528334D01*
X127474949Y-70608882D01*
X127572274Y-70750490D01*
X127575161Y-70753663D01*
X127575162Y-70753664D01*
X127736712Y-70931206D01*
X127756582Y-70953043D01*
X127966675Y-71128707D01*
X127970316Y-71130991D01*
X128195024Y-71271951D01*
X128195028Y-71271953D01*
X128198664Y-71274234D01*
X128266544Y-71304883D01*
X128444345Y-71385164D01*
X128444349Y-71385166D01*
X128448257Y-71386930D01*
X128452377Y-71388150D01*
X128452376Y-71388150D01*
X128706723Y-71463491D01*
X128706727Y-71463492D01*
X128710836Y-71464709D01*
X128715070Y-71465357D01*
X128715075Y-71465358D01*
X128977298Y-71505483D01*
X128977300Y-71505483D01*
X128981540Y-71506132D01*
X129120912Y-71508322D01*
X129251071Y-71510367D01*
X129251077Y-71510367D01*
X129255362Y-71510434D01*
X129527235Y-71477534D01*
X129792127Y-71408041D01*
X129796087Y-71406401D01*
X129796092Y-71406399D01*
X129945004Y-71344717D01*
X130045136Y-71303241D01*
X130281582Y-71165073D01*
X130497089Y-70996094D01*
X130500212Y-70992872D01*
X130684686Y-70802509D01*
X130687669Y-70799431D01*
X130690202Y-70795983D01*
X130690206Y-70795978D01*
X130847257Y-70582178D01*
X130849795Y-70578723D01*
X130877154Y-70528334D01*
X130978418Y-70341830D01*
X130978419Y-70341828D01*
X130980468Y-70338054D01*
X131077269Y-70081877D01*
X131126076Y-69868774D01*
X131137449Y-69819117D01*
X131137450Y-69819113D01*
X131138407Y-69814933D01*
X131146779Y-69721134D01*
X131162531Y-69544627D01*
X131162531Y-69544625D01*
X131162751Y-69542161D01*
X131163193Y-69500000D01*
X131144567Y-69226778D01*
X131089032Y-68958612D01*
X130997617Y-68700465D01*
X130872013Y-68457112D01*
X130869331Y-68453295D01*
X130717008Y-68236562D01*
X130714545Y-68233057D01*
X130528125Y-68032445D01*
X130524810Y-68029731D01*
X130524806Y-68029728D01*
X130319523Y-67861706D01*
X130316205Y-67858990D01*
X130145620Y-67754456D01*
X130086366Y-67718145D01*
X130086365Y-67718145D01*
X130082704Y-67715901D01*
X130078768Y-67714173D01*
X129835873Y-67607549D01*
X129835869Y-67607548D01*
X129831945Y-67605825D01*
X129568566Y-67530800D01*
X129564324Y-67530196D01*
X129564318Y-67530195D01*
X129363834Y-67501662D01*
X129297443Y-67492213D01*
X129153589Y-67491460D01*
X129027877Y-67490802D01*
X129027871Y-67490802D01*
X129023591Y-67490780D01*
X129019347Y-67491339D01*
X129019343Y-67491339D01*
X128900302Y-67507011D01*
X128752078Y-67526525D01*
X128747938Y-67527658D01*
X128747936Y-67527658D01*
X128675008Y-67547609D01*
X128487928Y-67598788D01*
X128483980Y-67600472D01*
X128239982Y-67704546D01*
X128239978Y-67704548D01*
X128236030Y-67706232D01*
X128155453Y-67754456D01*
X128004725Y-67844664D01*
X128004721Y-67844667D01*
X128001043Y-67846868D01*
X127787318Y-68018094D01*
X127770717Y-68035588D01*
X127616352Y-68198255D01*
X127598808Y-68216742D01*
X127439002Y-68439136D01*
X127310857Y-68681161D01*
X127309385Y-68685184D01*
X127309383Y-68685188D01*
X127302314Y-68704506D01*
X127216743Y-68938337D01*
X127158404Y-69205907D01*
X127136917Y-69478918D01*
X126161756Y-69478918D01*
X126144567Y-69226778D01*
X126089032Y-68958612D01*
X125997617Y-68700465D01*
X125872013Y-68457112D01*
X125869331Y-68453295D01*
X125717008Y-68236562D01*
X125714545Y-68233057D01*
X125528125Y-68032445D01*
X125524810Y-68029731D01*
X125524806Y-68029728D01*
X125319523Y-67861706D01*
X125316205Y-67858990D01*
X125145620Y-67754456D01*
X125086366Y-67718145D01*
X125086365Y-67718145D01*
X125082704Y-67715901D01*
X125078768Y-67714173D01*
X124835873Y-67607549D01*
X124835869Y-67607548D01*
X124831945Y-67605825D01*
X124568566Y-67530800D01*
X124564324Y-67530196D01*
X124564318Y-67530195D01*
X124363834Y-67501662D01*
X124297443Y-67492213D01*
X124153589Y-67491460D01*
X124027877Y-67490802D01*
X124027871Y-67490802D01*
X124023591Y-67490780D01*
X124019347Y-67491339D01*
X124019343Y-67491339D01*
X123900302Y-67507011D01*
X123752078Y-67526525D01*
X123747938Y-67527658D01*
X123747936Y-67527658D01*
X123675008Y-67547609D01*
X123487928Y-67598788D01*
X123483980Y-67600472D01*
X123239982Y-67704546D01*
X123239978Y-67704548D01*
X123236030Y-67706232D01*
X123155453Y-67754456D01*
X123004725Y-67844664D01*
X123004721Y-67844667D01*
X123001043Y-67846868D01*
X122787318Y-68018094D01*
X122770717Y-68035588D01*
X122616352Y-68198255D01*
X122598808Y-68216742D01*
X122439002Y-68439136D01*
X122310857Y-68681161D01*
X122309385Y-68685184D01*
X122309383Y-68685188D01*
X122302314Y-68704506D01*
X122216743Y-68938337D01*
X122158404Y-69205907D01*
X122136917Y-69478918D01*
X107858500Y-69478918D01*
X107858500Y-63336999D01*
X107875381Y-63273999D01*
X107931223Y-63177279D01*
X107931224Y-63177278D01*
X107934527Y-63171556D01*
X107993542Y-62989928D01*
X108013504Y-62800000D01*
X107993542Y-62610072D01*
X107934527Y-62428444D01*
X107875381Y-62326000D01*
X107858500Y-62263001D01*
X107858500Y-55330360D01*
X107878502Y-55262239D01*
X107921496Y-55221243D01*
X107925724Y-55218802D01*
X107931752Y-55216118D01*
X108086253Y-55103866D01*
X108214040Y-54961944D01*
X108309527Y-54796556D01*
X108368542Y-54614928D01*
X108374426Y-54558950D01*
X108387814Y-54431565D01*
X108388504Y-54425000D01*
X108375141Y-54297861D01*
X108369232Y-54241635D01*
X108369232Y-54241633D01*
X108368542Y-54235072D01*
X108309527Y-54053444D01*
X108214040Y-53888056D01*
X108086253Y-53746134D01*
X107931752Y-53633882D01*
X107925724Y-53631198D01*
X107925722Y-53631197D01*
X107763319Y-53558891D01*
X107763318Y-53558891D01*
X107757288Y-53556206D01*
X107663887Y-53536353D01*
X107576944Y-53517872D01*
X107576939Y-53517872D01*
X107570487Y-53516500D01*
X107379513Y-53516500D01*
X107373061Y-53517872D01*
X107373056Y-53517872D01*
X107286113Y-53536353D01*
X107192712Y-53556206D01*
X107186682Y-53558891D01*
X107186681Y-53558891D01*
X107024278Y-53631197D01*
X107024276Y-53631198D01*
X107018248Y-53633882D01*
X106863747Y-53746134D01*
X106735960Y-53888056D01*
X106640473Y-54053444D01*
X106638431Y-54059729D01*
X106587182Y-54217457D01*
X106563376Y-54260097D01*
X106544956Y-54281779D01*
X106538035Y-54289284D01*
X106532340Y-54294979D01*
X106530060Y-54297861D01*
X106514719Y-54317251D01*
X106511928Y-54320655D01*
X106469409Y-54370703D01*
X106464667Y-54376285D01*
X106461339Y-54382801D01*
X106457972Y-54387850D01*
X106454805Y-54392979D01*
X106450266Y-54398716D01*
X106419345Y-54464875D01*
X106417442Y-54468769D01*
X106384231Y-54533808D01*
X106382492Y-54540916D01*
X106380393Y-54546559D01*
X106378476Y-54552322D01*
X106375378Y-54558950D01*
X106373888Y-54566112D01*
X106373888Y-54566113D01*
X106360514Y-54630412D01*
X106359544Y-54634696D01*
X106342192Y-54705610D01*
X106341500Y-54716764D01*
X106341464Y-54716762D01*
X106341225Y-54720755D01*
X106340851Y-54724947D01*
X106339360Y-54732115D01*
X106339558Y-54739432D01*
X106341454Y-54809521D01*
X106341500Y-54812928D01*
X106341500Y-62263001D01*
X106324619Y-62326000D01*
X106265473Y-62428444D01*
X106206458Y-62610072D01*
X106186496Y-62800000D01*
X106206458Y-62989928D01*
X106265473Y-63171556D01*
X106268776Y-63177278D01*
X106268777Y-63177279D01*
X106324619Y-63273999D01*
X106341500Y-63336999D01*
X106341500Y-76263001D01*
X106324619Y-76326000D01*
X106265473Y-76428444D01*
X106206458Y-76610072D01*
X106205768Y-76616633D01*
X106205768Y-76616635D01*
X106191524Y-76752163D01*
X106186496Y-76800000D01*
X104958500Y-76800000D01*
X104958500Y-74536999D01*
X104975381Y-74473999D01*
X105031223Y-74377279D01*
X105031224Y-74377278D01*
X105034527Y-74371556D01*
X105093542Y-74189928D01*
X105113504Y-74000000D01*
X105105624Y-73925026D01*
X105094232Y-73816635D01*
X105094232Y-73816633D01*
X105093542Y-73810072D01*
X105034527Y-73628444D01*
X104939040Y-73463056D01*
X104920911Y-73442921D01*
X104815675Y-73326045D01*
X104815674Y-73326044D01*
X104811253Y-73321134D01*
X104685703Y-73229916D01*
X104662094Y-73212763D01*
X104662093Y-73212762D01*
X104656752Y-73208882D01*
X104650724Y-73206198D01*
X104650722Y-73206197D01*
X104488319Y-73133891D01*
X104488318Y-73133891D01*
X104482288Y-73131206D01*
X104388887Y-73111353D01*
X104301944Y-73092872D01*
X104301939Y-73092872D01*
X104295487Y-73091500D01*
X104104513Y-73091500D01*
X104098061Y-73092872D01*
X104098056Y-73092872D01*
X104011113Y-73111353D01*
X103917712Y-73131206D01*
X103911682Y-73133891D01*
X103911681Y-73133891D01*
X103749278Y-73206197D01*
X103749276Y-73206198D01*
X103743248Y-73208882D01*
X103737907Y-73212762D01*
X103737906Y-73212763D01*
X103714297Y-73229916D01*
X103588747Y-73321134D01*
X103584326Y-73326044D01*
X103584325Y-73326045D01*
X103479090Y-73442921D01*
X103460960Y-73463056D01*
X103365473Y-73628444D01*
X103306458Y-73810072D01*
X103305768Y-73816633D01*
X103305768Y-73816635D01*
X103294376Y-73925026D01*
X103286496Y-74000000D01*
X103306458Y-74189928D01*
X103365473Y-74371556D01*
X103368776Y-74377278D01*
X103368777Y-74377279D01*
X103424619Y-74473999D01*
X103441500Y-74536999D01*
X103441500Y-91325241D01*
X103421498Y-91393362D01*
X103409136Y-91409551D01*
X103360960Y-91463056D01*
X103265473Y-91628444D01*
X103206458Y-91810072D01*
X103205768Y-91816633D01*
X103205768Y-91816635D01*
X103197827Y-91892191D01*
X103186496Y-92000000D01*
X101058500Y-92000000D01*
X101058500Y-83336999D01*
X101075381Y-83273999D01*
X101131223Y-83177279D01*
X101131224Y-83177278D01*
X101134527Y-83171556D01*
X101193542Y-82989928D01*
X101213504Y-82800000D01*
X101193542Y-82610072D01*
X101164667Y-82521205D01*
X101158500Y-82482268D01*
X101158500Y-80636999D01*
X101175381Y-80573999D01*
X101231223Y-80477279D01*
X101231224Y-80477278D01*
X101234527Y-80471556D01*
X101293542Y-80289928D01*
X101294571Y-80280144D01*
X101312814Y-80106565D01*
X101313504Y-80100000D01*
X101304196Y-80011441D01*
X101294232Y-79916635D01*
X101294232Y-79916633D01*
X101293542Y-79910072D01*
X101234527Y-79728444D01*
X101139040Y-79563056D01*
X101122447Y-79544627D01*
X101015675Y-79426045D01*
X101015674Y-79426044D01*
X101011253Y-79421134D01*
X100856752Y-79308882D01*
X100850724Y-79306198D01*
X100850722Y-79306197D01*
X100688319Y-79233891D01*
X100688318Y-79233891D01*
X100682288Y-79231206D01*
X100588888Y-79211353D01*
X100501944Y-79192872D01*
X100501939Y-79192872D01*
X100495487Y-79191500D01*
X100304513Y-79191500D01*
X100298061Y-79192872D01*
X100298056Y-79192872D01*
X100211112Y-79211353D01*
X100117712Y-79231206D01*
X100111682Y-79233891D01*
X100111681Y-79233891D01*
X99949278Y-79306197D01*
X99949276Y-79306198D01*
X99943248Y-79308882D01*
X99788747Y-79421134D01*
X99784326Y-79426044D01*
X99784325Y-79426045D01*
X99677554Y-79544627D01*
X99660960Y-79563056D01*
X99565473Y-79728444D01*
X99506458Y-79910072D01*
X99505768Y-79916633D01*
X99505768Y-79916635D01*
X99495804Y-80011441D01*
X99486496Y-80100000D01*
X99487186Y-80106565D01*
X99505430Y-80280144D01*
X99506458Y-80289928D01*
X99565473Y-80471556D01*
X99568776Y-80477278D01*
X99568777Y-80477279D01*
X99624619Y-80573999D01*
X99641500Y-80636999D01*
X99641500Y-82125241D01*
X99621498Y-82193362D01*
X99609136Y-82209551D01*
X99565927Y-82257540D01*
X99560960Y-82263056D01*
X99465473Y-82428444D01*
X99406458Y-82610072D01*
X99386496Y-82800000D01*
X94458500Y-82800000D01*
X94458500Y-73036999D01*
X94475381Y-72973999D01*
X94476792Y-72971556D01*
X94534527Y-72871556D01*
X94593542Y-72689928D01*
X94595809Y-72668365D01*
X94612814Y-72506565D01*
X94613504Y-72500000D01*
X94606882Y-72436999D01*
X94594232Y-72316635D01*
X94594232Y-72316633D01*
X94593542Y-72310072D01*
X94534527Y-72128444D01*
X94439040Y-71963056D01*
X94372616Y-71889284D01*
X94315675Y-71826045D01*
X94315674Y-71826044D01*
X94311253Y-71821134D01*
X94156752Y-71708882D01*
X94150724Y-71706198D01*
X94150722Y-71706197D01*
X93988319Y-71633891D01*
X93988318Y-71633891D01*
X93982288Y-71631206D01*
X93888888Y-71611353D01*
X93801944Y-71592872D01*
X93801939Y-71592872D01*
X93795487Y-71591500D01*
X93684500Y-71591500D01*
X93616379Y-71571498D01*
X93569886Y-71517842D01*
X93558500Y-71465500D01*
X93558500Y-63617732D01*
X93564667Y-63578795D01*
X93593542Y-63489928D01*
X93613504Y-63300000D01*
X93593542Y-63110072D01*
X93534527Y-62928444D01*
X93439040Y-62763056D01*
X93311253Y-62621134D01*
X93156752Y-62508882D01*
X93150724Y-62506198D01*
X93150722Y-62506197D01*
X92988319Y-62433891D01*
X92988318Y-62433891D01*
X92982288Y-62431206D01*
X92888887Y-62411353D01*
X92801944Y-62392872D01*
X92801939Y-62392872D01*
X92795487Y-62391500D01*
X92604513Y-62391500D01*
X92598061Y-62392872D01*
X92598056Y-62392872D01*
X92511113Y-62411353D01*
X92417712Y-62431206D01*
X92411682Y-62433891D01*
X92411681Y-62433891D01*
X92249278Y-62506197D01*
X92249276Y-62506198D01*
X92243248Y-62508882D01*
X92088747Y-62621134D01*
X91960960Y-62763056D01*
X91865473Y-62928444D01*
X91806458Y-63110072D01*
X91786496Y-63300000D01*
X91806458Y-63489928D01*
X91865473Y-63671556D01*
X91960960Y-63836944D01*
X91965378Y-63841851D01*
X91965379Y-63841852D01*
X92009136Y-63890449D01*
X92039854Y-63954456D01*
X92041500Y-63974759D01*
X92041500Y-78263001D01*
X92024619Y-78326000D01*
X91965473Y-78428444D01*
X91906458Y-78610072D01*
X91905768Y-78616633D01*
X91905768Y-78616635D01*
X91892404Y-78743787D01*
X91886496Y-78800000D01*
X91887186Y-78806565D01*
X91903167Y-78958612D01*
X91906458Y-78989928D01*
X91965473Y-79171556D01*
X91968776Y-79177278D01*
X91968777Y-79177279D01*
X92024619Y-79273999D01*
X92041500Y-79336999D01*
X92041500Y-96863001D01*
X92024619Y-96926000D01*
X92021848Y-96930800D01*
X91979211Y-97004650D01*
X91965473Y-97028444D01*
X91906458Y-97210072D01*
X91905768Y-97216633D01*
X91905768Y-97216635D01*
X91900498Y-97266779D01*
X91873485Y-97332436D01*
X91815263Y-97373066D01*
X91744318Y-97375769D01*
X91683174Y-97339687D01*
X91655355Y-97292546D01*
X91646213Y-97264408D01*
X91634527Y-97228444D01*
X91539040Y-97063056D01*
X91480481Y-96998019D01*
X91415675Y-96926045D01*
X91415674Y-96926044D01*
X91411253Y-96921134D01*
X91256752Y-96808882D01*
X91250724Y-96806198D01*
X91250722Y-96806197D01*
X91088319Y-96733891D01*
X91088318Y-96733891D01*
X91082288Y-96731206D01*
X90988887Y-96711353D01*
X90901944Y-96692872D01*
X90901939Y-96692872D01*
X90895487Y-96691500D01*
X90704513Y-96691500D01*
X90698061Y-96692872D01*
X90698056Y-96692872D01*
X90611112Y-96711353D01*
X90517712Y-96731206D01*
X90511682Y-96733891D01*
X90511681Y-96733891D01*
X90349278Y-96806197D01*
X90349276Y-96806198D01*
X90343248Y-96808882D01*
X90188747Y-96921134D01*
X90184326Y-96926044D01*
X90184325Y-96926045D01*
X90119520Y-96998019D01*
X90060960Y-97063056D01*
X89965473Y-97228444D01*
X89906458Y-97410072D01*
X89905768Y-97416633D01*
X89905768Y-97416635D01*
X89903776Y-97435588D01*
X89886496Y-97600000D01*
X87358500Y-97600000D01*
X87358500Y-67417732D01*
X87364667Y-67378795D01*
X87393542Y-67289928D01*
X87413504Y-67100000D01*
X87393542Y-66910072D01*
X87334527Y-66728444D01*
X87239040Y-66563056D01*
X87111253Y-66421134D01*
X86956752Y-66308882D01*
X86950724Y-66306198D01*
X86950722Y-66306197D01*
X86788319Y-66233891D01*
X86788318Y-66233891D01*
X86782288Y-66231206D01*
X86688887Y-66211353D01*
X86601944Y-66192872D01*
X86601939Y-66192872D01*
X86595487Y-66191500D01*
X86404513Y-66191500D01*
X86398061Y-66192872D01*
X86398056Y-66192872D01*
X86311113Y-66211353D01*
X86217712Y-66231206D01*
X86211682Y-66233891D01*
X86211681Y-66233891D01*
X86049278Y-66306197D01*
X86049276Y-66306198D01*
X86043248Y-66308882D01*
X85888747Y-66421134D01*
X85760960Y-66563056D01*
X85665473Y-66728444D01*
X85606458Y-66910072D01*
X85586496Y-67100000D01*
X67508500Y-67100000D01*
X67508500Y-60944906D01*
X73614839Y-60944906D01*
X73623553Y-60956427D01*
X73730452Y-61034809D01*
X73738351Y-61039745D01*
X73967905Y-61160519D01*
X73976454Y-61164236D01*
X74221327Y-61249749D01*
X74230336Y-61252163D01*
X74485166Y-61300544D01*
X74494423Y-61301598D01*
X74753607Y-61311783D01*
X74762921Y-61311457D01*
X75020753Y-61283220D01*
X75029930Y-61281519D01*
X75280758Y-61215481D01*
X75289574Y-61212445D01*
X75527880Y-61110062D01*
X75536167Y-61105748D01*
X75756718Y-60969266D01*
X75764268Y-60963780D01*
X75769559Y-60959301D01*
X75777997Y-60946497D01*
X75771935Y-60936145D01*
X74707812Y-59872022D01*
X74693868Y-59864408D01*
X74692035Y-59864539D01*
X74685420Y-59868790D01*
X73621497Y-60932713D01*
X73614839Y-60944906D01*
X67508500Y-60944906D01*
X67508500Y-59457211D01*
X72882775Y-59457211D01*
X72895220Y-59716288D01*
X72896356Y-59725543D01*
X72946961Y-59979945D01*
X72949449Y-59988917D01*
X73037095Y-60233033D01*
X73040895Y-60241568D01*
X73163658Y-60470042D01*
X73168666Y-60477904D01*
X73238720Y-60571716D01*
X73249979Y-60580165D01*
X73262397Y-60573393D01*
X74322978Y-59512812D01*
X74329356Y-59501132D01*
X75059408Y-59501132D01*
X75059539Y-59502965D01*
X75063790Y-59509580D01*
X76131094Y-60576884D01*
X76143474Y-60583644D01*
X76151815Y-60577400D01*
X76285832Y-60369048D01*
X76290275Y-60360864D01*
X76396807Y-60124370D01*
X76399997Y-60115605D01*
X76470402Y-59865972D01*
X76472262Y-59856830D01*
X76505187Y-59598019D01*
X76505668Y-59591733D01*
X76507987Y-59503160D01*
X76507836Y-59496851D01*
X76488501Y-59236663D01*
X76487125Y-59227457D01*
X76429878Y-58974467D01*
X76427154Y-58965556D01*
X76333143Y-58723806D01*
X76329132Y-58715397D01*
X76200422Y-58490202D01*
X76195211Y-58482476D01*
X76151996Y-58427658D01*
X76140071Y-58419187D01*
X76128537Y-58425673D01*
X75067022Y-59487188D01*
X75059408Y-59501132D01*
X74329356Y-59501132D01*
X74330592Y-59498868D01*
X74330461Y-59497035D01*
X74326210Y-59490420D01*
X73260816Y-58425026D01*
X73247507Y-58417758D01*
X73237472Y-58424878D01*
X73221937Y-58443556D01*
X73216531Y-58451135D01*
X73081965Y-58672891D01*
X73077736Y-58681192D01*
X72977432Y-58920389D01*
X72974471Y-58929239D01*
X72910628Y-59180625D01*
X72909006Y-59189822D01*
X72883020Y-59447885D01*
X72882775Y-59457211D01*
X67508500Y-59457211D01*
X67508500Y-58052689D01*
X73612102Y-58052689D01*
X73616675Y-58062465D01*
X74682188Y-59127978D01*
X74696132Y-59135592D01*
X74697965Y-59135461D01*
X74704580Y-59131210D01*
X75769349Y-58066441D01*
X75775733Y-58054751D01*
X75766321Y-58042641D01*
X75619045Y-57940471D01*
X75611010Y-57935738D01*
X75378376Y-57821016D01*
X75369743Y-57817528D01*
X75122703Y-57738450D01*
X75113643Y-57736274D01*
X74857630Y-57694580D01*
X74848343Y-57693768D01*
X74588992Y-57690373D01*
X74579681Y-57690943D01*
X74322682Y-57725919D01*
X74313546Y-57727860D01*
X74064543Y-57800439D01*
X74055800Y-57803707D01*
X73820252Y-57912296D01*
X73812097Y-57916816D01*
X73621240Y-58041947D01*
X73612102Y-58052689D01*
X67508500Y-58052689D01*
X67508500Y-55848134D01*
X72886500Y-55848134D01*
X72893255Y-55910316D01*
X72944385Y-56046705D01*
X73031739Y-56163261D01*
X73148295Y-56250615D01*
X73284684Y-56301745D01*
X73346866Y-56308500D01*
X76043134Y-56308500D01*
X76105316Y-56301745D01*
X76241705Y-56250615D01*
X76358261Y-56163261D01*
X76445615Y-56046705D01*
X76496745Y-55910316D01*
X76503500Y-55848134D01*
X76503500Y-53151866D01*
X76496745Y-53089684D01*
X76445615Y-52953295D01*
X76358261Y-52836739D01*
X76241705Y-52749385D01*
X76105316Y-52698255D01*
X76043134Y-52691500D01*
X73346866Y-52691500D01*
X73284684Y-52698255D01*
X73148295Y-52749385D01*
X73031739Y-52836739D01*
X72944385Y-52953295D01*
X72893255Y-53089684D01*
X72886500Y-53151866D01*
X72886500Y-55848134D01*
X67508500Y-55848134D01*
X67508500Y-46132703D01*
X68890743Y-46132703D01*
X68928268Y-46417734D01*
X69004129Y-46695036D01*
X69116923Y-46959476D01*
X69264561Y-47206161D01*
X69444313Y-47430528D01*
X69652851Y-47628423D01*
X69886317Y-47796186D01*
X69890112Y-47798195D01*
X69890113Y-47798196D01*
X69911869Y-47809715D01*
X70140392Y-47930712D01*
X70410373Y-48029511D01*
X70691264Y-48090755D01*
X70719841Y-48093004D01*
X70914282Y-48108307D01*
X70914291Y-48108307D01*
X70916739Y-48108500D01*
X71072271Y-48108500D01*
X71074407Y-48108354D01*
X71074418Y-48108354D01*
X71282548Y-48094165D01*
X71282554Y-48094164D01*
X71286825Y-48093873D01*
X71291020Y-48093004D01*
X71291022Y-48093004D01*
X71427584Y-48064723D01*
X71568342Y-48035574D01*
X71839343Y-47939607D01*
X72094812Y-47807750D01*
X72098313Y-47805289D01*
X72098317Y-47805287D01*
X72212417Y-47725096D01*
X72330023Y-47642441D01*
X72540622Y-47446740D01*
X72722713Y-47224268D01*
X72872927Y-46979142D01*
X72988483Y-46715898D01*
X73067244Y-46439406D01*
X73107751Y-46154784D01*
X73107845Y-46136951D01*
X73107867Y-46132703D01*
X126890743Y-46132703D01*
X126928268Y-46417734D01*
X127004129Y-46695036D01*
X127116923Y-46959476D01*
X127264561Y-47206161D01*
X127444313Y-47430528D01*
X127652851Y-47628423D01*
X127886317Y-47796186D01*
X127890112Y-47798195D01*
X127890113Y-47798196D01*
X127911869Y-47809715D01*
X128140392Y-47930712D01*
X128410373Y-48029511D01*
X128691264Y-48090755D01*
X128719841Y-48093004D01*
X128914282Y-48108307D01*
X128914291Y-48108307D01*
X128916739Y-48108500D01*
X129072271Y-48108500D01*
X129074407Y-48108354D01*
X129074418Y-48108354D01*
X129282548Y-48094165D01*
X129282554Y-48094164D01*
X129286825Y-48093873D01*
X129291020Y-48093004D01*
X129291022Y-48093004D01*
X129427584Y-48064723D01*
X129568342Y-48035574D01*
X129839343Y-47939607D01*
X130094812Y-47807750D01*
X130098313Y-47805289D01*
X130098317Y-47805287D01*
X130212417Y-47725096D01*
X130330023Y-47642441D01*
X130540622Y-47446740D01*
X130722713Y-47224268D01*
X130872927Y-46979142D01*
X130988483Y-46715898D01*
X131067244Y-46439406D01*
X131107751Y-46154784D01*
X131107845Y-46136951D01*
X131109235Y-45871583D01*
X131109235Y-45871576D01*
X131109257Y-45867297D01*
X131071732Y-45582266D01*
X130995871Y-45304964D01*
X130883077Y-45040524D01*
X130735439Y-44793839D01*
X130555687Y-44569472D01*
X130347149Y-44371577D01*
X130113683Y-44203814D01*
X130091843Y-44192250D01*
X130068654Y-44179972D01*
X129859608Y-44069288D01*
X129589627Y-43970489D01*
X129308736Y-43909245D01*
X129277685Y-43906801D01*
X129085718Y-43891693D01*
X129085709Y-43891693D01*
X129083261Y-43891500D01*
X128927729Y-43891500D01*
X128925593Y-43891646D01*
X128925582Y-43891646D01*
X128717452Y-43905835D01*
X128717446Y-43905836D01*
X128713175Y-43906127D01*
X128708980Y-43906996D01*
X128708978Y-43906996D01*
X128572417Y-43935276D01*
X128431658Y-43964426D01*
X128160657Y-44060393D01*
X127905188Y-44192250D01*
X127901687Y-44194711D01*
X127901683Y-44194713D01*
X127891594Y-44201804D01*
X127669977Y-44357559D01*
X127459378Y-44553260D01*
X127277287Y-44775732D01*
X127127073Y-45020858D01*
X127011517Y-45284102D01*
X126932756Y-45560594D01*
X126892249Y-45845216D01*
X126892227Y-45849505D01*
X126892226Y-45849512D01*
X126891263Y-46033421D01*
X126890743Y-46132703D01*
X73107867Y-46132703D01*
X73109235Y-45871583D01*
X73109235Y-45871576D01*
X73109257Y-45867297D01*
X73071732Y-45582266D01*
X72995871Y-45304964D01*
X72883077Y-45040524D01*
X72735439Y-44793839D01*
X72555687Y-44569472D01*
X72347149Y-44371577D01*
X72113683Y-44203814D01*
X72091843Y-44192250D01*
X72068654Y-44179972D01*
X71859608Y-44069288D01*
X71589627Y-43970489D01*
X71308736Y-43909245D01*
X71277685Y-43906801D01*
X71085718Y-43891693D01*
X71085709Y-43891693D01*
X71083261Y-43891500D01*
X70927729Y-43891500D01*
X70925593Y-43891646D01*
X70925582Y-43891646D01*
X70717452Y-43905835D01*
X70717446Y-43905836D01*
X70713175Y-43906127D01*
X70708980Y-43906996D01*
X70708978Y-43906996D01*
X70572417Y-43935276D01*
X70431658Y-43964426D01*
X70160657Y-44060393D01*
X69905188Y-44192250D01*
X69901687Y-44194711D01*
X69901683Y-44194713D01*
X69891594Y-44201804D01*
X69669977Y-44357559D01*
X69459378Y-44553260D01*
X69277287Y-44775732D01*
X69127073Y-45020858D01*
X69011517Y-45284102D01*
X68932756Y-45560594D01*
X68892249Y-45845216D01*
X68892227Y-45849505D01*
X68892226Y-45849512D01*
X68891263Y-46033421D01*
X68890743Y-46132703D01*
X67508500Y-46132703D01*
X67508500Y-46053250D01*
X67510246Y-46032345D01*
X67512770Y-46017344D01*
X67512770Y-46017341D01*
X67513576Y-46012552D01*
X67513729Y-46000000D01*
X67513040Y-45995185D01*
X67513039Y-45995177D01*
X67511550Y-45984781D01*
X67510429Y-45960735D01*
X67515020Y-45867297D01*
X67525010Y-45663949D01*
X67526221Y-45651650D01*
X67537128Y-45578124D01*
X67574680Y-45324966D01*
X67577091Y-45312841D01*
X67578028Y-45309103D01*
X67601258Y-45216361D01*
X67657339Y-44992477D01*
X67660928Y-44980645D01*
X67772190Y-44669689D01*
X67776922Y-44658265D01*
X67911119Y-44374527D01*
X67918128Y-44359708D01*
X67923955Y-44348807D01*
X68093744Y-44065533D01*
X68100614Y-44055252D01*
X68168619Y-43963557D01*
X68297350Y-43789983D01*
X68305177Y-43780444D01*
X68526985Y-43535718D01*
X68535718Y-43526985D01*
X68780444Y-43305177D01*
X68789983Y-43297350D01*
X69055252Y-43100614D01*
X69065533Y-43093744D01*
X69207899Y-43008412D01*
X69348812Y-42923953D01*
X69359708Y-42918128D01*
X69590500Y-42808972D01*
X69658265Y-42776922D01*
X69669689Y-42772190D01*
X69980645Y-42660928D01*
X69992477Y-42657339D01*
X70218804Y-42600646D01*
X70312844Y-42577090D01*
X70324966Y-42574680D01*
X70651655Y-42526221D01*
X70663949Y-42525010D01*
X70957039Y-42510610D01*
X70982598Y-42511958D01*
X70993724Y-42513691D01*
X71025286Y-42509564D01*
X71041621Y-42508500D01*
X128950633Y-42508500D01*
X128970018Y-42510000D01*
G37*
%TD.AperFunction*%
%TD*%
M02*
